<svg width="81" height="90" viewBox="0 0 81 90" fill="none" xmlns="http://www.w3.org/2000/svg">
<path fill-rule="evenodd" clip-rule="evenodd" d="M27.5399 51.397C29.85 49.113 32.1203 46.9413 34.2312 45.2189C35.8433 45.6267 37.5012 45.853 39.1701 45.8929C39.3218 45.9031 39.4742 45.885 39.6185 45.8396C39.7628 45.7943 39.8961 45.7226 40.0109 45.6286C40.1256 45.5347 40.2195 45.4204 40.2871 45.2922C40.3547 45.1641 40.3947 45.0247 40.4048 44.8819C40.4156 44.7412 40.396 44.5998 40.3473 44.4664C40.2986 44.3329 40.2218 44.21 40.1214 44.1051C40.021 44.0002 39.899 43.9155 39.763 43.856C39.6269 43.7964 39.4794 43.7633 39.3294 43.7587C30.3678 42.9724 26.1857 37.7678 26.0662 32.3011C27.3035 32.9156 28.6564 33.2971 30.0491 33.4244C30.6959 33.518 31.354 33.518 32.0008 33.4244C32.6581 33.342 33.3009 33.1783 33.9126 32.9376C35.4531 32.4103 36.8244 31.5209 37.8955 30.3541C37.8955 30.3541 37.8955 30.0545 38.1345 29.9048C38.6304 30.2033 39.1497 30.4662 39.6878 30.6911C41.0611 31.296 42.5047 31.7483 43.9894 32.039C46.8146 32.5338 49.7061 32.597 52.5527 32.2262C52.8928 35.066 52.0688 37.9208 50.2484 40.2095C48.4281 42.4981 45.7483 44.0485 42.7547 44.545C42.4127 44.5826 42.1001 44.745 41.8842 44.997C41.6682 45.2491 41.566 45.5708 41.5996 45.8929C41.6492 46.2175 41.8302 46.5116 42.1047 46.7138C42.3792 46.9161 42.7262 47.011 43.0733 46.9788C45.0097 46.7968 46.89 46.2627 48.6096 45.4061C49.9856 46.7961 51.2253 48.2999 52.3137 49.8993C52.951 50.7979 53.5485 51.6966 54.1459 52.6326C54.7433 53.5687 55.2611 54.5048 55.7789 55.4783C56.3975 56.5941 56.9429 57.7445 57.4119 58.923C58.2483 60.271 60.2796 60.5331 61.116 58.1742C60.7974 55.703 60.3991 56.1523 59.6025 53.9806C59.1644 52.8024 58.618 51.6623 57.9695 50.5733C57.3326 49.4668 56.557 48.4361 55.6594 47.5029C54.2744 46.0808 52.7094 44.8233 50.9994 43.7587C52.8475 42.0786 54.2665 40.0264 55.1495 37.7566C56.0326 35.4867 56.3567 33.0582 56.0975 30.6536C56.0975 26.6814 54.419 22.8719 51.4312 20.0632C48.4434 17.2544 44.3911 15.6764 40.1658 15.6764C35.6345 15.5033 31.2137 17.019 27.8647 19.8938C24.5158 22.7686 22.5096 26.7701 22.2824 31.0281C22.1642 33.8177 22.9502 36.5753 24.5363 38.9356C26.1224 41.2959 28.4338 43.1476 31.1643 44.2454C28.835 45.5267 26.6352 47.0056 24.5925 48.6637C22.7762 50.1423 21.1936 51.857 19.8926 53.7559C18.6107 55.5045 17.9423 57.586 17.9808 59.7094C17.9808 61.4692 20.2909 62.4427 20.6096 61.0199C20.9282 58.4363 21.7646 58.2116 23.4375 56.0399C24.7124 54.422 26.0819 52.872 27.5399 51.397ZM40.1658 19.9824C43.0398 19.8636 45.8574 20.7574 48.0674 22.4887C50.2774 24.22 51.7206 26.6642 52.1146 29.3431C49.6815 29.2493 47.2716 28.8591 44.9453 28.1824C43.7586 27.8236 42.6006 27.3856 41.4802 26.8719C40.3751 26.3709 39.3102 25.7953 38.2938 25.1495C36.5771 24.1081 35.0222 22.848 33.6736 21.4052C35.7139 20.5253 37.922 20.0414 40.1658 19.9824ZM31.0449 22.7532C32.1613 24.8702 33.719 26.7546 35.6252 28.2947C35.6252 28.2947 35.6252 28.2947 35.8244 28.4819C35.3032 28.698 34.7542 28.849 34.1914 28.9312C33.5415 28.97 32.8896 28.97 32.2397 28.9312L30.2881 29.1933C28.9851 29.5243 27.6513 29.7374 26.3052 29.8299C26.8985 27.0006 28.5874 24.479 31.0449 22.7532Z" fill="#0C0F1E"/>
<path fill-rule="evenodd" clip-rule="evenodd" d="M54.8626 66.1495C54.9794 65.9759 55.0415 65.7746 55.0415 65.5691C55.0415 65.3637 54.9794 65.1624 54.8626 64.9888C53.9067 63.5285 51.6763 65.513 49.167 66.0746C46.9267 66.5558 44.6493 66.8688 42.3562 67.0107C36.4955 67.4924 30.5914 66.8686 24.9906 65.176C22.1612 64.371 19.4761 63.172 17.0247 61.6189C14.6639 60.1874 12.5316 58.4477 10.6919 56.4518C7.40868 52.6267 5.23845 48.0656 4.39364 43.2152C3.54884 38.3647 4.05842 33.3911 5.8725 28.7814C7.42919 24.0994 10.0228 19.7802 13.4827 16.1081C16.9426 12.4361 21.1903 9.4943 25.9465 7.4764C28.8688 6.30041 31.9118 5.40959 35.0276 4.81795C38.0174 4.18061 41.0935 3.97856 44.1485 4.21886C52.4978 5.29803 60.0705 9.39483 65.2581 15.639C70.5732 21.9034 73.4662 29.6798 73.4629 37.6929C73.4183 40.7969 73.0041 43.8864 72.2282 46.9038C71.498 49.9064 70.1445 52.7439 68.2453 55.2536C66.4389 57.198 64.4675 59.0012 62.3505 60.6454C60.5603 61.5575 58.8549 62.6096 57.2524 63.7906C57.1379 64.001 57.0879 64.2371 57.1081 64.4727C57.1283 64.7082 57.2178 64.9338 57.3666 65.1242C57.5154 65.3146 57.7177 65.4624 57.9508 65.5509C58.1838 65.6394 58.4385 65.6651 58.6862 65.6253C63.2387 63.465 67.2978 60.4886 70.6351 56.8637C72.8299 54.1328 74.378 50.9922 75.1756 47.6527C76.1089 44.4146 76.6303 41.0839 76.729 37.7303C76.9446 28.9498 73.9344 20.3677 68.2055 13.4298C62.5699 6.29934 54.1674 1.54913 44.8256 0.212462C41.2797 -0.172604 37.6914 -0.0336316 34.1912 0.624335C30.7789 1.27378 27.4435 2.23953 24.2338 3.50744C18.878 5.77371 14.1034 9.0967 10.2343 13.2508C6.36518 17.405 3.49204 22.2931 1.8099 27.5833C-0.101291 32.8315 -0.507468 38.4605 0.632288 43.9033C1.77204 49.3461 4.41748 54.4104 8.30209 58.586C12.7659 62.8201 18.222 66.013 24.2338 67.9093C30.2888 69.3764 36.5619 69.8827 42.7943 69.407C45.2101 69.1982 47.6064 68.8228 49.9636 68.2838C51.6514 67.6891 53.289 66.9757 54.8626 66.1495Z" fill="#0C0F1E"/>
<path fill-rule="evenodd" clip-rule="evenodd" d="M79.995 78.9178C79.5764 77.077 78.6725 75.3645 77.3662 73.9379C75.7332 72.1032 73.5824 70.6429 71.7503 68.9579C69.9181 67.273 68.8029 66.1123 67.2894 64.7643C66.8476 64.3622 66.3676 63.9987 65.8556 63.6785C65.6331 63.4556 65.3349 63.3128 65.0123 63.2748C64.6898 63.2368 64.3632 63.306 64.0892 63.4703C63.8151 63.6347 63.6108 63.8839 63.5115 64.1749C63.4122 64.4659 63.4242 64.7803 63.5454 65.0639C64.1839 65.533 64.759 66.0737 65.2581 66.6739C66.6521 68.0968 67.9665 69.6694 69.241 71.0922C70.5156 72.515 72.7859 74.3123 74.2595 76.147C75.0702 77.158 75.6037 78.341 75.8129 79.5917C75.8767 80.6749 75.5815 81.7499 74.968 82.6687C74.3545 83.5875 73.4529 84.3047 72.3876 84.7214C71.4196 85.3512 70.2832 85.7131 69.1074 85.766C67.9316 85.819 66.7636 85.5609 65.7361 85.021C64.8728 84.4028 64.1082 83.6715 63.4658 82.8493C62.398 81.3651 61.4399 79.8138 60.5981 78.2064C59.1642 75.6602 57.7304 73.1141 56.6151 70.4557C56.0177 69.1826 56.177 69.5945 55.6194 68.284C55.0618 66.9735 52.9907 68.284 53.4288 69.2575C54.0262 71.0173 53.9067 71.0922 54.5838 72.8146C55.4999 75.136 56.4957 77.4201 57.571 79.7041C58.3438 81.5082 59.2488 83.2597 60.2794 84.9461C61.0942 86.2009 62.1315 87.3153 63.3463 88.2411C65.0383 89.2665 67.0088 89.8118 69.022 89.8118C71.0351 89.8118 73.0056 89.2665 74.6977 88.2411C76.5034 87.3991 77.9845 86.0481 78.9341 84.3767C79.8838 82.7053 80.2547 80.7969 79.995 78.9178Z" fill="#0C0F1E"/>
<path fill-rule="evenodd" clip-rule="evenodd" d="M41.2012 50.4985C41.2122 50.3546 41.1914 50.2102 41.1403 50.0742C41.0892 49.9383 41.0088 49.8137 40.9041 49.7082C40.7994 49.6028 40.6728 49.5188 40.532 49.4615C40.3912 49.4042 40.2394 49.3748 40.086 49.3752C39.9343 49.3702 39.783 49.3933 39.6408 49.4433C39.4986 49.4933 39.3683 49.5692 39.2574 49.6665C39.1464 49.7639 39.0569 49.8809 38.9941 50.0108C38.9312 50.1407 38.8962 50.281 38.8911 50.4236C38.5326 51.7715 38.0945 53.0446 37.8555 54.4674C37.6671 55.6088 37.6671 56.7708 37.8555 57.9122C38.0547 59.2976 38.3733 60.6081 38.692 61.956C38.692 62.2837 38.8304 62.598 39.0769 62.8297C39.3234 63.0615 39.6577 63.1916 40.0063 63.1916C40.3549 63.1916 40.6892 63.0615 40.9357 62.8297C41.1822 62.598 41.3207 62.2837 41.3207 61.956C41.3207 60.6081 41.8385 59.335 41.9978 57.9871C42.0361 57.4135 42.0361 56.8382 41.9978 56.2647C42.0375 55.7037 42.0375 55.1408 41.9978 54.5798C41.8783 53.1195 41.48 51.8464 41.2012 50.4985Z" fill="#0C0F1E"/>
</svg>
