<svg width="60" height="68" viewBox="0 0 60 68" fill="none" xmlns="http://www.w3.org/2000/svg">
<path fill-rule="evenodd" clip-rule="evenodd" d="M20.5913 38.5478C22.3185 36.8347 24.016 35.206 25.5943 33.9142C26.7997 34.22 28.0393 34.3897 29.2871 34.4197C29.4005 34.4273 29.5145 34.4137 29.6224 34.3797C29.7303 34.3457 29.83 34.2919 29.9158 34.2215C30.0015 34.151 30.0717 34.0653 30.1223 33.9692C30.1728 33.8731 30.2027 33.7685 30.2103 33.6615C30.2183 33.5559 30.2037 33.4499 30.1673 33.3498C30.1309 33.2497 30.0734 33.1575 29.9984 33.0789C29.9233 33.0002 29.8321 32.9366 29.7304 32.892C29.6286 32.8473 29.5184 32.8225 29.4062 32.819C22.7057 32.2293 19.5788 28.3258 19.4894 24.2258C20.4145 24.6867 21.4261 24.9729 22.4674 25.0683C22.951 25.1385 23.4431 25.1385 23.9267 25.0683C24.4181 25.0065 24.8987 24.8838 25.3561 24.7032C26.508 24.3078 27.5332 23.6407 28.3341 22.7656C28.3341 22.7656 28.3341 22.5409 28.5128 22.4286C28.8836 22.6525 29.2718 22.8496 29.6742 23.0183C30.701 23.472 31.7804 23.8113 32.8905 24.0293C35.0028 24.4004 37.1648 24.4478 39.2932 24.1697C39.5475 26.2995 38.9313 28.4406 37.5703 30.1571C36.2092 31.8736 34.2056 33.0364 31.9673 33.4087C31.7116 33.437 31.4779 33.5587 31.3164 33.7478C31.1549 33.9368 31.0785 34.1781 31.1037 34.4197C31.1407 34.6631 31.276 34.8837 31.4813 35.0354C31.6866 35.1871 31.946 35.2583 32.2055 35.2341C33.6533 35.0976 35.0592 34.697 36.345 34.0546C37.3737 35.0971 38.3007 36.2249 39.1145 37.4245C39.591 38.0984 40.0377 38.7724 40.4844 39.4745C40.9311 40.1765 41.3182 40.8786 41.7054 41.6087C42.1679 42.4456 42.5757 43.3084 42.9264 44.1923C43.5517 45.2032 45.0705 45.3998 45.6959 43.6306C45.4577 41.7772 45.1599 42.1142 44.5643 40.4854C44.2367 39.6018 43.8282 38.7467 43.3433 37.93C42.867 37.1001 42.2872 36.327 41.616 35.6272C40.5805 34.5606 39.4104 33.6175 38.1318 32.819C39.5136 31.5589 40.5746 30.0198 41.2348 28.3174C41.895 26.615 42.1374 24.7937 41.9436 22.9902C41.9436 20.0111 40.6886 17.1539 38.4547 15.0474C36.2207 12.9408 33.1908 11.7573 30.0316 11.7573C26.6435 11.6275 23.3381 12.7642 20.8342 14.9203C18.3302 17.0764 16.8302 20.0775 16.6603 23.271C16.5719 25.3633 17.1596 27.4314 18.3455 29.2017C19.5315 30.9719 21.2597 32.3607 23.3013 33.1841C21.5596 34.145 19.9149 35.2542 18.3876 36.4978C17.0295 37.6067 15.8462 38.8927 14.8735 40.3169C13.915 41.6284 13.4152 43.1895 13.4441 44.782C13.4441 46.1019 15.1713 46.832 15.4095 45.7649C15.6478 43.8272 16.2732 43.6587 17.5239 42.03C18.4772 40.8165 19.5012 39.654 20.5913 38.5478ZM30.0316 14.9868C32.1804 14.8977 34.2872 15.568 35.9395 16.8665C37.5919 18.165 38.671 19.9982 38.9656 22.0073C37.1464 21.9369 35.3446 21.6443 33.6052 21.1368C32.7179 20.8677 31.8521 20.5392 31.0143 20.1539C30.1881 19.7782 29.3919 19.3465 28.6319 18.8621C27.3483 18.0811 26.1858 17.136 25.1774 16.0539C26.7029 15.394 28.3539 15.031 30.0316 14.9868ZM23.2119 17.0649C24.0467 18.6526 25.2113 20.066 26.6366 21.221C26.6366 21.221 26.6366 21.221 26.7855 21.3614C26.3959 21.5235 25.9854 21.6368 25.5646 21.6984C25.0786 21.7275 24.5913 21.7275 24.1053 21.6984L22.6461 21.895C21.6718 22.1432 20.6746 22.3031 19.6681 22.3724C20.1117 20.2505 21.3745 18.3592 23.2119 17.0649Z" fill="#0C0F1E"/>
<path fill-rule="evenodd" clip-rule="evenodd" d="M41.0204 49.6121C41.1077 49.4819 41.1541 49.3309 41.1541 49.1768C41.1541 49.0228 41.1077 48.8718 41.0204 48.7416C40.3056 47.6464 38.638 49.1347 36.7618 49.556C35.0867 49.9168 33.3839 50.1516 31.6694 50.258C27.2874 50.6193 22.873 50.1515 18.6853 48.882C16.5698 48.2782 14.5622 47.379 12.7293 46.2142C10.9641 45.1406 9.36978 43.8357 7.99422 42.3388C5.53941 39.47 3.91675 36.0492 3.28509 32.4114C2.65344 28.7735 3.03445 25.0433 4.39082 21.5861C5.55475 18.0745 7.49397 14.8352 10.0809 12.0811C12.6678 9.32705 15.8439 7.12073 19.4 5.6073C21.585 4.72531 23.8602 4.05719 26.1899 3.61346C28.4253 3.13546 30.7253 2.98392 33.0095 3.16414C39.2522 3.97352 44.9143 7.04612 48.793 11.7292C52.767 16.4276 54.9301 22.2598 54.9277 28.2696C54.8943 30.5977 54.5846 32.9148 54.0045 35.1779C53.4585 37.4298 52.4465 39.5579 51.0265 41.4402C49.6759 42.8985 48.2019 44.2509 46.619 45.484C45.2805 46.1681 44.0053 46.9572 42.8072 47.8429C42.7216 48.0007 42.6842 48.1778 42.6993 48.3545C42.7144 48.5311 42.7813 48.7003 42.8926 48.8432C43.0039 48.986 43.1551 49.0968 43.3293 49.1632C43.5036 49.2295 43.694 49.2489 43.8793 49.219C47.2831 47.5987 50.318 45.3664 52.8133 42.6477C54.4543 40.5996 55.6119 38.2442 56.2082 35.7395C56.906 33.3109 57.2959 30.8129 57.3696 28.2977C57.5309 21.7123 55.2802 15.2758 50.9967 10.0724C46.7831 4.7245 40.5006 1.16184 33.5158 0.159346C30.8645 -0.129453 28.1816 -0.0252237 25.5645 0.468251C23.0131 0.955334 20.5193 1.67965 18.1195 2.63058C14.1149 4.33028 10.545 6.82252 7.65211 9.93813C4.75919 13.0537 2.61097 16.7198 1.35325 20.6874C-0.0757347 24.6236 -0.37943 28.8454 0.472757 32.9275C1.32494 37.0096 3.30291 40.8078 6.20741 43.9395C9.54496 47.1151 13.6245 49.5098 18.1195 50.932C22.6467 52.0323 27.3371 52.412 31.997 52.0553C33.8033 51.8987 35.5949 51.6171 37.3574 51.2128C38.6193 50.7668 39.8438 50.2318 41.0204 49.6121Z" fill="#0C0F1E"/>
<path fill-rule="evenodd" clip-rule="evenodd" d="M59.8116 59.1883C59.4987 57.8077 58.8228 56.5234 57.8461 55.4534C56.6251 54.0774 55.017 52.9822 53.6471 51.7185C52.2772 50.4548 51.4434 49.5842 50.3118 48.5732C49.9814 48.2716 49.6225 47.999 49.2397 47.7589C49.0734 47.5917 48.8504 47.4846 48.6092 47.4561C48.368 47.4276 48.1239 47.4795 47.919 47.6027C47.7141 47.726 47.5613 47.9129 47.487 48.1312C47.4128 48.3494 47.4218 48.5852 47.5124 48.7979C47.9898 49.1498 48.4198 49.5553 48.793 50.0054C49.8353 51.0726 50.818 52.252 51.771 53.3191C52.7239 54.3863 54.4214 55.7342 55.5233 57.1102C56.1294 57.8685 56.5283 58.7558 56.6847 59.6938C56.7324 60.5062 56.5117 61.3125 56.053 62.0015C55.5943 62.6906 54.9202 63.2285 54.1236 63.5411C53.3999 64.0134 52.5502 64.2848 51.6711 64.3245C50.7919 64.3642 49.9186 64.1706 49.1503 63.7657C48.5049 63.3021 47.9332 62.7536 47.4529 62.137C46.6545 61.0238 45.9381 59.8604 45.3087 58.6548C44.2366 56.7452 43.1645 54.8356 42.3307 52.8417C41.884 51.887 42.0031 52.1959 41.5862 51.213C41.1693 50.2301 39.6207 51.213 39.9483 51.9431C40.395 53.263 40.3056 53.3191 40.8119 54.6109C41.4968 56.352 42.2414 58.065 43.0454 59.7781C43.6232 61.1311 44.2998 62.4448 45.0705 63.7096C45.6797 64.6507 46.4552 65.4865 47.3635 66.1808C48.6286 66.9499 50.102 67.3589 51.6072 67.3589C53.1124 67.3589 54.5857 66.9499 55.8509 66.1808C57.201 65.5493 58.3084 64.5361 59.0184 63.2825C59.7285 62.029 60.0058 60.5977 59.8116 59.1883Z" fill="#0C0F1E"/>
<path fill-rule="evenodd" clip-rule="evenodd" d="M30.8058 37.8739C30.814 37.766 30.7985 37.6577 30.7603 37.5557C30.722 37.4537 30.6619 37.3602 30.5837 37.2812C30.5054 37.2021 30.4107 37.1391 30.3054 37.0961C30.2002 37.0532 30.0866 37.0311 29.9719 37.0314C29.8585 37.0276 29.7454 37.045 29.6391 37.0825C29.5328 37.12 29.4354 37.1769 29.3524 37.2499C29.2694 37.3229 29.2025 37.4107 29.1555 37.5081C29.1085 37.6055 29.0824 37.7107 29.0785 37.8177C28.8105 38.8286 28.4829 39.7834 28.3043 40.8506C28.1634 41.7066 28.1634 42.5781 28.3043 43.4341C28.4532 44.4732 28.6914 45.456 28.9296 46.467C28.9296 46.7128 29.0332 46.9485 29.2175 47.1223C29.4018 47.2961 29.6517 47.3937 29.9124 47.3937C30.173 47.3937 30.423 47.2961 30.6073 47.1223C30.7916 46.9485 30.8951 46.7128 30.8951 46.467C30.8951 45.456 31.2823 44.5013 31.4014 43.4903C31.43 43.0601 31.43 42.6287 31.4014 42.1985C31.4311 41.7777 31.4311 41.3556 31.4014 40.9348C31.312 39.8396 31.0142 38.8848 30.8058 37.8739Z" fill="#0C0F1E"/>
</svg>
