<svg width="36" height="36" viewBox="0 0 36 36" fill="none" xmlns="http://www.w3.org/2000/svg">
<path fill-rule="evenodd" clip-rule="evenodd" d="M12.2104 20.6019C13.2347 19.6864 14.2413 18.8159 15.1772 18.1255C15.892 18.2889 16.6271 18.3796 17.367 18.3956C17.4343 18.3997 17.5018 18.3925 17.5658 18.3743C17.6298 18.3561 17.6889 18.3274 17.7398 18.2897C17.7907 18.2521 17.8323 18.2062 17.8622 18.1549C17.8922 18.1035 17.91 18.0476 17.9144 17.9904C17.9192 17.934 17.9106 17.8773 17.889 17.8238C17.8674 17.7703 17.8333 17.7211 17.7888 17.679C17.7443 17.637 17.6902 17.603 17.6299 17.5792C17.5695 17.5553 17.5041 17.542 17.4376 17.5402C13.4643 17.225 11.61 15.1388 11.557 12.9475C12.1056 13.1938 12.7055 13.3468 13.323 13.3978C13.6097 13.4353 13.9016 13.4353 14.1883 13.3978C14.4797 13.3648 14.7647 13.2992 15.036 13.2027C15.719 12.9913 16.327 12.6348 16.8019 12.1671C16.8019 12.1671 16.8019 12.047 16.9078 11.987C17.1277 12.1066 17.358 12.212 17.5966 12.3022C18.2054 12.5446 18.8455 12.7259 19.5038 12.8425C20.7564 13.0408 22.0384 13.0661 23.3005 12.9175C23.4513 14.0558 23.086 15.2001 22.2789 16.1175C21.4718 17.0349 20.2836 17.6563 18.9563 17.8553C18.8047 17.8704 18.6661 17.9355 18.5704 18.0365C18.4746 18.1376 18.4293 18.2665 18.4442 18.3956C18.4662 18.5257 18.5464 18.6436 18.6681 18.7247C18.7899 18.8058 18.9437 18.8438 19.0976 18.8309C19.9562 18.7579 20.7898 18.5439 21.5523 18.2005C22.1623 18.7577 22.712 19.3605 23.1946 20.0016C23.4771 20.3618 23.742 20.722 24.0069 21.0972C24.2718 21.4724 24.5014 21.8476 24.731 22.2378C25.0053 22.6851 25.247 23.1462 25.455 23.6186C25.8258 24.1589 26.7265 24.264 27.0973 23.3185C26.956 22.3279 26.7795 22.508 26.4263 21.6375C26.232 21.1652 25.9898 20.7082 25.7022 20.2717C25.4198 19.8282 25.076 19.415 24.678 19.041C24.0639 18.4709 23.37 17.9669 22.6118 17.5402C23.4313 16.8667 24.0604 16.0441 24.4519 15.1343C24.8434 14.2244 24.9871 13.251 24.8722 12.2871C24.8722 10.6949 24.128 9.16793 22.8033 8.04207C21.4786 6.91621 19.6819 6.2837 17.8085 6.2837C15.7994 6.21431 13.8393 6.82184 12.3545 7.97417C10.8696 9.12651 9.98014 10.7305 9.8794 12.4372C9.827 13.5554 10.1755 14.6608 10.8787 15.6069C11.582 16.553 12.6068 17.2952 13.8175 17.7353C12.7847 18.2488 11.8093 18.8417 10.9036 19.5063C10.0983 20.0989 9.39665 20.7863 8.81984 21.5474C8.25146 22.2483 7.95509 23.0827 7.97219 23.9338C7.97219 24.6392 8.99643 25.0294 9.13771 24.4591C9.27898 23.4235 9.64983 23.3335 10.3915 22.463C10.9568 21.8145 11.564 21.1931 12.2104 20.6019ZM17.8085 8.00969C19.0827 7.9621 20.332 8.32034 21.3119 9.01431C22.2917 9.70828 22.9316 10.688 23.1063 11.7618C22.0275 11.7242 20.959 11.5678 19.9276 11.2966C19.4014 11.1528 18.888 10.9772 18.3912 10.7713C17.9013 10.5705 17.4291 10.3397 16.9785 10.0809C16.2173 9.66345 15.5279 9.15836 14.93 8.58002C15.8346 8.22732 16.8136 8.03334 17.8085 8.00969ZM13.7645 9.12033C14.2595 9.9689 14.9501 10.7243 15.7953 11.3416C15.7953 11.3416 15.7953 11.3416 15.8836 11.4166C15.6525 11.5033 15.4091 11.5638 15.1596 11.5967C14.8714 11.6123 14.5824 11.6123 14.2943 11.5967L13.4289 11.7018C12.8512 11.8345 12.2599 11.9199 11.663 11.957C11.9261 10.8229 12.6749 9.81211 13.7645 9.12033Z" fill="#0C0F1E"/>
<path fill-rule="evenodd" clip-rule="evenodd" d="M24.3248 26.5153C24.3766 26.4457 24.4041 26.365 24.4041 26.2827C24.4041 26.2003 24.3766 26.1196 24.3248 26.05C23.901 25.4647 22.912 26.2602 21.7995 26.4853C20.8062 26.6781 19.7964 26.8036 18.7797 26.8605C16.1812 27.0536 13.5635 26.8036 11.0802 26.1251C9.82576 25.8024 8.63526 25.3218 7.54836 24.6993C6.50163 24.1255 5.55622 23.4281 4.74052 22.6281C3.28483 21.0948 2.3226 19.2666 1.94804 17.3223C1.57347 15.3781 1.79941 13.3845 2.60373 11.5367C3.29393 9.65996 4.44388 7.92868 5.97791 6.45677C7.51195 4.98486 9.3953 3.80569 11.5041 2.99683C12.7997 2.52545 14.1489 2.16838 15.5304 1.93122C16.856 1.67575 18.2199 1.59476 19.5744 1.69108C23.2763 2.12366 26.6339 3.76581 28.9339 6.26871C31.2905 8.77975 32.5732 11.8968 32.5717 15.1088C32.5519 16.353 32.3683 17.5914 32.0243 18.8009C31.7005 20.0044 31.1004 21.1418 30.2584 22.1478C29.4575 22.9272 28.5834 23.65 27.6448 24.309C26.851 24.6746 26.0949 25.0964 25.3844 25.5698C25.3336 25.6541 25.3115 25.7487 25.3204 25.8432C25.3293 25.9376 25.369 26.028 25.435 26.1043C25.501 26.1807 25.5907 26.2399 25.694 26.2753C25.7973 26.3108 25.9102 26.3212 26.0201 26.3052C28.0385 25.4392 29.8383 24.2462 31.3179 22.7932C32.2911 21.6985 32.9775 20.4397 33.3311 19.1011C33.7449 17.8031 33.9761 16.468 34.0198 15.1238C34.1154 11.6042 32.7808 8.16416 30.2407 5.3832C27.742 2.52502 24.0166 0.62095 19.8746 0.085163C18.3024 -0.0691863 16.7115 -0.0134808 15.1596 0.250258C13.6466 0.51058 12.1678 0.897693 10.7447 1.40592C8.37005 2.31433 6.25313 3.64631 4.53765 5.31146C2.82217 6.9766 1.54829 8.93593 0.802468 11.0564C-0.0449102 13.1601 -0.224999 15.4165 0.280342 17.5982C0.785683 19.7798 1.95861 21.8098 3.68095 23.4836C5.6601 25.1807 8.07922 26.4606 10.7447 27.2207C13.4294 27.8088 16.2107 28.0117 18.974 27.8211C20.0451 27.7374 21.1075 27.5869 22.1527 27.3708C22.901 27.1324 23.6271 26.8465 24.3248 26.5153Z" fill="#0C0F1E"/>
<path fill-rule="evenodd" clip-rule="evenodd" d="M35.4679 31.6332C35.2823 30.8953 34.8815 30.2089 34.3024 29.6371C33.5783 28.9016 32.6247 28.3163 31.8124 27.6409C31.0001 26.9655 30.5056 26.5003 29.8345 25.96C29.6386 25.7988 29.4258 25.6531 29.1988 25.5247C29.1002 25.4354 28.9679 25.3781 28.8249 25.3629C28.6819 25.3477 28.5371 25.3754 28.4156 25.4413C28.2941 25.5071 28.2035 25.607 28.1595 25.7237C28.1155 25.8403 28.1208 25.9664 28.1745 26.08C28.4576 26.2681 28.7126 26.4848 28.9339 26.7254C29.552 27.2957 30.1347 27.9261 30.6998 28.4964C31.2649 29.0667 32.2715 29.7872 32.9249 30.5226C33.2844 30.9278 33.5209 31.402 33.6136 31.9034C33.6419 32.3375 33.5111 32.7685 33.2391 33.1367C32.967 33.505 32.5673 33.7925 32.0949 33.9595C31.6658 34.212 31.1619 34.357 30.6406 34.3783C30.1193 34.3995 29.6014 34.296 29.1458 34.0796C28.7631 33.8318 28.4241 33.5387 28.1392 33.2091C27.6658 32.6142 27.241 31.9924 26.8677 31.348C26.232 30.3275 25.5963 29.3069 25.1018 28.2413C24.8369 27.731 24.9076 27.8961 24.6603 27.3708C24.4131 26.8455 23.4948 27.3708 23.6891 27.761C23.9539 28.4664 23.901 28.4964 24.2012 29.1868C24.6073 30.1173 25.0488 31.0329 25.5256 31.9484C25.8683 32.6716 26.2695 33.3736 26.7265 34.0496C27.0877 34.5526 27.5476 34.9993 28.0862 35.3703C28.8365 35.7814 29.7101 36 30.6027 36C31.4953 36 32.369 35.7814 33.1192 35.3703C33.9198 35.0329 34.5765 34.4913 34.9975 33.8214C35.4186 33.1514 35.583 32.3864 35.4679 31.6332Z" fill="#0C0F1E"/>
<path fill-rule="evenodd" clip-rule="evenodd" d="M18.2676 20.2417C18.2725 20.184 18.2633 20.1261 18.2406 20.0716C18.218 20.0171 18.1823 19.9672 18.1359 19.9249C18.0895 19.8827 18.0333 19.849 17.9709 19.826C17.9085 19.8031 17.8412 19.7913 17.7732 19.7914C17.7059 19.7894 17.6388 19.7987 17.5758 19.8188C17.5128 19.8388 17.455 19.8692 17.4058 19.9082C17.3566 19.9473 17.3169 19.9941 17.289 20.0462C17.2612 20.0983 17.2457 20.1545 17.2434 20.2117C17.0844 20.752 16.8902 21.2623 16.7842 21.8326C16.7007 22.2901 16.7007 22.7559 16.7842 23.2134C16.8725 23.7687 17.0138 24.294 17.1551 24.8343C17.1551 24.9657 17.2165 25.0917 17.3258 25.1845C17.4351 25.2774 17.5833 25.3296 17.7378 25.3296C17.8924 25.3296 18.0406 25.2774 18.1499 25.1845C18.2592 25.0917 18.3206 24.9657 18.3206 24.8343C18.3206 24.294 18.5502 23.7837 18.6208 23.2434C18.6378 23.0135 18.6378 22.7829 18.6208 22.553C18.6384 22.3281 18.6384 22.1025 18.6208 21.8776C18.5678 21.2923 18.3912 20.782 18.2676 20.2417Z" fill="#0C0F1E"/>
</svg>
