<svg width="303" height="121" viewBox="0 0 303 121" fill="none" xmlns="http://www.w3.org/2000/svg">
<path d="M10.586 99.097C9.90802 99.2375 9.29058 99.2242 8.73366 99.0572C8.17707 98.8669 7.7273 98.5446 7.38434 98.0903C7.06505 97.6118 6.91086 96.9993 6.92178 96.2527C6.86206 95.5553 6.95545 94.7475 7.20195 93.8294C7.44879 92.8879 7.80057 91.9428 8.25728 90.994C8.73731 90.0444 9.25044 89.2218 9.79667 88.5264C10.2712 87.95 10.7451 87.4204 11.2183 86.9373C11.6915 86.4543 12.1159 86.1246 12.4914 85.9482C12.8199 85.7967 13.1242 85.7044 13.4044 85.6712C13.7082 85.6139 13.9534 85.5819 14.14 85.5754C14.5117 85.6556 14.9056 85.8166 15.3215 86.0585C15.7612 86.2762 15.979 86.5251 15.9749 86.8051C15.9749 86.8051 15.9977 86.8392 16.0433 86.9076C16.1126 86.9518 16.1472 86.9739 16.1472 86.9739C16.2871 86.969 16.4015 87.1165 16.4903 87.4165C16.6025 87.7158 16.6673 88.0633 16.6849 88.4591C16.7027 88.8315 16.6398 89.1485 16.4961 89.4101C16.3964 89.8567 16.2275 90.2474 15.9895 90.5822C15.7516 90.917 15.5393 91.0877 15.3528 91.0943C15.2595 91.0976 15.166 91.1125 15.0724 91.1391C15.0025 91.1416 14.9666 91.2011 14.9649 91.3178C14.9632 91.4344 14.8926 91.4836 14.753 91.4652C14.6368 91.4459 14.5095 91.3804 14.3713 91.2687C14.2335 91.1336 14.1309 90.974 14.0637 90.7898C14.0654 90.6732 14.1149 90.4732 14.2123 90.19C14.3097 89.9067 14.4082 89.5418 14.508 89.0953C14.6575 88.4371 14.652 88.0175 14.4915 87.8366C14.3313 87.6324 14.0167 87.6318 13.5475 87.8348C12.9598 88.182 12.3935 88.6566 11.8486 89.2587C11.3271 89.86 10.8379 90.6351 10.3812 91.5839C9.92486 92.5094 9.51172 93.6665 9.1418 95.0554C8.99404 95.5969 8.92891 96.0655 8.94643 96.4614C8.98727 96.8563 9.04249 97.0643 9.11211 97.0851C9.43721 97.167 9.87993 97.1747 10.4403 97.1084C11.0009 97.0187 11.4106 96.8994 11.6691 96.7504C12.0449 96.5506 12.4683 96.2909 12.9391 95.9712C13.4102 95.6281 13.8226 95.3222 14.1761 95.0532C14.2937 94.9791 14.4354 94.8576 14.601 94.6885C14.7666 94.5194 14.9434 94.385 15.1313 94.2851C15.3219 93.9986 15.4876 93.8295 15.6282 93.7779C15.7688 93.7263 15.979 93.6956 16.2588 93.6858C16.4447 93.7259 16.6185 93.7897 16.7804 93.8773C16.9423 93.9649 17.0458 94.0545 17.0911 94.1462C17.1597 94.2371 17.1235 94.32 16.9826 94.3949C16.8893 94.3982 16.8305 94.4352 16.8062 94.506C16.8055 94.5527 16.8051 94.576 16.8051 94.576C16.8504 94.6677 16.7426 94.8697 16.4816 95.182C16.2443 95.4702 15.9366 95.7958 15.5584 96.1589C15.1801 96.522 14.8143 96.838 14.4607 97.1069C14.1309 97.3517 13.896 97.4766 13.756 97.4815C13.5229 97.4897 13.4052 97.5638 13.4032 97.7038C13.4025 97.7504 13.2259 97.8732 12.8734 98.0722C12.5442 98.2703 12.1567 98.4705 11.7109 98.6727C11.2884 98.8741 10.9135 99.0156 10.586 99.097ZM28.1748 97.5691C27.8727 97.5098 27.6064 97.3909 27.376 97.2125C27.1458 97.0107 26.9864 96.7598 26.8975 96.4598C26.8087 96.1597 26.8131 95.8564 26.9108 95.5499C27.0332 95.1491 27.1438 94.7605 27.2425 94.3839C27.3649 93.9832 27.4522 93.5954 27.5043 93.2204C27.5307 93.0096 27.6167 92.7035 27.7624 92.3019C27.9318 91.8762 28.1017 91.4155 28.2721 90.9198C28.4425 90.4242 28.5308 89.9663 28.5369 89.5464C28.541 89.2664 28.5096 89.0227 28.4427 88.8151C28.3762 88.5843 28.2388 88.4142 28.0307 88.305C27.5917 88.0406 27.1395 87.8816 26.6742 87.828C26.2321 87.7736 25.767 87.7083 25.2786 87.6322C25.2323 87.6105 25.0691 87.6163 24.7889 87.6494C24.5321 87.6818 24.3106 87.6896 24.1243 87.6728C24.0506 87.9319 23.9769 88.191 23.9032 88.4501C23.8295 88.7092 23.7674 88.9679 23.7171 89.2262C23.6197 89.5094 23.51 89.8397 23.3879 90.2171C23.2659 90.5945 23.1556 90.9598 23.0572 91.3131C22.9088 91.9013 22.7975 92.3366 22.7235 92.619C22.6494 92.9014 22.5637 93.1843 22.4664 93.4675C22.3923 93.75 22.2577 94.1861 22.0627 94.7759C21.9893 95.0117 21.9277 95.2354 21.878 95.447C21.8283 95.6586 21.7436 95.8715 21.624 96.0855C21.576 96.1805 21.5515 96.263 21.5504 96.333C21.5498 96.3796 21.5486 96.4613 21.5469 96.5779C21.5445 96.7413 21.4956 96.8946 21.4003 97.0378C21.3286 97.1569 21.2338 97.2652 21.1159 97.3626C21.0216 97.4359 20.9041 97.4983 20.7635 97.5499C20.6229 97.6015 20.4938 97.6643 20.3762 97.7384C20.1457 97.56 19.9851 97.3907 19.8942 97.2307C19.8033 97.0707 19.6663 96.8773 19.4831 96.6505C19.6316 96.0623 19.768 95.4979 19.8925 94.9572C20.0402 94.4156 20.1635 93.9566 20.2622 93.58C20.3846 93.1793 20.4815 92.931 20.5528 92.8352C20.6714 92.6912 20.7453 92.4204 20.7744 92.023C20.8269 91.6247 20.9374 91.236 21.1061 90.857C21.0866 90.6012 21.125 90.3667 21.2213 90.1534C21.318 89.9168 21.4147 89.6802 21.5114 89.4436C21.6807 89.0179 21.7803 88.583 21.8101 88.1389C21.8636 87.6707 21.9402 87.2133 22.04 86.7667C22.2992 86.571 22.499 86.4591 22.6392 86.4308C22.7798 86.3792 23.0019 86.3365 23.3053 86.3025C23.3297 86.2316 23.354 86.1608 23.3784 86.09C23.4031 85.9959 23.4276 85.9134 23.4519 85.8426C23.8288 85.5728 24.3203 85.4273 24.9266 85.406C25.5329 85.3847 26.0331 85.4487 26.4271 85.5981C26.4967 85.6189 26.5549 85.6285 26.6015 85.6269C26.6481 85.6253 26.7179 85.6345 26.8109 85.6545C27.0437 85.6697 27.3223 85.7415 27.6468 85.87C27.9715 85.9752 28.2841 86.1157 28.5845 86.2917C28.8849 86.4677 29.1156 86.6345 29.2764 86.7921C29.7596 87.2181 30.0787 87.7083 30.2338 88.2625C30.4121 88.8159 30.4971 89.3842 30.4885 89.9675C30.4533 90.7849 30.3016 91.5947 30.0335 92.397C29.7657 93.1759 29.5583 93.8128 29.4112 94.3077C29.3368 94.6134 29.2864 94.8717 29.26 95.0825C29.2569 95.2925 29.3007 95.4891 29.3912 95.6725C29.4818 95.8559 29.607 96.0613 29.7668 96.2889C29.7417 96.4064 29.6459 96.5847 29.4793 96.8237C29.3363 97.0386 29.1715 97.1493 28.985 97.1559C28.8217 97.1616 28.681 97.2249 28.5627 97.3456C28.468 97.4422 28.3387 97.5167 28.1748 97.5691ZM32.0656 106.527C31.9034 106.462 31.7302 106.352 31.5461 106.195C31.3619 106.038 31.213 105.857 31.0995 105.651C30.9857 105.469 30.9298 105.307 30.9318 105.167C30.9338 105.027 30.9976 104.652 31.1231 104.041C31.2482 103.454 31.4104 102.725 31.6095 101.856C31.8317 101.008 32.0658 100.137 32.312 99.2425C32.5811 98.3703 32.8489 97.5913 33.1153 96.9057C33.1637 96.7874 33.3209 96.3971 33.5869 95.7349C33.8767 95.0484 34.1568 94.2224 34.4273 93.2568C34.6227 92.6437 34.8776 91.9468 35.192 91.1662C35.5064 90.3856 35.8325 89.6047 36.1702 88.8233C36.5083 88.0185 36.7867 87.3092 37.0054 86.6952C37.2242 86.0812 37.4062 85.5851 37.5516 85.2069C37.7206 84.8045 37.8175 84.5563 37.8422 84.4621C37.8909 84.3205 37.9625 84.2014 38.0572 84.1048C38.1755 83.984 38.2934 83.8866 38.4111 83.8125C38.529 83.7151 38.6231 83.6535 38.6934 83.6277C39.1149 83.4963 39.4738 83.6586 39.7701 84.1145C39.8836 84.3204 39.9034 84.5646 39.8293 84.847C39.7552 85.1294 39.6219 85.4839 39.4292 85.9104L39.1741 86.6189L40.4374 86.2947C40.6473 86.2873 40.9036 86.29 41.2064 86.3026C41.5329 86.2912 41.8477 86.2801 42.1508 86.2694C42.454 86.2588 42.6752 86.2743 42.8144 86.316C43.3737 86.3197 43.7569 86.4112 43.9641 86.5904C44.1945 86.7689 44.3892 87.0069 44.548 87.3044C44.6629 87.417 44.8004 87.5754 44.9605 87.7796C45.121 87.9605 45.2116 88.1439 45.2322 88.3297C45.3197 88.7231 45.3133 89.1547 45.2132 89.6246C45.1368 90.0703 44.9904 90.5185 44.774 90.9692C44.581 91.4191 44.3185 91.8364 43.9866 92.2211C43.6783 92.5818 43.3476 92.8849 42.9944 93.1305C42.7599 93.232 42.5484 93.3444 42.3602 93.4676C42.1723 93.5675 42.0783 93.6174 42.0783 93.6174C42.0533 93.7349 41.7941 93.9305 41.3006 94.2044C40.8075 94.4549 40.2446 94.6963 39.6119 94.9284C38.9792 95.1605 38.4292 95.3197 37.9618 95.4061C37.7982 95.4352 37.5647 95.4667 37.2612 95.5007C36.9577 95.5347 36.725 95.5079 36.5632 95.4203C36.3073 95.3827 36.1328 95.3655 36.0395 95.3688C35.9462 95.3721 35.8989 95.4204 35.8975 95.5137C35.8735 95.5612 35.7031 96.0569 35.3863 97.0008C35.0696 97.9446 34.7389 99.0406 34.3943 100.289C33.9315 101.657 33.5543 102.743 33.2629 103.546C32.9711 104.373 32.7407 104.987 32.5717 105.39C32.426 105.791 32.3171 106.063 32.2451 106.206C32.1728 106.371 32.1129 106.478 32.0656 106.527ZM36.6268 93.4593C36.6947 93.5968 36.9156 93.6357 37.2893 93.5759C37.6868 93.492 38.1552 93.3356 38.6946 93.1068C39.2577 92.8538 39.8094 92.5779 40.3499 92.2791C40.8906 91.9569 41.3381 91.638 41.6924 91.3224C42.2139 90.7211 42.6415 90.1697 42.9751 89.6683C43.3091 89.1436 43.3607 88.8036 43.1299 88.6485C42.8788 88.2842 42.4034 88.1261 41.7035 88.174C41.0035 88.2219 40.1365 88.5439 39.1023 89.1399C38.7038 89.2938 38.3979 89.4911 38.1846 89.7318C37.995 89.9484 37.8278 90.2224 37.6832 90.554C37.5385 90.8855 37.3578 91.2883 37.1411 91.7623C36.9237 92.2829 36.7782 92.6728 36.7044 92.9319C36.6307 93.191 36.6049 93.3668 36.6268 93.4593ZM49.3594 97.5938C49.0562 97.6044 48.8122 97.5547 48.6274 97.4446C48.4659 97.3337 48.2584 97.1778 48.0049 96.9768C47.5687 96.5258 47.2604 96.0935 47.08 95.6801C46.8999 95.2434 46.8478 94.8255 46.9235 94.4264C46.9962 94.2373 47.0221 94.0615 47.0012 93.899C47.0039 93.7124 47.0052 93.6191 47.0052 93.6191C46.8904 93.5065 46.8564 93.4377 46.9034 93.4128C46.9507 93.3645 46.9984 93.2928 47.0464 93.1979C47.1863 93.193 47.2348 93.063 47.1919 92.808C47.148 92.623 47.2473 92.2114 47.4897 91.5733C47.7321 90.9352 48.0323 90.33 48.3902 89.7577C48.5336 89.5195 48.7479 89.2088 49.0331 88.8257C49.3188 88.4192 49.6276 88.0236 49.9595 87.6388C50.3151 87.2299 50.6345 86.9039 50.9177 86.6607C51.5079 86.1503 52.0262 85.7706 52.4726 85.5217C52.9191 85.2728 53.3997 85.081 53.9144 84.9464C54.4291 84.8117 54.7798 84.741 54.9663 84.7345C55.1762 84.7271 55.4533 84.9039 55.7976 85.2649C56.3306 85.4793 56.7112 85.7458 56.9396 86.0642C57.1914 86.3818 57.3476 86.8544 57.4083 87.4818C57.4681 88.1793 57.398 88.9863 57.1981 89.9027C57.0219 90.7951 56.4577 91.9225 55.5055 93.2852C54.9102 94.1456 54.3647 94.7944 53.8689 95.2316C53.3734 95.6454 52.7846 96.0625 52.1025 96.4829C51.6081 96.8268 51.1614 97.0873 50.7626 97.2646C50.3641 97.4185 49.8964 97.5282 49.3594 97.5938ZM52.7716 93.7661C53.3404 93.1165 53.7922 92.506 54.1268 91.9345C54.4848 91.3623 54.8217 90.6392 55.1375 89.7653C55.2345 89.5054 55.2974 89.1884 55.3262 88.8143C55.3553 88.4168 55.3489 88.0556 55.3071 87.7306C55.2889 87.3815 55.2102 87.186 55.0709 87.1443C54.7935 86.9908 54.456 86.956 54.0586 87.04C53.6615 87.1006 53.2269 87.3374 52.7547 87.7504C52.0229 88.3824 51.3822 89.1628 50.8326 90.0916C50.2833 90.997 49.7437 92.0304 49.214 93.1916C48.8519 94.0438 48.7604 94.7233 48.9395 95.23C49.1422 95.7126 49.571 95.8724 50.226 95.7094C50.9046 95.5223 51.7531 94.8746 52.7716 93.7661ZM61.6505 97.5114C61.4887 97.4238 61.3151 97.3366 61.1299 97.2498C60.9681 97.1623 60.8062 97.0747 60.6443 96.9871C60.5058 96.8987 60.3789 96.8099 60.2637 96.7206C59.7805 96.2946 59.461 95.8278 59.3053 95.3202C59.1732 94.7885 59.1341 94.2769 59.1879 93.7853C59.2417 93.2937 59.3178 92.8713 59.4162 92.5181C59.5149 92.1415 59.5653 91.8832 59.5674 91.7432C59.5468 91.5574 59.5843 91.3812 59.68 91.2146C59.776 91.0247 59.872 90.8348 59.968 90.6448C60.3997 89.8135 60.7947 89.1 61.153 88.5045C61.535 87.8847 62.0815 87.166 62.7927 86.3481C62.9343 86.2265 63.0641 86.117 63.1821 86.0196C63.3237 85.898 63.4648 85.8115 63.6054 85.7599L64.4012 86.3265C64.4931 86.4166 64.5497 86.5312 64.571 86.6703C64.5926 86.7862 64.5669 86.9503 64.4938 87.1628C64.4448 87.3277 64.3841 87.4931 64.3118 87.6588C64.2631 87.8005 64.1913 87.9313 64.0963 88.0512C63.6944 88.4384 63.3735 88.8694 63.1334 89.3443C62.8938 89.7957 62.6423 90.2593 62.3789 90.7349C62.3759 90.9449 62.2917 91.1228 62.1264 91.2685C61.9615 91.3909 61.8656 91.5692 61.8389 91.8033C61.8365 91.9666 61.8108 92.1307 61.7618 92.2957C61.7128 92.4606 61.6636 92.6373 61.6142 92.8255C61.4455 93.2046 61.3702 93.5687 61.3884 93.9178C61.4066 94.267 61.413 94.6282 61.4076 95.0015C61.5927 95.0882 61.7551 95.1408 61.8947 95.1592C62.0346 95.1543 62.2229 95.0311 62.4595 94.7896C62.9316 94.3766 63.2632 94.0151 63.4542 93.7053C63.6685 93.3946 63.8362 93.0855 63.9572 92.7781C64.0783 92.4707 64.2466 92.115 64.4623 91.711C64.7013 91.3062 64.9068 90.7976 65.0789 90.1853C65.251 89.5729 65.376 88.9972 65.4538 88.4582C65.5319 87.8958 65.5374 87.5225 65.4702 87.3383C65.4486 87.2225 65.4623 87.0821 65.5113 86.9171C65.5603 86.7522 65.4928 86.5913 65.3086 86.4345C65.4032 86.3379 65.4524 86.1613 65.4562 85.9047C65.4599 85.648 65.4405 85.3806 65.398 85.1022C65.3555 84.8239 65.2884 84.628 65.1968 84.5147C65.1638 83.5831 65.1403 82.8027 65.1262 82.1736C65.1358 81.5203 65.1556 80.96 65.1857 80.4926C65.2396 80.001 65.3045 79.544 65.3806 79.1216C65.4049 79.0507 65.5483 78.8125 65.8106 78.4069C66.0966 77.9771 66.3578 77.6414 66.5944 77.3999C66.996 77.036 67.5362 76.7488 68.2152 76.5384C68.9179 76.3038 69.5137 76.2013 70.0027 76.2307C69.979 76.2549 70.1188 76.2616 70.4219 76.251C70.7484 76.2395 71.11 76.2151 71.5068 76.1778C71.9035 76.1406 72.1954 76.107 72.3823 76.0771C72.5695 76.0239 72.7567 75.9707 72.944 75.9174C73.1312 75.8642 73.4482 75.7015 73.895 75.4293C74.0833 75.3061 74.2354 75.2657 74.3513 75.3083L75.2839 76.08C75.2511 76.7341 75.0807 77.2298 74.7727 77.5671C74.4651 77.881 73.8793 78.0998 73.0151 78.2235C72.8752 78.2284 72.7236 78.2337 72.5604 78.2395C72.3975 78.2219 72.2341 78.2393 72.0702 78.2917C71.9296 78.3433 71.8013 78.3478 71.6854 78.3052C71.5928 78.2618 71.4532 78.2434 71.2667 78.25C71.0102 78.259 70.7415 78.3034 70.4607 78.3833C70.1801 78.4398 69.8888 78.4384 69.5867 78.379C68.7438 78.6419 68.0863 78.9798 67.6141 79.3928C67.1419 79.8058 66.8992 80.4673 66.8859 81.3772C66.9665 82.2371 67.0718 83.003 67.2019 83.6746C67.3552 84.3455 67.4259 85.0892 67.4139 85.9058C67.4575 86.1141 67.5133 86.2871 67.5812 86.4246C67.6491 86.5621 67.6119 86.715 67.4696 86.8832C67.5783 87.4157 67.6289 87.9386 67.6214 88.4519C67.6143 88.9419 67.5388 89.3176 67.3952 89.5792C67.3461 89.7441 67.3067 90.0487 67.2769 90.4928C67.2708 90.9127 67.1477 91.3601 66.9077 91.8349C66.3553 92.9503 65.793 93.9495 65.2207 94.8324C64.6488 95.692 63.9271 96.4286 63.0558 97.0422C62.8912 97.1413 62.692 97.2182 62.4581 97.2731C62.2475 97.3271 61.9784 97.4066 61.6505 97.5114ZM69.3464 105.845C68.832 105.957 68.482 105.981 68.2965 105.917C68.111 105.854 67.8562 105.746 67.5321 105.594C67.2783 105.417 67.0821 105.284 66.9436 105.195C66.8051 105.107 66.7365 105.016 66.7378 104.923C66.7388 104.853 66.7634 104.77 66.8114 104.675C66.859 104.604 66.9417 104.531 67.0593 104.457C67.1999 104.405 67.3868 104.375 67.62 104.367C67.7818 104.455 68.0493 104.492 68.4224 104.479C68.8188 104.465 69.0644 104.41 69.159 104.313C69.159 104.313 69.265 104.239 69.4769 104.092C69.7118 103.967 70.0163 103.863 70.3904 103.78C71.1184 103.405 71.7662 102.939 72.3337 102.382C72.9012 101.826 73.4478 101.107 73.9734 100.226C74.1881 99.8921 74.4152 99.4993 74.6549 99.0479C74.8942 98.6197 75.0636 98.194 75.163 97.7708C75.3564 97.2976 75.5755 96.6603 75.8203 95.8588C76.0884 95.0566 76.3213 94.2672 76.5192 93.4907C76.7173 92.6909 76.831 92.0923 76.8601 91.6948C77.0191 90.3834 77.2582 89.1741 77.5774 88.0669C77.9202 86.9355 78.2183 85.6775 78.4716 84.2927C78.6163 83.9612 78.724 83.7709 78.7946 83.7217C78.8656 83.6493 79.0177 83.609 79.2509 83.6008C79.5074 83.5917 79.6936 83.6085 79.8095 83.6511C79.9491 83.6695 80.0986 83.8041 80.2581 84.055C80.4848 84.4901 80.5587 85.0122 80.4799 85.6213C80.4247 86.2062 80.2423 86.7256 79.9327 87.1795C79.6947 87.5144 79.4774 88.035 79.2806 88.7415C79.1074 89.4238 78.9318 90.2812 78.7535 91.3135C78.6294 91.8308 78.4923 92.4419 78.3421 93.1468C78.2156 93.8275 78.0763 94.5902 77.9241 95.4351C77.8274 95.6717 77.6939 96.0378 77.5235 96.5335C77.3534 97.0058 77.243 97.3828 77.1923 97.6644C77.1676 97.7586 77.0949 97.9477 76.9742 98.2318C76.8535 98.5158 76.733 98.7882 76.6127 99.049C76.492 99.333 76.4076 99.5226 76.3596 99.6175C75.4225 101.539 74.3637 103.022 73.1831 104.067C72.0024 105.111 70.7235 105.704 69.3464 105.845ZM72.1532 95.603C71.8967 95.612 71.6305 95.4815 71.3548 95.2114C71.1024 94.9404 70.9307 94.7249 70.8399 94.5649C70.75 94.3348 70.6366 94.1173 70.4998 93.9122C70.363 93.7072 70.2618 93.4542 70.1963 93.1534C70.1541 92.8517 70.1828 92.4776 70.2826 92.0311C70.3803 91.7245 70.5149 91.2883 70.6863 90.7227C70.8814 90.1328 71.0888 89.4959 71.3086 88.812C71.5517 88.1272 71.7946 87.454 72.0373 86.7926C72.3037 86.107 72.5456 85.5038 72.763 84.9832C72.9807 84.4392 73.1729 84.0477 73.3395 83.8086C73.4822 83.617 73.6355 83.4951 73.7994 83.4427C73.9866 83.3894 74.1728 83.4062 74.358 83.493C74.5435 83.5564 74.7046 83.7023 74.8411 83.9307C75.0928 84.2483 75.1936 84.5246 75.1436 84.7595C75.0935 84.9945 74.877 85.4568 74.494 86.1465C74.397 86.4065 74.2763 86.6905 74.1319 86.9987C73.9879 87.2836 73.9152 87.4727 73.9139 87.5661C73.8899 87.6135 73.8408 87.7785 73.7668 88.0609C73.7164 88.3192 73.6545 88.5662 73.5812 88.802C73.5078 89.0378 73.4361 89.1569 73.3662 89.1593C73.2715 89.2559 73.1627 89.5279 73.0396 89.9753C72.9168 90.3994 72.8049 90.8814 72.7038 91.4212C72.603 91.9378 72.5381 92.3948 72.5089 92.7922C72.4802 93.1664 72.5124 93.3518 72.6057 93.3485C73.3286 93.3231 74.0789 93.0169 74.8566 92.4299C75.6576 91.8421 76.4624 90.9976 77.2709 89.8965L77.8292 92.3603C77.5004 92.5351 77.1947 92.7208 76.9121 92.9172C76.6299 93.0904 76.3705 93.2977 76.1339 93.5392C76.0626 93.635 75.8975 93.7691 75.6386 93.9414C75.3797 94.1138 75.1209 94.2744 74.8624 94.4234C74.6275 94.5483 74.4751 94.6119 74.4051 94.6144C74.4051 94.6144 74.3699 94.6273 74.2997 94.6531C74.253 94.6547 74.229 94.7022 74.2276 94.7955C74.227 94.8422 74.074 94.9408 73.7688 95.0915C73.464 95.2188 73.1476 95.3349 72.8198 95.4397C72.492 95.5445 72.2698 95.5989 72.1532 95.603ZM90.3116 96.6085C90.147 96.7076 89.926 96.6804 89.6485 96.5269C89.3944 96.3726 89.1415 96.1366 88.8898 95.819C88.7306 95.5448 88.6185 95.2456 88.5533 94.9214C88.5114 94.5964 88.4948 94.1423 88.5033 93.559C88.5334 93.0916 88.5146 92.7891 88.4466 92.6516C88.4021 92.5132 88.2735 92.5411 88.0609 92.7351C87.8486 92.9058 87.4822 93.2568 86.9617 93.7881C86.3702 94.3919 85.8039 94.8665 85.2628 95.212C84.745 95.5567 84.323 95.7231 83.9969 95.7112C83.8336 95.717 83.6483 95.6419 83.4408 95.4859C83.257 95.3059 83.0853 95.0904 82.9259 94.8395C82.7667 94.5652 82.6309 94.2902 82.5184 94.0143C82.386 93.506 82.3722 92.8535 82.4771 92.057C82.6057 91.2363 82.8047 90.3782 83.0741 89.4826C83.3436 88.587 83.6474 87.7368 83.9855 86.9321C84.3468 86.1266 84.706 85.4727 85.063 84.9704C85.4432 84.4673 85.7733 84.2109 86.0531 84.2011C86.2397 84.1945 86.4015 84.2821 86.5387 84.4638C86.6992 84.6447 86.8582 84.9306 87.0156 85.3215C87.1065 85.4815 87.1394 85.6203 87.1144 85.7378C87.1127 85.8544 87.0174 85.9977 86.8284 86.1675C86.6145 86.4549 86.3635 86.8835 86.0755 87.4532C85.8108 88.0222 85.5454 88.6378 85.2793 89.3001C85.0366 89.9616 84.8175 90.5989 84.6221 91.212C84.4266 91.8252 84.291 92.3313 84.2153 92.7304C84.1399 93.1062 84.1488 93.2924 84.2421 93.2891C84.5685 93.2776 84.9552 93.1358 85.402 92.8636C85.8725 92.5672 86.3205 92.2133 86.746 91.8019C87.2429 91.2948 87.6821 90.743 88.0638 90.1466C88.4687 89.5494 88.8742 88.9172 89.2802 88.25C89.5901 87.7727 89.9124 87.2484 90.2471 86.677C90.6051 86.1047 90.8324 85.7003 90.9291 85.4637C91.2644 84.8456 91.5153 84.4287 91.6816 84.213C91.8482 83.974 92.0486 83.8153 92.2828 83.7372C92.3994 83.7331 92.5044 83.7294 92.5977 83.7261C92.7142 83.722 92.7725 83.7199 92.7725 83.7199C92.9121 83.7383 93.0738 83.8376 93.2576 84.0177C93.4428 84.1044 93.5464 84.1941 93.5683 84.2866C93.5906 84.3558 93.6009 84.4487 93.5992 84.5653C93.5025 84.8019 93.3458 85.1572 93.1291 85.6312C92.9361 86.081 92.7914 86.4126 92.6951 86.6259C92.2373 87.6447 91.7798 88.6518 91.3224 89.6473C90.8887 90.6186 90.5712 91.6091 90.3699 92.6189C90.3185 92.9472 90.3012 93.3326 90.3181 93.775C90.3586 94.1934 90.4241 94.4942 90.5146 94.6776C90.5825 94.8151 90.6618 94.9755 90.7523 95.1589C90.8665 95.3181 90.9927 95.4536 91.1309 95.5653C91.3388 95.6979 91.3715 95.8484 91.2292 96.0166C91.1102 96.184 90.945 96.3297 90.7334 96.4538C90.5221 96.5545 90.3815 96.606 90.3116 96.6085ZM90.0693 82.1011C89.3451 82.2198 88.7418 82.0311 88.2597 81.5351C87.7775 81.039 87.4155 80.2939 87.1736 79.2997C87.1297 79.1147 87.1088 78.9522 87.1108 78.8122C87.1365 78.6481 87.1852 78.5064 87.2569 78.3873C87.3049 78.2923 87.3992 78.2191 87.5398 78.1675C87.6807 78.0926 87.7975 78.0768 87.8901 78.1202C88.2148 78.2254 88.4458 78.3688 88.583 78.5506C88.7438 78.7081 88.8457 78.9144 88.8886 79.1694C88.9335 79.2844 88.9551 79.4003 88.9534 79.5169C88.975 79.6328 88.986 79.679 88.9863 79.6557C89.0975 80.0249 89.2453 80.2762 89.4298 80.4096C89.6143 80.543 89.8943 80.5215 90.2698 80.3451C90.6686 80.1678 91.0561 79.9677 91.4323 79.7446C91.8318 79.5206 92.1853 79.2517 92.4929 78.9377C92.7532 78.6721 93.0014 78.4302 93.2377 78.212C93.4973 77.993 93.7453 77.7627 93.9819 77.5212L94.0174 77.485C94.1117 77.4117 94.2287 77.3843 94.3682 77.4027C94.5078 77.4211 94.5889 77.4533 94.6116 77.4991C94.7724 77.6567 94.8516 77.8171 94.8492 77.9804C94.8469 78.1438 94.8443 78.3187 94.8416 78.5054L94.8056 78.5766C94.8501 78.7149 94.7296 78.9874 94.444 79.3938C94.1817 79.7995 93.8619 80.1488 93.4847 80.4419C93.1545 80.71 92.8013 80.9556 92.4251 81.1787C92.049 81.4018 91.6613 81.6137 91.2622 81.8143C91.0976 81.9133 90.9218 81.9778 90.7349 82.0077C90.5717 82.0134 90.3498 82.0445 90.0693 82.1011ZM97.6808 94.7054C97.4267 94.5511 97.1966 94.3493 96.9905 94.1001C96.7847 93.8275 96.6849 93.4812 96.691 93.0613C96.6944 92.828 96.7469 92.4297 96.8484 91.8665C96.9498 91.3032 97.0873 90.6688 97.2608 89.9631C97.4342 89.2575 97.607 88.5985 97.7791 87.9861C98.0185 87.558 98.2228 87.1311 98.3922 86.7054C98.5616 86.2797 98.6469 86.0202 98.6483 85.9268C98.699 85.6452 98.7621 85.3165 98.8375 84.9408C98.9363 84.5642 99.0345 84.2226 99.1322 83.9161C99.2299 83.6095 99.3024 83.432 99.3497 83.3837C99.468 83.263 99.609 83.1881 99.7726 83.159C99.9365 83.1066 100.099 83.1242 100.261 83.2118C100.447 83.2752 100.584 83.4219 100.674 83.652C100.927 83.9229 101.05 84.2567 101.044 84.6533C101.039 85.0266 100.902 85.5911 100.635 86.3467C100.418 86.8207 100.2 87.3763 99.9812 88.0136C99.7621 88.6509 99.5671 89.2408 99.396 89.7831C99.2486 90.3013 99.1618 90.6542 99.1358 90.8416L98.4331 91.0762C98.835 90.689 99.2137 90.2909 99.5693 89.882C99.9253 89.4497 100.187 89.1141 100.353 88.875C100.757 88.3245 101.102 87.8693 101.387 87.5095C101.696 87.1255 102.087 86.6687 102.561 86.139C103.035 85.586 103.494 85.2434 103.939 85.1112C104.408 84.9548 104.77 84.8721 105.027 84.8631C105.538 84.9384 105.942 85.1923 106.239 85.6249C106.559 86.0334 106.76 86.656 106.841 87.4926C106.836 87.8192 106.796 88.2054 106.719 88.6512C106.666 89.0961 106.64 89.3186 106.64 89.3186C106.64 89.3186 106.83 89.067 107.21 88.564C107.614 88.0601 108.146 87.505 108.808 86.8988C109.255 86.5566 109.69 86.3548 110.11 86.2933C110.531 86.2086 110.902 86.3354 111.223 86.6739C111.825 86.9792 112.214 87.4669 112.39 88.137C112.567 88.7837 112.602 89.6219 112.493 90.6518C112.415 91.2608 112.396 91.7162 112.438 92.0178C112.481 92.2962 112.547 92.5737 112.636 92.8504C112.821 92.9371 112.853 93.1342 112.732 93.4416C112.612 93.7257 112.47 93.8706 112.306 93.8763C112.073 93.8845 111.806 93.8473 111.504 93.7646C111.225 93.6812 110.971 93.5385 110.741 93.3368C110.535 93.1108 110.434 92.7995 110.44 92.4029L110.472 90.2332C110.479 89.7199 110.462 89.3007 110.42 88.9757C110.402 88.6499 110.346 88.4537 110.254 88.387C110 88.256 109.624 88.4208 109.128 88.8813C108.632 89.3418 108.099 89.9552 107.528 90.7214C106.957 91.4877 106.422 92.2761 105.92 93.0865C105.467 93.8254 105.181 94.2552 105.062 94.3759C104.968 94.4725 104.793 94.4437 104.539 94.2894C104.029 94.1441 103.705 93.9339 103.569 93.6589C103.457 93.3597 103.451 93.0218 103.549 92.6452C103.672 92.2445 103.82 91.703 103.993 91.0206C104.189 90.3375 104.374 89.6781 104.546 89.0424C104.719 88.3834 104.831 87.9131 104.881 87.6315C104.791 87.4481 104.628 87.3955 104.394 87.4737C104.184 87.5277 103.961 87.6405 103.725 87.812C103.442 88.0085 103.099 88.3704 102.695 88.8976C102.291 89.4248 101.874 90.0341 101.445 90.7255C101.159 91.1786 100.861 91.6321 100.551 92.0861C100.242 92.5167 99.9564 92.8998 99.6951 93.2355C99.4338 93.5711 99.2087 93.8239 99.0197 93.9937C98.6858 94.5185 98.4601 94.8063 98.3429 94.857C98.2256 94.9078 98.0049 94.8572 97.6808 94.7054ZM120.507 94.3925C120.011 94.8297 119.436 95.0947 118.782 95.1877C118.152 95.2798 117.535 95.2082 116.933 94.9729C116.331 94.7142 115.835 94.3119 115.447 93.7659C115.058 93.2666 114.81 92.6923 114.703 92.0432C114.596 91.3707 114.598 90.4962 114.707 89.4197C114.79 88.5073 115.095 87.5871 115.621 86.6592C116.148 85.7079 116.778 84.858 117.511 84.1093C118.268 83.3598 119.01 82.8324 119.737 82.527C120.09 82.2814 120.383 82.1661 120.616 82.1813C120.872 82.1722 121.257 82.182 121.769 82.2107C122.304 82.2618 122.699 82.3528 122.954 82.4838C123.232 82.614 123.45 82.7928 123.61 83.0204C123.955 83.358 124.183 83.6998 124.294 84.0457C124.406 84.3682 124.46 84.6928 124.455 85.0194C124.354 85.536 123.995 86.1782 123.378 86.9461C122.784 87.6899 122.006 88.3119 121.043 88.8121C120.528 88.9934 119.967 89.0831 119.361 89.0811C118.755 89.0791 118.256 88.9451 117.864 88.679C117.424 88.508 117.132 88.5532 116.988 88.8148C116.845 89.053 116.708 89.6408 116.577 90.5781C116.471 91.468 116.532 92.1188 116.759 92.5305C116.986 92.919 117.297 93.1412 117.693 93.1972C118.158 93.2742 118.518 93.3315 118.774 93.3691C119.054 93.3826 119.393 93.2657 119.793 93.0185C120.17 92.772 120.405 92.6355 120.498 92.6089C120.592 92.559 120.663 92.5098 120.71 92.4615C120.781 92.3891 120.935 92.2321 121.172 91.9906C121.337 91.8215 121.467 91.7004 121.561 91.6271C121.656 91.5305 121.762 91.4802 121.878 91.4761C121.995 91.472 122.099 91.5266 122.191 91.64C122.282 91.73 122.375 91.7967 122.467 91.8401C122.701 91.8319 122.745 91.9703 122.601 92.2551C122.48 92.5392 122.231 92.8861 121.852 93.2959C121.473 93.6823 121.025 94.0478 120.507 94.3925ZM120.581 86.9745C120.839 86.8488 121.109 86.6761 121.392 86.4563C121.676 86.2131 121.912 85.96 122.103 85.6968C122.317 85.4094 122.425 85.1724 122.428 84.9858C122.433 84.6591 122.285 84.3962 121.985 84.1968C121.685 83.9742 121.231 83.9552 120.622 84.1398C120.365 84.2188 120.071 84.4041 119.74 84.6955C119.41 84.9636 119.091 85.2663 118.783 85.6036C118.498 85.9401 118.261 86.2399 118.07 86.5031C117.903 86.7655 117.843 86.9192 117.889 86.9642C117.957 87.0784 118.154 87.1648 118.479 87.2233C118.805 87.2585 119.167 87.2574 119.563 87.2202C119.983 87.1821 120.323 87.1002 120.581 86.9745ZM134.42 88.2368C134.737 87.2462 135.124 86.2882 135.581 85.3627C136.061 84.4131 136.574 83.5789 137.121 82.8601C137.667 82.1413 138.199 81.6213 138.717 81.2999C138.974 81.2443 139.196 81.2248 139.382 81.2416C139.592 81.2342 139.824 81.2493 140.08 81.287C140.178 81.0037 140.125 80.5975 139.923 80.0683C139.721 79.539 139.472 79.0231 139.177 78.5205C138.905 77.9937 138.689 77.6282 138.529 77.424C138.368 77.2197 138.196 77.0276 138.013 76.8475C137.829 76.6441 137.669 76.4398 137.532 76.2348C137.442 76.0514 137.41 75.8543 137.436 75.6435C137.462 75.4327 137.593 75.2882 137.827 75.21C138.155 75.0819 138.472 74.9425 138.777 74.7919C139.106 74.6171 139.434 74.4656 139.762 74.3375C139.903 74.2859 140.172 74.2065 140.57 74.0992C140.968 73.9919 141.365 73.8963 141.763 73.8124C142.184 73.7043 142.464 73.6478 142.604 73.6429C142.885 73.5864 143.165 73.5649 143.444 73.5784C143.724 73.5919 144.003 73.6054 144.283 73.6189C144.796 73.6242 145.12 73.7293 145.257 73.9344C145.394 74.1395 145.588 74.4241 145.839 74.7884C145.79 74.9534 145.728 75.2004 145.653 75.5295C145.602 75.8344 145.494 76.0481 145.329 76.1705C145.236 76.1504 145.132 76.1424 145.015 76.1465C144.898 76.1506 144.782 76.1314 144.666 76.0888C144.435 75.9804 144.075 75.8998 143.586 75.847C143.098 75.7709 142.609 75.7415 142.119 75.7587C141.63 75.7526 141.267 75.8119 141.033 75.9368C140.915 75.9876 140.775 76.0391 140.611 76.0915C140.447 76.1206 140.284 76.1497 140.12 76.1787C139.98 76.207 139.862 76.2694 139.768 76.366C139.949 76.7328 140.222 77.1779 140.587 77.7014C140.953 78.2015 141.238 78.6462 141.442 79.0355C141.487 79.1272 141.497 79.2201 141.473 79.3142C141.448 79.4084 141.482 79.4888 141.574 79.5555C141.686 79.878 141.797 80.2122 141.909 80.5581C142.02 80.9039 142.073 81.2635 142.068 81.6368C142.136 81.7977 142.202 82.0635 142.266 82.4344C142.354 82.781 142.407 83.1406 142.425 83.5131C142.467 83.8614 142.451 84.1185 142.379 84.2842C142.491 84.6068 142.487 84.8867 142.367 85.1241C142.27 85.3374 142.196 85.5965 142.145 85.9014C142.145 85.9481 142.132 85.9952 142.108 86.0427C142.108 86.0893 142.107 86.136 142.106 86.1826C142.1 86.6493 142.059 87.0238 141.985 87.3062C141.911 87.5886 141.777 87.9548 141.584 88.4046C141.462 88.782 141.329 89.1598 141.183 89.538C141.062 89.8921 140.94 90.2578 140.818 90.6352C140.243 91.6581 139.706 92.5165 139.207 93.2103C138.731 93.88 138.304 94.373 137.926 94.6894C137.573 94.9817 137.245 95.0748 136.944 94.9688C136.64 95.0028 136.349 94.9781 136.071 94.8946C135.792 94.7878 135.526 94.6572 135.272 94.5029C134.718 94.1726 134.328 93.6966 134.104 93.0749C133.904 92.429 133.833 91.6853 133.892 90.8437C133.975 90.0014 134.15 89.1324 134.42 88.2368ZM136.028 90.6637C135.974 91.1087 135.947 91.4244 135.944 91.6111C135.965 91.7736 136.019 92.0748 136.105 92.5148C136.221 92.6041 136.336 92.705 136.451 92.8175C136.566 92.9067 136.681 93.0076 136.796 93.1202C137.247 92.5447 137.592 92.0662 137.831 91.6847C138.07 91.2798 138.285 90.8758 138.478 90.4726C138.693 90.0686 138.968 89.5926 139.303 89.0445C139.352 88.8562 139.401 88.6679 139.451 88.4797C139.524 88.2672 139.596 88.0781 139.669 87.9123C139.861 87.5091 140.021 86.9555 140.148 86.2515C140.298 85.5233 140.355 84.8218 140.318 84.1468C140.305 83.4477 140.126 82.9293 139.782 82.5917C139.755 82.8258 139.61 83.1457 139.348 83.5513C139.086 83.957 138.86 84.2564 138.671 84.4496C138.268 84.8602 137.875 85.457 137.491 86.24C137.13 86.9989 136.815 87.7911 136.547 88.6167C136.279 89.419 136.106 90.1013 136.028 90.6637ZM146.963 94.7914C145.937 94.8275 145.103 94.472 144.462 93.7251C143.82 92.9548 143.52 91.986 143.56 90.8186C143.619 89.9771 143.796 89.0731 144.089 88.1067C144.407 87.1161 144.817 86.1689 145.32 85.2652C145.823 84.338 146.371 83.5259 146.964 82.8288C147.556 82.1317 148.17 81.6321 148.803 81.33C149.038 81.2052 149.285 81.1032 149.542 81.0242C149.823 80.9444 150.103 80.8996 150.383 80.8897C150.64 80.8807 150.907 80.9179 151.186 81.0014C151.464 81.0616 151.696 81.135 151.881 81.2218C152.276 81.3712 152.576 81.5588 152.782 81.7848C152.989 82.0107 153.17 82.3658 153.326 82.85C153.389 83.2908 153.42 83.6045 153.417 83.7912C153.414 83.9778 153.352 84.2598 153.23 84.6372C152.938 85.487 152.566 86.2229 152.114 86.8451C151.662 87.4673 151.06 88.0015 150.307 88.4477C150.119 88.5709 149.896 88.672 149.639 88.751C149.405 88.8059 149.16 88.8378 148.903 88.8468C148.437 88.8632 147.983 88.7976 147.543 88.6498C147.126 88.478 146.791 88.2215 146.54 87.8806L146.299 87.6092L146.19 87.8929C145.948 88.531 145.753 89.1209 145.605 89.6624C145.481 90.2031 145.415 90.6951 145.409 91.1384C145.405 91.4183 145.424 91.6858 145.467 91.9408C145.533 92.195 145.623 92.4134 145.737 92.5959C145.828 92.7326 145.978 92.8323 146.187 92.8949C146.42 92.9334 146.664 92.9481 146.921 92.9391C147.084 92.9333 147.247 92.9276 147.41 92.9218C147.597 92.892 147.773 92.8391 147.937 92.7634C148.335 92.6095 148.652 92.4468 148.888 92.2752C149.147 92.1029 149.406 91.9189 149.665 91.7232L149.806 91.6483L149.771 91.6496C150.053 91.4997 150.3 91.3511 150.512 91.2038C150.747 91.0556 150.865 90.9815 150.865 90.9815C150.958 90.9782 151.052 90.9166 151.147 90.7967C151.335 90.6968 151.568 90.7236 151.845 90.8771C152.146 91.0297 152.294 91.2344 152.291 91.491C152.266 91.6085 152.158 91.7988 151.968 92.062C151.778 92.3019 151.565 92.5309 151.328 92.7491C151.115 92.9665 150.939 93.0893 150.799 93.1175C150.775 93.1417 150.693 93.1912 150.552 93.2661C150.411 93.3177 150.317 93.3676 150.27 93.4159L150.305 93.4147C150.091 93.702 149.879 93.8494 149.669 93.8568L149.389 93.8666C149.293 94.0332 148.988 94.2305 148.472 94.4585C147.956 94.6632 147.453 94.7742 146.963 94.7914ZM148.65 87.0369C149.07 87.0221 149.433 86.8928 149.739 86.6488C150.07 86.3807 150.354 86.0909 150.591 85.7794C151.067 85.133 151.344 84.517 151.422 83.9313C151.524 83.3214 151.461 82.9039 151.231 82.6788C151.092 82.6137 150.964 82.5832 150.848 82.5873C150.755 82.5673 150.556 82.6092 150.252 82.7132C150.041 82.7673 149.747 82.9525 149.369 83.2689C148.992 83.5853 148.614 83.9367 148.235 84.3232C147.88 84.7088 147.607 85.0331 147.417 85.2963L146.951 86.0473C147.139 85.9707 147.314 85.9296 147.478 85.9238C147.665 85.8939 147.769 85.9019 147.792 85.9477C147.789 86.1577 147.821 86.3548 147.888 86.539C147.979 86.699 148.082 86.8237 148.197 86.9129C148.336 87.0013 148.487 87.0426 148.65 87.0369ZM160.467 87.4958C161.136 87.9387 161.594 88.4939 161.841 89.1615C162.088 89.8057 162.148 90.4682 162.021 91.1489C161.895 91.8296 161.583 92.4468 161.085 93.0006C160.612 93.5303 159.977 93.9141 159.181 94.1519C158.876 94.2559 158.491 94.3045 158.025 94.2975C157.583 94.2664 157.223 94.1742 156.945 94.0207C156.459 93.7813 156.043 93.5627 155.696 93.365C155.35 93.144 155.028 92.8055 154.732 92.3496C154.71 92.2804 154.664 92.2121 154.595 92.1445C154.526 92.077 154.469 92.0207 154.423 91.9757C154.356 91.7915 154.312 91.6065 154.291 91.4207C154.294 91.2107 154.239 91.0261 154.125 90.8669C154.173 90.7253 154.21 90.584 154.236 90.4432C154.284 90.3016 154.333 90.16 154.382 90.0184C154.568 90.0118 154.755 89.9936 154.942 89.9637C155.129 89.9338 155.316 89.9039 155.503 89.874C155.689 89.8441 155.864 89.8263 156.028 89.8206C156.259 89.9757 156.417 90.2732 156.504 90.7133C156.591 91.1533 156.713 91.5687 156.87 91.9596C157.052 92.3263 157.34 92.5144 157.736 92.5238C158.389 92.5242 158.858 92.3444 159.142 91.9846C159.428 91.6015 159.586 91.1412 159.617 90.6038C159.648 90.0664 159.586 89.5555 159.43 89.0713C159.339 88.9346 159.247 88.7979 159.156 88.6612C159.065 88.5245 158.974 88.3878 158.882 88.2511C158.815 88.1136 158.711 88.0006 158.573 87.9122C158.552 87.773 158.53 87.6339 158.509 87.4947C158.488 87.3556 158.466 87.2164 158.445 87.0772C158.869 86.7825 159.327 86.5215 159.82 86.2943C160.336 86.043 160.784 85.6891 161.164 85.2327C161.33 85.017 161.51 84.7075 161.702 84.3044C161.918 83.9004 162.004 83.5708 161.961 83.3159C161.942 83.06 161.875 82.8175 161.762 82.5883C161.672 82.3583 161.464 82.2373 161.138 82.2255C160.835 82.2128 160.554 82.3043 160.295 82.5C160.06 82.6715 159.835 82.9009 159.621 83.1883C159.43 83.4748 159.228 83.7734 159.013 84.0841C158.823 84.3706 158.597 84.635 158.337 84.8774C158.199 84.789 158.048 84.736 157.885 84.7184C157.722 84.7008 157.56 84.6482 157.398 84.5606C157.236 84.473 157.076 84.2688 156.918 83.9479C157.084 83.7555 157.168 83.5427 157.172 83.3094C157.199 83.0519 157.284 82.8391 157.426 82.6708C157.568 82.4793 157.722 82.3106 157.888 82.1649C158.077 81.995 158.231 81.8147 158.35 81.624C158.517 81.3849 158.788 81.1772 159.163 81.0007C159.539 80.801 159.856 80.6732 160.113 80.6176C160.814 80.4763 161.408 80.5254 161.894 80.7648C162.38 80.9809 162.842 81.2328 163.281 81.5205C163.553 82.0473 163.71 82.4732 163.752 82.7982C163.817 83.1223 163.844 83.6461 163.834 84.3693C163.808 84.5568 163.758 84.7334 163.686 84.8992C163.614 85.0416 163.577 85.2062 163.574 85.3928C163.122 86.015 162.684 86.4851 162.26 86.8032C161.836 87.1212 161.238 87.3521 160.467 87.4958ZM173.119 93.1372C172.747 93.0337 172.423 92.8701 172.147 92.6467C171.871 92.3999 171.607 92.1293 171.355 91.8351C171.24 91.6992 171.046 91.4262 170.772 91.0161C170.499 90.6059 170.202 90.15 169.883 89.6482C169.588 89.1456 169.303 88.6775 169.03 88.2441C168.757 87.7873 168.552 87.4447 168.416 87.2163C168.294 87.5704 168.161 87.8665 168.018 88.1048C167.898 88.3188 167.835 88.6592 167.828 89.1258C167.59 89.4606 167.41 89.8401 167.287 90.2641C167.188 90.664 167.077 91.0644 166.955 91.4651C166.881 91.7242 166.761 91.9616 166.595 92.1773C166.452 92.3922 166.263 92.5854 166.027 92.7569C165.748 92.7434 165.504 92.6587 165.297 92.5028C165.113 92.346 164.952 92.1885 164.814 92.0301C164.678 91.755 164.624 91.4888 164.651 91.2313C164.678 90.9738 164.74 90.7268 164.837 90.4902C164.886 90.2786 165.021 89.8658 165.239 89.2518C165.481 88.637 165.736 87.9751 166.003 87.2662C166.27 86.5339 166.512 85.8841 166.73 85.3168C166.949 84.7262 167.071 84.3604 167.096 84.2196C167.243 83.7481 167.495 83.2379 167.853 82.689C168.234 82.1159 168.499 81.5003 168.649 80.8421C168.698 80.6771 168.816 80.5214 169.005 80.3748C169.194 80.205 169.405 80.1159 169.638 80.1077C169.895 80.0754 170.103 80.1963 170.262 80.4706C170.309 80.4922 170.378 80.5248 170.471 80.5682C170.564 80.5882 170.633 80.6324 170.678 80.7008C170.862 80.9042 170.964 81.1221 170.983 81.3546C171.027 81.5863 170.976 81.8329 170.833 82.0945C170.522 82.6417 170.259 83.094 170.044 83.4514C169.853 83.7846 169.661 84.1528 169.468 84.5559C169.276 84.9591 169.058 85.5148 168.815 86.2229C169.212 86.1157 169.505 86.0354 169.692 85.9822C169.88 85.9056 170.056 85.7945 170.221 85.6488C170.41 85.4789 170.659 85.2253 170.967 84.888C171.085 84.7673 171.322 84.5374 171.676 84.1985C172.054 83.8354 172.445 83.4486 172.847 83.038C173.272 82.6266 173.639 82.264 173.946 81.95C174.277 81.6352 174.455 81.4541 174.479 81.4066C174.622 81.1917 174.764 81.0002 174.907 80.8319C175.073 80.6395 175.285 80.4922 175.542 80.3898C175.892 80.4242 176.135 80.4856 176.274 80.574C176.413 80.639 176.678 80.8279 177.07 81.1406C177.185 81.2298 177.228 81.4499 177.2 81.8006C177.172 82.1281 177.04 82.3892 176.804 82.5841C176.379 82.9255 175.849 83.3639 175.211 83.8993C174.574 84.4347 173.89 84.9951 173.159 85.5805C172.451 86.165 171.744 86.7145 171.037 87.2291C171.356 87.7542 171.64 88.2572 171.889 88.7382C172.139 89.1958 172.343 89.585 172.502 89.9059C172.54 90.4875 172.744 90.8768 173.114 91.0736C173.507 91.2463 173.984 91.3229 174.544 91.3032C174.729 91.3899 174.844 91.5025 174.888 91.6408C174.957 91.755 174.99 91.8938 174.987 92.0571C175.009 92.1963 175.03 92.3354 175.051 92.4746C174.722 92.6961 174.486 92.8909 174.343 93.0591C174.225 93.2032 174.084 93.2898 173.92 93.3189C173.78 93.3238 173.513 93.2632 173.119 93.1372ZM181.267 93.2704C180.964 93.3044 180.719 93.2897 180.534 93.2262C180.349 93.1395 180.117 93.0194 179.84 92.8659C179.333 92.4873 178.954 92.1042 178.703 91.7166C178.476 91.3048 178.377 90.9002 178.406 90.5028C178.456 90.2912 178.458 90.1045 178.414 89.9428C178.393 89.7804 178.383 89.6991 178.383 89.6991C178.245 89.5874 178.199 89.519 178.246 89.494C178.293 89.4457 178.329 89.3745 178.354 89.2804C178.541 89.2272 178.566 89.098 178.43 88.893C178.362 88.7088 178.403 88.2876 178.553 87.6294C178.726 86.9471 178.945 86.3098 179.21 85.7175C179.331 85.4567 179.499 85.1127 179.715 84.6854C179.954 84.2572 180.217 83.8282 180.503 83.3984C180.789 82.9453 181.051 82.5863 181.288 82.3215C181.809 81.7202 182.27 81.2726 182.671 80.9787C183.095 80.6606 183.565 80.3992 184.081 80.1945C184.55 79.9915 184.889 79.8746 185.1 79.8439C185.31 79.8132 185.599 79.9429 185.968 80.2331C186.525 80.3768 186.941 80.5953 187.217 80.8888C187.516 81.1581 187.743 81.5932 187.897 82.194C188.074 82.8641 188.12 83.6669 188.037 84.6026C187.977 85.5142 187.563 86.7063 186.796 88.1791C186.339 89.1045 185.886 89.8084 185.436 90.2906C185.01 90.7719 184.489 91.2799 183.876 91.8145C183.427 92.2034 183.015 92.5094 182.639 92.7325C182.262 92.9556 181.805 93.1349 181.267 93.2704ZM184.126 89.0075C184.603 88.2911 184.974 87.6368 185.239 87.0445C185.528 86.4281 185.76 85.662 185.937 84.7464C185.987 84.4881 186.003 84.1727 185.986 83.8003C185.968 83.4045 185.915 83.0449 185.827 82.7215C185.761 82.3974 185.659 82.2261 185.519 82.2077C185.218 82.1017 184.88 82.1136 184.505 82.2433C184.131 82.3498 183.718 82.6441 183.269 83.1263C182.865 83.6068 182.496 84.1445 182.161 84.7393C181.85 85.3332 181.56 85.9846 181.294 86.6936C181.027 87.4025 180.771 88.1577 180.526 88.9592C180.28 89.8539 180.282 90.5301 180.532 90.9877C180.805 91.4445 181.258 91.5451 181.891 91.2897C182.524 91.0109 183.269 90.2502 184.126 89.0075ZM192.281 92.0786C191.886 91.9759 191.516 91.7791 191.171 91.4881C190.849 91.1962 190.656 90.8532 190.592 90.4591C190.571 90.2966 190.526 90.1582 190.458 90.044C190.413 89.9057 190.404 89.7545 190.43 89.5903C190.553 89.1196 190.688 88.6601 190.834 88.2119C190.981 87.7404 191.128 87.2805 191.274 86.8323C191.444 86.36 191.626 85.8989 191.819 85.449C192.035 84.9984 192.263 84.5589 192.502 84.1308C192.526 84.0833 192.55 84.0242 192.575 83.9533C192.599 83.8825 192.623 83.8234 192.647 83.7759C192.77 83.3519 192.916 82.9503 193.084 82.5713C193.253 82.1689 193.457 81.7653 193.696 81.3605C193.816 81.1697 193.936 80.8857 194.059 80.5083C194.181 80.1309 194.289 79.8939 194.384 79.7973C194.597 79.5333 194.808 79.4326 195.017 79.4952C195.226 79.5578 195.422 79.7141 195.605 79.9642C195.788 80.191 195.936 80.4423 196.048 80.7181C196.184 80.9932 196.274 81.2116 196.318 81.3732C195.962 81.8522 195.592 82.4598 195.208 83.1962C194.848 83.9317 194.486 84.7139 194.125 85.5428C193.763 86.3484 193.437 87.1527 193.146 87.9558C192.854 88.7355 192.635 89.4195 192.486 90.0077C192.67 90.1878 192.96 90.2709 193.357 90.2569C193.753 90.2197 194.069 90.1503 194.304 90.0487C194.7 90.0115 195.156 89.9371 195.67 89.8258C196.208 89.6903 196.664 89.6393 197.036 89.6728C197.132 89.4829 197.158 89.2954 197.114 89.1104C197.094 88.9013 197.132 88.7134 197.227 88.5468C197.442 88.2128 197.61 87.8921 197.731 87.5847C197.852 87.2773 197.962 86.9353 198.06 86.5587C198.109 86.3938 198.207 86.0755 198.354 85.604C198.501 85.1324 198.66 84.6138 198.831 84.0482C199.026 83.4817 199.196 82.986 199.342 82.5611C199.512 82.1121 199.633 81.8397 199.704 81.7439C199.798 81.6706 199.892 81.609 199.986 81.5591C200.104 81.5083 200.209 81.4696 200.303 81.443C200.581 81.5498 200.754 81.637 200.823 81.7045C200.892 81.7721 200.949 81.8633 200.994 81.9783C201.063 82.0692 201.177 82.2401 201.336 82.491C201.334 82.6543 201.343 82.8405 201.363 83.0497C201.384 83.2355 201.369 83.4226 201.32 83.6109C201.273 83.6358 201.189 83.802 201.068 84.1094C200.947 84.4168 200.813 84.7713 200.668 85.1728C200.546 85.5502 200.424 85.9043 200.303 86.235C200.205 86.5416 200.156 86.7299 200.154 86.7999C199.94 87.1339 199.771 87.5129 199.648 87.937C199.549 88.3369 199.392 88.7039 199.178 89.0379C199.154 89.0853 199.141 89.1441 199.14 89.2141C199.14 89.2607 199.127 89.3078 199.103 89.3553C199.407 89.298 199.699 89.2411 199.98 89.1846C200.284 89.1039 200.576 89.0353 200.857 88.9788C201.161 88.9215 201.452 88.8996 201.732 88.9131C201.968 88.7182 202.157 88.525 202.3 88.3335C202.443 88.1186 202.516 87.8595 202.521 87.5562C202.568 87.4845 202.677 87.2475 202.846 86.8452C203.015 86.4428 203.196 85.9934 203.39 85.4969C203.584 84.977 203.754 84.5163 203.9 84.1148C204.045 83.7133 204.119 83.4775 204.12 83.4075C204.334 83.1201 204.478 82.8119 204.553 82.4828C204.651 82.1296 204.749 81.788 204.847 81.4581C204.965 81.4073 205.094 81.3562 205.234 81.3046C205.375 81.2297 205.493 81.1556 205.587 81.0823C206.12 81.3201 206.534 81.667 206.83 82.1229C206.852 82.2621 206.861 82.4133 206.859 82.5766C206.857 82.7166 206.866 82.8562 206.888 82.9954C206.696 83.3286 206.528 83.6726 206.383 84.0275C206.238 84.359 206.105 84.7252 205.982 85.1259C205.859 85.5733 205.676 86.1277 205.434 86.7892C205.215 87.4265 204.972 88.0646 204.706 88.7036C204.441 89.3425 204.188 89.8994 203.948 90.3742C203.924 90.445 203.888 90.5162 203.84 90.5879C203.816 90.6587 203.78 90.7299 203.732 90.8015C203.684 90.8732 203.625 90.9569 203.553 91.0527C203.482 91.1251 203.388 91.1751 203.271 91.2025C203.038 91.2573 202.817 91.2301 202.608 91.1209C202.424 90.9874 202.239 90.8657 202.054 90.7556C201.985 90.7347 201.856 90.7742 201.668 90.8741C201.481 90.9507 201.351 91.0135 201.281 91.0626C200.908 91.0291 200.664 91.0377 200.546 91.0884C200.452 91.1384 200.265 91.1683 199.986 91.1781C199.519 91.1945 198.924 91.2621 198.2 91.3808C197.499 91.4987 196.774 91.6292 196.026 91.772C195.232 91.8932 194.485 92.0011 193.784 92.0957C193.107 92.1662 192.606 92.1605 192.281 92.0786ZM210.519 90.7378C210.265 90.5835 210.035 90.3817 209.829 90.1324C209.623 89.8599 209.523 89.5136 209.529 89.0936C209.533 88.8603 209.585 88.4621 209.686 87.8988C209.788 87.3356 209.925 86.7012 210.099 85.9955C210.272 85.2898 210.445 84.6308 210.617 84.0185C210.857 83.5903 211.061 83.1634 211.23 82.7377C211.4 82.312 211.485 82.0525 211.486 81.9592C211.537 81.6776 211.6 81.3489 211.676 80.9732C211.774 80.5966 211.873 80.255 211.97 79.9484C212.068 79.6418 212.14 79.4644 212.188 79.4161C212.306 79.2953 212.447 79.2204 212.611 79.1914C212.775 79.139 212.937 79.1566 213.099 79.2441C213.285 79.3076 213.423 79.4543 213.512 79.6843C213.765 79.9553 213.888 80.2891 213.882 80.6857C213.877 81.059 213.74 81.6234 213.473 82.379C213.256 82.853 213.038 83.4087 212.819 84.046C212.6 84.6833 212.405 85.2731 212.234 85.8155C212.087 86.3337 212 86.6865 211.974 86.874L211.271 87.1086C211.673 86.7213 212.052 86.3233 212.407 85.9143C212.763 85.4821 213.025 85.1464 213.191 84.9074C213.596 84.3568 213.94 83.9017 214.225 83.5419C214.534 83.1579 214.925 82.7011 215.399 82.1714C215.873 81.6184 216.333 81.2758 216.777 81.1436C217.246 80.9872 217.608 80.9045 217.865 80.8954C218.376 80.9707 218.781 81.2247 219.077 81.6573C219.398 82.0658 219.598 82.6883 219.679 83.525C219.674 83.8516 219.634 84.2378 219.557 84.6835C219.504 85.1285 219.478 85.3509 219.478 85.3509C219.478 85.3509 219.668 85.0994 220.048 84.5963C220.452 84.0924 220.984 83.5374 221.646 82.9312C222.093 82.5889 222.528 82.3871 222.948 82.3257C223.369 82.241 223.74 82.3678 224.061 82.7063C224.663 83.0116 225.052 83.4993 225.228 84.1693C225.405 84.816 225.44 85.6543 225.331 86.6841C225.253 87.2932 225.234 87.7486 225.277 88.0502C225.319 88.3286 225.385 88.6061 225.474 88.8828C225.659 88.9695 225.691 89.1666 225.57 89.474C225.45 89.7581 225.308 89.903 225.144 89.9087C224.911 89.9169 224.644 89.8797 224.342 89.797C224.064 89.7135 223.809 89.5709 223.579 89.3691C223.373 89.1432 223.272 88.8319 223.278 88.4353L223.31 86.2655C223.317 85.7522 223.3 85.3331 223.258 85.0081C223.24 84.6823 223.184 84.486 223.092 84.4193C222.838 84.2884 222.462 84.4531 221.966 84.9136C221.47 85.3741 220.937 85.9875 220.366 86.7538C219.796 87.5201 219.26 88.3084 218.758 89.1189C218.305 89.8577 218.019 90.2875 217.9 90.4083C217.806 90.5049 217.631 90.476 217.377 90.3217C216.867 90.1765 216.543 89.9663 216.408 89.6912C216.295 89.392 216.289 89.0542 216.387 88.6776C216.51 88.2769 216.658 87.7353 216.831 87.053C217.027 86.3698 217.212 85.7104 217.384 85.0748C217.557 84.4158 217.669 83.9455 217.719 83.6638C217.629 83.4805 217.466 83.4279 217.232 83.5061C217.022 83.5601 216.799 83.6729 216.563 83.8444C216.28 84.0409 215.937 84.4028 215.533 84.93C215.129 85.4572 214.713 86.0665 214.283 86.7578C213.997 87.2109 213.699 87.6645 213.389 88.1184C213.08 88.549 212.794 88.9322 212.533 89.2678C212.272 89.6035 212.047 89.8562 211.858 90.0261C211.524 90.5509 211.298 90.8386 211.181 90.8894C211.064 90.9402 210.843 90.8896 210.519 90.7378ZM230.844 91.2124C230.541 91.223 230.297 91.1733 230.112 91.0632C229.95 90.9523 229.743 90.7964 229.489 90.5954C229.053 90.1444 228.745 89.7122 228.565 89.2988C228.384 88.862 228.332 88.4441 228.408 88.045C228.481 87.8559 228.507 87.6801 228.486 87.5176C228.488 87.331 228.49 87.2377 228.49 87.2377C228.375 87.1251 228.341 87.0564 228.388 87.0314C228.435 86.9831 228.483 86.9115 228.531 86.8165C228.671 86.8116 228.719 86.6816 228.676 86.4266C228.633 86.2416 228.732 85.83 228.974 85.1919C229.217 84.5538 229.517 83.9486 229.875 83.3763C230.018 83.1381 230.232 82.8274 230.518 82.4443C230.803 82.0378 231.112 81.6422 231.444 81.2574C231.8 80.8485 232.119 80.5225 232.402 80.2793C232.992 79.7689 233.511 79.3892 233.957 79.1403C234.404 78.8915 234.884 78.6997 235.399 78.565C235.914 78.4303 236.264 78.3597 236.451 78.3531C236.661 78.3457 236.938 78.5225 237.282 78.8835C237.815 79.098 238.196 79.3644 238.424 79.6828C238.676 80.0005 238.832 80.473 238.893 81.1005C238.953 81.7979 238.883 82.6049 238.683 83.5214C238.506 84.4137 237.942 85.5412 236.99 86.9038C236.395 87.7642 235.849 88.413 235.353 88.8502C234.858 89.264 234.269 89.6811 233.587 90.1015C233.093 90.4454 232.646 90.706 232.247 90.8832C231.849 91.0371 231.381 91.1469 230.844 91.2124ZM234.256 87.3847C234.825 86.7351 235.277 86.1246 235.611 85.5532C235.969 84.9809 236.306 84.2578 236.622 83.3839C236.719 83.124 236.782 82.807 236.811 82.4329C236.84 82.0355 236.833 81.6742 236.792 81.3492C236.773 81.0001 236.695 80.8047 236.555 80.7629C236.278 80.6094 235.941 80.5747 235.543 80.6586C235.146 80.7192 234.711 80.956 234.239 81.369C233.507 82.0011 232.867 82.7814 232.317 83.7102C231.768 84.6156 231.228 85.649 230.699 86.8102C230.336 87.6624 230.245 88.3419 230.424 88.8486C230.627 89.3312 231.056 89.491 231.711 89.3281C232.389 89.141 233.238 88.4932 234.256 87.3847ZM243.799 91.1766C243.449 91.1889 243.006 91.1811 242.47 91.1533C241.958 91.1247 241.52 90.8137 241.156 90.2202C240.928 89.8318 240.76 89.383 240.651 88.8738C240.565 88.3638 240.57 88.0022 240.667 87.7889C241.02 85.9809 241.294 84.7354 241.491 84.0522C241.687 83.3691 241.798 82.9804 241.822 82.8863C241.87 82.7913 241.967 82.5664 242.112 82.2115C242.281 81.8325 242.377 81.5959 242.402 81.5018C242.524 81.1244 242.565 80.7032 242.525 80.2382C242.505 80.0524 242.519 79.8886 242.567 79.747C242.64 79.5812 242.747 79.4376 242.888 79.316C243.289 78.9988 243.61 78.5911 243.85 78.0929C243.922 77.9271 244.055 77.6427 244.247 77.2395C244.463 76.8121 244.679 76.3965 244.895 75.9925C245.134 75.5643 245.313 75.2665 245.432 75.0991C245.812 74.6194 246.157 74.1175 246.468 73.5936C246.802 73.0455 247.206 72.565 247.678 72.1519C247.988 71.628 248.38 71.1479 248.853 70.7115C249.325 70.2518 249.798 69.8271 250.27 69.4374C250.741 69.0477 251.119 68.708 251.403 68.4182C251.522 68.2974 251.838 68.1814 252.352 68.07C252.89 67.9345 253.323 67.8143 253.651 67.7095C253.792 67.6346 254.059 67.6835 254.453 67.8562C254.847 68.0056 255.124 68.1824 255.284 68.3867C255.58 68.8893 255.749 69.3031 255.791 69.6281C255.856 69.9522 255.803 70.3388 255.634 70.7879C255.488 71.2127 255.198 71.8758 254.766 72.7772C254.286 73.7268 253.608 74.6367 252.733 75.507C251.882 76.3531 251.008 77.095 250.113 77.7328C249.664 78.145 249.193 78.523 248.698 78.8669C248.227 79.2099 247.745 79.5183 247.251 79.7922C246.946 79.9662 246.629 80.1289 246.3 80.2804C245.995 80.431 245.678 80.5704 245.35 80.6985C245.186 80.7509 245.033 80.8496 244.891 80.9945C244.75 81.116 244.631 81.2951 244.534 81.5317C244.389 81.8633 244.304 82.1461 244.277 82.3802C244.274 82.5902 244.201 82.7677 244.059 82.9126C243.988 82.985 243.879 83.2687 243.732 83.7635C243.609 84.2343 243.461 84.7991 243.288 85.4581C243.139 86.093 243.014 86.692 242.912 87.2552C242.811 87.7951 242.771 88.158 242.791 88.3438C242.813 88.4596 242.834 88.5871 242.856 88.7263C242.9 88.8413 243.004 88.9309 243.166 88.9952C243.517 88.9129 243.799 88.7864 244.011 88.6157C244.223 88.4217 244.46 88.1685 244.721 87.8562C245.006 87.4964 245.268 87.1141 245.507 86.7093C245.769 86.3036 245.985 85.888 246.155 85.4623C246.252 85.2023 246.326 84.9316 246.376 84.65C246.427 84.345 246.513 84.0738 246.633 83.8364C246.641 83.2998 246.635 82.9036 246.615 82.6478C246.619 82.3678 246.599 82.147 246.555 81.9853C246.534 81.7995 246.479 81.5916 246.389 81.3615C246.578 81.2383 246.684 81.1413 246.708 81.0705C246.756 80.9989 246.861 80.9835 247.024 81.0244C247.326 81.0838 247.604 81.1906 247.858 81.3449C248.135 81.4984 248.401 81.6989 248.653 81.9465C248.745 82.0366 248.802 82.1278 248.824 82.2203C248.846 82.3129 248.833 82.4183 248.784 82.5365C248.757 82.8173 248.718 83.0985 248.667 83.3801C248.64 83.6376 248.625 83.8947 248.621 84.1513C248.453 84.4603 248.344 84.7907 248.292 85.1423C248.24 85.4705 248.154 85.8 248.033 86.1308C247.888 86.439 247.744 86.7472 247.6 87.0554C247.455 87.3636 247.288 87.6494 247.098 87.9126C246.81 88.4357 246.477 88.9021 246.098 89.3118C245.743 89.7208 245.364 90.0955 244.963 90.4361L243.799 91.1766ZM245.597 78.2064C245.876 78.2432 246.074 78.2479 246.191 78.2205C246.331 78.1689 246.473 78.0473 246.615 77.8558C247.722 77.094 248.735 76.3471 249.655 75.6152C250.575 74.86 251.343 74.1451 251.959 73.4705C252.598 72.7718 253.015 72.1625 253.209 71.6426C253.329 71.3819 253.461 71.1324 253.605 70.8942C253.771 70.6551 253.88 70.3832 253.931 70.0782L253.806 69.1032C253.148 69.4295 252.619 69.7279 252.219 69.9985C251.842 70.2683 251.346 70.7171 250.731 71.345C250.495 71.5865 250.139 71.9954 249.664 72.5718C249.214 73.124 248.715 73.7478 248.169 74.4432C247.622 75.1387 247.111 75.8213 246.635 76.4909C246.183 77.1598 245.837 77.7316 245.597 78.2064ZM259.849 90.3324C259.71 90.2907 259.571 90.2606 259.431 90.2422C259.292 90.2004 259.153 90.1587 259.013 90.1169C258.898 90.0744 258.758 90.0443 258.595 90.0267C258.367 89.7083 258.279 89.3149 258.333 88.8467C258.387 88.3551 258.499 87.8498 258.67 87.3308C258.864 86.8109 259.046 86.3032 259.216 85.8075C259.41 85.311 259.521 84.8873 259.55 84.5365C259.528 84.444 259.493 84.4219 259.446 84.4702C259.399 84.4952 259.375 84.531 259.374 84.5777C259.208 84.7701 258.973 84.9066 258.669 84.9872C258.365 85.0679 258.084 85.1361 257.827 85.1917C257.383 85.2773 256.939 85.3746 256.494 85.4835C256.05 85.5924 255.617 85.7125 255.195 85.8439C255.126 85.7997 255.045 85.7443 254.953 85.6776C254.884 85.61 254.815 85.5542 254.746 85.51C254.582 85.5157 254.44 85.6723 254.319 85.9797C254.198 86.2871 254.088 86.6641 253.988 87.1106C253.889 87.5339 253.789 87.9454 253.69 88.3453C253.615 88.7211 253.541 88.9918 253.469 89.1576C253.095 89.2174 252.827 89.2385 252.664 89.2209C252.524 89.2025 252.257 89.1419 251.862 89.0392C251.68 88.7891 251.578 88.5479 251.558 88.3154C251.562 88.0821 251.6 87.8242 251.674 87.5418C251.799 87.001 251.898 86.5661 251.973 86.2371C252.071 85.9071 252.229 85.4819 252.446 84.9612C252.567 84.7005 252.675 84.4518 252.772 84.2152C252.892 83.9545 252.955 83.6725 252.959 83.3691C253.149 83.1293 253.281 82.8681 253.355 82.5857C253.429 82.3033 253.515 82.0204 253.612 81.7372C253.999 80.7675 254.302 80.0223 254.519 79.5017C254.76 78.9569 254.929 78.5312 255.027 78.2246C255.125 77.918 255.187 77.636 255.214 77.3785C255.242 77.0511 255.443 76.8808 255.816 76.8677C256.049 76.8595 256.293 76.9442 256.547 77.1218C256.801 77.2761 256.996 77.4791 257.132 77.7308C257.268 77.9826 257.276 78.2505 257.155 78.5345C257.082 78.7236 256.961 79.031 256.792 79.4567C256.646 79.8583 256.477 80.3073 256.283 80.8038C256.113 81.2762 255.943 81.7252 255.774 82.1509C255.628 82.5524 255.507 82.8482 255.411 83.0381C255.386 83.1322 255.339 83.2155 255.268 83.288C255.197 83.3371 255.161 83.42 255.159 83.5366C255.321 83.6476 255.588 83.6848 255.962 83.6483C256.359 83.5877 256.64 83.5079 256.804 83.4088C257.154 83.3965 257.492 83.3847 257.819 83.3732C258.168 83.3609 258.518 83.3486 258.868 83.3363C259.215 83.534 259.478 83.8395 259.659 84.2529C259.828 83.8039 260.058 83.2128 260.349 82.4797C260.639 81.7233 260.918 80.9789 261.185 80.2467C261.453 79.5144 261.612 78.9608 261.664 78.5858C261.714 78.3742 261.81 78.1843 261.952 78.0161C262.095 77.8478 262.248 77.7142 262.413 77.6151C262.737 77.7669 263.049 77.8959 263.351 78.0019C263.676 78.0837 263.882 78.3446 263.969 78.7846C263.942 78.9954 263.893 79.2071 263.82 79.4195C263.747 79.6086 263.674 79.7977 263.602 79.9868C263.358 80.6716 263.056 81.4284 262.694 82.2573C262.333 83.0629 261.995 83.8909 261.679 84.7415C261.387 85.5679 261.178 86.3448 261.051 87.0722C261.05 87.1421 260.988 87.3775 260.866 87.7782C260.766 88.1781 260.656 88.5668 260.534 88.9442C260.435 89.3207 260.374 89.5211 260.35 89.5453C260.348 89.7086 260.299 89.8619 260.204 90.0051C260.109 90.1251 259.991 90.2342 259.849 90.3324ZM269.04 89.0648C268.549 89.1753 268.234 89.2214 268.094 89.203C267.978 89.1604 267.794 89.027 267.541 88.8027C267.17 88.6292 266.859 88.407 266.607 88.136C266.378 87.8642 266.207 87.5788 266.095 87.2796C266.006 86.9562 265.975 86.6891 266.002 86.4783C266.084 85.6593 266.295 84.7774 266.635 83.8327C266.975 82.888 267.384 81.9758 267.863 81.0962C268.342 80.2165 268.854 79.464 269.4 78.8385C269.969 78.1889 270.511 77.7618 271.027 77.5571C271.496 77.354 271.94 77.2685 272.359 77.3004C272.778 77.3323 273.078 77.5432 273.259 77.9333C273.598 78.5976 273.511 79.0321 272.995 79.2368C272.925 79.2392 272.843 79.2771 272.748 79.3504C272.654 79.4003 272.607 79.472 272.605 79.5653C272.698 79.6087 272.954 79.6113 273.374 79.5732C273.795 79.5118 274.216 79.427 274.637 79.319C275.081 79.1867 275.375 79.0598 275.516 78.9383C275.657 78.8633 275.763 78.8247 275.833 78.8222C275.903 78.8197 276.077 78.8369 276.356 78.8737C276.751 78.9765 276.947 79.1095 276.945 79.2728C276.943 79.3661 276.977 79.4582 277.046 79.5491C277.115 79.6166 277.196 79.6487 277.289 79.6454C277.452 79.663 277.427 79.7688 277.214 79.9629C277.025 80.1561 276.695 80.4242 276.224 80.7672C275.777 81.0628 275.494 81.2593 275.376 81.3567C275.282 81.43 275.268 81.5937 275.334 81.8479C275.514 82.2846 275.518 82.7975 275.346 83.3865C275.175 83.9755 274.874 84.5807 274.446 85.202C274.017 85.8234 273.496 86.413 272.882 86.971C272.291 87.5047 271.655 87.9702 270.973 88.3672C270.315 88.7402 269.671 88.9727 269.04 89.0648ZM268.468 87.5459C268.561 87.5426 268.725 87.4902 268.96 87.3887C269.195 87.2638 269.383 87.1639 269.524 87.089C269.618 86.9924 269.736 86.8833 269.878 86.7618C270.043 86.616 270.173 86.5299 270.266 86.5033C270.36 86.5 270.477 86.4609 270.618 86.386C270.759 86.2877 270.96 86.1058 271.22 85.8401C271.481 85.5511 271.825 85.131 272.252 84.5796C272.726 84.0499 273.095 83.5706 273.357 83.1416C273.62 82.6893 273.696 82.2785 273.585 81.9094C273.563 81.8169 273.494 81.761 273.378 81.7418C273.285 81.7217 273.157 81.6679 272.995 81.5803C272.762 81.5885 272.542 81.538 272.333 81.4287C272.149 81.2953 271.93 81.1281 271.676 80.9271L271.127 80.2469L270.524 80.8627C270.145 81.2491 269.741 81.823 269.31 82.5844C268.903 83.3215 268.554 84.08 268.263 84.8598C267.972 85.6162 267.8 86.2169 267.747 86.6618C267.719 87.0126 267.773 87.2438 267.912 87.3556C268.05 87.4673 268.235 87.5307 268.468 87.5459Z" fill="#05394B"/>
<path d="M34.6553 51.6624C119.443 70.6102 199.782 62.7725 279.861 30.6646C273.352 26.173 268.516 28.688 264.761 30.0926C235.772 39.9731 205.246 44.0719 175.044 48.3829C131.523 54.6536 89.3031 50.8634 47.409 41.8305C45.5722 41.5365 43.9787 40.7198 40.1975 39.1518C60.3243 33.4686 81.4742 37.0949 98.5497 28.2758C98.1448 27.3285 98.0102 26.1035 97.6054 25.1562C84.1526 25.8908 70.4026 26.6581 56.9229 27.1478C43.4432 27.6374 30.2337 27.8495 16.7809 28.5841C6.92093 29.1719 3.19154 33.5489 7.56515 40.5067C13.0726 49.5714 20.2821 57.7051 26.9243 66.1492C27.6263 67.0638 28.6524 68.1908 29.8949 68.5502C33.2713 69.1709 36.5669 69.0567 40.2136 69.3997C40.5386 66.8845 41.7282 64.0264 41.1888 61.8541C40.2714 58.9796 37.922 56.7582 34.6553 51.6624Z" fill="#073B4D"/>
</svg>
