<svg width="68" height="61" viewBox="0 0 68 61" fill="none" xmlns="http://www.w3.org/2000/svg">
<g clip-path="url(#clip0_194_156)">
<path fill-rule="evenodd" clip-rule="evenodd" d="M26.6701 32.2411C24.0068 19.3345 21.7599 20.1808 17.5864 19.825C7.55643 19.0346 3.01743 18.5898 1.5611 22.143C1.84905 25.7035 2.85112 29.188 4.5191 32.4291C7.43176 36.8796 13.6736 35.1081 35.0256 34.3913C35.3157 34.3852 35.5911 34.2761 35.7915 34.0878C35.9918 33.8995 36.1005 33.6475 36.0938 33.3873C36.087 33.1271 35.9653 32.88 35.7554 32.7003C35.5455 32.5206 35.2647 32.4231 34.9746 32.4291C32.2064 32.4241 29.4439 32.3326 26.6701 32.2411ZM24.2079 32.1623C23.462 29.0646 22.2375 26.0755 20.5699 23.2817C15.717 22.5928 10.7956 22.3739 5.89043 22.6285C5.32943 22.6285 5.16226 22.6285 4.95543 23.1165C8.02393 34.953 6.57043 31.626 24.2108 32.1623H24.2079Z" fill="#0C0F1E"/>
<path fill-rule="evenodd" clip-rule="evenodd" d="M36.0116 3.18739C37.2271 0.833804 24.4714 -3.53786 21.7458 5.26393C21.1714 6.9208 21.2222 8.70134 21.8903 10.3297C22.5583 11.958 23.8064 13.3433 25.441 14.2709C27.0756 15.1985 29.0057 15.6166 30.9321 15.4605C32.8585 15.3044 34.6737 14.5828 36.0966 13.4074C41.6499 8.93664 38.1309 2.49351 36.0116 3.18739ZM35.3769 3.69572C35.2152 3.74646 35.0424 3.76232 34.8726 3.74201C34.7028 3.7217 34.5407 3.66578 34.3994 3.5788C30.1381 1.23285 25.9362 2.74005 25.0777 6.02897C24.7293 7.05777 24.7645 8.16045 25.178 9.16969C25.5915 10.1789 26.3606 11.0396 27.3688 11.6212C28.377 12.2027 29.5691 12.4734 30.7643 12.3921C31.9595 12.3108 33.0925 11.882 33.9914 11.1708C34.5638 10.8435 35.0577 10.4171 35.444 9.91647C35.8303 9.41583 36.1014 8.85104 36.2412 8.25522C36.3811 7.6594 36.387 7.04452 36.2585 6.44664C36.13 5.84875 35.8698 5.27989 35.4931 4.77339C35.3622 4.62195 35.2818 4.44035 35.2613 4.24962C35.2407 4.0589 35.2808 3.86685 35.3769 3.69572Z" fill="#0C0F1E"/>
<path fill-rule="evenodd" clip-rule="evenodd" d="M26.4462 20.2165C36.9211 17.4918 46.1152 29.6384 41.0152 31.9793C40.7353 32.0831 40.5128 32.2824 40.3967 32.5334C40.2806 32.7843 40.2804 33.0664 40.3961 33.3175C40.5119 33.5686 40.734 33.7682 41.0138 33.8723C41.2936 33.9765 41.608 33.9767 41.8879 33.8728C42.6465 33.6045 43.3224 33.1769 43.8588 32.6259C44.3952 32.0748 44.7764 31.4164 44.9706 30.7059C47.1551 24.2501 38.1734 16.4853 29.7386 17.2758C22.7884 18.1399 25.0692 20.6867 26.4462 20.2165Z" fill="#0C0F1E"/>
<path fill-rule="evenodd" clip-rule="evenodd" d="M16.9887 51.5298C17.2153 50.9147 17.4193 50.2717 17.6318 49.6134C18.785 46.0271 20.0713 42.024 24.939 39.5865C25.2018 39.4606 25.3995 39.2478 25.4901 38.9932C25.5807 38.7386 25.5571 38.4624 25.4243 38.2231C25.2915 37.9839 25.06 37.8005 24.7789 37.712C24.4979 37.6234 24.1894 37.6367 23.919 37.7489C21.1606 39.0368 18.7875 40.9003 16.9996 43.1827C15.2117 45.4651 14.0613 48.0994 13.6453 50.8639C12.6537 54.6002 8.03533 55.4389 8.80883 50.7012C8.77591 48.3897 9.33091 46.1018 10.4316 44.0116C11.5324 41.9214 13.1499 40.0838 15.1612 38.6385C15.4144 38.5138 15.602 38.3039 15.6828 38.0551C15.7636 37.8063 15.7308 37.5389 15.5918 37.3117C15.4528 37.0846 15.2189 36.9162 14.9415 36.8438C14.6642 36.7713 14.3661 36.8007 14.1128 36.9254C4.1395 41.2717 2.02016 58.8879 11.3022 57.1189C12.9427 56.7936 14.0958 56.1124 14.9572 55.1924C15.2612 55.914 15.746 56.5633 16.3741 57.0903C17.0022 57.6173 17.7568 58.0078 18.5797 58.2318C19.4026 58.4557 20.2719 58.5072 21.1205 58.3821C21.9691 58.257 22.7744 57.9588 23.4742 57.5104C26.4917 55.6651 27.7922 53.0828 29.0643 50.5665C29.8633 48.9805 30.651 47.4199 31.841 46.0881C32.3595 45.4934 33.3342 45.3409 34.4732 45.1579C37.1733 44.7309 40.8113 44.1539 41.5395 37.2329C41.5811 36.9638 41.5036 36.6907 41.3236 36.4722C41.1435 36.2536 40.8752 36.107 40.5762 36.0638C40.276 36.0258 39.9712 36.095 39.7274 36.2567C39.4836 36.4183 39.3204 36.6594 39.2728 36.9279C38.1282 41.8791 36.108 42.057 33.8187 42.2604C33.1103 42.3214 32.3737 42.3874 31.6313 42.5984C28.968 43.3609 27.5372 46.1288 26.0638 48.9704C25.432 50.1878 24.7945 51.418 24.0493 52.5109C22.7092 54.4705 20.4708 56.5903 18.36 55.2813C16.7903 54.3079 16.9122 53.2531 17.0057 52.4219C17.0453 52.0814 17.0793 51.7738 16.9887 51.5298Z" fill="#0C0F1E"/>
<path fill-rule="evenodd" clip-rule="evenodd" d="M61.183 39.0807C61.4729 41.0514 61.0979 43.0548 60.1063 44.8325C72.5872 55.7871 64.8436 63.196 52.241 60.4129C52.1452 60.3913 52.0498 60.3685 51.9548 60.3443C44.0696 60.9111 35.887 61.1373 34.8103 56.608C34.6805 56.0492 34.6807 55.4724 34.8108 54.9136C34.9409 54.3548 35.1982 53.8262 35.5666 53.3607C35.9349 52.8953 36.4064 52.503 36.9515 52.2085C37.4966 51.914 38.1036 51.7236 38.7345 51.6492C39.0278 51.6278 39.3192 51.7084 39.5482 51.8743C39.7772 52.0401 39.9265 52.2786 39.965 52.5403C40.0036 52.8021 39.9286 53.0672 39.7554 53.2807C39.5823 53.4942 39.3243 53.6399 39.0348 53.6876C38.6339 53.8068 38.2895 54.0436 38.0571 54.3599C37.8247 54.6762 37.7179 55.0535 37.7539 55.431C37.7899 55.8084 37.9667 56.164 38.2556 56.4403C38.5446 56.7165 38.9289 56.8974 39.3465 56.9537C40.4515 57.2536 42.1656 57.3044 44.8261 57.3858C45.8858 57.4163 47.0985 57.4518 48.4811 57.5103C48.1666 56.5368 48.1241 55.3626 48.1241 54.0079C48.3225 48.7187 48.3791 47.8825 47.974 47.6156C47.6425 47.3919 46.9936 47.5521 45.849 45.9381C44.3977 43.2796 44.1381 40.2231 45.1236 37.3981C46.172 33.5093 47.4838 31.7886 52.0426 35.6113C52.7287 35.5529 53.4193 35.5529 54.1053 35.6113L54.8675 35.0039C56.6525 33.5729 57.4798 32.9095 58.4771 33.7762C59.9503 35.2618 60.8929 37.1095 61.183 39.0807ZM58.7576 40.3947C58.8459 41.7357 58.5432 43.0743 57.8793 44.2784C57.0605 45.0053 57.4798 45.4069 58.5395 46.4236C59.2478 47.1022 60.2395 48.0553 61.3445 49.5625C62.8461 51.6162 64.515 54.9356 62.4466 56.7529C61.2623 57.8001 57.7036 57.6603 55.8676 57.5866L55.59 57.5764C53.788 57.4569 52.7566 57.5001 52.19 57.0604C51.1983 56.2827 51.6601 54.0104 51.9491 46.7286C52.0143 45.5441 51.3371 45.3637 50.5381 45.1527C49.8298 44.9672 49.0223 44.7562 48.5605 43.7929C47.8315 41.5971 47.9191 39.248 48.8098 37.1007C49.3481 37.3905 49.725 37.6929 50.0508 37.9547C50.6175 38.4122 51.0226 38.7325 51.8103 38.5901C53.3686 38.2978 54.0118 38.4071 54.4226 38.4758C55.0828 38.5876 55.1281 38.5952 57.375 36.6305C58.1938 37.7565 58.6698 39.0553 58.7576 40.3947Z" fill="#0C0F1E"/>
</g>
<defs>
<clipPath id="clip0_194_156">
<rect width="68" height="61" fill="white"/>
</clipPath>
</defs>
</svg>
