<svg width="39" height="33" viewBox="0 0 39 33" fill="none" xmlns="http://www.w3.org/2000/svg">
<g clip-path="url(#clip0_10_270)">
<path fill-rule="evenodd" clip-rule="evenodd" d="M15.284 17.4419C13.7577 10.4596 12.4701 10.9175 10.0784 10.725C4.33044 10.2974 1.72925 10.0568 0.894665 11.979C1.05968 13.9052 1.63394 15.7903 2.58982 17.5436C4.259 19.9513 7.83603 18.9929 20.0723 18.6051C20.2385 18.6018 20.3964 18.5428 20.5112 18.4409C20.626 18.3391 20.6883 18.2028 20.6845 18.062C20.6806 17.9212 20.6108 17.7875 20.4906 17.6903C20.3703 17.5931 20.2093 17.5403 20.0431 17.5436C18.4567 17.5409 16.8736 17.4914 15.284 17.4419ZM13.873 17.3993C13.4455 15.7235 12.7438 14.1064 11.7881 12.595C9.00704 12.2224 6.1867 12.1039 3.3757 12.2416C3.0542 12.2416 2.9584 12.2416 2.83987 12.5056C4.59835 18.909 3.76539 17.1091 13.8746 17.3993H13.873Z" fill="#0C0F1E"/>
<path fill-rule="evenodd" clip-rule="evenodd" d="M20.6374 1.72432C21.3339 0.451074 14.024 -1.91393 12.462 2.8477C12.1328 3.74404 12.162 4.70728 12.5448 5.58819C12.9277 6.46911 13.6429 7.21852 14.5796 7.72033C15.5164 8.22214 16.6225 8.44834 17.7264 8.36389C18.8304 8.27944 19.8707 7.88905 20.6861 7.2532C23.8686 4.83457 21.8519 1.34895 20.6374 1.72432ZM20.2737 1.99932C20.181 2.02678 20.082 2.03535 19.9846 2.02437C19.8873 2.01338 19.7944 1.98313 19.7135 1.93607C17.2714 0.666949 14.8634 1.48232 14.3715 3.26157C14.1718 3.81814 14.192 4.41467 14.4289 4.96065C14.6659 5.50663 15.1067 5.97225 15.6844 6.28687C16.2622 6.60148 16.9454 6.74791 17.6303 6.70393C18.3152 6.65996 18.9645 6.42798 19.4797 6.0432C19.8077 5.86618 20.0907 5.63549 20.3121 5.36465C20.5335 5.09381 20.6888 4.78827 20.769 4.46594C20.8491 4.14361 20.8525 3.81097 20.7789 3.48753C20.7052 3.16408 20.5561 2.85633 20.3402 2.58232C20.2652 2.5004 20.2192 2.40216 20.2074 2.29898C20.1956 2.1958 20.2186 2.0919 20.2737 1.99932Z" fill="#0C0F1E"/>
<path fill-rule="evenodd" clip-rule="evenodd" d="M15.1557 10.9367C21.1586 9.46273 26.4275 16.0339 23.5048 17.3002C23.3444 17.3564 23.2169 17.4642 23.1504 17.6C23.0839 17.7357 23.0837 17.8883 23.1501 18.0242C23.2164 18.16 23.3437 18.268 23.504 18.3243C23.6644 18.3807 23.8445 18.3808 24.0049 18.3246C24.4397 18.1794 24.827 17.9481 25.1344 17.65C25.4418 17.3519 25.6603 16.9957 25.7715 16.6114C27.0234 13.1189 21.8763 8.91823 17.0425 9.34585C13.0595 9.81335 14.3666 11.1911 15.1557 10.9367Z" fill="#0C0F1E"/>
<path fill-rule="evenodd" clip-rule="evenodd" d="M9.73577 27.8767C9.86567 27.544 9.98258 27.1961 10.1044 26.84C10.7652 24.8998 11.5024 22.7342 14.2919 21.4156C14.4425 21.3475 14.5558 21.2323 14.6077 21.0946C14.6597 20.9569 14.6461 20.8074 14.57 20.678C14.4939 20.5486 14.3613 20.4494 14.2002 20.4015C14.0391 20.3536 13.8623 20.3608 13.7074 20.4215C12.1266 21.1182 10.7666 22.1263 9.74203 23.3611C8.71743 24.5958 8.05818 26.0209 7.81979 27.5165C7.25149 29.5377 4.60485 29.9915 5.04812 27.4285C5.02925 26.178 5.34731 24.9403 5.97811 23.8095C6.60892 22.6787 7.53586 21.6846 8.68848 20.9027C8.8336 20.8353 8.94113 20.7217 8.98742 20.5871C9.0337 20.4525 9.01495 20.3079 8.93528 20.185C8.85562 20.0621 8.72156 19.971 8.56261 19.9318C8.40366 19.8926 8.23283 19.9085 8.08771 19.976C2.37224 22.3272 1.15771 31.8573 6.47698 30.9003C7.41711 30.7243 8.07796 30.3558 8.57157 29.8581C8.74583 30.2485 9.02364 30.5998 9.38357 30.8848C9.74351 31.1699 10.1759 31.3812 10.6476 31.5024C11.1192 31.6235 11.6173 31.6513 12.1036 31.5837C12.59 31.516 13.0514 31.3547 13.4524 31.1121C15.1817 30.1138 15.927 28.7168 16.656 27.3556C17.1139 26.4976 17.5653 25.6533 18.2473 24.9328C18.5444 24.6111 19.103 24.5286 19.7557 24.4296C21.3031 24.1986 23.3879 23.8865 23.8052 20.1423C23.8291 19.9967 23.7847 19.849 23.6815 19.7308C23.5783 19.6126 23.4246 19.5333 23.2532 19.5098C23.0811 19.4893 22.9065 19.5267 22.7668 19.6142C22.6271 19.7016 22.5335 19.8321 22.5063 19.9773C21.8503 22.6558 20.6926 22.7521 19.3806 22.8621C18.9747 22.8951 18.5525 22.9308 18.1271 23.045C16.6008 23.4575 15.7808 24.9548 14.9365 26.4921C14.5744 27.1507 14.2091 27.8162 13.7821 28.4075C13.014 29.4676 11.7313 30.6143 10.5216 29.9062C9.62211 29.3796 9.69193 28.809 9.74551 28.3593C9.76825 28.1751 9.78773 28.0087 9.73577 27.8767Z" fill="#0C0F1E"/>
<path fill-rule="evenodd" clip-rule="evenodd" d="M35.0624 21.142C35.2286 22.2081 35.0137 23.2919 34.4454 24.2536C41.5979 30.1798 37.1603 34.188 29.938 32.6823C29.8831 32.6707 29.8284 32.6583 29.774 32.6452C25.2552 32.9518 20.5659 33.0742 19.9489 30.624C19.8745 30.3217 19.8746 30.0096 19.9492 29.7073C20.0238 29.405 20.1712 29.119 20.3823 28.8672C20.5934 28.6154 20.8636 28.4032 21.176 28.2439C21.4883 28.0846 21.8362 27.9816 22.1978 27.9413C22.3659 27.9298 22.5328 27.9734 22.6641 28.0631C22.7953 28.1528 22.8809 28.2818 22.903 28.4234C22.9251 28.565 22.8821 28.7084 22.7828 28.8239C22.6836 28.9395 22.5358 29.0183 22.3699 29.0441C22.1401 29.1085 21.9428 29.2367 21.8096 29.4078C21.6764 29.5789 21.6152 29.783 21.6358 29.9872C21.6565 30.1914 21.7578 30.3838 21.9233 30.5332C22.0889 30.6827 22.3092 30.7805 22.5485 30.811C23.1817 30.9732 24.1641 31.0007 25.6887 31.0447C26.296 31.0612 26.991 31.0805 27.7833 31.1121C27.6031 30.5855 27.5787 29.9502 27.5787 29.2173C27.6924 26.356 27.7249 25.9036 27.4927 25.7592C27.3027 25.6382 26.9309 25.7248 26.2749 24.8517C25.4432 23.4135 25.2944 21.76 25.8592 20.2317C26.46 18.128 27.2118 17.1971 29.8243 19.2651C30.2175 19.2335 30.6133 19.2335 31.0064 19.2651L31.4432 18.9365C32.4661 18.1623 32.9402 17.8035 33.5118 18.2723C34.356 19.076 34.8962 20.0756 35.0624 21.142ZM33.6725 21.8528C33.7231 22.5783 33.5496 23.3024 33.1692 23.9538C32.6999 24.3471 32.9402 24.5643 33.5475 25.1143C33.9534 25.4815 34.5217 25.9971 35.155 26.8125C36.0155 27.9235 36.9719 29.7192 35.7866 30.7023C35.1079 31.2688 33.0685 31.1932 32.0163 31.1533L31.8572 31.1478C30.8245 31.0832 30.2335 31.1066 29.9088 30.8687C29.3405 30.448 29.6051 29.2187 29.7707 25.2793C29.8081 24.6386 29.42 24.541 28.9621 24.4268C28.5562 24.3265 28.0935 24.2123 27.8288 23.6912C27.4111 22.5033 27.4612 21.2325 27.9717 20.0708C28.2802 20.2276 28.4961 20.3912 28.6829 20.5328C29.0076 20.7803 29.2398 20.9536 29.6912 20.8766C30.5842 20.7185 30.9528 20.7776 31.1882 20.8147C31.5666 20.8752 31.5925 20.8793 32.8802 19.8165C33.3494 20.4256 33.6222 21.1282 33.6725 21.8528Z" fill="#0C0F1E"/>
</g>
<defs>
<clipPath id="clip0_10_270">
<rect width="38.9691" height="33" fill="white"/>
</clipPath>
</defs>
</svg>
