<svg width="104" height="78" viewBox="0 0 104 78" fill="none" xmlns="http://www.w3.org/2000/svg">
<g clip-path="url(#clip0_194_189)">
<path fill-rule="evenodd" clip-rule="evenodd" d="M40.7897 41.2263C36.7164 24.7228 33.28 25.805 26.897 25.35C11.557 24.3393 4.61503 23.7705 2.3877 28.314C2.8281 32.8667 4.36067 37.3224 6.9117 41.4668C11.3664 47.1575 20.9127 44.8923 53.5687 43.9758C54.0123 43.968 54.4337 43.8284 54.74 43.5877C55.0464 43.3469 55.2127 43.0247 55.2024 42.692C55.192 42.3593 55.0059 42.0433 54.6849 41.8135C54.3639 41.5837 53.9343 41.459 53.4907 41.4668C49.257 41.4603 45.032 41.3433 40.7897 41.2263ZM37.024 41.1255C35.8831 37.1646 34.0104 33.3425 31.46 29.77C24.0379 28.8892 16.511 28.6092 9.00903 28.9348C8.15103 28.9348 7.89536 28.9348 7.57903 29.5588C12.272 44.694 10.049 40.4398 37.0284 41.1255H37.024Z" fill="#0C0F1E"/>
<path fill-rule="evenodd" clip-rule="evenodd" d="M55.0766 4.07568C56.9356 1.06618 37.4269 -4.52382 33.2583 6.73093C32.3799 8.84955 32.4576 11.1263 33.4793 13.2085C34.5011 15.2906 36.4098 17.0619 38.9098 18.248C41.4099 19.4342 44.3617 19.9688 47.3079 19.7692C50.2542 19.5696 53.0304 18.6468 55.2066 17.1439C63.6999 11.4272 58.3179 3.18843 55.0766 4.07568ZM54.1059 4.72568C53.8586 4.79056 53.5944 4.81084 53.3346 4.78486C53.0749 4.75889 52.827 4.6874 52.6109 4.57618C46.0936 1.57643 39.6673 3.50368 38.3543 7.70918C37.8214 9.02469 37.8752 10.4347 38.5076 11.7252C39.14 13.0157 40.3163 14.1162 41.8583 14.8599C43.4002 15.6035 45.2234 15.9496 47.0514 15.8457C48.8793 15.7417 50.6121 15.1934 51.9869 14.2839C52.8624 13.8655 53.6177 13.3202 54.2086 12.6801C54.7994 12.0399 55.2139 11.3177 55.4278 10.5559C55.6417 9.79398 55.6507 9.00775 55.4542 8.24324C55.2577 7.47873 54.8598 6.75133 54.2836 6.10368C54.0834 5.91004 53.9605 5.67783 53.9291 5.43395C53.8976 5.19006 53.959 4.94449 54.1059 4.72568Z" fill="#0C0F1E"/>
<path fill-rule="evenodd" clip-rule="evenodd" d="M40.4472 25.8506C56.4675 22.3666 70.5292 37.8984 62.7292 40.8916C62.3011 41.0244 61.9608 41.2792 61.7833 41.6001C61.6057 41.921 61.6054 42.2817 61.7824 42.6028C61.9593 42.9238 62.2991 43.179 62.727 43.3122C63.1549 43.4454 63.6357 43.4456 64.0639 43.3129C65.2241 42.9698 66.2578 42.423 67.0782 41.7184C67.8985 41.0138 68.4816 40.1719 68.7785 39.2634C72.1195 31.0084 58.3829 21.0796 45.4825 22.0904C34.8529 23.1954 38.3412 26.4519 40.4472 25.8506Z" fill="#0C0F1E"/>
<path fill-rule="evenodd" clip-rule="evenodd" d="M25.9825 65.8907C26.3292 65.1042 26.6412 64.282 26.9662 63.4402C28.7299 58.8545 30.6972 53.7357 38.1419 50.619C38.5438 50.458 38.8461 50.1858 38.9847 49.8603C39.1233 49.5347 39.0872 49.1815 38.8841 48.8756C38.6811 48.5697 38.327 48.3352 37.8971 48.222C37.4672 48.1088 36.9954 48.1257 36.5819 48.2692C32.3631 49.916 28.7337 52.2989 25.9992 55.2174C23.2648 58.1358 21.5054 61.5043 20.8692 65.0392C19.3525 69.8167 12.2892 70.8892 13.4722 64.8312C13.4219 61.8755 14.2707 58.95 15.9542 56.2773C17.6376 53.6045 20.1115 51.2548 23.1875 49.4067C23.5748 49.2473 23.8618 48.9789 23.9853 48.6608C24.1089 48.3426 24.0588 48.0007 23.8462 47.7102C23.6336 47.4197 23.2758 47.2045 22.8516 47.1119C22.4274 47.0192 21.9715 47.0568 21.5842 47.2162C6.33088 52.7737 3.08955 75.2995 17.2855 73.0375C19.7945 72.6215 21.5582 71.7505 22.8755 70.574C23.3406 71.4967 24.082 72.327 25.0426 73.0008C26.0032 73.6746 27.1573 74.174 28.4159 74.4604C29.6745 74.7468 31.004 74.8126 32.3019 74.6526C33.5997 74.4927 34.8313 74.1113 35.9015 73.538C40.5165 71.1785 42.5055 67.8765 44.4512 64.659C45.6732 62.631 46.8779 60.6355 48.6979 58.9325C49.4909 58.172 50.9815 57.977 52.7235 57.743C56.8532 57.197 62.4172 56.4592 63.5309 47.6095C63.5945 47.2653 63.476 46.9161 63.2006 46.6367C62.9252 46.3572 62.5149 46.1698 62.0575 46.1145C61.5984 46.0659 61.1323 46.1544 60.7594 46.3611C60.3866 46.5678 60.1369 46.8761 60.0642 47.2195C58.3135 53.5505 55.2239 53.778 51.7225 54.038C50.6392 54.116 49.5125 54.2005 48.3772 54.4702C44.3039 55.4452 42.1155 58.9845 39.8622 62.618C38.8959 64.1747 37.9209 65.7477 36.7812 67.1452C34.7315 69.651 31.3082 72.3615 28.0799 70.6877C25.6792 69.443 25.8655 68.0942 26.0085 67.0315C26.0692 66.596 26.1212 66.2027 25.9825 65.8907Z" fill="#0C0F1E"/>
<path fill-rule="evenodd" clip-rule="evenodd" d="M93.574 49.9721C94.0174 52.492 93.4438 55.0537 91.9273 57.3268C111.016 71.3343 99.1726 80.8081 79.898 77.2493C79.7515 77.2218 79.6056 77.1925 79.4603 77.1616C67.4006 77.8863 54.886 78.1756 53.2393 72.3841C53.0408 71.6695 53.041 70.9319 53.24 70.2174C53.439 69.503 53.8325 68.827 54.3959 68.2318C54.9592 67.6366 55.6803 67.135 56.514 66.7585C57.3477 66.3819 58.276 66.1384 59.241 66.0433C59.6896 66.016 60.1352 66.119 60.4855 66.3311C60.8358 66.5431 61.064 66.8481 61.123 67.1828C61.182 67.5175 61.0672 67.8564 60.8024 68.1295C60.5376 68.4025 60.143 68.5888 59.7003 68.6498C59.0872 68.8022 58.5604 69.105 58.205 69.5094C57.8496 69.9139 57.6862 70.3964 57.7413 70.879C57.7964 71.3616 58.0667 71.8163 58.5086 72.1695C58.9505 72.5228 59.5383 72.7541 60.177 72.8261C61.867 73.2096 64.4886 73.2746 68.5576 73.3786C70.1783 73.4176 72.033 73.4631 74.1476 73.5378C73.6666 72.2931 73.6016 70.7916 73.6016 69.0593C73.905 62.2961 73.9916 61.2268 73.372 60.8856C72.865 60.5996 71.8726 60.8043 70.122 58.7406C67.9024 55.3412 67.5053 51.4329 69.0126 47.8206C70.616 42.8481 72.6223 40.6478 79.5946 45.5358C80.6438 45.4611 81.7001 45.4611 82.7493 45.5358L83.915 44.7591C86.645 42.9293 87.9103 42.0811 89.4356 43.1893C91.6887 45.0888 93.1302 47.4516 93.574 49.9721ZM89.8646 51.6523C89.9997 53.3671 89.5367 55.0786 88.5213 56.6183C87.269 57.5478 87.9103 58.0613 89.531 59.3613C90.6143 60.2291 92.131 61.4478 93.821 63.3751C96.1176 66.0011 98.67 70.2456 95.5066 72.5693C93.6953 73.9083 88.2526 73.7296 85.4446 73.6353L85.02 73.6223C82.264 73.4696 80.6866 73.5248 79.82 72.9626C78.3033 71.9681 79.0096 69.0626 79.4516 59.7513C79.5513 58.2368 78.5156 58.0061 77.2936 57.7363C76.2103 57.4991 74.9753 57.2293 74.269 55.9976C73.1541 53.1897 73.288 50.1861 74.6503 47.4403C75.4736 47.8108 76.05 48.1976 76.5483 48.5323C77.415 49.1173 78.0346 49.5268 79.2393 49.3448C81.6226 48.9711 82.6063 49.1108 83.2346 49.1986C84.2443 49.3416 84.3136 49.3513 87.75 46.8391C89.0023 48.2788 89.7303 49.9396 89.8646 51.6523Z" fill="#0C0F1E"/>
</g>
<defs>
<clipPath id="clip0_194_189">
<rect width="104" height="78" fill="white"/>
</clipPath>
</defs>
</svg>
