<svg width="72" height="48" viewBox="0 0 72 48" fill="none" xmlns="http://www.w3.org/2000/svg">
<path fill-rule="evenodd" clip-rule="evenodd" d="M57.9064 37.7199C57.9064 37.5405 57.727 35.8262 56.9794 35.7266C56.2319 35.6269 56.0225 35.7266 55.574 36.2648C55.3009 36.7994 55.0811 37.3454 54.9162 37.8993C50.5505 38.1186 48.9358 38.896 45.527 38.9558C44.3309 39.1352 44.4804 40.1319 46.0652 40.2117C48.9088 40.401 51.7736 40.401 54.6172 40.2117C54.6172 41.5472 54.6172 41.7665 55.1255 42.3446C55.2745 42.4702 55.4871 42.5553 55.7235 42.5838C56.1721 42.7034 56.5309 42.5838 56.8897 42.3047C57.0656 42.0517 57.1864 41.7832 57.2485 41.5074C57.5109 41.0332 57.7207 40.5468 57.8765 40.0522L66.1593 39.5937C67.5647 39.5937 67.8039 38.3977 66.3088 38.2582C63.5337 37.9312 60.7241 37.7512 57.9064 37.7199Z" fill="#0C0F1E"/>
<path fill-rule="evenodd" clip-rule="evenodd" d="M71.2727 35.966C71.2727 35.3879 71.4222 34.5307 71.2727 33.8131C70.8241 31.4808 68.0433 31.441 65.0531 31.421C65.1325 31.0576 65.1824 30.6917 65.2026 30.3247C64.9366 29.4629 64.281 28.6762 63.3241 28.0703C62.3672 27.4645 61.1548 27.0686 59.8501 26.9359C53.481 25.9193 47.8894 29.3878 49.0257 31.9991C43.9124 32.936 43.5536 32.8762 43.0453 33.4942C41.6399 35.6072 41.6399 38.4378 41.6399 44.5575C42.1183 47.6273 43.5536 46.0127 43.5835 45.8133V42.0259C43.5835 41.388 44.0021 38.6969 43.9722 38.6969C44.0502 37.334 44.454 35.9882 45.1683 34.7101C51.2653 33.5421 57.6595 33.2299 63.9467 33.7932H66.309C66.8173 33.7932 67.8639 33.7932 67.6545 33.9526C67.4452 34.1121 67.6545 42.0657 67.6545 43.2219V44.9562C67.6545 45.6538 69.957 45.6339 47.6203 45.4545C45.0487 45.4545 44.9889 45.3349 44.6301 45.4545C44.5084 45.4942 44.4018 45.5517 44.3182 45.6227C44.2346 45.6938 44.1763 45.7765 44.1475 45.8647C44.1187 45.9529 44.1203 46.0444 44.1521 46.1321C44.1839 46.2199 44.2451 46.3017 44.3311 46.3715C44.8394 46.8698 44.8394 46.6904 52.4644 46.8897C72.1398 47.4479 70.1364 48.2253 70.7942 43.3016C71.2285 40.8678 71.3884 38.4157 71.2727 35.966ZM51.0889 31.74C50.7002 29.4476 60.3286 27.8927 62.6908 30.2649C62.9504 30.6026 63.0345 30.9882 62.93 31.3612C58.9748 31.1549 54.9963 31.2822 51.0889 31.74Z" fill="#0C0F1E"/>
<path fill-rule="evenodd" clip-rule="evenodd" d="M31.3535 15.6731C29.9193 15.0554 28.3438 14.5976 26.6888 14.3176C38.6496 11.1481 35.1211 -0.274048 22.7119 0.00502633C6.68444 0.782448 7.01337 11.0484 14.0403 13.9588C16.4325 14.9355 15.7148 13.7395 11.3192 15.8126C5.87399 18.2532 2.07532 22.016 0.733968 26.2978C-0.0886653 28.1557 -0.222064 30.119 0.345244 32.0189C0.597117 32.5765 1.06277 33.0807 1.69624 33.4817C2.32971 33.8827 3.1091 34.1667 3.95748 34.3056C4.80586 34.4445 5.6939 34.4334 6.53395 34.2736C7.374 34.1138 8.13701 33.8107 8.74767 33.3943C8.71759 36.3133 9.20946 39.2242 10.2129 42.0655C11.1398 44.7367 13.5619 47.2882 17.7182 47.2683C24.7751 47.2683 26.0908 47.6072 27.9746 46.1121C30.3582 43.3199 31.9496 40.2588 32.6692 37.0821C32.8785 36.0256 33.028 34.8495 33.1775 33.3146C33.7614 33.7343 34.4962 34.0478 35.3123 34.2257C36.1285 34.4036 36.9992 34.4399 37.8422 34.3312C41.251 33.9325 41.9687 32.1584 41.9986 29.9657C41.8369 27.2176 40.8048 24.5233 38.9701 22.06C37.1354 19.5967 34.5397 17.4201 31.3535 15.6731ZM22.9212 2.31736C23.9777 2.25884 25.0409 2.34843 26.0423 2.58035C27.0438 2.81226 27.9613 3.18138 28.7358 3.66394C29.5104 4.14649 30.1248 4.73181 30.5396 5.38221C30.9544 6.03262 31.1603 6.73371 31.1442 7.44037C29.4162 7.00666 27.8827 6.28626 26.6888 5.34731C25.8815 4.78916 25.3432 3.73266 23.6986 3.35392C21.456 2.87551 20.9476 5.48685 15.7447 6.98189C14.7028 7.29253 13.5918 7.48779 12.4555 7.55997C13.0236 4.01174 17.7182 2.47683 22.9212 2.31736ZM15.2962 12.6431C14.3886 12.2068 13.6459 11.6356 13.1268 10.9748C12.6078 10.3139 12.3268 9.58156 12.306 8.83574C15.48 8.96206 18.6293 8.39521 21.2766 7.2211C22.0335 6.87879 22.7175 6.46975 23.3099 6.00513C24.6217 7.01717 26.2563 7.82085 28.0942 8.35733C28.9979 8.63403 29.9534 8.82847 30.9349 8.93541C29.2305 14.0584 18.7947 14.2578 15.2962 12.6431ZM39.2177 31.5803C39.0835 31.8066 38.8695 32.0079 38.5938 32.1674C38.3182 32.3269 37.989 32.4397 37.6341 32.4964C37.2792 32.5531 36.909 32.552 36.5549 32.4932C36.2007 32.4343 35.8731 32.3195 35.5996 32.1584C34.4443 30.1409 33.4463 28.085 32.6094 25.9988C32.6094 25.8394 29.6192 24.8825 29.6192 27.0753C29.6192 28.2115 30.0378 30.8826 29.9481 31.7797C29.9195 35.0827 29.05 38.3585 27.3765 41.4675C26.8981 42.3845 25.6721 44.9759 24.3864 44.9759H21.3962C22.0206 41.0022 22.1007 36.9989 21.6354 33.0156C21.6354 32.8358 21.5283 32.6634 21.3376 32.5363C21.147 32.4092 20.8884 32.3378 20.6187 32.3378C20.3491 32.3378 20.0905 32.4092 19.8998 32.5363C19.7092 32.6634 19.6021 32.8358 19.6021 33.0156C18.3761 39.7532 18.1668 39.514 19.1236 44.9759H17.7182C15.4756 44.9759 14.2197 43.0822 13.7413 41.6071C9.85404 29.3079 14.9075 25.0221 10.7511 25.4207C9.0766 25.5603 9.52512 26.5968 7.76091 30.484C7.50888 31.0516 7.1889 31.6049 6.80405 32.1385C6.55628 32.3198 6.23739 32.4514 5.88337 32.5183C5.52936 32.5853 5.15433 32.5849 4.80062 32.5172C2.7673 32.3179 2.7673 30.8826 2.7673 29.6268C2.93569 26.6346 4.26469 23.7225 6.62464 21.1748C9.06916 18.7179 12.5567 16.8025 16.6418 15.6731C19.6392 15.0442 22.8541 15.0442 25.8516 15.6731C27.3576 15.9297 28.7915 16.347 30.0976 16.909C32.0919 17.9812 33.7916 19.2762 35.1211 20.7363C37.0634 22.7928 38.4216 25.0699 39.128 27.454C39.5004 28.8329 39.4801 30.2463 39.0682 31.6202L39.2177 31.5803Z" fill="#0C0F1E"/>
<path fill-rule="evenodd" clip-rule="evenodd" d="M20.7082 23.6467C20.7498 23.809 20.8762 23.9562 21.065 24.0624C21.2538 24.1686 21.4928 24.2268 21.7398 24.2268C21.9868 24.2268 22.2259 24.1686 22.4147 24.0624C22.6035 23.9562 22.7299 23.809 22.7715 23.6467C23.2559 21.129 23.1955 18.578 22.592 16.0718C22.3229 15.2744 21.0072 15.5136 20.768 16.0718C19.8783 18.5604 19.8578 21.152 20.7082 23.6467Z" fill="#0C0F1E"/>
</svg>
