<svg width="102" height="64" viewBox="0 0 102 64" fill="none" xmlns="http://www.w3.org/2000/svg">
<path fill-rule="evenodd" clip-rule="evenodd" d="M82.7236 50.2933C82.7236 50.0541 82.4673 47.7683 81.3994 47.6354C80.3314 47.5026 80.0324 47.6354 79.3917 48.3531C79.0015 49.0658 78.6875 49.7939 78.4519 50.5325C72.2152 50.8249 69.9085 51.8614 65.0388 51.9412C63.3301 52.1804 63.5437 53.5093 65.8077 53.6156C69.8699 53.868 73.9625 53.868 78.0247 53.6156C78.0247 55.3964 78.0247 55.6887 78.7509 56.4595C78.9638 56.627 79.2676 56.7404 79.6052 56.7785C80.246 56.9379 80.7586 56.7785 81.2712 56.4064C81.5225 56.069 81.6951 55.711 81.7838 55.3432C82.1586 54.711 82.4584 54.0625 82.6809 53.403L94.5135 52.7917C96.5212 52.7917 96.8629 51.197 94.7271 51.0109C90.7626 50.5749 86.7489 50.335 82.7236 50.2933Z" fill="#0C0F1E"/>
<path fill-rule="evenodd" clip-rule="evenodd" d="M101.818 47.9546C101.818 47.1838 102.032 46.0409 101.818 45.0841C101.177 41.9744 97.2047 41.9213 92.933 41.8947C93.0465 41.4102 93.1178 40.9222 93.1466 40.4329C92.7666 39.2839 91.8301 38.2349 90.463 37.4271C89.096 36.6192 87.364 36.0914 85.5002 35.9145C76.4015 34.559 68.4134 39.1837 70.0367 42.6655C62.7321 43.9146 62.2195 43.8349 61.4933 44.6588C59.4856 47.4762 59.4856 51.2503 59.4856 59.4099C60.1691 63.503 62.2195 61.3502 62.2622 61.0844V56.0345C62.2622 55.1839 62.8602 51.5958 62.8175 51.5958C62.9289 49.7787 63.5057 47.9842 64.5262 46.2801C73.2362 44.7228 82.3707 44.3065 91.3525 45.0575H94.7271C95.4533 45.0575 96.9484 45.0575 96.6494 45.2702C96.3504 45.4828 96.6494 56.0876 96.6494 57.6292V59.9415C96.6494 60.8718 99.9386 60.8452 68.029 60.606C64.3553 60.606 64.2699 60.4465 63.7573 60.606C63.5835 60.6588 63.4312 60.7355 63.3118 60.8302C63.1924 60.925 63.109 61.0353 63.0679 61.1529C63.0268 61.2705 63.029 61.3924 63.0745 61.5095C63.1199 61.6265 63.2073 61.7356 63.3301 61.8286C64.0563 62.493 64.0563 62.2538 74.9491 62.5196C103.057 63.2638 100.195 64.3004 101.135 57.7355C101.755 54.4904 101.983 51.2209 101.818 47.9546ZM72.9842 42.3199C72.4288 39.2634 86.1837 37.1903 89.5584 40.3531C89.9292 40.8034 90.0494 41.3176 89.9001 41.8149C84.2498 41.5398 78.5662 41.7095 72.9842 42.3199Z" fill="#0C0F1E"/>
<path fill-rule="evenodd" clip-rule="evenodd" d="M44.7907 20.8974C42.7418 20.0739 40.4911 19.4635 38.1269 19.0901C55.2137 14.8641 50.1731 -0.365398 32.4455 0.00670177C9.5492 1.04326 10.0191 14.7312 20.0576 18.6117C23.4749 19.914 22.4497 18.3193 16.1703 21.0835C8.39141 24.3376 2.96474 29.3547 1.04853 35.0638C-0.126665 37.541 -0.317234 40.1587 0.493205 42.6918C0.853024 43.4353 1.51824 44.1076 2.4232 44.6423C3.32816 45.177 4.44158 45.5556 5.65355 45.7408C6.86552 45.9259 8.13415 45.9113 9.33421 45.6982C10.5343 45.4851 11.6243 45.081 12.4967 44.5257C12.4537 48.4177 13.1564 52.2989 14.5898 56.0874C15.914 59.6489 19.3741 63.051 25.3118 63.0244C35.393 63.0244 37.2725 63.4762 39.9637 61.4828C43.3688 57.7598 45.6423 53.6784 46.6703 49.4428C46.9693 48.0341 47.1829 46.466 47.3965 44.4194C48.2306 44.979 49.2802 45.3971 50.4462 45.6343C51.6121 45.8715 52.8559 45.9199 54.0603 45.7749C58.93 45.2434 59.9552 42.8779 59.998 39.9542C59.7669 36.2901 58.2925 32.6978 55.6716 29.4134C53.0506 26.129 49.3425 23.2268 44.7907 20.8974ZM32.7445 3.08981C34.2538 3.01179 35.7727 3.13124 37.2033 3.44046C38.6339 3.74969 39.9447 4.24184 41.0512 4.88525C42.1577 5.52866 43.0355 6.30908 43.628 7.17628C44.2206 8.04349 44.5148 8.97828 44.4917 9.92049C42.0231 9.34221 39.8325 8.38168 38.1269 7.12975C36.9735 6.38555 36.2046 4.97689 33.8552 4.47189C30.6514 3.83401 29.9252 7.3158 22.4925 9.30919C21.0039 9.72338 19.4168 9.98372 17.7936 10.08C18.6052 5.34899 25.3118 3.30244 32.7445 3.08981ZM21.8517 16.8575C20.5551 16.2758 19.4941 15.5142 18.7526 14.633C18.0112 13.7519 17.6097 12.7754 17.58 11.781C22.1143 11.9494 26.6132 11.1936 30.3951 9.62813C31.4765 9.17172 32.4536 8.62634 33.2998 8.00684C35.1738 9.35623 37.509 10.4278 40.1346 11.1431C41.4256 11.512 42.7906 11.7713 44.1927 11.9139C41.7578 18.7446 26.8496 19.0103 21.8517 16.8575ZM56.0253 42.1071C55.8335 42.4088 55.5278 42.6773 55.1341 42.8899C54.7403 43.1025 54.27 43.253 53.763 43.3286C53.2559 43.4042 52.7271 43.4027 52.2212 43.3242C51.7153 43.2458 51.2472 43.0927 50.8565 42.8779C49.2062 40.1879 47.7804 37.4467 46.5848 34.6651C46.5848 34.4525 42.3131 33.1767 42.3131 36.1003C42.3131 37.6153 42.9112 41.1768 42.783 42.3729C42.7422 46.7769 41.5 51.1447 39.1094 55.29C38.4259 56.5127 36.6745 59.9679 34.8377 59.9679H30.566C31.458 54.6696 31.5724 49.3319 30.9077 44.0207C30.9077 43.7811 30.7547 43.5512 30.4823 43.3818C30.2099 43.2123 29.8405 43.1171 29.4553 43.1171C29.0701 43.1171 28.7007 43.2123 28.4283 43.3818C28.156 43.5512 28.0029 43.7811 28.0029 44.0207C26.2515 53.0043 25.9525 52.6853 27.3195 59.9679H25.3118C22.108 59.9679 20.3139 57.4429 19.6304 55.4761C14.0772 39.0771 21.2964 33.3628 15.3587 33.8943C12.9666 34.0804 13.6073 35.4625 11.087 40.6453C10.727 41.4022 10.2699 42.1399 9.72007 42.8513C9.36612 43.0931 8.91055 43.2685 8.40482 43.3578C7.89908 43.447 7.36332 43.4465 6.85804 43.3563C3.95328 43.0905 3.95328 41.1768 3.95328 39.5024C4.19384 35.5128 6.09242 31.6301 9.46377 28.2331C12.9559 24.9572 17.9381 22.4033 23.774 20.8974C28.056 20.0589 32.6487 20.0589 36.9308 20.8974C39.0823 21.2396 41.1307 21.7961 42.9966 22.5453C45.8455 23.975 48.2738 25.7017 50.1731 27.6484C52.9477 30.3904 54.888 33.4265 55.8971 36.6053C56.4292 38.4439 56.4002 40.3284 55.8117 42.1602L56.0253 42.1071Z" fill="#0C0F1E"/>
<path fill-rule="evenodd" clip-rule="evenodd" d="M29.5834 31.5289C29.6428 31.7453 29.8234 31.9417 30.0931 32.0832C30.3628 32.2248 30.7043 32.3025 31.0571 32.3025C31.41 32.3025 31.7515 32.2248 32.0212 32.0832C32.2909 31.9417 32.4714 31.7453 32.5309 31.5289C33.2229 28.172 33.1366 24.7707 32.2746 21.429C31.8901 20.3659 30.0106 20.6848 29.6688 21.429C28.3977 24.7472 28.3685 28.2026 29.5834 31.5289Z" fill="#0C0F1E"/>
</svg>
