<svg width="37" height="30" viewBox="0 0 37 30" fill="none" xmlns="http://www.w3.org/2000/svg">
<path fill-rule="evenodd" clip-rule="evenodd" d="M29.3281 23.9226C29.3281 23.8089 29.2372 22.7216 28.8586 22.6584C28.48 22.5952 28.374 22.6584 28.1468 22.9998C28.0085 23.3388 27.8972 23.6851 27.8137 24.0364C25.6025 24.1755 24.7847 24.6686 23.0583 24.7065C22.4525 24.8203 22.5282 25.4524 23.3309 25.5029C24.7711 25.623 26.222 25.623 27.6622 25.5029C27.6622 26.35 27.6622 26.4891 27.9197 26.8557C27.9951 26.9353 28.1028 26.9893 28.2226 27.0074C28.4497 27.0833 28.6315 27.0074 28.8132 26.8304C28.9023 26.6699 28.9635 26.4996 28.9949 26.3247C29.1278 26.024 29.2341 25.7155 29.313 25.4018L33.508 25.111C34.2198 25.111 34.341 24.3525 33.5837 24.264C32.1782 24.0566 30.7552 23.9425 29.3281 23.9226Z" fill="#0C0F1E"/>
<path fill-rule="evenodd" clip-rule="evenodd" d="M36.0977 22.8101C36.0977 22.4435 36.1735 21.8999 36.0977 21.4447C35.8706 19.9656 34.4621 19.9403 32.9477 19.9277C32.9879 19.6972 33.0132 19.4651 33.0234 19.2323C32.8887 18.6858 32.5567 18.1868 32.072 17.8026C31.5873 17.4183 30.9733 17.1672 30.3125 17.0831C27.0867 16.4383 24.2547 18.6381 24.8302 20.2943C22.2405 20.8885 22.0587 20.8505 21.8013 21.2425C21.0895 22.5826 21.0895 24.3778 21.0895 28.259C21.3318 30.2059 22.0587 29.1819 22.0739 29.0555V26.6534C22.0739 26.2489 22.2859 24.5421 22.2708 24.5421C22.3103 23.6778 22.5148 22.8242 22.8765 22.0136C25.9645 21.2729 29.203 21.0749 32.3873 21.4321H33.5837C33.8412 21.4321 34.3713 21.4321 34.2653 21.5332C34.1592 21.6344 34.2653 26.6787 34.2653 27.412V28.5119C34.2653 28.9543 35.4314 28.9417 24.1184 28.8279C22.816 28.8279 22.7857 28.7521 22.6039 28.8279C22.5423 28.8531 22.4883 28.8895 22.446 28.9346C22.4037 28.9796 22.3741 29.0321 22.3595 29.0881C22.345 29.144 22.3458 29.202 22.3619 29.2577C22.378 29.3133 22.4089 29.3652 22.4525 29.4095C22.71 29.7255 22.71 29.6117 26.5718 29.7382C36.5369 30.0922 35.5222 30.5852 35.8554 27.4625C36.0754 25.919 36.1564 24.3638 36.0977 22.8101ZM25.8752 20.1299C25.6783 18.6761 30.5548 17.6899 31.7513 19.1944C31.8827 19.4086 31.9253 19.6531 31.8724 19.8897C29.8692 19.7589 27.8542 19.8396 25.8752 20.1299Z" fill="#0C0F1E"/>
<path fill-rule="evenodd" clip-rule="evenodd" d="M15.8798 9.94012C15.1534 9.54841 14.3554 9.25805 13.5172 9.08044C19.575 7.0703 17.788 -0.173806 11.503 0.00318778C3.3855 0.496242 3.55209 7.00708 7.11106 8.85288C8.32262 9.47235 7.95915 8.71381 5.73291 10.0286C2.97502 11.5765 1.0511 13.9629 0.371736 16.6785C-0.0449067 17.8568 -0.11247 19.102 0.174857 20.3069C0.302425 20.6606 0.538266 20.9803 0.859103 21.2347C1.17994 21.489 1.57468 21.6691 2.00436 21.7572C2.43405 21.8453 2.88382 21.8383 3.30928 21.7369C3.73474 21.6356 4.12119 21.4433 4.43048 21.1792C4.41524 23.0305 4.66436 24.8766 5.17256 26.6787C5.64204 28.3728 6.86875 29.991 8.97384 29.9783C12.548 29.9783 13.2143 30.1933 14.1684 29.2451C15.3756 27.4742 16.1817 25.5328 16.5461 23.5181C16.6521 22.848 16.7278 22.1021 16.8036 21.1287C17.0993 21.3948 17.4714 21.5937 17.8848 21.7065C18.2982 21.8193 18.7391 21.8424 19.1661 21.7734C20.8926 21.5206 21.2561 20.3954 21.2712 19.0047C21.1893 17.2618 20.6666 15.5531 19.7374 13.9908C18.8082 12.4286 17.4935 11.0481 15.8798 9.94012ZM11.609 1.46971C12.1441 1.4326 12.6826 1.48941 13.1898 1.6365C13.697 1.78359 14.1617 2.01768 14.554 2.32373C14.9463 2.62978 15.2575 3.00099 15.4675 3.41349C15.6776 3.82599 15.7819 4.27063 15.7737 4.71881C14.8986 4.44374 14.1219 3.98685 13.5172 3.39135C13.1083 3.03737 12.8357 2.36732 12.0027 2.12711C10.8669 1.8237 10.6095 3.47985 7.9743 4.42803C7.44657 4.62505 6.88389 4.74888 6.3084 4.79466C6.59615 2.54431 8.97384 1.57085 11.609 1.46971ZM7.74713 8.01848C7.28745 7.74177 6.91128 7.3795 6.64841 6.96038C6.38554 6.54125 6.24321 6.07679 6.23268 5.60378C7.84023 5.68389 9.43525 5.32438 10.776 4.57974C11.1594 4.36264 11.5058 4.10323 11.8059 3.80855C12.4702 4.45041 13.2982 4.96011 14.229 5.30036C14.6867 5.47585 15.1706 5.59916 15.6677 5.66699C14.8045 8.91609 9.51904 9.04251 7.74713 8.01848ZM19.8628 20.0288C19.7948 20.1723 19.6864 20.3 19.5468 20.4011C19.4072 20.5022 19.2405 20.5738 19.0607 20.6098C18.8809 20.6457 18.6935 20.645 18.5141 20.6077C18.3347 20.5704 18.1688 20.4976 18.0303 20.3954C17.4452 19.1159 16.9397 17.812 16.5158 16.4889C16.5158 16.3878 15.0014 15.7809 15.0014 17.1716C15.0014 17.8922 15.2134 19.5863 15.168 20.1552C15.1535 22.25 14.7131 24.3276 13.8655 26.2994C13.6232 26.881 13.0023 28.5245 12.3511 28.5245H10.8366C11.1529 26.0043 11.1934 23.4653 10.9578 20.939C10.9578 20.825 10.9035 20.7157 10.807 20.6351C10.7104 20.5545 10.5794 20.5092 10.4429 20.5092C10.3063 20.5092 10.1753 20.5545 10.0788 20.6351C9.9822 20.7157 9.92795 20.825 9.92795 20.939C9.30702 25.2122 9.20101 25.0604 9.68563 28.5245H8.97384C7.838 28.5245 7.20193 27.3234 6.95961 26.3879C4.99082 18.5875 7.55025 15.8694 5.44516 16.1223C4.59706 16.2108 4.82423 16.8682 3.93071 19.3334C3.80306 19.6935 3.64099 20.0444 3.44608 20.3828C3.32059 20.4978 3.15908 20.5812 2.97978 20.6237C2.80048 20.6661 2.61054 20.6659 2.43139 20.623C1.40157 20.4965 1.40157 19.5863 1.40157 18.7898C1.48685 16.8921 2.15996 15.0452 3.35521 13.4294C4.5933 11.8712 6.35962 10.6564 8.42864 9.94012C9.94677 9.54129 11.575 9.54129 13.0932 9.94012C13.8559 10.1029 14.5822 10.3676 15.2437 10.724C16.2537 11.404 17.1146 12.2253 17.788 13.1513C18.7717 14.4556 19.4596 15.8998 19.8173 17.4118C20.006 18.2863 19.9957 19.1827 19.787 20.0541L19.8628 20.0288Z" fill="#0C0F1E"/>
<path fill-rule="evenodd" clip-rule="evenodd" d="M10.4883 14.9971C10.5094 15.1 10.5734 15.1934 10.669 15.2608C10.7646 15.3281 10.8857 15.3651 11.0108 15.3651C11.1359 15.3651 11.2569 15.3281 11.3526 15.2608C11.4482 15.1934 11.5122 15.1 11.5333 14.9971C11.7786 13.4004 11.748 11.7825 11.4424 10.193C11.3061 9.68729 10.6397 9.839 10.5186 10.193C10.0679 11.7713 10.0576 13.4149 10.4883 14.9971Z" fill="#0C0F1E"/>
</svg>
