<svg width="22" height="18" viewBox="0 0 22 18" fill="none" xmlns="http://www.w3.org/2000/svg">
<g clip-path="url(#clip0_13_54)">
<path fill-rule="evenodd" clip-rule="evenodd" d="M21.1767 1.935C21.1289 1.81369 21.0392 1.70734 20.9192 1.62977C20.7991 1.55219 20.6543 1.50698 20.5036 1.5C20.2011 1.51829 19.9173 1.63046 19.7064 1.815C18.6195 2.74668 17.6215 3.74982 16.7217 4.815C14.5075 7.305 11.8327 10.62 10.637 12.15L10.203 12.7125C8.99548 12.3413 7.74128 12.0896 6.46543 11.9625C5.87683 11.8787 5.27431 11.8966 4.69406 12.015C4.61609 12.0414 4.54527 12.0809 4.4859 12.1312C4.42652 12.1815 4.37982 12.2415 4.34864 12.3075C4.31957 12.4554 4.32993 12.6069 4.37897 12.7509C4.42801 12.895 4.51449 13.0279 4.63206 13.14C5.23872 13.7696 5.93145 14.3361 6.69571 14.8275C8.37851 15.975 10.5042 17.0775 11.2658 17.16C11.3054 17.1642 11.3456 17.1617 11.384 17.1526C11.4225 17.1435 11.4584 17.128 11.4897 17.1071C11.521 17.0862 11.5471 17.0602 11.5665 17.0306C11.5858 17.0011 11.598 16.9686 11.6024 16.935C11.6099 16.8665 11.5853 16.7983 11.5339 16.745C11.4826 16.6917 11.4086 16.6576 11.3278 16.65C10.0273 16.2241 8.82747 15.6043 7.7851 14.82C6.87506 14.2475 6.04591 13.5882 5.31404 12.855C5.24591 12.7785 5.18378 12.6984 5.12805 12.615C5.19664 12.5946 5.26811 12.582 5.34061 12.5775C6.23896 12.6061 7.13046 12.7219 7.99767 12.9225C8.73406 13.0646 9.45202 13.2681 10.141 13.53C10.216 13.568 10.303 13.5855 10.3902 13.5801C10.4774 13.5748 10.5604 13.5468 10.6282 13.5C10.7043 13.4623 10.7634 13.4043 10.7964 13.335V13.2975C10.8939 13.17 11.0887 12.915 11.381 12.5475C12.5944 11.0475 15.2957 7.7775 17.5099 5.31C18.5019 4.2 19.3876 3.2475 20.0076 2.7C20.0875 2.62921 20.1766 2.56631 20.2733 2.5125C20.229 2.7225 20.1227 3 20.043 3.2625C19.2871 5.27899 18.3331 7.23833 17.1911 9.12C15.8462 11.5239 14.2981 13.8424 12.559 16.0575C12.538 16.0811 12.5228 16.108 12.5141 16.1367C12.5055 16.1653 12.5035 16.1951 12.5085 16.2243C12.5134 16.2536 12.5251 16.2817 12.5429 16.3071C12.5607 16.3326 12.5842 16.3548 12.6121 16.3725C12.6699 16.4087 12.7422 16.4243 12.8134 16.4159C12.8846 16.4075 12.9491 16.3757 12.9929 16.3275C15.8941 12.7846 18.3658 9.00297 20.3707 5.04C20.7563 4.3177 21.0531 3.56373 21.2564 2.79C21.3184 2.504 21.291 2.20922 21.1767 1.935Z" fill="white"/>
<path fill-rule="evenodd" clip-rule="evenodd" d="M8.06852 10.5525C9.18449 9.25498 10.7256 7.55248 12.1692 5.97748L13.9406 4.02748C14.8263 3.10498 15.4994 2.32498 15.9954 1.87498C16.084 1.79998 16.1637 1.70998 16.2345 1.64248C16.2429 1.67965 16.2429 1.71782 16.2345 1.75498C16.2123 2.08016 16.147 2.40218 16.0397 2.71498C15.9423 3.17998 15.7209 3.74998 15.4551 4.34998C15.4336 4.37839 15.4199 4.41053 15.415 4.44404C15.4101 4.47755 15.4142 4.51156 15.4269 4.54355C15.4397 4.57554 15.4608 4.60469 15.4886 4.62884C15.5165 4.65299 15.5504 4.67152 15.5879 4.68306C15.6254 4.69459 15.6654 4.69884 15.7051 4.69549C15.7448 4.69213 15.783 4.68126 15.8171 4.66368C15.8511 4.6461 15.88 4.62225 15.9017 4.59392C15.9234 4.56558 15.9372 4.53347 15.9423 4.49998C16.44 3.64303 16.8061 2.73566 17.0317 1.79998C17.1025 1.18498 16.7925 0.89248 16.3851 0.85498C16.1344 0.85902 15.8945 0.941897 15.712 1.08748C14.762 1.81619 13.896 2.61982 13.1258 3.48748C12.5678 4.08748 11.9655 4.76998 11.3544 5.47498C9.96389 7.10998 8.58222 8.90998 7.54597 10.26C7.51492 10.3164 7.50851 10.3802 7.52791 10.4402C7.5473 10.5002 7.59123 10.5525 7.65185 10.5876C7.71248 10.6227 7.78587 10.6385 7.85894 10.632C7.93201 10.6256 8.00001 10.5974 8.05081 10.5525H8.06852Z" fill="white"/>
<path fill-rule="evenodd" clip-rule="evenodd" d="M5.89864 16.5C5.40266 16.4175 4.48154 15.525 3.54271 14.505C3.16187 14.1 2.78988 13.6575 2.43561 13.245C2.08133 12.8325 1.69163 12.3375 1.41707 11.9475C1.22819 11.7105 1.06514 11.4594 0.929941 11.1975C0.929941 11.1975 0.929941 11.1975 0.929941 11.16C1.7327 11.1482 2.53294 11.2392 3.30358 11.43C3.33673 11.4403 3.37196 11.445 3.40726 11.4438C3.44255 11.4426 3.47723 11.4356 3.50931 11.423C3.54138 11.4105 3.57023 11.3927 3.59419 11.3708C3.61816 11.3488 3.63678 11.323 3.649 11.295C3.66121 11.2669 3.66677 11.2371 3.66537 11.2072C3.66397 11.1773 3.65563 11.1479 3.64082 11.1207C3.62602 11.0936 3.60504 11.0692 3.57909 11.0489C3.55314 11.0286 3.52272 11.0128 3.48957 11.0025C2.70473 10.7355 1.87837 10.5663 1.03622 10.5C0.778204 10.4672 0.514503 10.4957 0.274533 10.5825C0.180247 10.6259 0.105524 10.6944 0.0619686 10.7775C0.00454611 10.9804 -0.00466679 11.191 0.0348653 11.397C0.0743974 11.603 0.161886 11.8003 0.292247 11.9775C0.672834 12.6383 1.13287 13.2641 1.66506 13.845C3.06444 15.4125 5.01295 16.9575 5.79236 17.055C5.83133 17.0615 5.87145 17.0614 5.9104 17.0548C5.94934 17.0481 5.98635 17.035 6.01928 17.0162C6.05221 16.9973 6.08042 16.9732 6.10227 16.9451C6.12413 16.917 6.13921 16.8855 6.14663 16.8525C6.16488 16.8157 6.17268 16.7757 6.16939 16.7359C6.1661 16.6961 6.15182 16.6575 6.12769 16.6232C6.10357 16.5889 6.07028 16.5599 6.03049 16.5385C5.99071 16.5171 5.94555 16.5039 5.89864 16.5Z" fill="white"/>
</g>
<defs>
<clipPath id="clip0_13_54">
<rect width="21.2565" height="18" fill="white"/>
</clipPath>
</defs>
</svg>
