<svg width="37" height="40" viewBox="0 0 37 40" fill="none" xmlns="http://www.w3.org/2000/svg">
<path fill-rule="evenodd" clip-rule="evenodd" d="M36.7662 2.62318C36.6833 2.32854 36.5275 2.07024 36.3189 1.88183C36.1104 1.69342 35.8589 1.5836 35.597 1.56665C35.0716 1.61108 34.5786 1.8835 34.2124 2.33172C32.3243 4.59459 30.5907 7.03101 29.0277 9.61812C25.1815 15.6658 20.5352 23.7173 18.4583 27.4334L17.7044 28.7996C15.6069 27.898 13.4283 27.2868 11.212 26.978C10.1896 26.7745 9.143 26.8179 8.13508 27.1055C7.99965 27.1696 7.87663 27.2657 7.77349 27.3878C7.67035 27.5099 7.58924 27.6556 7.53507 27.8159C7.48457 28.1751 7.50257 28.5431 7.58775 28.8929C7.67294 29.2428 7.82315 29.5657 8.02739 29.8379C9.08119 31.3671 10.2845 32.7429 11.612 33.9365C14.5352 36.7235 18.2275 39.4013 19.5506 39.6017C19.6194 39.6118 19.6892 39.6057 19.7559 39.5836C19.8227 39.5616 19.8851 39.524 19.9395 39.4732C19.9938 39.4223 20.0392 39.3592 20.0728 39.2874C20.1064 39.2157 20.1276 39.1367 20.1352 39.0552C20.1482 38.8888 20.1055 38.7231 20.0163 38.5936C19.9271 38.4642 19.7986 38.3814 19.6583 38.363C17.3993 37.3285 15.315 35.8231 13.5044 33.9183C11.9236 32.5278 10.4833 30.9264 9.21202 29.1457C9.09367 28.9599 8.98575 28.7652 8.88894 28.5628C9.00808 28.5132 9.13224 28.4826 9.25817 28.4717C10.8186 28.5412 12.3672 28.8224 13.8736 29.3096C15.1528 29.6547 16.3999 30.1489 17.5967 30.7851C17.727 30.8774 17.8781 30.92 18.0295 30.9069C18.181 30.8939 18.3253 30.8259 18.4429 30.7123C18.5751 30.6206 18.6779 30.4797 18.7352 30.3115V30.2204C18.9045 29.9107 19.2429 29.2914 19.7506 28.3988C21.8583 24.7556 26.5507 16.8134 30.3969 10.8204C32.12 8.12441 33.6585 5.81098 34.7354 4.48121C34.8743 4.30927 35.0291 4.1565 35.197 4.02581C35.1201 4.53586 34.9354 5.20985 34.797 5.84741C33.4839 10.7451 31.8269 15.5039 29.8431 20.0741C27.5069 25.9126 24.8178 31.5439 21.7968 36.9239C21.7604 36.9813 21.734 37.0466 21.7189 37.1162C21.7039 37.1857 21.7006 37.258 21.7091 37.3291C21.7177 37.4001 21.738 37.4685 21.7689 37.5302C21.7998 37.592 21.8406 37.6459 21.8891 37.689C21.9895 37.777 22.115 37.8148 22.2387 37.7944C22.3624 37.7739 22.4744 37.6968 22.5507 37.5797C27.5901 28.9747 31.8837 19.7899 35.3662 10.1646C36.036 8.41029 36.5515 6.57905 36.9047 4.6998C37.0125 4.00515 36.9648 3.28919 36.7662 2.62318Z" fill="white"/>
<path fill-rule="evenodd" clip-rule="evenodd" d="M13.9968 23.5533C15.9352 20.4019 18.6122 16.2669 21.1199 12.4415L24.1969 7.70537C25.7354 5.4648 26.9046 3.57034 27.7662 2.47738C27.92 2.29522 28.0585 2.07662 28.1816 1.91268C28.1961 2.00295 28.1961 2.09565 28.1816 2.18592C28.143 2.97571 28.0294 3.75784 27.8431 4.51757C27.6739 5.64696 27.2892 7.03138 26.8277 8.48866C26.7903 8.55765 26.7664 8.63573 26.7579 8.71711C26.7495 8.79849 26.7565 8.88109 26.7787 8.95879C26.8008 9.03649 26.8375 9.10729 26.8859 9.16594C26.9343 9.2246 26.9932 9.2696 27.0583 9.29763C27.1234 9.32565 27.1929 9.33597 27.2619 9.32783C27.3308 9.31968 27.3972 9.29328 27.4564 9.25057C27.5155 9.20786 27.5657 9.14995 27.6034 9.08113C27.641 9.0123 27.6651 8.93432 27.6739 8.85298C28.5384 6.77162 29.1743 4.56779 29.5662 2.29522C29.6893 0.801504 29.1508 0.09108 28.4431 0C28.0077 0.0098123 27.5909 0.211102 27.2739 0.564696C25.6236 2.33459 24.1194 4.28643 22.7815 6.39382C21.8122 7.8511 20.7661 9.50875 19.7045 11.2211C17.2891 15.1921 14.8891 19.564 13.089 22.8429C13.0351 22.9798 13.024 23.1349 13.0577 23.2807C13.0914 23.4264 13.1677 23.5532 13.273 23.6386C13.3783 23.7239 13.5058 23.7621 13.6327 23.7465C13.7596 23.7309 13.8777 23.6624 13.966 23.5533H13.9968Z" fill="white"/>
<path fill-rule="evenodd" clip-rule="evenodd" d="M10.2275 37.9985C9.36596 37.7982 7.76594 35.6305 6.13515 33.1531C5.4736 32.1694 4.82744 31.0947 4.21204 30.0928C3.59665 29.0909 2.91972 27.8887 2.44279 26.9414C2.1147 26.3658 1.83147 25.7561 1.59662 25.1198C1.59662 25.1198 1.59662 25.1198 1.59662 25.0287C2.99105 25.0002 4.38111 25.2213 5.71976 25.6845C5.77734 25.7096 5.83853 25.7211 5.89985 25.7182C5.96116 25.7153 6.0214 25.6982 6.07711 25.6677C6.13283 25.6373 6.18293 25.5941 6.22457 25.5407C6.2662 25.4874 6.29855 25.4248 6.31976 25.3566C6.34098 25.2885 6.35064 25.216 6.34821 25.1434C6.34577 25.0708 6.33128 24.9995 6.30557 24.9335C6.27985 24.8675 6.24341 24.8082 6.19833 24.7589C6.15325 24.7096 6.10042 24.6713 6.04284 24.6462C4.67952 23.9979 3.24409 23.5868 1.78124 23.4257C1.33305 23.3461 0.874985 23.4155 0.458146 23.6261C0.294367 23.7315 0.164568 23.898 0.08891 24.0997C-0.0108358 24.5927 -0.0268391 25.1042 0.0418302 25.6045C0.1105 26.1049 0.262472 26.5841 0.488915 27.0143C1.15001 28.6192 1.94912 30.1392 2.87356 31.5501C5.30437 35.3572 8.68903 39.1097 10.0429 39.3465C10.1106 39.3624 10.1803 39.3622 10.2479 39.346C10.3156 39.3299 10.3799 39.298 10.4371 39.2523C10.4943 39.2066 10.5433 39.1479 10.5812 39.0797C10.6192 39.0114 10.6454 38.935 10.6583 38.8547C10.69 38.7653 10.7035 38.6684 10.6978 38.5717C10.6921 38.4749 10.6673 38.3812 10.6254 38.2979C10.5835 38.2146 10.5257 38.1441 10.4565 38.0921C10.3874 38.0401 10.309 38.0081 10.2275 37.9985Z" fill="white"/>
</svg>
