<svg width="81" height="90" fill="none" xmlns="http://www.w3.org/2000/svg"><path fill-rule="evenodd" clip-rule="evenodd" d="M27.54 51.397c2.31-2.284 4.58-4.456 6.691-6.178 1.612.408 3.27.634 4.94.674.15.01.303-.008.447-.053.145-.046.278-.117.393-.211.115-.094.208-.209.276-.337a1.035 1.035 0 00.06-.826 1.037 1.037 0 00-.226-.36 1.1 1.1 0 00-.358-.25 1.171 1.171 0 00-.434-.097c-8.961-.787-13.143-5.991-13.263-11.458a11.25 11.25 0 003.983 1.123 6.818 6.818 0 001.952 0 7.91 7.91 0 001.912-.486 9.634 9.634 0 003.983-2.584s0-.3.239-.45a11.94 11.94 0 001.553.787 20.395 20.395 0 004.301 1.348c2.826.495 5.717.558 8.564.187.34 2.84-.484 5.695-2.305 7.983-1.82 2.29-4.5 3.84-7.493 4.336-.342.038-.655.2-.87.452a1.185 1.185 0 00-.285.896c.05.325.23.619.505.82.274.203.621.298.968.266a15.724 15.724 0 005.537-1.573 31.896 31.896 0 013.704 4.493 66.89 66.89 0 011.832 2.734 40.952 40.952 0 011.633 2.845 29.926 29.926 0 011.633 3.445c.836 1.348 2.868 1.61 3.704-.749-.319-2.471-.717-2.022-1.514-4.193a20.888 20.888 0 00-1.633-3.408 15.806 15.806 0 00-2.31-3.07A24.79 24.79 0 0051 43.759a15.93 15.93 0 004.15-6.002 15.099 15.099 0 00.948-7.103c0-3.973-1.678-7.782-4.666-10.59-2.988-2.81-7.04-4.388-11.265-4.388-4.531-.173-8.952 1.343-12.301 4.218-3.35 2.875-5.355 6.876-5.583 11.134-.118 2.79.668 5.547 2.254 7.908 1.586 2.36 3.898 4.212 6.628 5.31a44.318 44.318 0 00-6.572 4.418 24.24 24.24 0 00-4.7 5.092 9.758 9.758 0 00-1.911 5.953c0 1.76 2.31 2.734 2.629 1.31.318-2.583 1.155-2.807 2.828-4.98a55.236 55.236 0 014.102-4.642zm12.626-31.415c2.874-.118 5.691.775 7.901 2.507 2.21 1.731 3.654 4.175 4.048 6.854a29.787 29.787 0 01-7.17-1.16 27.208 27.208 0 01-3.465-1.311 25.824 25.824 0 01-3.186-1.723 21.787 21.787 0 01-4.62-3.744 17.575 17.575 0 016.492-1.423zm-9.121 2.771a17.83 17.83 0 004.58 5.542l.2.187a6.85 6.85 0 01-1.634.45c-.65.038-1.301.038-1.951 0l-1.952.261a22.425 22.425 0 01-3.983.637c.593-2.83 2.282-5.351 4.74-7.077z" fill="#0C0F1E"/><path fill-rule="evenodd" clip-rule="evenodd" d="M54.863 66.15a1.039 1.039 0 000-1.16c-.956-1.461-3.187.523-5.696 1.085-2.24.48-4.518.794-6.81.936a46.832 46.832 0 01-17.366-1.835 30.459 30.459 0 01-7.966-3.557 29.185 29.185 0 01-6.333-5.167c-3.283-3.825-5.454-8.386-6.298-13.237a26.787 26.787 0 011.478-14.434c1.557-4.682 4.15-9 7.61-12.673 3.46-3.672 7.708-6.614 12.465-8.632a48.629 48.629 0 019.08-2.658c2.99-.637 6.066-.84 9.121-.6 8.35 1.08 15.922 5.177 21.11 11.421 5.315 6.264 8.208 14.04 8.205 22.054a39.236 39.236 0 01-1.235 9.21 22.747 22.747 0 01-3.983 8.35 49.422 49.422 0 01-5.895 5.392 36.594 36.594 0 00-5.098 3.146 1.208 1.208 0 00.115 1.333c.148.19.35.338.584.427.233.088.487.114.735.074 4.553-2.16 8.612-5.136 11.95-8.761a23.377 23.377 0 004.54-9.211 40.07 40.07 0 001.553-9.923c.216-8.78-2.795-17.362-8.523-24.3C62.57 6.3 54.166 1.55 44.826.212A36.357 36.357 0 0034.19.624a55.196 55.196 0 00-9.957 2.883c-5.356 2.267-10.13 5.59-14 9.744-3.869 4.154-6.742 9.042-8.424 14.332a29.766 29.766 0 00-1.178 16.32c1.14 5.443 3.785 10.507 7.67 14.683 4.464 4.234 9.92 7.427 15.932 9.323a59.613 59.613 0 0018.56 1.498 52.416 52.416 0 007.17-1.123 36.964 36.964 0 004.899-2.135zm25.132 12.768a10.986 10.986 0 00-2.629-4.98c-1.633-1.835-3.784-3.295-5.616-4.98-1.832-1.685-2.947-2.846-4.46-4.194a10.034 10.034 0 00-1.434-1.085 1.427 1.427 0 00-.844-.404 1.466 1.466 0 00-.923.195 1.325 1.325 0 00-.578.705 1.24 1.24 0 00.034.889 9.679 9.679 0 011.713 1.61c1.394 1.423 2.709 2.995 3.983 4.418 1.275 1.423 3.545 3.22 5.019 5.055a7.48 7.48 0 011.553 3.445 5.002 5.002 0 01-.845 3.077 5.501 5.501 0 01-2.58 2.052 6.562 6.562 0 01-3.28 1.045 6.619 6.619 0 01-3.372-.745 11.02 11.02 0 01-2.27-2.172 38.67 38.67 0 01-2.868-4.643c-1.434-2.546-2.868-5.092-3.983-7.75-.597-1.273-.438-.862-.996-2.172-.557-1.31-2.628 0-2.19.973.597 1.76.478 1.835 1.155 3.558a116.82 116.82 0 002.987 6.89 41.05 41.05 0 002.708 5.241 13.162 13.162 0 003.067 3.295 10.966 10.966 0 005.676 1.57 10.97 10.97 0 005.676-1.57c1.805-.842 3.287-2.193 4.236-3.864a8.632 8.632 0 001.061-5.46z" fill="#0C0F1E"/><path fill-rule="evenodd" clip-rule="evenodd" d="M41.201 50.498a.99.99 0 00-.06-.424 1.04 1.04 0 00-.237-.366 1.118 1.118 0 00-.372-.246 1.176 1.176 0 00-.446-.087 1.222 1.222 0 00-.445.068 1.17 1.17 0 00-.384.224 1.09 1.09 0 00-.263.344c-.063.13-.098.27-.103.413-.358 1.348-.797 2.62-1.035 4.043a10.568 10.568 0 000 3.445c.199 1.386.517 2.696.836 4.044 0 .328.138.642.385.874.246.232.58.362.93.362.348 0 .682-.13.929-.362a1.2 1.2 0 00.385-.874c0-1.348.518-2.621.677-3.969a13.02 13.02 0 000-1.722c.04-.561.04-1.124 0-1.685-.12-1.46-.518-2.734-.797-4.081z" fill="#0C0F1E"/></svg>