<svg width="36" height="36" fill="none" xmlns="http://www.w3.org/2000/svg"><path fill-rule="evenodd" clip-rule="evenodd" d="M12.21 20.602c1.025-.916 2.031-1.786 2.967-2.477.715.164 1.45.255 2.19.27a.596.596 0 00.199-.02.54.54 0 00.174-.085.45.45 0 00.122-.135.384.384 0 00.027-.331.413.413 0 00-.1-.145.497.497 0 00-.16-.1.565.565 0 00-.191-.039c-3.974-.315-5.828-2.401-5.881-4.592a5.419 5.419 0 001.766.45c.287.037.579.037.865 0a3.83 3.83 0 00.848-.195 4.34 4.34 0 001.766-1.036s0-.12.106-.18c.22.12.45.225.689.315a9.761 9.761 0 001.907.54c1.252.199 2.534.224 3.796.075.151 1.139-.214 2.283-1.021 3.2-.807.918-1.995 1.54-3.323 1.738a.615.615 0 00-.386.181.446.446 0 00-.126.36.5.5 0 00.224.329c.122.08.276.119.43.106a7.544 7.544 0 002.454-.63c.61.557 1.16 1.16 1.643 1.8.282.36.547.721.812 1.096.265.375.494.75.724 1.14.274.448.516.91.724 1.382.37.54 1.272.645 1.642-.3-.141-.991-.318-.811-.67-1.681a8.048 8.048 0 00-.725-1.366 6.434 6.434 0 00-1.024-1.231 10.868 10.868 0 00-2.066-1.5 6.413 6.413 0 001.84-2.407c.391-.91.535-1.883.42-2.847 0-1.592-.744-3.12-2.069-4.245-1.324-1.126-3.121-1.758-4.995-1.758-2.009-.07-3.969.538-5.454 1.69C10.87 9.127 9.98 10.73 9.88 12.437c-.052 1.118.296 2.224 1 3.17.703.946 1.728 1.688 2.939 2.128a19.898 19.898 0 00-2.914 1.771 10.17 10.17 0 00-2.084 2.041c-.569.701-.865 1.536-.848 2.387 0 .705 1.024 1.095 1.166.525.141-1.035.512-1.125 1.254-1.996a23.04 23.04 0 011.818-1.861zM17.808 8.01c1.275-.048 2.524.31 3.504 1.004s1.62 1.674 1.794 2.748a14.499 14.499 0 01-3.178-.465 12.885 12.885 0 01-2.95-1.216A9.54 9.54 0 0114.93 8.58a8.498 8.498 0 012.878-.57zm-4.043 1.11a7.36 7.36 0 002.03 2.222l.089.075a3.286 3.286 0 01-.724.18 8.005 8.005 0 01-.866 0l-.865.105c-.578.133-1.17.218-1.766.255.263-1.134 1.012-2.145 2.101-2.837z" fill="#0C0F1E"/><path fill-rule="evenodd" clip-rule="evenodd" d="M24.325 26.515c.052-.07.08-.15.08-.232a.389.389 0 00-.08-.233c-.424-.585-1.413.21-2.526.435-.993.193-2.003.319-3.02.375a22.86 22.86 0 01-7.699-.735A14.255 14.255 0 017.548 24.7a12.772 12.772 0 01-2.807-2.07c-1.456-1.534-2.418-3.362-2.793-5.307a9.78 9.78 0 01.656-5.785c.69-1.877 1.84-3.608 3.374-5.08s3.417-2.651 5.526-3.46A23.324 23.324 0 0115.53 1.93a15.568 15.568 0 014.044-.24c3.702.433 7.06 2.075 9.36 4.578 2.357 2.51 3.64 5.628 3.638 8.84a14.315 14.315 0 01-.548 3.692 8.773 8.773 0 01-1.766 3.347 21.27 21.27 0 01-2.613 2.161 16.6 16.6 0 00-2.26 1.26.446.446 0 00.05.535.596.596 0 00.259.171.699.699 0 00.326.03c2.018-.866 3.818-2.059 5.298-3.512.973-1.095 1.66-2.353 2.013-3.692.414-1.298.645-2.633.689-3.977.095-3.52-1.24-6.96-3.78-9.74C27.743 2.524 24.018.62 19.876.084A17.805 17.805 0 0015.16.25c-1.513.26-2.992.648-4.415 1.156-2.375.908-4.492 2.24-6.207 3.905-1.716 1.666-2.99 3.625-3.736 5.745a10.851 10.851 0 00-.522 6.542c.506 2.182 1.679 4.212 3.401 5.886 1.98 1.697 4.398 2.977 7.064 3.737 2.684.588 5.466.79 8.229.6a25.526 25.526 0 003.179-.45 17.34 17.34 0 002.172-.856zm11.143 5.118a4.283 4.283 0 00-1.166-1.996c-.724-.735-1.677-1.32-2.49-1.996-.812-.675-1.306-1.14-1.978-1.681a4.441 4.441 0 00-.635-.435.662.662 0 00-.374-.162.707.707 0 00-.41.078.546.546 0 00-.255.283.452.452 0 00.014.356c.284.188.539.405.76.645.618.57 1.2 1.201 1.766 1.771.565.57 1.572 1.291 2.225 2.027.36.405.596.879.689 1.38.028.434-.103.866-.375 1.234a2.413 2.413 0 01-1.144.822c-.43.253-.933.398-1.454.42a3.196 3.196 0 01-1.495-.3 4.714 4.714 0 01-1.007-.87 15.335 15.335 0 01-1.271-1.861c-.636-1.02-1.272-2.041-1.766-3.107-.265-.51-.194-.345-.442-.87-.247-.525-1.165 0-.97.39.264.705.211.735.511 1.426.406.93.848 1.846 1.325 2.761a15.94 15.94 0 001.2 2.102c.362.503.822.95 1.36 1.32.75.411 1.624.63 2.517.63.892 0 1.766-.219 2.516-.63.8-.337 1.458-.879 1.879-1.549a3.19 3.19 0 00.47-2.188z" fill="#0C0F1E"/><path fill-rule="evenodd" clip-rule="evenodd" d="M18.268 20.242a.361.361 0 00-.027-.17.414.414 0 00-.105-.147.504.504 0 00-.165-.099.573.573 0 00-.198-.035.593.593 0 00-.197.028.533.533 0 00-.17.09.446.446 0 00-.117.137.384.384 0 00-.046.166c-.159.54-.353 1.05-.459 1.62a3.837 3.837 0 000 1.381c.088.556.23 1.081.371 1.621a.46.46 0 00.17.35c.11.093.258.146.413.146a.639.639 0 00.412-.145.46.46 0 00.17-.35c0-.541.23-1.051.3-1.592a4.68 4.68 0 000-.69c.018-.225.018-.45 0-.675-.052-.586-.229-1.096-.352-1.636z" fill="#0C0F1E"/></svg>