<svg width="60" height="68" fill="none" xmlns="http://www.w3.org/2000/svg"><path fill-rule="evenodd" clip-rule="evenodd" d="M20.591 38.548c1.727-1.713 3.425-3.342 5.003-4.634a16.65 16.65 0 003.693.506.914.914 0 00.629-.199.825.825 0 00.206-.252.78.78 0 00.045-.62.778.778 0 00-.169-.27.832.832 0 00-.268-.187.875.875 0 00-.324-.073c-6.7-.59-9.827-4.493-9.917-8.593a8.4 8.4 0 002.978.842c.484.07.976.07 1.46 0a5.897 5.897 0 001.43-.365 7.2 7.2 0 002.977-1.937s0-.225.179-.337c.37.224.759.42 1.161.59 1.027.453 2.106.792 3.217 1.01 2.112.371 4.274.419 6.402.14.255 2.13-.362 4.272-1.723 5.988-1.36 1.717-3.364 2.88-5.603 3.252a1 1 0 00-.65.339.89.89 0 00-.213.672.944.944 0 00.377.615c.206.152.465.223.724.2a11.731 11.731 0 004.14-1.18 23.913 23.913 0 012.77 3.37 50.11 50.11 0 011.37 2.05c.446.701.833 1.404 1.22 2.134.463.837.87 1.7 1.221 2.583.626 1.011 2.145 1.208 2.77-.561-.238-1.854-.536-1.517-1.132-3.146a15.688 15.688 0 00-1.22-2.555 11.849 11.849 0 00-1.728-2.303 18.543 18.543 0 00-3.484-2.808 11.948 11.948 0 003.103-4.502c.66-1.702.902-3.523.709-5.327 0-2.979-1.255-5.836-3.49-7.943-2.233-2.106-5.263-3.29-8.422-3.29-3.389-.13-6.694 1.007-9.198 3.163-2.504 2.156-4.004 5.158-4.174 8.351a9.89 9.89 0 001.686 5.93c1.186 1.77 2.914 3.16 4.955 3.983a33.117 33.117 0 00-4.913 3.314 18.154 18.154 0 00-3.515 3.819 7.333 7.333 0 00-1.429 4.465c0 1.32 1.727 2.05 1.965.983.239-1.938.864-2.106 2.115-3.735a41.387 41.387 0 013.067-3.482zm9.44-23.561c2.15-.09 4.256.581 5.909 1.88 1.652 1.298 2.731 3.131 3.026 5.14a22.212 22.212 0 01-5.36-.87 20.305 20.305 0 01-2.592-.983 19.284 19.284 0 01-2.382-1.292 16.3 16.3 0 01-3.455-2.808 13.106 13.106 0 014.855-1.067zm-6.82 2.078a13.37 13.37 0 003.426 4.156l.148.14c-.39.162-.8.276-1.22.337-.486.03-.974.03-1.46 0l-1.459.197c-.974.248-1.971.408-2.978.477.444-2.122 1.707-4.013 3.544-5.307z" fill="#0C0F1E"/><path fill-rule="evenodd" clip-rule="evenodd" d="M41.02 49.612a.781.781 0 000-.87c-.714-1.096-2.382.393-4.258.814a34.27 34.27 0 01-5.093.702 34.912 34.912 0 01-12.984-1.376 22.742 22.742 0 01-5.956-2.668 21.836 21.836 0 01-4.735-3.875c-2.455-2.869-4.077-6.29-4.709-9.928a20.148 20.148 0 011.106-10.825c1.164-3.511 3.103-6.75 5.69-9.505 2.587-2.754 5.763-4.96 9.319-6.474a36.275 36.275 0 016.79-1.994 23.714 23.714 0 016.82-.449c6.242.81 11.904 3.882 15.783 8.565 3.974 4.699 6.137 10.53 6.135 16.54a29.517 29.517 0 01-.923 6.909 17.084 17.084 0 01-2.979 6.262 36.985 36.985 0 01-4.407 4.044 27.35 27.35 0 00-3.812 2.359.909.909 0 00.086 1c.11.143.262.254.436.32.175.067.365.086.55.056a29.075 29.075 0 008.934-6.571 17.553 17.553 0 003.395-6.909 30.134 30.134 0 001.162-7.441c.16-6.586-2.09-13.022-6.373-18.226C46.783 4.725 40.5 1.162 33.516.16a27.102 27.102 0 00-7.951.31 41.17 41.17 0 00-7.446 2.162c-4.004 1.7-7.574 4.192-10.467 7.307-2.893 3.116-5.041 6.782-6.299 10.75a22.39 22.39 0 00-.88 12.24c.852 4.082 2.83 7.88 5.734 11.012 3.338 3.175 7.417 5.57 11.912 6.992a44.442 44.442 0 0013.878 1.123 39.072 39.072 0 005.36-.842 27.59 27.59 0 003.663-1.6zm18.792 9.576a8.248 8.248 0 00-1.966-3.735c-1.22-1.376-2.829-2.47-4.199-3.735-1.37-1.263-2.204-2.134-3.335-3.145a7.504 7.504 0 00-1.072-.814 1.094 1.094 0 00-1.32-.156.993.993 0 00-.433.528.93.93 0 00.025.667c.478.352.908.757 1.281 1.207 1.042 1.068 2.025 2.247 2.978 3.314.953 1.067 2.65 2.415 3.752 3.791a5.618 5.618 0 011.162 2.584A3.76 3.76 0 0156.053 62a4.116 4.116 0 01-1.93 1.54 4.896 4.896 0 01-2.452.784 4.937 4.937 0 01-2.52-.56 8.251 8.251 0 01-1.698-1.628 29.016 29.016 0 01-2.144-3.482c-1.072-1.91-2.145-3.82-2.978-5.813-.447-.955-.328-.646-.745-1.629s-1.965 0-1.638.73c.447 1.32.358 1.376.864 2.668a87.728 87.728 0 002.233 5.167 30.809 30.809 0 002.026 3.932 9.858 9.858 0 002.293 2.47 8.18 8.18 0 004.243 1.179 8.18 8.18 0 004.244-1.178 7.062 7.062 0 003.167-2.898 6.49 6.49 0 00.794-4.095z" fill="#0C0F1E"/><path fill-rule="evenodd" clip-rule="evenodd" d="M30.806 37.874a.745.745 0 00-.046-.318.78.78 0 00-.176-.275.836.836 0 00-.279-.185.878.878 0 00-.333-.065.91.91 0 00-.62.219.818.818 0 00-.197.258.777.777 0 00-.077.31c-.267 1.01-.595 1.965-.774 3.033a7.948 7.948 0 000 2.583c.15 1.04.387 2.022.626 3.033a.9.9 0 00.288.655c.184.174.434.272.694.272.261 0 .511-.098.695-.272a.9.9 0 00.288-.655c0-1.011.387-1.966.506-2.977a9.59 9.59 0 000-1.291c.03-.421.03-.843 0-1.264-.089-1.095-.387-2.05-.595-3.061z" fill="#0C0F1E"/></svg>