<svg width="303" height="121" fill="none" xmlns="http://www.w3.org/2000/svg"><path d="M10.586 99.097c-.678.14-1.295.127-1.852-.04a2.773 2.773 0 01-1.35-.967c-.319-.478-.473-1.09-.462-1.837-.06-.698.033-1.505.28-2.424.247-.941.599-1.886 1.055-2.835.48-.95.993-1.772 1.54-2.468.474-.576.948-1.106 1.421-1.589.473-.483.898-.812 1.273-.989a3.08 3.08 0 01.913-.277c.304-.057.55-.09.736-.096.372.08.766.242 1.181.483.44.218.658.467.654.747l.068.103.104.066c.14-.005.255.142.343.442.113.3.177.647.195 1.043.018.373-.045.69-.189.951-.1.447-.268.837-.506 1.172-.238.335-.45.506-.637.512a1.175 1.175 0 00-.28.045c-.07.003-.106.062-.108.179-.002.116-.072.166-.212.147a.856.856 0 01-.382-.196 1.273 1.273 0 01-.307-.48c.001-.116.05-.316.148-.599.098-.283.196-.648.296-1.095.15-.658.144-1.078-.016-1.258-.16-.205-.475-.205-.945-.002-.587.347-1.154.822-1.698 1.424-.522.601-1.011 1.376-1.468 2.325-.456.925-.87 2.082-1.24 3.471-.147.542-.212 1.01-.195 1.406.041.395.096.603.166.624.325.082.768.09 1.328.023.56-.09.97-.209 1.23-.358.375-.2.798-.46 1.27-.779.47-.343.883-.649 1.236-.918.118-.074.26-.195.425-.364a2.17 2.17 0 01.53-.404c.19-.286.357-.456.497-.507.14-.052.351-.082.63-.092.187.04.36.104.522.191.162.088.266.178.311.27.069.09.032.173-.108.248-.094.003-.152.04-.177.111v.07c.044.092-.063.294-.324.606-.238.288-.545.614-.924.977a12.78 12.78 0 01-1.097.948c-.33.245-.565.37-.705.374-.233.009-.35.083-.353.223 0 .046-.177.17-.53.368a11.34 11.34 0 01-1.162.6 6.092 6.092 0 01-1.125.425zm17.589-1.528a1.874 1.874 0 01-.799-.356 1.575 1.575 0 01-.465-1.663c.122-.4.233-.79.331-1.166.123-.4.21-.789.262-1.164.027-.21.113-.516.258-.918.17-.426.34-.887.51-1.382a4.45 4.45 0 00.265-1.374 2.28 2.28 0 00-.094-.73.803.803 0 00-.412-.511 3.357 3.357 0 00-1.357-.477 43.94 43.94 0 01-1.395-.196c-.047-.022-.21-.016-.49.017-.257.033-.478.04-.665.024l-.22.777c-.075.26-.137.518-.187.776-.097.283-.207.614-.33.991-.121.377-.231.743-.33 1.096-.148.588-.26 1.024-.333 1.306-.075.282-.16.565-.258.849-.074.282-.208.718-.403 1.308-.074.236-.135.46-.185.671-.05.212-.134.424-.254.638a.588.588 0 00-.074.248l-.003.245a.838.838 0 01-.147.46 1.27 1.27 0 01-.284.325 1.302 1.302 0 01-.352.187c-.141.052-.27.114-.388.188-.23-.178-.39-.347-.482-.507a4.541 4.541 0 00-.41-.58c.148-.589.284-1.153.408-1.694.148-.541.271-1 .37-1.377.123-.4.22-.649.29-.745.12-.144.193-.415.222-.812.053-.398.163-.787.332-1.166a1.42 1.42 0 01.115-.704l.29-.71c.17-.425.27-.86.3-1.304.053-.468.13-.926.229-1.372.26-.196.459-.308.6-.336.14-.052.362-.094.665-.129l.073-.212c.025-.094.05-.177.074-.247.377-.27.868-.416 1.475-.437.606-.021 1.106.043 1.5.192.07.02.128.03.175.029a.943.943 0 01.209.028c.233.015.511.087.836.215.325.105.637.246.938.422.3.176.53.343.691.5.484.426.803.916.958 1.47a5.27 5.27 0 01.254 1.706 8.832 8.832 0 01-.454 2.429 49.537 49.537 0 00-.623 1.91 7.117 7.117 0 00-.151.775c-.003.21.04.407.131.59.09.184.216.39.376.617-.025.117-.121.296-.288.535-.143.215-.307.325-.494.332a.602.602 0 00-.422.19.927.927 0 01-.388.223zm3.89 8.958a1.927 1.927 0 01-.519-.332 1.942 1.942 0 01-.447-.544c-.113-.182-.17-.344-.167-.484.002-.14.066-.515.191-1.126a151 151 0 01.486-2.185c.223-.848.457-1.719.703-2.613.27-.873.537-1.652.803-2.337l.472-1.171c.29-.687.57-1.513.84-2.478.196-.613.45-1.31.765-2.09.314-.781.64-1.562.978-2.344.338-.804.617-1.514.835-2.128.22-.614.401-1.11.547-1.488a8.55 8.55 0 00.29-.745.937.937 0 01.215-.357c.118-.121.236-.218.354-.293.118-.097.212-.159.282-.184.422-.132.78.03 1.077.487.114.205.133.45.06.732a7.055 7.055 0 01-.4 1.063l-.256.709 1.263-.324a9.79 9.79 0 01.77.008l.944-.034c.303-.01.524.005.663.047.56.004.943.095 1.15.274.23.179.425.417.584.714.115.113.252.271.413.476.16.18.25.364.271.55.088.393.081.825-.019 1.295a5.092 5.092 0 01-.439 1.344c-.193.45-.456.867-.787 1.252a5.26 5.26 0 01-.993.91 4.208 4.208 0 00-.634.337l-.282.15c-.025.117-.284.313-.777.586-.494.25-1.056.492-1.69.724-.632.233-1.182.392-1.65.478-.163.03-.396.06-.7.095-.303.034-.536.007-.698-.08a3.52 3.52 0 00-.524-.052c-.093.003-.14.051-.142.145-.023.047-.194.543-.51 1.487-.317.944-.648 2.04-.993 3.288a163.73 163.73 0 01-1.131 3.257 37.142 37.142 0 01-.691 1.844 8.901 8.901 0 01-.327.816c-.072.165-.132.272-.18.321zm4.562-13.068c.068.138.289.177.662.117a7.86 7.86 0 001.406-.47 22.364 22.364 0 001.655-.827c.54-.322.988-.641 1.342-.957a16.3 16.3 0 001.283-1.654c.334-.524.386-.864.155-1.02-.251-.364-.727-.522-1.427-.474-.7.048-1.567.37-2.6.966-.4.154-.705.351-.918.592-.19.216-.357.49-.502.822-.145.331-.325.734-.542 1.208-.217.52-.363.91-.437 1.17-.073.259-.1.435-.077.527zm12.732 4.135c-.303.01-.547-.04-.732-.15-.161-.11-.369-.266-.622-.467-.436-.451-.745-.883-.925-1.297-.18-.437-.232-.855-.157-1.254.073-.189.1-.365.078-.527l.004-.28c-.115-.112-.149-.181-.102-.206a.874.874 0 00.143-.215c.14-.005.189-.135.146-.39-.044-.185.055-.597.298-1.235.242-.638.542-1.243.9-1.815.144-.239.358-.55.643-.932.286-.407.595-.802.926-1.187.356-.41.675-.735.959-.978.59-.51 1.108-.89 1.555-1.14.446-.248.927-.44 1.441-.575.515-.134.866-.205 1.052-.212.21-.007.487.17.832.53.533.215.913.482 1.142.8.251.318.408.79.468 1.418.06.697-.01 1.504-.21 2.42-.176.893-.74 2.02-1.693 3.383-.595.86-1.14 1.51-1.636 1.947-.496.413-1.084.83-1.767 1.25a8.343 8.343 0 01-1.34.783 5.89 5.89 0 01-1.403.329zm3.413-3.828c.568-.65 1.02-1.26 1.355-1.832.358-.572.695-1.295 1.01-2.169.097-.26.16-.577.19-.95a5.49 5.49 0 00-.02-1.084c-.018-.35-.097-.545-.236-.587-.277-.153-.615-.188-1.012-.104-.398.06-.832.297-1.304.71-.732.632-1.373 1.413-1.922 2.342a29.986 29.986 0 00-1.619 3.1c-.362.852-.454 1.531-.274 2.038.202.483.631.642 1.286.48.679-.188 1.527-.835 2.546-1.944zm8.879 3.745a10.079 10.079 0 00-.521-.261l-.486-.263a5.101 5.101 0 01-.38-.266c-.483-.426-.803-.893-.959-1.4a4.364 4.364 0 01-.117-1.536c.054-.491.13-.914.228-1.267.099-.377.15-.635.151-.775a.849.849 0 01.113-.528l.288-.57a39.69 39.69 0 011.185-2.14c.382-.62.928-1.339 1.64-2.157.141-.121.271-.231.39-.328.14-.122.282-.209.422-.26l.796.566a.59.59 0 01.17.344c.022.116-.004.28-.077.493-.05.165-.11.33-.182.496-.049.141-.12.272-.216.392a4.79 4.79 0 00-.963 1.293c-.24.452-.49.915-.754 1.39a.7.7 0 01-.253.535.735.735 0 00-.287.534 1.817 1.817 0 01-.077.493c-.05.165-.098.341-.148.53a2.383 2.383 0 00-.226 1.092c.019.349.025.71.02 1.083.185.087.347.14.487.158.14-.005.328-.128.564-.37.473-.412.804-.774.995-1.084.215-.31.382-.62.503-.927.121-.307.29-.663.505-1.067.24-.405.445-.913.617-1.526.172-.612.297-1.188.375-1.727.078-.562.083-.936.016-1.12a.915.915 0 01.041-.42c.05-.166-.018-.327-.202-.484.094-.096.143-.273.147-.53a4.854 4.854 0 00-.058-.802c-.042-.278-.11-.474-.201-.587a165.63 165.63 0 01-.07-2.341c.009-.654.029-1.214.059-1.681.054-.492.118-.949.195-1.371.024-.071.167-.31.43-.715.286-.43.547-.766.783-1.007.402-.364.942-.651 1.621-.862.703-.234 1.299-.337 1.788-.307-.024.024.116.03.419.02.326-.011.688-.036 1.085-.073.396-.037.688-.071.875-.1l.562-.16c.187-.054.504-.217.951-.489.188-.123.34-.163.456-.12l.933.771c-.033.654-.203 1.15-.511 1.487-.308.314-.894.533-1.758.657l-.455.016c-.163-.018-.326 0-.49.052a.546.546 0 01-.385.013c-.092-.043-.232-.062-.418-.055a3.38 3.38 0 00-.806.133 2.22 2.22 0 01-.874-.004c-.843.263-1.5.6-1.973 1.014-.472.413-.715 1.074-.728 1.984.08.86.186 1.626.316 2.298.153.67.224 1.414.212 2.23.043.21.1.382.167.52.068.137.03.29-.111.458.108.533.159 1.056.151 1.569-.007.49-.082.866-.226 1.127-.049.165-.088.47-.118.914-.006.42-.13.867-.37 1.342a29.99 29.99 0 01-1.686 2.997 8.336 8.336 0 01-2.165 2.21c-.165.1-.364.176-.598.231-.21.054-.48.134-.807.238zm7.695 8.334c-.514.112-.864.136-1.05.072a8.017 8.017 0 01-.764-.323c-.254-.177-.45-.31-.588-.399-.139-.088-.207-.179-.206-.272a.588.588 0 01.073-.248.822.822 0 01.248-.218c.14-.052.328-.082.561-.09.162.088.43.125.802.112.397-.014.642-.069.737-.166l.318-.221a3.65 3.65 0 01.913-.312 7.956 7.956 0 001.944-1.398c.567-.556 1.114-1.275 1.64-2.156.214-.334.441-.727.68-1.178.24-.428.41-.854.509-1.277.193-.473.413-1.11.657-1.912.268-.802.501-1.592.7-2.368.197-.8.311-1.399.34-1.796.16-1.312.398-2.52.717-3.628a34.55 34.55 0 00.895-3.774c.144-.332.252-.522.323-.571.07-.073.223-.113.456-.121.256-.01.443.008.558.05.14.019.29.153.45.404.226.435.3.957.22 1.566a3.26 3.26 0 01-.546 1.559c-.238.334-.456.855-.652 1.561-.174.683-.35 1.54-.528 2.573a74.96 74.96 0 00-.41 1.833c-.127.68-.267 1.443-.419 2.288-.097.237-.23.603-.4 1.099-.17.472-.281.849-.332 1.13a5.35 5.35 0 01-.218.568c-.12.284-.241.556-.361.817-.121.284-.205.474-.253.569-.938 1.921-1.996 3.404-3.177 4.449-1.18 1.044-2.46 1.637-3.837 1.778zm2.807-10.242c-.256.009-.523-.121-.798-.392-.253-.27-.424-.486-.515-.646a3.408 3.408 0 00-.34-.653 2.2 2.2 0 01-.304-.759c-.042-.301-.013-.675.087-1.122.097-.306.232-.743.403-1.308.195-.59.403-1.227.623-1.911.243-.685.486-1.358.728-2.02.267-.685.509-1.288.726-1.809.218-.544.41-.935.576-1.174.143-.192.296-.314.46-.366a.777.777 0 01.559.05c.185.063.347.21.483.438.252.317.353.594.303.829-.05.234-.267.697-.65 1.386-.097.26-.218.544-.362.853-.144.285-.217.474-.218.567a4.105 4.105 0 00-.147.495c-.05.258-.112.505-.186.741-.073.236-.145.355-.215.357-.094.097-.203.369-.326.816-.123.424-.235.906-.336 1.446-.101.517-.166.974-.195 1.371-.029.374.003.56.097.556.723-.025 1.473-.331 2.25-.918.802-.588 1.606-1.432 2.415-2.534l.558 2.464c-.329.175-.634.36-.917.557-.282.173-.541.38-.778.622-.071.096-.237.23-.495.402a14.15 14.15 0 01-.777.482c-.234.125-.387.189-.457.191l-.105.04c-.047 0-.071.048-.072.142-.001.046-.154.145-.46.295-.304.128-.62.244-.948.349-.328.105-.55.159-.667.163zm18.159 1.006c-.165.099-.386.071-.663-.082-.255-.154-.508-.39-.76-.708a2.92 2.92 0 01-.336-.898c-.042-.325-.058-.779-.05-1.362.03-.467.012-.77-.056-.907-.045-.139-.174-.11-.386.083-.212.17-.579.522-1.1 1.053-.59.604-1.157 1.079-1.698 1.424-.518.345-.94.511-1.266.5-.163.005-.349-.07-.556-.226a3.606 3.606 0 01-.515-.647 6.637 6.637 0 01-.408-.825c-.132-.508-.146-1.16-.04-1.957.128-.82.327-1.679.596-2.574.27-.896.573-1.746.912-2.55.36-.806.72-1.46 1.077-1.963.38-.503.71-.76.99-.769.187-.006.349.081.486.263.16.18.32.467.477.858.09.16.123.298.098.416-.001.116-.097.26-.286.43-.213.287-.465.715-.752 1.285-.265.57-.53 1.185-.797 1.847a46.965 46.965 0 00-.657 1.912c-.195.613-.331 1.12-.407 1.518-.075.376-.066.562.027.56.326-.012.713-.154 1.16-.426.47-.297.918-.65 1.344-1.062.497-.507.936-1.059 1.318-1.655.405-.598.81-1.23 1.216-1.897.31-.477.632-1.002.967-1.573.358-.572.585-.977.682-1.213.335-.618.586-1.035.753-1.251.166-.239.367-.398.6-.476l.316-.01.174-.007c.14.018.302.118.486.298.185.086.288.176.31.269a.862.862 0 01.031.278c-.097.237-.253.592-.47 1.066-.193.45-.338.782-.434.995a395.855 395.855 0 01-1.373 3.021 13.97 13.97 0 00-.952 2.972 6.07 6.07 0 00-.052 1.156c.04.418.106.72.197.903l.237.48c.115.16.24.296.379.407.208.133.24.283.098.452a1.568 1.568 0 01-.496.437c-.21.1-.352.152-.421.155zM90.069 82.1c-.724.119-1.327-.07-1.81-.566-.481-.496-.844-1.241-1.085-2.235a2.02 2.02 0 01-.063-.488c.025-.164.074-.306.146-.425.048-.095.142-.168.283-.22.14-.074.257-.09.35-.047.325.105.556.249.693.43a1.1 1.1 0 01.306.62c.044.114.066.23.064.347.022.116.033.162.033.139.111.369.26.62.444.754.184.133.464.112.84-.065.399-.177.786-.377 1.162-.6.4-.224.753-.493 1.06-.807.261-.266.51-.508.746-.726.26-.219.507-.45.744-.69l.035-.037a.452.452 0 01.351-.082c.14.018.22.05.244.096.16.158.24.318.237.481l-.007.525-.036.072c.044.138-.076.41-.362.817a4.215 4.215 0 01-.96 1.048 8.79 8.79 0 01-1.059.737c-.376.223-.764.435-1.163.635-.164.1-.34.164-.527.194a4.338 4.338 0 00-.666.093zm7.612 12.604a2.746 2.746 0 01-.69-.605c-.206-.272-.306-.619-.3-1.039.003-.233.056-.631.157-1.195a31.26 31.26 0 01.413-1.903 61.53 61.53 0 01.518-1.977c.24-.428.444-.855.613-1.28.17-.426.255-.686.256-.78.051-.28.114-.61.19-.985.098-.377.197-.718.294-1.025.098-.306.17-.484.218-.532a.768.768 0 01.423-.225.603.603 0 01.488.053c.186.063.323.21.413.44.253.27.376.605.37 1.001-.005.374-.142.938-.409 1.694a18.47 18.47 0 00-.654 1.667 71.928 71.928 0 00-.585 1.77c-.147.517-.234.87-.26 1.058l-.703.234c.402-.387.78-.785 1.136-1.194.356-.432.618-.768.784-1.007.404-.55.749-1.006 1.034-1.365.309-.385.7-.841 1.174-1.371.474-.553.933-.896 1.378-1.028.469-.156.831-.239 1.088-.248.511.075.915.33 1.212.762.32.408.521 1.031.602 1.868a7.613 7.613 0 01-.122 1.158l-.079.668.57-.755c.404-.504.936-1.059 1.598-1.665.447-.342.882-.544 1.302-.606.421-.084.792.042 1.113.38.602.306.991.794 1.167 1.464.177.647.212 1.485.103 2.515-.078.609-.097 1.064-.055 1.366a5.4 5.4 0 00.198.832c.185.087.217.284.096.592-.12.284-.262.429-.426.434-.233.008-.5-.029-.802-.111a2.03 2.03 0 01-.763-.428c-.206-.226-.307-.538-.301-.934l.032-2.17a9.202 9.202 0 00-.052-1.257c-.018-.326-.074-.522-.166-.589-.254-.131-.63.034-1.126.494-.496.46-1.029 1.074-1.6 1.84a33.323 33.323 0 00-1.608 2.365c-.453.74-.739 1.17-.858 1.29-.094.096-.269.068-.523-.087-.51-.145-.834-.355-.97-.63-.112-.3-.118-.637-.02-1.014.123-.4.271-.942.444-1.624a135.8 135.8 0 00.553-1.979c.173-.659.285-1.129.335-1.41-.09-.184-.253-.237-.487-.158-.21.054-.433.166-.669.338-.283.197-.626.558-1.03 1.086a22.642 22.642 0 00-1.25 1.828c-.286.453-.584.906-.894 1.36-.309.43-.595.814-.856 1.15a6.017 6.017 0 01-.675.758c-.334.525-.56.812-.677.863-.117.05-.338 0-.662-.152zm22.826-.313a3.246 3.246 0 01-1.725.796c-.63.092-1.247.02-1.849-.215a3.48 3.48 0 01-1.486-1.207 3.747 3.747 0 01-.744-1.723c-.107-.672-.105-1.547.004-2.623.083-.913.388-1.833.914-2.76a11.788 11.788 0 011.89-2.55c.757-.75 1.499-1.278 2.226-1.583.353-.246.646-.36.879-.346.256-.009.641.001 1.153.03.535.05.93.142 1.185.273.278.13.496.309.656.536.345.338.573.68.684 1.026.112.322.166.647.161.973-.101.517-.46 1.16-1.077 1.927-.594.744-1.372 1.366-2.335 1.866a4.984 4.984 0 01-1.682.27c-.606-.003-1.105-.137-1.497-.403-.44-.171-.732-.126-.876.136-.143.238-.28.826-.411 1.763-.106.89-.045 1.54.182 1.953.227.388.538.61.934.666.465.077.825.135 1.081.172.28.014.619-.103 1.019-.35.377-.247.612-.384.705-.41.094-.05.165-.1.212-.147l.462-.471c.165-.17.295-.29.389-.364a.46.46 0 01.317-.15c.117-.005.221.05.313.163.091.09.184.157.276.2.234-.008.278.13.134.415-.121.284-.37.631-.749 1.04a8.367 8.367 0 01-1.345 1.097zm.074-7.417c.258-.126.528-.299.811-.519a4.4 4.4 0 00.711-.76c.214-.287.322-.524.325-.71.005-.327-.143-.59-.443-.79-.3-.222-.754-.24-1.363-.056-.257.079-.551.264-.882.555-.33.269-.649.571-.957.909a15.09 15.09 0 00-.713.9c-.167.261-.227.415-.181.46.068.114.265.2.59.26.326.034.688.033 1.084-.004.42-.038.76-.12 1.018-.245zm13.839 1.262a20.8 20.8 0 011.161-2.874c.48-.95.993-1.784 1.54-2.503.546-.719 1.078-1.239 1.596-1.56.257-.056.479-.075.665-.058.21-.008.442.007.698.045.098-.283.045-.69-.157-1.219a10.336 10.336 0 00-.746-1.547c-.272-.527-.488-.893-.648-1.097a6.14 6.14 0 00-.516-.577 5.332 5.332 0 01-.481-.612 1.028 1.028 0 01-.096-.591c.026-.211.157-.356.391-.434.328-.128.645-.267.95-.418.329-.175.657-.326.985-.454.141-.052.41-.131.808-.239a22.06 22.06 0 011.193-.287c.421-.108.701-.164.841-.17a3.41 3.41 0 01.84-.064l.839.04c.513.006.837.111.974.316.137.206.331.49.582.854-.049.165-.111.412-.186.742-.051.304-.159.518-.324.64a1.275 1.275 0 00-.314-.023.91.91 0 01-.349-.058c-.231-.109-.591-.19-1.08-.242a7.738 7.738 0 00-1.467-.088c-.489-.006-.852.053-1.086.178a4.82 4.82 0 01-.422.154l-.491.088a.662.662 0 00-.352.187c.181.367.454.812.819 1.335.366.5.651.945.855 1.335a.394.394 0 01.031.278c-.025.094.009.175.101.242.112.322.223.656.335 1.002.111.346.164.705.159 1.079.068.16.134.427.198.797.088.347.141.707.159 1.08.042.347.026.605-.046.77.112.323.108.603-.012.84a3.137 3.137 0 00-.222.777.313.313 0 01-.037.142l-.002.14c-.006.466-.047.84-.121 1.123a8.257 8.257 0 01-.401 1.099c-.122.377-.255.755-.401 1.133-.121.354-.243.72-.365 1.097a27.788 27.788 0 01-1.611 2.575c-.476.67-.903 1.163-1.281 1.48-.353.292-.681.385-.982.279-.304.034-.595.01-.873-.074a4.93 4.93 0 01-.799-.392 2.661 2.661 0 01-1.168-1.428c-.2-.646-.271-1.39-.212-2.231a13.66 13.66 0 01.528-2.607zm1.608 2.427c-.054.445-.081.76-.084.947.021.163.075.464.161.904.116.09.231.19.346.302.115.09.23.19.345.303.451-.575.796-1.054 1.035-1.435.239-.405.454-.81.647-1.212.215-.404.49-.88.825-1.428l.148-.565c.073-.213.145-.402.218-.568.192-.403.352-.957.479-1.66a8.19 8.19 0 00.17-2.105c-.013-.7-.192-1.218-.536-1.555-.027.234-.172.554-.434.96-.262.405-.488.704-.677.898-.403.41-.796 1.007-1.18 1.79a19.65 19.65 0 00-.944 2.377c-.268.802-.441 1.484-.519 2.047zm10.935 4.127c-1.026.037-1.86-.319-2.501-1.066-.642-.77-.942-1.739-.902-2.906.059-.842.236-1.746.529-2.712.318-.99.728-1.938 1.231-2.842a14.184 14.184 0 011.644-2.436c.592-.697 1.206-1.197 1.839-1.499.235-.125.482-.227.739-.306.281-.08.561-.124.841-.134.257-.01.524.028.803.111.278.06.51.134.695.22.395.15.695.338.901.564.207.226.388.58.544 1.065.063.44.094.755.091.941-.003.187-.065.469-.187.846-.292.85-.664 1.586-1.116 2.208-.452.622-1.054 1.156-1.807 1.603a2.616 2.616 0 01-.668.303 3.795 3.795 0 01-.736.096c-.466.016-.92-.05-1.36-.197a2.308 2.308 0 01-1.003-.77l-.241-.27-.109.283a19.612 19.612 0 00-.585 1.77 7.092 7.092 0 00-.196 1.475c-.004.28.015.548.058.803.066.254.156.472.27.655.091.137.241.236.45.299.233.038.477.053.734.044l.489-.017c.187-.03.363-.083.527-.159.398-.154.715-.316.951-.488.259-.172.518-.356.777-.552l.141-.075-.035.002c.282-.15.529-.299.741-.446l.353-.222c.093-.004.187-.065.282-.185.188-.1.421-.073.698.08.301.153.449.357.446.614-.025.118-.133.308-.323.571-.19.24-.403.469-.64.687-.213.218-.389.34-.529.369a1.468 1.468 0 01-.247.148.812.812 0 00-.282.15l.035-.001c-.214.287-.426.434-.636.442l-.28.01c-.096.166-.401.364-.917.591a4.513 4.513 0 01-1.509.333zm1.687-7.754a1.8 1.8 0 001.089-.388c.331-.268.615-.558.852-.87.476-.646.753-1.262.831-1.848.102-.61.039-1.027-.191-1.252a.841.841 0 00-.383-.092c-.093-.02-.292.022-.596.126-.211.054-.505.24-.883.556a15.99 15.99 0 00-1.134 1.054c-.355.386-.628.71-.818.973l-.466.751c.188-.076.363-.117.527-.123.187-.03.291-.022.314.024-.003.21.029.407.096.591.091.16.194.285.309.374.139.088.29.13.453.124zm11.817.459c.669.443 1.127.998 1.374 1.666.247.644.307 1.306.18 1.987-.126.68-.438 1.298-.936 1.852-.473.53-1.108.913-1.904 1.15-.305.105-.69.154-1.156.147-.442-.032-.802-.124-1.08-.277-.486-.24-.902-.458-1.249-.656-.346-.221-.668-.56-.964-1.015a.512.512 0 00-.137-.206l-.172-.168a2.412 2.412 0 01-.132-.555.903.903 0 00-.166-.554c.048-.142.085-.283.111-.424l.146-.425c.186-.006.373-.024.56-.054l.561-.09c.186-.03.361-.048.525-.053.231.155.389.452.476.892.087.44.209.856.366 1.247.182.366.47.554.866.564.653 0 1.122-.18 1.406-.54.286-.382.444-.843.475-1.38a4.172 4.172 0 00-.187-1.533l-.274-.41-.274-.41a.835.835 0 00-.309-.339l-.064-.417-.064-.418a9.009 9.009 0 011.375-.783 4.033 4.033 0 001.344-1.061c.166-.216.346-.526.538-.929.216-.404.302-.733.259-.988a1.96 1.96 0 00-.199-.728c-.09-.23-.298-.35-.624-.362a1.276 1.276 0 00-.843.274 3.2 3.2 0 00-.674.688c-.191.287-.393.585-.608.896-.19.287-.416.551-.676.793a1.033 1.033 0 00-.452-.159 1.317 1.317 0 01-.487-.157c-.162-.088-.322-.292-.48-.613a.98.98 0 00.254-.639 1.15 1.15 0 01.254-.638c.142-.192.296-.36.462-.506.189-.17.343-.35.462-.541.167-.24.438-.447.813-.623.376-.2.693-.328.95-.383.701-.142 1.295-.093 1.781.147.486.216.948.468 1.387.755.272.527.429.953.471 1.278.065.324.092.848.082 1.571a2.021 2.021 0 01-.148.53 1.12 1.12 0 00-.112.494c-.452.622-.89 1.092-1.314 1.41-.424.318-1.022.55-1.793.693zm12.652 5.641a2.656 2.656 0 01-.972-.49 8.533 8.533 0 01-.792-.812 10.8 10.8 0 01-.583-.819c-.273-.41-.57-.866-.889-1.368a52.48 52.48 0 00-.853-1.404l-.614-1.028c-.122.354-.255.65-.398.889-.12.214-.183.554-.19 1.02a3.75 3.75 0 00-.541 1.14c-.099.399-.21.8-.332 1.2-.074.26-.194.497-.36.712a2.284 2.284 0 01-.568.58 1.288 1.288 0 01-.73-.254 4.57 4.57 0 01-.483-.473 1.445 1.445 0 01-.163-.799 2.68 2.68 0 01.186-.74c.049-.212.184-.625.402-1.24.242-.614.497-1.276.764-1.985.267-.732.509-1.382.727-1.95.219-.59.341-.956.366-1.096.147-.472.399-.982.757-1.531a5.53 5.53 0 00.796-1.847c.049-.165.167-.32.356-.467.189-.17.4-.26.633-.267.257-.033.465.088.624.363l.209.097c.093.02.162.064.207.133a1.1 1.1 0 01.305.654c.044.231-.007.478-.15.74-.311.547-.574.999-.789 1.356-.191.334-.383.702-.576 1.105a16.5 16.5 0 00-.653 1.667c.397-.107.69-.188.877-.24.188-.077.364-.189.529-.334.189-.17.438-.424.746-.761.118-.12.355-.35.709-.69.378-.363.769-.75 1.171-1.16.425-.411.792-.774 1.099-1.088.331-.315.509-.496.533-.543.143-.215.285-.407.428-.575.166-.192.378-.34.635-.442.35.034.593.096.732.184.139.065.404.254.796.567.115.089.158.309.13.66-.028.327-.16.588-.396.783-.425.341-.955.78-1.593 1.315-.637.536-1.321 1.096-2.052 1.681a44.098 44.098 0 01-2.122 1.65c.319.524.603 1.027.852 1.508.25.458.454.847.613 1.168.038.581.242.97.612 1.168.393.172.87.249 1.43.23.185.086.3.198.344.337a.763.763 0 01.099.416l.064.418c-.329.221-.565.416-.708.584a.695.695 0 01-.423.26c-.14.005-.407-.056-.801-.182zm8.148.133c-.303.034-.548.02-.733-.044a11.926 11.926 0 01-.694-.36c-.507-.379-.886-.762-1.137-1.15-.227-.411-.326-.816-.297-1.213.05-.212.052-.398.008-.56a44.5 44.5 0 01-.031-.244c-.138-.112-.184-.18-.137-.205a.477.477 0 00.108-.214c.187-.053.212-.182.076-.387-.068-.184-.027-.605.123-1.264.173-.682.392-1.32.657-1.912.121-.26.289-.604.505-1.032.239-.428.502-.857.788-1.287.286-.453.548-.812.785-1.076.521-.602.982-1.05 1.383-1.343a6.06 6.06 0 011.41-.784c.469-.203.808-.32 1.019-.351.21-.03.499.099.868.39.557.143.973.361 1.249.655.299.27.526.704.68 1.305.177.67.223 1.473.14 2.409-.06.911-.474 2.103-1.241 3.576-.457.925-.91 1.63-1.36 2.112-.426.48-.947.989-1.56 1.523a8.79 8.79 0 01-1.237.919 5.167 5.167 0 01-1.372.537zm2.859-4.263c.477-.716.848-1.37 1.113-1.963.289-.616.521-1.382.698-2.298.05-.258.066-.573.049-.946a4.973 4.973 0 00-.159-1.078c-.066-.325-.168-.496-.308-.514-.301-.106-.639-.094-1.014.035-.374.107-.787.401-1.236.883-.404.48-.773 1.018-1.108 1.613a17.352 17.352 0 00-.867 1.955 37.712 37.712 0 00-.768 2.265c-.246.895-.244 1.571.006 2.029.273.457.726.557 1.359.302.633-.28 1.378-1.04 2.235-2.283zm8.155 3.072a2.811 2.811 0 01-1.11-.59 1.74 1.74 0 01-.579-1.03 1.073 1.073 0 00-.134-.415.963.963 0 01-.028-.454c.123-.47.258-.93.404-1.378.147-.472.294-.931.44-1.38.17-.472.352-.933.545-1.383.216-.45.444-.89.683-1.318a1.53 1.53 0 00.073-.178c.024-.07.048-.13.072-.177.123-.424.269-.826.437-1.205.169-.402.373-.806.612-1.21.12-.191.24-.475.363-.853.122-.377.23-.614.325-.71.213-.265.424-.365.633-.303.209.063.405.22.588.47.183.226.331.477.443.753.136.275.226.494.27.655-.356.48-.726 1.087-1.11 1.823a58.21 58.21 0 00-1.083 2.347c-.362.805-.688 1.61-.979 2.413-.292.78-.511 1.463-.66 2.052.184.18.474.263.871.249.396-.037.712-.107.947-.208a11.75 11.75 0 001.366-.223c.538-.136.994-.187 1.366-.153a.804.804 0 00.078-.563.932.932 0 01.113-.563 5.56 5.56 0 00.504-.962c.121-.308.231-.65.329-1.026.049-.165.147-.483.294-.955s.306-.99.477-1.556l.511-1.487c.17-.449.291-.721.362-.817.094-.073.188-.135.282-.185.118-.05.223-.09.317-.116.278.107.451.194.52.261a.77.77 0 01.171.274c.069.091.183.262.342.513-.002.163.007.35.027.559a1.53 1.53 0 01-.043.56c-.047.026-.131.192-.252.5-.121.307-.255.661-.4 1.063a29.99 29.99 0 01-.365 1.062c-.098.307-.147.495-.149.565a4.33 4.33 0 00-.506 1.137c-.099.4-.256.767-.47 1.1a.4.4 0 00-.038.177.313.313 0 01-.037.141c.304-.057.596-.114.877-.17.304-.081.596-.15.877-.206a3.74 3.74 0 01.875-.066c.236-.195.425-.388.568-.58.143-.214.216-.474.221-.777.047-.072.156-.308.325-.71.169-.403.35-.853.544-1.35.194-.519.364-.98.51-1.381.145-.402.219-.637.22-.707.214-.288.358-.596.433-.925.098-.353.196-.695.294-1.025.118-.05.247-.102.387-.153a2.44 2.44 0 00.353-.223c.533.238.947.585 1.243 1.04.022.14.031.291.029.455-.002.14.007.28.029.418-.192.334-.36.678-.505 1.032a10.26 10.26 0 00-.401 1.099 21.983 21.983 0 01-.548 1.663 32.28 32.28 0 01-.728 1.915 24.81 24.81 0 01-.758 1.67.912.912 0 01-.108.214.91.91 0 01-.108.214 5.667 5.667 0 01-.179.25.565.565 0 01-.282.15.929.929 0 01-.663-.081 7.31 7.31 0 00-.554-.365c-.069-.021-.198.018-.386.118-.187.077-.317.14-.387.189-.373-.034-.617-.025-.735.025-.094.05-.281.08-.56.09a14.65 14.65 0 00-1.786.203 99.84 99.84 0 00-2.174.391c-.794.121-1.541.23-2.242.324-.677.07-1.178.064-1.503-.017zm18.238-1.341a2.743 2.743 0 01-.69-.606c-.206-.272-.306-.618-.3-1.038.004-.234.056-.632.157-1.195.102-.563.239-1.198.413-1.903.173-.706.346-1.365.518-1.977.24-.429.444-.856.613-1.281.17-.426.255-.686.256-.779.051-.281.114-.61.19-.986.098-.376.197-.718.294-1.025.098-.306.17-.484.218-.532a.764.764 0 01.423-.225.602.602 0 01.488.053c.186.064.324.21.413.44.253.271.376.605.37 1.002-.005.373-.142.937-.409 1.693a18.47 18.47 0 00-.654 1.667 73.216 73.216 0 00-.585 1.77c-.147.518-.234.87-.26 1.058l-.703.235a18.68 18.68 0 001.136-1.195c.356-.432.618-.768.784-1.007a50.76 50.76 0 011.034-1.365c.309-.384.7-.84 1.174-1.37.474-.554.934-.896 1.378-1.028.469-.157.831-.24 1.088-.249.511.076.916.33 1.212.762.321.409.521 1.031.602 1.868a7.61 7.61 0 01-.122 1.158l-.079.668.57-.755c.404-.504.936-1.059 1.598-1.665.447-.342.882-.544 1.302-.605.421-.085.792.042 1.113.38.602.306.991.793 1.167 1.463.177.647.212 1.485.103 2.515-.078.61-.097 1.065-.054 1.366.042.279.108.556.197.833.185.087.217.284.096.591-.12.284-.262.429-.426.435-.233.008-.5-.03-.802-.112a2.037 2.037 0 01-.763-.428c-.206-.226-.307-.537-.301-.934l.032-2.17a9.2 9.2 0 00-.052-1.257c-.018-.326-.074-.522-.166-.589-.254-.13-.63.034-1.126.495-.496.46-1.029 1.073-1.6 1.84a33.64 33.64 0 00-1.608 2.365c-.453.739-.739 1.168-.858 1.29-.094.096-.269.067-.523-.087-.51-.145-.834-.356-.969-.63-.113-.3-.119-.638-.021-1.014.123-.401.271-.943.444-1.625.196-.683.381-1.343.553-1.978.173-.66.285-1.13.335-1.411-.09-.183-.253-.236-.487-.158-.21.054-.433.167-.669.338-.283.197-.626.559-1.03 1.086s-.82 1.136-1.25 1.828c-.286.453-.584.907-.894 1.36-.309.431-.595.814-.856 1.15a5.998 5.998 0 01-.675.758c-.334.525-.56.813-.677.863-.117.051-.338 0-.662-.151zm20.325.474c-.303.011-.547-.039-.732-.149-.162-.11-.369-.267-.623-.468-.436-.45-.744-.883-.924-1.296-.181-.437-.233-.855-.157-1.254.073-.19.099-.365.078-.527l.004-.28c-.115-.113-.149-.182-.102-.207a.88.88 0 00.143-.215c.14-.004.188-.134.145-.39-.043-.184.056-.596.298-1.234a10.41 10.41 0 01.901-1.816c.143-.238.357-.549.643-.932.285-.406.594-.802.926-1.187.356-.409.675-.735.958-.978.59-.51 1.109-.89 1.555-1.139.447-.249.927-.44 1.442-.575.515-.135.865-.205 1.052-.212.21-.007.487.17.831.53.533.215.914.481 1.142.8.252.317.408.79.469 1.417.06.698-.01 1.505-.21 2.421-.177.893-.741 2.02-1.693 3.383-.595.86-1.141 1.509-1.637 1.946-.495.414-1.084.831-1.766 1.252a8.31 8.31 0 01-1.34.781 5.877 5.877 0 01-1.403.33zm3.412-3.827c.569-.65 1.021-1.26 1.355-1.832.358-.572.695-1.295 1.011-2.17.097-.259.16-.576.189-.95a5.495 5.495 0 00-.019-1.084c-.019-.349-.097-.544-.237-.586-.277-.154-.614-.188-1.012-.104-.397.06-.832.297-1.304.71-.732.632-1.372 1.412-1.922 2.341a29.911 29.911 0 00-1.618 3.1c-.363.852-.454 1.532-.275 2.039.203.482.632.642 1.287.48.678-.188 1.527-.836 2.545-1.944zm9.543 3.792c-.35.012-.793.004-1.329-.024-.512-.028-.95-.34-1.314-.933a4.503 4.503 0 01-.505-1.346c-.086-.51-.081-.872.016-1.085.353-1.808.627-3.054.824-3.737.196-.683.307-1.072.331-1.166.048-.095.145-.32.29-.674.169-.38.265-.616.29-.71.122-.378.163-.799.123-1.264a1.14 1.14 0 01.042-.491c.073-.166.18-.31.321-.431.401-.317.722-.725.962-1.223.072-.166.205-.45.397-.853.216-.428.432-.843.648-1.247.239-.429.418-.727.537-.894.38-.48.725-.981 1.036-1.505a6.17 6.17 0 011.21-1.442 6.375 6.375 0 011.175-1.44c.472-.46.945-.885 1.417-1.275.471-.39.849-.729 1.133-1.019.119-.12.435-.237.949-.348.538-.135.971-.256 1.299-.36.141-.075.408-.026.802.146.394.15.671.326.831.53.296.503.465.917.507 1.242.065.324.012.71-.157 1.16-.146.425-.436 1.088-.868 1.99-.48.949-1.158 1.859-2.033 2.729a21.065 21.065 0 01-2.62 2.226c-.449.412-.92.79-1.415 1.134a13.94 13.94 0 01-1.447.925c-.305.174-.622.337-.951.488-.305.151-.622.29-.95.418a1.124 1.124 0 00-.459.297c-.141.121-.26.3-.357.537-.145.331-.23.614-.257.848a.748.748 0 01-.218.533c-.071.072-.18.356-.327.85a1522 1522 0 01-.444 1.695 35.844 35.844 0 00-.376 1.797c-.101.54-.141.903-.121 1.089.022.116.043.243.065.382.044.115.148.205.31.27.351-.083.633-.21.845-.38.212-.194.449-.448.71-.76.285-.36.547-.742.786-1.147.262-.405.478-.821.648-1.247.097-.26.171-.53.221-.812.051-.305.137-.576.257-.814.008-.536.002-.932-.018-1.188a2.498 2.498 0 00-.06-.663 2.51 2.51 0 00-.166-.623c.189-.124.295-.22.319-.291.048-.072.153-.087.316-.047.302.06.58.167.834.32.277.154.543.355.795.603a.58.58 0 01.171.273.513.513 0 01-.04.317c-.027.28-.066.561-.117.843a8.69 8.69 0 00-.046.771c-.168.31-.277.64-.329.991a5.278 5.278 0 01-.259.989l-.433.924a5.353 5.353 0 01-.502.858c-.288.523-.621.99-1 1.399-.355.409-.734.784-1.135 1.124l-1.164.74zm1.798-12.97c.279.036.477.04.594.014.14-.052.282-.174.424-.365a54.675 54.675 0 003.04-2.24c.92-.756 1.688-1.47 2.304-2.145.639-.7 1.056-1.309 1.25-1.828.12-.261.252-.51.396-.749a1.98 1.98 0 00.326-.816l-.125-.975c-.658.327-1.187.625-1.587.896-.377.27-.873.718-1.488 1.346-.236.242-.592.65-1.067 1.227-.45.552-.949 1.176-1.495 1.871a52.83 52.83 0 00-1.534 2.048c-.452.669-.798 1.24-1.038 1.715zm14.252 12.125a2.656 2.656 0 00-.418-.09 221.06 221.06 0 00-.418-.125 1.766 1.766 0 00-.418-.09c-.228-.319-.316-.712-.262-1.18a7.44 7.44 0 01.337-1.516c.194-.52.376-1.028.546-1.523.194-.497.305-.92.334-1.272-.022-.092-.057-.114-.104-.066-.047.025-.071.061-.072.108-.166.192-.401.329-.705.41-.304.08-.585.148-.842.204-.444.085-.888.183-1.333.292-.444.108-.877.229-1.299.36-.069-.044-.15-.1-.242-.166a1.301 1.301 0 00-.207-.168c-.164.006-.306.162-.427.47a7.774 7.774 0 00-.331 1.13c-.099.424-.199.835-.298 1.235-.075.376-.149.647-.221.813-.374.06-.642.08-.805.063a8.2 8.2 0 01-.802-.182c-.182-.25-.284-.491-.304-.724.004-.233.042-.49.116-.773.125-.541.224-.976.299-1.305.098-.33.256-.755.473-1.276.121-.26.229-.51.326-.746.12-.26.183-.543.187-.846.19-.24.322-.5.396-.783.074-.283.16-.566.257-.849.387-.97.69-1.715.907-2.235.241-.545.41-.97.508-1.277a4.26 4.26 0 00.187-.846c.028-.328.229-.498.602-.511.233-.008.477.076.731.254.254.154.449.357.585.609.136.252.144.52.023.803-.073.19-.194.497-.363.923-.146.401-.315.85-.509 1.347-.17.472-.34.921-.509 1.347a8.8 8.8 0 01-.363.887.555.555 0 01-.143.25c-.071.05-.107.132-.109.249.162.11.429.148.803.111.397-.06.678-.14.842-.24.35-.011.688-.023 1.015-.035l1.049-.037c.347.198.61.504.791.917.169-.45.399-1.04.69-1.773.29-.757.569-1.501.836-2.233.268-.733.427-1.286.479-1.661.05-.212.146-.402.288-.57.143-.168.296-.302.461-.4.324.15.636.28.938.386.325.082.531.343.618.783a3.2 3.2 0 01-.149.635l-.218.567a35.462 35.462 0 01-.908 2.27 40.92 40.92 0 00-1.015 2.484 14.54 14.54 0 00-.628 2.331c-.001.07-.063.305-.185.706-.1.4-.21.789-.332 1.166-.099.377-.16.577-.184.601a.837.837 0 01-.146.46 1.63 1.63 0 01-.355.327zm9.191-1.267c-.491.11-.806.156-.946.138-.116-.043-.3-.176-.553-.4a2.982 2.982 0 01-.934-.667 2.918 2.918 0 01-.512-.856c-.089-.324-.12-.59-.093-.802.082-.819.293-1.7.633-2.645a19.58 19.58 0 011.228-2.737c.479-.88.991-1.632 1.537-2.258.569-.65 1.111-1.076 1.627-1.28.469-.204.913-.29 1.332-.258.419.032.719.243.9.633.339.665.252 1.1-.264 1.304-.07.002-.152.04-.247.113-.094.05-.141.122-.143.215.093.044.349.046.769.008.421-.061.842-.146 1.263-.254.444-.132.738-.26.879-.38.141-.076.247-.114.317-.117.07-.002.244.015.523.052.395.103.591.236.589.399a.439.439 0 00.101.276c.069.068.15.1.243.096.163.018.138.124-.075.318-.189.193-.519.461-.99.804-.447.296-.73.492-.848.59-.094.073-.108.237-.042.49.18.438.184.95.012 1.54-.171.588-.472 1.194-.9 1.815a10.32 10.32 0 01-1.564 1.769c-.591.534-1.227 1-1.909 1.396-.658.373-1.302.606-1.933.698zm-.572-1.52c.093-.002.257-.055.492-.156l.564-.3c.094-.097.212-.206.354-.327.165-.146.295-.232.388-.259a.859.859 0 00.352-.117c.141-.098.342-.28.602-.546.261-.289.605-.709 1.032-1.26.474-.53.843-1.01 1.105-1.438.263-.453.339-.864.228-1.233-.022-.092-.091-.148-.207-.167a1.592 1.592 0 01-.383-.162 1.305 1.305 0 01-.662-.151c-.184-.134-.403-.3-.657-.502l-.549-.68-.603.616c-.379.386-.783.96-1.214 1.721a16.993 16.993 0 00-1.047 2.276c-.291.756-.463 1.357-.516 1.802-.028.35.026.582.165.694.138.111.323.175.556.19z" fill="#05394B"/><path d="M34.655 51.662c84.788 18.948 165.127 11.11 245.206-20.997-6.509-4.492-11.345-1.977-15.1-.572-28.989 9.88-59.515 13.979-89.717 18.29-43.521 6.27-85.74 2.48-127.635-6.553-1.837-.294-3.43-1.11-7.212-2.678 20.127-5.683 41.277-2.057 58.353-10.876-.405-.948-.54-2.172-.945-3.12-13.452.735-27.202 1.502-40.682 1.992s-26.69.701-40.142 1.436c-9.86.588-13.59 4.965-9.216 11.923 5.508 9.064 12.717 17.198 19.36 25.642.701.915 1.727 2.042 2.97 2.401 3.376.62 6.672.507 10.319.85.325-2.516 1.514-5.374.975-7.546-.918-2.874-3.267-5.096-6.534-10.192z" fill="#073B4D"/></svg>