<svg width="148" height="211" viewBox="0 0 148 211" fill="none" xmlns="http://www.w3.org/2000/svg">
<path d="M25.3984 180.643C25.2516 180.766 25.1386 180.852 25.0595 180.901C24.6412 181.163 24.2306 181.24 23.8275 181.133C23.4245 181.026 23.1055 180.725 22.8707 180.232C22.5734 179.73 22.3687 179.007 22.2563 178.062C22.1553 177.109 22.1823 176.241 22.3372 175.457C22.4537 174.931 22.5621 174.496 22.6625 174.152C22.7629 173.808 22.8807 173.547 23.0159 173.368C23.2017 173.111 23.4416 172.891 23.7355 172.707C23.9619 172.628 24.2027 172.595 24.4579 172.607C24.7243 172.612 24.8891 172.681 24.9521 172.813L25.0798 172.851C25.1477 172.808 25.2528 172.86 25.3952 173.005C25.532 173.138 25.649 173.307 25.7464 173.512C25.8266 173.68 25.867 173.843 25.8678 173.998C25.9314 174.255 25.9468 174.503 25.9139 174.743C25.8924 174.975 25.8308 175.123 25.729 175.186C25.6047 175.264 25.5597 175.339 25.594 175.412C25.617 175.46 25.6058 175.498 25.5606 175.526C25.5041 175.562 25.4191 175.568 25.3056 175.545C25.1921 175.522 25.0954 175.473 25.0157 175.398C24.9985 175.362 24.9724 175.246 24.9375 175.049C24.9025 174.852 24.8589 174.637 24.8068 174.404C24.7719 174.238 24.7288 174.101 24.6772 173.993C24.5626 173.752 24.4206 173.685 24.251 173.791C24.1606 173.847 24.0816 173.928 24.0141 174.033C23.6879 174.581 23.4871 175.253 23.4116 176.05C23.3361 176.847 23.4203 177.826 23.664 178.986C23.7335 179.286 23.8055 179.514 23.8799 179.671C23.9372 179.791 23.9887 179.884 24.0344 179.949C24.0914 180.007 24.134 180.035 24.1623 180.033C24.2303 180.022 24.3547 179.96 24.5356 179.846C24.9539 179.585 25.222 179.347 25.34 179.132C25.6044 178.701 25.8739 178.174 26.1487 177.549C26.1767 177.484 26.2159 177.382 26.2663 177.241C26.3109 177.088 26.3642 176.969 26.4261 176.883C26.4422 176.701 26.4785 176.577 26.5348 176.51C26.5855 176.432 26.6843 176.347 26.8312 176.255C27.0011 176.211 27.1513 176.203 27.2818 176.231C27.4066 176.246 27.4353 176.306 27.3678 176.411C27.3338 176.432 27.317 176.459 27.3171 176.49C27.3173 176.521 27.3202 176.543 27.3259 176.555C27.3772 176.601 27.3583 176.808 27.2694 177.176C27.1805 177.544 27.0633 177.914 26.9177 178.286C26.7663 178.646 26.6455 178.855 26.555 178.911C26.5098 178.94 26.4731 178.97 26.4449 179.004C26.4167 179.037 26.4141 179.078 26.437 179.126C26.4599 179.174 26.3391 179.398 26.0746 179.798C25.8157 180.178 25.5903 180.46 25.3984 180.643ZM30.0954 169.081C30.2027 168.998 30.3695 168.917 30.5959 168.838C30.8223 168.759 30.9864 168.688 31.0881 168.624C31.564 168.545 31.9409 168.536 32.219 168.596C32.4914 168.645 32.6907 168.833 32.817 169.16C32.8517 169.294 32.9122 169.483 32.9984 169.726C33.0959 169.962 33.1367 170.186 33.1207 170.399C33.1495 170.491 33.1759 170.669 33.1999 170.936C33.2238 171.202 33.2417 171.378 33.2535 171.465C33.3082 172.227 33.3702 172.743 33.4396 173.012C33.4512 173.067 33.4545 173.167 33.4495 173.31C33.4559 173.447 33.4762 173.551 33.5106 173.624C33.5792 173.737 33.6282 173.902 33.6576 174.118C33.6983 174.327 33.7048 174.494 33.677 174.621C33.6324 174.774 33.5536 174.886 33.4405 174.956C33.2823 175.055 33.1123 175.084 32.9307 175.041C32.7547 174.979 32.6351 174.867 32.5719 174.703C32.4344 174.414 32.2965 174.032 32.1581 173.556C32.1972 173.422 32.1994 173.303 32.1649 173.2C32.1246 173.084 32.1016 173.005 32.0957 172.962C32.0648 172.435 31.9939 171.854 31.8831 171.22C31.7836 170.579 31.6651 170.115 31.5277 169.826C31.4876 169.741 31.4533 169.685 31.4248 169.656C31.1535 169.825 30.789 170.077 30.3314 170.41C29.8738 170.743 29.6168 170.927 29.5603 170.962C29.5208 171.003 29.4955 171.058 29.4845 171.127C29.4678 171.184 29.468 171.231 29.4852 171.267C29.5371 171.438 29.572 171.635 29.5901 171.858C29.6082 172.081 29.6203 172.229 29.6263 172.304C29.6453 172.714 29.6896 173.069 29.7591 173.369C29.805 173.496 29.8378 173.827 29.8574 174.362C29.9244 175.304 30.0066 175.893 30.1042 176.129C30.0769 176.349 30.1321 176.619 30.2697 176.94C30.3042 177.043 30.2961 177.134 30.2455 177.213C30.1949 177.291 30.0877 177.405 29.924 177.554C29.8391 177.592 29.7485 177.601 29.652 177.584C29.5556 177.566 29.4619 177.539 29.371 177.502C29.2801 177.465 29.1836 177.431 29.0814 177.402C28.9897 177.209 28.8942 176.808 28.7949 176.198C28.6955 175.589 28.6508 175.14 28.6608 174.853C28.5626 174.492 28.4982 174.064 28.4674 173.567C28.4555 173.45 28.423 173.181 28.3699 172.761C28.2593 172.159 28.1746 171.642 28.1158 171.21C28.1094 171.073 28.089 170.953 28.0545 170.85C28.0313 170.739 28.0224 170.659 28.0278 170.608C28.0445 170.551 28.0979 170.447 28.1879 170.297C28.3635 170.266 28.5021 170.218 28.6039 170.154C28.6943 170.098 28.7704 170.011 28.8322 169.894C28.8604 169.861 28.9056 169.833 28.9679 169.81C29.0357 169.767 29.1092 169.721 29.1883 169.672L29.5783 169.428C29.8496 169.258 30.022 169.143 30.0954 169.081ZM37.1836 178.802C37.0932 178.858 36.994 178.85 36.8859 178.777C36.7893 178.728 36.7123 178.644 36.655 178.523C36.6149 178.439 36.5458 178.217 36.4477 177.856C36.3315 177.273 36.2275 176.885 36.1359 176.692C36.1072 176.632 36.0756 176.534 36.0409 176.4C36.012 176.277 35.9802 176.164 35.9457 176.061C35.9508 175.948 35.9274 175.791 35.8754 175.589C35.8404 175.393 35.7914 175.228 35.7284 175.096C35.6998 175.035 35.6824 174.952 35.6762 174.847C35.687 174.746 35.7093 174.654 35.7429 174.571C35.7085 174.499 35.6739 174.38 35.6391 174.214C35.5985 174.036 35.5696 173.914 35.5523 173.847C35.4541 173.486 35.308 172.578 35.1138 171.121C34.9196 169.665 34.7806 168.478 34.6968 167.562C34.6779 167.183 34.6366 166.85 34.5728 166.562C34.5091 166.274 34.4428 166.057 34.3741 165.913C34.3512 165.865 34.3424 165.815 34.3479 165.765C34.3589 165.696 34.3811 165.604 34.4145 165.489C34.4536 165.355 34.507 165.267 34.5748 165.225C34.6314 165.189 34.705 165.175 34.7957 165.18C34.8865 165.186 34.9801 165.198 35.0765 165.216C35.1959 165.282 35.2955 165.352 35.3752 165.427C35.4662 165.495 35.5375 165.583 35.5891 165.692C35.6063 165.728 35.6494 165.849 35.7184 166.056C35.8387 166.309 35.8881 166.551 35.8665 166.784C35.8393 167.004 35.8341 167.101 35.8509 167.075C36.2394 166.504 36.6314 166.094 37.027 165.847C37.5018 165.55 37.9465 165.483 38.3612 165.645C38.7872 165.801 39.1233 166.137 39.3696 166.655C39.4727 166.872 39.5365 167.175 39.5611 167.566C39.5913 167.938 39.5756 168.213 39.5141 168.392C39.4463 168.435 39.416 168.618 39.4232 168.941C39.3679 169.226 39.2223 169.583 38.9862 170.011C38.7445 170.428 38.5443 170.655 38.3858 170.692C38.3745 170.699 38.3604 170.715 38.3435 170.742C38.3266 170.768 38.3296 170.805 38.3525 170.853C38.3754 170.901 38.2262 171.112 37.9049 171.485C37.5835 171.857 37.2985 172.122 37.0498 172.277C36.9142 172.362 36.8096 172.42 36.736 172.45C36.6567 172.468 36.5689 172.469 36.4724 172.451C36.4334 172.585 36.431 172.688 36.4654 172.76C36.5284 172.892 36.5865 173.168 36.6395 173.588C36.6926 174.008 36.6852 174.239 36.6174 174.282C36.6118 174.301 36.6063 174.336 36.6009 174.386C36.6068 174.429 36.6438 174.461 36.7119 174.48C36.7291 174.517 36.7635 174.604 36.8152 174.744C36.8669 174.883 36.8874 175.003 36.8765 175.104C36.9281 175.212 36.9798 175.367 37.0318 175.569C37.0896 175.783 37.1188 175.952 37.1194 176.077C37.1881 176.221 37.2314 176.374 37.2491 176.535C37.284 176.7 37.2788 176.797 37.2336 176.826C37.1772 176.892 37.2263 177.088 37.381 177.413C37.5129 177.721 37.5681 177.991 37.5465 178.223C37.525 178.456 37.4464 178.614 37.3107 178.699L37.1836 178.802ZM36.4927 171.384C36.6623 171.277 36.9585 170.975 37.3812 170.476C37.8096 169.958 38.0825 169.546 38.2001 169.238C38.3344 168.872 38.4177 168.524 38.4501 168.191C38.4768 167.846 38.43 167.547 38.3097 167.294C38.218 167.102 38.0841 166.959 37.9079 166.866C37.7658 166.783 37.5986 166.802 37.4064 166.922C37.1804 167.063 36.9492 167.317 36.7128 167.684C36.4878 168.043 36.3112 168.443 36.1829 168.882C36.0825 169.226 36.0506 169.653 36.0871 170.161C36.1178 170.657 36.1876 171.02 36.2965 171.249C36.3595 171.381 36.4249 171.426 36.4927 171.384ZM43.4969 169.229C43.3612 169.314 43.2424 169.357 43.1403 169.358C43.0383 169.36 42.8823 169.34 42.6723 169.299C42.0988 169.111 41.729 168.843 41.5629 168.494C41.5228 168.409 41.4998 168.346 41.4939 168.302C41.4877 168.197 41.4589 168.106 41.4075 168.028C41.3675 167.944 41.3417 167.89 41.3302 167.866C41.2621 167.846 41.2252 167.83 41.2194 167.818C41.208 167.794 41.2107 167.769 41.2276 167.743C41.2387 167.704 41.2442 167.67 41.2441 167.638C41.3119 167.596 41.303 167.516 41.2174 167.397C41.149 167.315 41.0939 167.076 41.0523 166.68C41.005 166.273 41.0002 165.877 41.038 165.494C41.0593 165.2 41.1113 164.816 41.194 164.342C41.288 163.861 41.3911 163.477 41.503 163.188C41.6541 162.765 41.8083 162.427 41.9658 162.172C42.1233 161.917 42.3178 161.679 42.5491 161.456C42.7466 161.254 42.8848 161.129 42.964 161.079C43.0431 161.03 43.1224 161.011 43.2018 161.024C43.2868 161.018 43.406 161.037 43.5593 161.082C43.9332 161.035 44.2311 161.091 44.453 161.249C44.6805 161.388 44.9059 161.692 45.1293 162.162C45.5016 162.945 45.6059 163.981 45.4421 165.271C45.3711 165.831 45.2741 166.29 45.1511 166.648C45.0224 166.994 44.8288 167.404 44.5703 167.878C44.4189 168.207 44.2614 168.477 44.098 168.689C43.9402 168.881 43.7399 169.061 43.4969 169.229ZM44.214 166.296C44.3306 165.802 44.3993 165.36 44.4201 164.972C44.4522 164.577 44.4358 164.111 44.3708 163.574C44.3299 163.334 44.2408 163.069 44.1033 162.78C43.9315 162.419 43.7889 162.243 43.6755 162.251C43.5338 162.262 43.4065 162.302 43.2934 162.373C43.0447 162.528 42.842 162.811 42.6853 163.222C42.5006 163.728 42.3843 164.285 42.3362 164.893C42.2824 165.489 42.2746 166.197 42.3126 167.017C42.3198 167.341 42.3807 167.623 42.4953 167.864C42.5812 168.044 42.6895 168.164 42.8202 168.223C42.9622 168.275 43.1066 168.255 43.2536 168.163C43.6266 167.929 43.9468 167.307 44.214 166.296ZM48.0748 159.171C48.1714 159.22 48.2369 159.281 48.2713 159.353C48.2885 159.389 48.3087 159.463 48.3319 159.573C48.3672 159.832 48.3766 160.022 48.3602 160.141C48.2875 160.358 48.2404 160.583 48.2189 160.815C48.2029 161.029 48.1927 161.254 48.1881 161.491C48.1892 161.709 48.19 161.88 48.1906 162.005C48.225 162.077 48.2228 162.196 48.1839 162.361C48.1563 162.518 48.1597 162.633 48.1941 162.706C48.2456 162.814 48.2947 163.01 48.3415 163.293C48.3481 163.492 48.4087 163.712 48.5233 163.953L48.7894 164.466C48.9254 164.443 49.0103 164.421 49.0442 164.4C49.1346 164.344 49.205 164.229 49.2551 164.057C49.3896 163.723 49.4648 163.45 49.4808 163.237C49.508 163.017 49.5068 162.767 49.4771 162.489C49.4824 162.408 49.4791 162.324 49.4674 162.237C49.4612 162.132 49.4607 162.023 49.4658 161.91C49.4699 161.58 49.4197 161.181 49.3154 160.715C49.2167 160.23 49.1043 159.855 48.9783 159.591C48.9267 159.482 48.8867 159.413 48.8582 159.384L48.841 159.348L48.7549 159.121C48.7148 159.037 48.6465 158.986 48.55 158.968C48.5723 158.891 48.5463 158.775 48.4718 158.618C48.4145 158.498 48.3374 158.382 48.2405 158.271C48.1492 158.141 48.0722 158.056 48.0097 158.017C47.6893 157.436 47.4404 156.959 47.2628 156.586C47.0223 156.08 46.8471 155.62 46.7374 155.204C46.7257 155.149 46.7391 154.976 46.7774 154.687C46.8099 154.385 46.8513 154.148 46.9015 153.976C47.0134 153.688 47.2076 153.387 47.4838 153.073C47.7601 152.76 48.0283 152.537 48.2885 152.406C48.2829 152.425 48.3423 152.396 48.4666 152.318C48.7492 152.141 49.0685 151.918 49.4243 151.649C49.5372 151.547 49.6275 151.459 49.6952 151.385C49.7684 151.293 49.8725 151.126 50.0074 150.885C50.0354 150.821 50.0608 150.782 50.0834 150.768C50.1116 150.734 50.1511 150.71 50.2021 150.693L50.8575 150.822C51.0123 151.179 51.0478 151.485 50.964 151.74C50.8915 151.989 50.6633 152.264 50.2792 152.567L50.0163 152.708C49.9711 152.736 49.909 152.791 49.83 152.871C49.8131 152.897 49.7877 152.921 49.7538 152.942C49.7086 152.971 49.6548 152.996 49.5926 153.02C49.5246 153.031 49.468 153.051 49.4228 153.079C49.3324 153.136 49.242 153.208 49.1517 153.295C49.0557 153.371 48.9568 153.441 48.8551 153.504C48.7534 153.568 48.677 153.608 48.6261 153.624C48.2426 154.051 47.9979 154.431 47.8918 154.763C47.7857 155.095 47.8386 155.484 48.0505 155.929C48.1877 156.156 48.3876 156.453 48.6501 156.82C49.0096 157.298 49.2782 157.724 49.4557 158.097C49.5014 158.162 49.5527 158.224 49.6097 158.282C49.661 158.328 49.6952 158.369 49.7124 158.405C49.741 158.465 49.7469 158.524 49.7302 158.581C49.9299 158.847 50.0814 159.088 50.1845 159.305C50.3105 159.57 50.3739 159.796 50.3748 159.983C50.3979 160.062 50.4554 160.229 50.5474 160.484C50.6506 160.732 50.7029 160.996 50.7043 161.276C50.7141 162.129 50.6808 162.845 50.6042 163.425C50.5332 163.984 50.3714 164.523 50.1188 165.04C50.0739 165.131 49.9866 165.24 49.8568 165.368C49.727 165.496 49.6227 165.601 49.5437 165.681C49.4587 165.688 49.317 165.698 49.1186 165.713C48.9258 165.708 48.7727 165.695 48.6592 165.672C48.1314 165.549 47.7328 165.205 47.4636 164.639C47.3548 164.41 47.2656 164.146 47.1961 163.845C47.1209 163.533 47.0747 163.359 47.0575 163.323C47.0004 163.234 46.9743 163.117 46.9793 162.973C46.9785 162.818 46.978 162.709 46.9777 162.646C46.9802 162.004 46.9975 161.486 47.0296 161.091C47.0617 160.696 47.1473 160.212 47.2862 159.641C47.3087 159.596 47.3423 159.512 47.387 159.391C47.4318 159.269 47.4824 159.175 47.5387 159.108L48.0748 159.171ZM55.4306 153.469C55.7031 153.549 55.888 153.691 55.9854 153.896C56.0885 154.112 56.1333 154.576 56.1197 155.288C56.161 155.621 56.1825 155.944 56.184 156.255C56.1968 156.56 56.1921 156.766 56.17 156.873L56.2354 158.075C56.2548 158.578 56.2662 159.172 56.2695 159.858C56.2851 160.723 56.308 161.357 56.3383 161.76L56.2983 162.277C56.1914 163.594 56.0769 164.54 55.955 165.116C55.6139 166.095 55.2967 166.739 55.0034 167.047C54.8794 167.187 54.7156 167.321 54.5121 167.448C54.1391 167.681 53.7457 167.81 53.332 167.835C52.9126 167.878 52.626 167.8 52.4719 167.599C52.4205 167.522 52.4058 167.414 52.4278 167.275C52.4498 167.137 52.5004 167.043 52.5795 166.993C52.636 166.958 52.6927 166.954 52.7495 166.98C52.8743 166.996 53.0358 166.981 53.234 166.935C53.4493 166.894 53.6586 166.81 53.8621 166.683C53.9412 166.633 54.0429 166.554 54.1671 166.445C54.3703 166.256 54.5389 165.963 54.6731 165.566C54.8072 165.17 54.9073 164.764 54.9733 164.348C55.0712 163.505 55.1258 162.495 55.1371 161.316C54.9559 161.367 54.7489 161.348 54.516 161.259C54.2774 161.158 54.0642 161.034 53.8764 160.886C53.6999 160.731 53.6 160.598 53.5768 160.487L53.4823 160.289C53.3806 160.352 53.1984 160.201 52.9358 159.834C52.6846 159.46 52.43 159.002 52.1723 158.46C52.0749 158.255 51.9631 157.989 51.8367 157.662C51.7903 157.441 51.7012 157.192 51.5695 156.915C51.4433 156.619 51.3602 156.429 51.3201 156.345L51.2857 156.273C51.217 156.128 51.1796 156.019 51.1736 155.944C51.1788 155.863 51.2039 155.777 51.2489 155.686C51.3164 155.582 51.3954 155.501 51.4858 155.444C51.8023 155.246 52.1725 155.593 52.5964 156.484C52.6594 156.616 52.7712 156.882 52.9319 157.282C53.0008 157.457 53.1154 157.714 53.2758 158.051C53.5737 158.677 53.888 159.199 54.2189 159.617C54.5498 160.035 54.8599 160.271 55.1493 160.324L55.1307 160.008C55.089 159.581 55.0791 159.298 55.1011 159.159C55.0932 158.711 55.0777 158.432 55.0545 158.321C55.037 158.223 55.0333 158.045 55.0434 157.789L55.0318 157.164C55.0201 157.077 54.9847 156.802 54.9258 156.339C54.8611 155.864 54.8337 155.467 54.8435 155.149C54.8428 155.024 54.8448 154.843 54.8493 154.606C54.8481 154.357 54.8557 154.173 54.8721 154.053C54.8886 153.933 54.925 153.84 54.9813 153.774C55.0317 153.633 55.0851 153.545 55.1416 153.509C55.1868 153.481 55.2831 153.468 55.4306 153.469ZM63.3964 157.087C63.3402 157.185 63.2242 157.234 63.0485 157.235C62.884 157.228 62.6995 157.18 62.495 157.089C62.3301 156.989 62.1962 156.862 62.0934 156.707C62.0019 156.546 61.8302 156.2 61.5782 155.67C61.5209 155.55 61.4696 155.504 61.4244 155.532C61.3905 155.553 61.34 155.663 61.2729 155.861C61.2001 156.047 61.1191 156.293 61.0299 156.599C60.8792 157.084 60.7196 157.488 60.5511 157.812C60.3826 158.137 60.2163 158.342 60.0523 158.429C59.928 158.507 59.7494 158.501 59.5165 158.413C59.2949 158.317 59.0873 158.173 58.8936 157.982C58.791 157.859 58.6938 157.701 58.6022 157.508C58.3616 157.003 58.1656 156.328 58.0141 155.486C57.8739 154.636 57.8106 153.871 57.8243 153.191C57.8436 152.491 57.9549 152.078 58.1584 151.951C58.328 151.845 58.5808 151.944 58.9167 152.25C58.985 152.301 59.0306 152.35 59.0535 152.398C59.0936 152.483 59.0885 152.595 59.0382 152.736C58.9774 153.071 58.9744 153.604 59.0289 154.335C59.0835 155.067 59.1633 155.728 59.2682 156.318C59.3844 156.902 59.4821 157.169 59.5612 157.119C59.7195 157.02 59.8745 156.837 60.0263 156.571C60.1781 156.304 60.3098 155.995 60.4215 155.644C60.5274 155.281 60.605 154.92 60.6543 154.561C60.6979 154.19 60.738 153.704 60.7748 153.103C60.8658 151.999 60.9024 151.367 60.8846 151.206C60.8938 150.763 60.9094 150.472 60.9314 150.333C60.959 150.176 61.0207 150.043 61.1165 149.936L61.3539 149.788C61.4275 149.758 61.5324 149.762 61.6686 149.802C61.765 149.789 61.8302 149.802 61.8644 149.844C61.9042 149.866 61.9413 149.913 61.9757 149.985L62.0223 150.823L62.0501 151.298C62.0617 151.353 62.0654 151.53 62.0612 151.83C62.0933 152.606 62.1303 153.224 62.1723 153.682C62.2142 154.14 62.2957 154.589 62.4169 155.029C62.4343 155.096 62.4773 155.202 62.546 155.346C62.7179 155.707 62.8721 155.939 63.0086 156.041C63.2135 156.194 63.3897 156.287 63.5372 156.32C63.6167 156.333 63.6679 156.363 63.6908 156.411C63.7309 156.495 63.7031 156.622 63.6076 156.791C63.5233 156.953 63.4529 157.052 63.3964 157.087ZM59.4034 149.157C58.7817 149.545 58.1088 149.318 57.3846 148.474C57.3162 148.392 57.2734 148.333 57.2562 148.297C57.2161 148.212 57.1958 148.108 57.1952 147.983C57.1949 147.921 57.2229 147.857 57.2793 147.79C57.3356 147.724 57.3893 147.682 57.4402 147.666C57.6214 147.615 57.7688 147.617 57.8825 147.671C58.0017 147.705 58.107 147.788 58.1983 147.918C58.2723 147.981 58.3294 148.055 58.3695 148.139C58.6031 148.384 58.7991 148.457 58.9573 148.358C58.9912 148.336 59.0646 148.259 59.1773 148.126C59.5547 147.625 59.802 147.173 59.9191 146.772C59.9191 146.772 60.0448 146.389 60.2961 145.622L60.3045 145.593C60.3383 145.541 60.3721 145.504 60.406 145.483C60.4852 145.434 60.5503 145.416 60.6014 145.431C60.6923 145.468 60.7577 145.513 60.7976 145.566C60.8376 145.619 60.8719 145.676 60.9005 145.736C60.9291 145.796 60.952 145.845 60.9692 145.881L60.9695 145.927C61.0264 145.985 61.0386 146.165 61.0061 146.467C60.9678 146.756 60.8954 147.02 60.7888 147.259C60.66 147.574 60.4099 148.019 60.0385 148.595C59.9823 148.693 59.909 148.786 59.8187 148.873C59.7227 148.949 59.5843 149.043 59.4034 149.157ZM73.6344 148.692C73.6968 148.7 73.7452 148.74 73.7796 148.812C73.8197 148.896 73.8315 148.998 73.8151 149.118C73.8042 149.219 73.7762 149.283 73.731 149.311C73.5162 149.446 73.2784 149.516 73.0177 149.523C72.7625 149.511 72.569 149.366 72.4373 149.089L71.9046 147.97C71.6354 147.404 71.444 147.109 71.3305 147.087C71.1151 147.096 70.9157 147.479 70.7323 148.234C70.5602 148.982 70.4424 149.814 70.3788 150.728C70.3575 151.023 70.336 151.255 70.3141 151.425C70.2923 151.595 70.2588 151.694 70.2135 151.722C70.1796 151.743 70.1088 151.749 70.001 151.738C69.599 151.849 69.3236 151.748 69.1746 151.435C69.1575 151.398 69.1315 151.313 69.0969 151.179C69.0209 150.711 68.9249 150.2 68.8088 149.648C68.687 149.084 68.5798 148.612 68.4872 148.232C68.419 148.181 68.3453 148.18 68.2661 148.23C68.1531 148.301 68.0517 148.442 67.962 148.654C67.7768 149.036 67.6471 149.75 67.5728 150.796C67.4485 152.046 67.3247 152.834 67.2016 153.161C67.1912 153.355 67.1721 153.515 67.1444 153.642C67.1223 153.749 67.0829 153.821 67.0264 153.856C66.9812 153.884 66.8792 153.901 66.7205 153.907C66.2953 153.907 65.9939 153.721 65.8164 153.348C65.7304 153.167 65.6095 152.774 65.4534 152.168C65.2974 151.563 65.1699 150.987 65.0708 150.439C65.0752 150.171 65.0654 149.904 65.0414 149.638C65.023 149.352 65.0024 149.185 64.9795 149.137C64.9044 148.856 64.832 148.55 64.7624 148.219C64.6927 147.887 64.6663 147.693 64.683 147.635C64.7221 147.502 64.7924 147.403 64.8942 147.339C65.0637 147.233 65.2339 147.252 65.4047 147.395C65.592 147.45 65.7344 147.579 65.8318 147.784C65.9406 148.013 66.0188 148.347 66.0663 148.786C66.086 149.351 66.1862 150.132 66.3668 151.129C66.4725 150.703 66.5389 150.38 66.5662 150.16C66.6428 149.581 66.7755 148.904 66.9645 148.13C67.1202 147.502 67.4185 147.049 67.8593 146.774C68.4252 146.545 68.9453 146.821 69.4196 147.602C69.4884 147.747 69.563 147.934 69.6435 148.165C69.7182 148.384 69.7643 148.527 69.7816 148.594C69.7925 148.494 69.831 148.267 69.8974 147.913C69.975 147.552 70.0893 147.16 70.2403 146.737C70.3916 146.377 70.5747 146.13 70.7895 145.996C70.9703 145.882 71.1658 145.862 71.3759 145.933C71.6821 145.929 71.949 146.028 72.1768 146.229C72.3988 146.418 72.6043 146.712 72.7933 147.109C72.8907 147.314 72.9624 147.48 73.0084 147.607C73.1003 147.862 73.1606 148.02 73.1892 148.08C73.2981 148.309 73.4465 148.513 73.6344 148.692ZM77.9098 147.237C77.7532 147.678 77.4771 148.023 77.0814 148.27C76.7988 148.447 76.4932 148.544 76.1644 148.563C75.847 148.574 75.5434 148.506 75.2535 148.359C75.0149 148.258 74.8044 148.109 74.622 147.91C74.4396 147.712 74.2654 147.438 74.0993 147.089C74.042 146.969 73.9387 146.721 73.7895 146.345C73.6115 145.879 73.5266 145.33 73.5349 144.7C73.5545 144.063 73.6563 143.445 73.8405 142.845C74.0189 142.234 74.249 141.746 74.5307 141.382C74.6543 141.149 74.7896 140.986 74.9365 140.894C75.0157 140.845 75.0977 140.801 75.1825 140.764C75.2674 140.726 75.3579 140.685 75.454 140.641C75.7199 140.521 75.9322 140.459 76.0909 140.453C76.2552 140.429 76.4141 140.454 76.5675 140.53C76.9933 140.655 77.3008 140.915 77.4898 141.313C77.582 141.63 77.5643 142.071 77.4367 142.635C77.309 143.199 77.0849 143.73 76.7641 144.227C76.595 144.427 76.3805 144.608 76.1205 144.77C75.77 144.989 75.4502 145.088 75.1609 145.066C75.042 145.093 74.9543 145.125 74.8978 145.16C74.796 145.224 74.7513 145.345 74.7635 145.525C74.787 145.698 74.8678 145.991 75.0059 146.405C75.0347 146.496 75.0863 146.62 75.1608 146.777C75.4529 147.391 75.8054 147.608 76.2184 147.427C76.5071 147.325 76.7079 147.238 76.821 147.168C76.9566 147.083 77.0863 146.939 77.21 146.737L77.4377 146.337C77.4883 146.258 77.5276 146.171 77.5555 146.076C77.5834 145.98 77.6085 145.894 77.6308 145.818C77.6419 145.779 77.6587 145.722 77.681 145.646C77.6975 145.557 77.7199 145.496 77.7481 145.463C77.7819 145.411 77.8157 145.374 77.8496 145.353C77.8948 145.324 77.96 145.323 78.0452 145.347C78.1246 145.36 78.187 145.368 78.2324 145.371C78.3341 145.307 78.394 145.371 78.4119 145.563C78.4241 145.743 78.3828 145.996 78.288 146.32C78.1988 146.626 78.0727 146.932 77.9098 147.237ZM76.0714 143.418C76.2234 143.214 76.344 142.943 76.4331 142.606C76.5334 142.262 76.5493 142.018 76.4805 141.874C76.4118 141.729 76.3036 141.641 76.1561 141.608C76.0085 141.575 75.8443 141.615 75.6634 141.728C75.5278 141.813 75.4318 141.889 75.3754 141.955C75.2401 142.103 75.1165 142.352 75.0049 142.703C74.8875 143.042 74.8012 143.369 74.746 143.685C74.6909 144.001 74.6888 144.166 74.7399 144.181C74.848 144.254 75.0942 144.17 75.4786 143.93C75.7386 143.767 75.9362 143.597 76.0714 143.418ZM34.0258 197.251C34.1225 197.3 34.188 197.361 34.2223 197.433C34.2395 197.469 34.2597 197.542 34.2829 197.653C34.3182 197.912 34.3276 198.101 34.3112 198.221C34.2386 198.438 34.1915 198.663 34.1699 198.895C34.1539 199.108 34.1437 199.334 34.1392 199.571C34.1402 199.789 34.1411 199.96 34.1417 200.085C34.1761 200.157 34.1738 200.275 34.1349 200.44C34.1073 200.598 34.1107 200.713 34.1451 200.786C34.1966 200.894 34.2458 201.09 34.2925 201.373C34.2992 201.572 34.3598 201.792 34.4743 202.033L34.7404 202.546C34.8764 202.523 34.9613 202.501 34.9952 202.48C35.0857 202.424 35.156 202.309 35.2062 202.137C35.3406 201.803 35.4158 201.53 35.4318 201.317C35.4591 201.096 35.4579 200.847 35.4282 200.569C35.4334 200.488 35.4302 200.404 35.4184 200.317C35.4122 200.212 35.4117 200.103 35.4168 199.99C35.4209 199.66 35.3708 199.261 35.2664 198.795C35.1677 198.31 35.0553 197.935 34.9293 197.67C34.8778 197.562 34.8377 197.493 34.8093 197.464L34.7921 197.428L34.7059 197.201C34.6658 197.117 34.5975 197.066 34.5011 197.048C34.5234 196.971 34.4973 196.855 34.4228 196.698C34.3656 196.578 34.2885 196.462 34.1915 196.351C34.1002 196.221 34.0232 196.136 33.9607 196.097C33.6404 195.516 33.3914 195.039 33.2139 194.666C32.9733 194.16 32.7981 193.699 32.6884 193.284C32.6768 193.229 32.6901 193.056 32.7284 192.767C32.7609 192.465 32.8023 192.228 32.8525 192.056C32.9645 191.768 33.1586 191.466 33.4349 191.153C33.7112 190.84 33.9794 190.617 34.2395 190.486C34.2339 190.505 34.2933 190.475 34.4177 190.398C34.7003 190.221 35.0195 189.998 35.3754 189.728C35.4883 189.627 35.5786 189.539 35.6462 189.465C35.7195 189.373 35.8236 189.206 35.9584 188.965C35.9865 188.901 36.0118 188.862 36.0344 188.848C36.0626 188.814 36.1022 188.79 36.1531 188.773L36.8085 188.902C36.9634 189.259 36.9989 189.564 36.9151 189.82C36.8426 190.068 36.6143 190.344 36.2303 190.647L35.9673 190.788C35.9221 190.816 35.86 190.87 35.781 190.951C35.7641 190.977 35.7387 191.001 35.7048 191.022C35.6596 191.05 35.6059 191.076 35.5436 191.1C35.4757 191.111 35.4191 191.131 35.3738 191.159C35.2834 191.215 35.193 191.288 35.1028 191.375C35.0068 191.451 34.9079 191.521 34.8061 191.584C34.7044 191.648 34.6281 191.688 34.5771 191.704C34.1937 192.131 33.9489 192.511 33.8428 192.843C33.7367 193.175 33.7896 193.564 34.0016 194.009C34.1387 194.236 34.3386 194.533 34.6012 194.9C34.9607 195.378 35.2292 195.803 35.4068 196.177C35.4524 196.242 35.5038 196.303 35.5607 196.362C35.612 196.408 35.6462 196.449 35.6634 196.485C35.692 196.545 35.698 196.604 35.6813 196.661C35.881 196.927 36.0324 197.168 36.1355 197.385C36.2615 197.65 36.325 197.875 36.3259 198.062C36.349 198.142 36.4065 198.309 36.4984 198.564C36.6017 198.812 36.654 199.076 36.6553 199.356C36.6652 200.209 36.6318 200.925 36.5552 201.504C36.4843 202.064 36.3225 202.603 36.0699 203.12C36.025 203.211 35.9376 203.32 35.8078 203.448C35.6781 203.576 35.5737 203.681 35.4947 203.761C35.4097 203.768 35.268 203.778 35.0697 203.793C34.8769 203.788 34.7238 203.775 34.6103 203.752C34.0824 203.629 33.6839 203.285 33.4147 202.719C33.3058 202.49 33.2167 202.226 33.1472 201.925C33.0719 201.613 33.0257 201.439 33.0086 201.403C32.9514 201.313 32.9253 201.197 32.9303 201.053C32.9296 200.897 32.929 200.788 32.9287 200.726C32.9313 200.084 32.9486 199.565 32.9807 199.17C33.0128 198.775 33.0983 198.292 33.2373 197.721C33.2597 197.676 33.2933 197.592 33.3381 197.471C33.3828 197.349 33.4334 197.255 33.4898 197.188L34.0258 197.251ZM42.2844 198.812C42.1278 199.253 41.8517 199.598 41.456 199.845C41.1734 200.022 40.8677 200.119 40.539 200.138C40.2216 200.149 39.9179 200.081 39.6281 199.934C39.3895 199.833 39.179 199.684 38.9966 199.485C38.8142 199.287 38.6399 199.013 38.4738 198.664C38.4166 198.544 38.3133 198.296 38.1641 197.92C37.986 197.454 37.9012 196.905 37.9094 196.275C37.929 195.638 38.0309 195.02 38.2151 194.42C38.3935 193.809 38.6236 193.321 38.9053 192.957C39.0289 192.724 39.1641 192.561 39.3111 192.469C39.3902 192.42 39.4722 192.376 39.5571 192.339C39.6419 192.301 39.7324 192.26 39.8286 192.216C40.0945 192.096 40.3068 192.034 40.4655 192.028C40.6298 192.004 40.7887 192.029 40.9421 192.105C41.3679 192.23 41.6753 192.49 41.8643 192.888C41.9566 193.205 41.9389 193.646 41.8113 194.21C41.6836 194.774 41.4594 195.305 41.1387 195.802C40.9696 196.002 40.755 196.183 40.495 196.345C40.1446 196.564 39.8247 196.663 39.5355 196.641C39.4166 196.668 39.3289 196.7 39.2723 196.735C39.1706 196.799 39.1258 196.92 39.138 197.1C39.1616 197.273 39.2424 197.566 39.3804 197.98C39.4092 198.071 39.4609 198.195 39.5353 198.352C39.8274 198.966 40.18 199.183 40.593 199.002C40.8816 198.9 41.0825 198.813 41.1955 198.743C41.3312 198.658 41.4609 198.514 41.5846 198.312L41.8123 197.912C41.8629 197.833 41.9022 197.746 41.9301 197.651C41.9579 197.555 41.983 197.469 42.0053 197.393C42.0165 197.354 42.0332 197.297 42.0555 197.221C42.0721 197.132 42.0945 197.071 42.1227 197.038C42.1564 196.986 42.1903 196.949 42.2242 196.928C42.2694 196.899 42.3346 196.898 42.4197 196.922C42.4992 196.935 42.5616 196.943 42.6069 196.946C42.7087 196.882 42.7685 196.946 42.7865 197.138C42.7987 197.318 42.7574 197.571 42.6626 197.895C42.5734 198.201 42.4473 198.507 42.2844 198.812ZM40.4459 194.993C40.598 194.789 40.7186 194.518 40.8076 194.181C40.908 193.837 40.9238 193.593 40.8551 193.449C40.7864 193.304 40.6782 193.215 40.5306 193.183C40.3831 193.15 40.2189 193.19 40.038 193.303C39.9023 193.388 39.8063 193.464 39.75 193.53C39.6146 193.678 39.4911 193.927 39.3794 194.278C39.262 194.617 39.1757 194.944 39.1206 195.26C39.0654 195.576 39.0634 195.741 39.1145 195.756C39.2226 195.829 39.4688 195.745 39.8531 195.505C40.1131 195.342 40.3107 195.172 40.4459 194.993ZM44.199 189.646C44.7418 189.338 45.2631 189.293 45.7631 189.512C46.212 189.715 46.5223 189.998 46.6942 190.359C46.8889 190.768 46.9602 191.442 46.9081 192.381C46.854 192.915 46.4901 193.861 45.8164 195.22L45.5892 195.713C45.8108 195.809 46.1039 196.04 46.4685 196.406C46.8444 196.764 47.104 197.094 47.2472 197.395C47.2815 197.467 47.3103 197.558 47.3335 197.669C47.4354 197.636 47.5767 197.532 47.7572 197.357C47.9548 197.187 48.0819 197.084 48.1384 197.048C48.2065 197.068 48.3002 197.096 48.4194 197.13C48.55 197.158 48.6522 197.188 48.726 197.22C48.8056 197.264 48.8597 197.316 48.8884 197.376L48.9141 197.43C48.9428 197.49 48.9459 197.559 48.9236 197.635C48.9126 197.705 48.8817 197.763 48.8309 197.81C48.7802 197.858 48.6869 197.924 48.5513 198.009C48.4043 198.101 48.2489 198.206 48.0851 198.324C47.9213 198.442 47.7858 198.573 47.6788 198.718C47.657 198.888 47.6466 199.082 47.6476 199.3C47.6544 199.53 47.6609 199.698 47.6671 199.804C47.6979 200.3 47.6973 200.761 47.6653 201.187C47.6334 201.614 47.5194 202.083 47.3235 202.596C47.2396 202.821 47.147 203.027 47.0459 203.215C46.9448 203.403 46.8546 203.522 46.7755 203.572C46.4655 203.938 46.1635 204.212 45.8696 204.396C45.3383 204.729 44.7831 204.81 44.204 204.641C43.9762 204.44 43.8311 204.32 43.7685 204.281C43.7117 204.254 43.547 204.201 43.2745 204.121C43.2344 204.037 43.2054 203.899 43.1874 203.707C43.1582 203.522 43.1574 203.351 43.1849 203.193C43.3789 202.275 43.8394 201.378 44.5665 200.501C44.5834 200.475 44.6171 200.422 44.6678 200.344C44.7297 200.258 44.7946 200.194 44.8624 200.152C44.8964 200.131 44.9132 200.089 44.9129 200.027C44.9183 199.976 44.9266 199.932 44.9377 199.894C44.9546 199.868 44.9942 199.858 45.0566 199.866C45.0848 199.833 45.1101 199.778 45.1324 199.702C45.1717 199.63 45.231 199.585 45.3103 199.567C45.3273 199.572 45.4824 199.405 45.7756 199.065C46.0858 198.731 46.2972 198.497 46.41 198.364C46.2837 198.037 46.1804 197.789 46.1002 197.62C45.8482 197.09 45.5831 196.795 45.305 196.735C45.1347 196.685 44.9528 196.58 44.7592 196.42C44.5713 196.241 44.4318 196.117 44.3407 196.049C44.2942 195.797 44.3412 195.572 44.482 195.375C44.7521 194.956 45.0355 194.365 45.3323 193.601C45.6404 192.83 45.8465 192.076 45.9506 191.34C45.9889 191.05 45.9708 190.827 45.8963 190.67C45.7474 190.357 45.4523 190.308 45.0112 190.521C44.5929 190.783 44.1878 191.427 43.796 192.453C43.717 192.533 43.6662 192.581 43.6436 192.595C43.4627 192.708 43.2497 192.63 43.0047 192.362C42.97 192.227 42.9609 192.1 42.9773 191.981C42.988 191.849 43.0183 191.682 43.0684 191.478L43.1428 191.033C43.1934 190.955 43.2608 190.835 43.3451 190.673C43.4236 190.498 43.491 190.363 43.5472 190.265C43.6147 190.16 43.705 190.073 43.8181 190.002C43.8633 189.974 43.9254 189.919 44.0044 189.838C44.0776 189.746 44.1425 189.682 44.199 189.646ZM46.4862 200.05C46.4351 200.035 46.3813 200.045 46.3248 200.081C46.2457 200.13 46.1639 200.221 46.0795 200.351C45.9951 200.482 45.9388 200.564 45.9106 200.598C45.8769 200.65 45.8318 200.709 45.7754 200.776C45.7361 200.847 45.6798 200.929 45.6065 201.022C45.336 201.348 45.077 201.713 44.8295 202.117C44.5764 202.541 44.4167 202.915 44.3502 203.237C44.3174 203.477 44.2504 203.706 44.1495 203.925C44.371 204.021 44.5553 204.023 44.7023 203.931C44.7137 203.955 44.776 203.932 44.889 203.861C45.0699 203.748 45.2703 203.584 45.4904 203.368C45.7104 203.152 45.8851 202.934 46.0145 202.712C46.2505 202.283 46.412 201.682 46.4989 200.909C46.5313 200.577 46.5271 200.29 46.4862 200.05ZM48.686 186.652C48.7143 186.65 48.7568 186.647 48.8135 186.643C48.8645 186.627 48.9098 186.63 48.9496 186.652C49.12 186.701 49.2423 186.804 49.3168 186.961C49.3569 187.045 49.3773 187.165 49.3781 187.321C49.3734 187.527 49.3602 187.731 49.3385 187.932C49.3176 188.288 49.3078 188.607 49.3092 188.887C49.3218 189.161 49.3605 189.535 49.4252 190.01C49.6847 189.754 49.8483 189.573 49.9158 189.469C49.9776 189.352 50.0557 189.1 50.1502 188.713C50.2506 188.369 50.3511 188.056 50.4518 187.774C50.8034 186.633 50.9875 186.018 51.0041 185.929C51.0258 185.728 51.0534 185.57 51.0868 185.456C51.1146 185.329 51.1764 185.212 51.2722 185.105C51.4419 185.03 51.5636 184.993 51.6373 184.994C51.7224 184.988 51.9152 185.008 52.2159 185.054C52.284 185.074 52.3468 185.144 52.404 185.264C52.5129 185.493 52.528 185.695 52.4495 185.869C52.427 185.914 52.2954 186.238 52.0545 186.842C51.5787 188.093 51.1528 189.109 50.7768 189.891C51.2259 190.157 51.6924 190.474 52.1761 190.844C52.3361 191.119 52.5267 191.257 52.7479 191.259C52.969 191.262 53.2321 191.167 53.5374 190.977C53.6507 190.968 53.7359 190.993 53.7929 191.051C53.8611 191.102 53.9153 191.17 53.9554 191.254C54.0068 191.331 54.0496 191.39 54.0838 191.432C54.0165 191.567 53.9577 191.721 53.9075 191.893C53.8516 192.053 53.7897 192.154 53.7219 192.197C53.6428 192.246 53.5012 192.288 53.2973 192.322C53.1104 192.361 52.9233 192.368 52.7361 192.345C52.5432 192.309 52.3303 192.247 52.0974 192.158C51.8816 192.075 51.4126 191.813 50.6904 191.375C49.9683 190.936 49.5646 190.688 49.4793 190.632C49.4912 190.75 49.4975 190.886 49.4983 191.042C49.5046 191.179 49.5194 191.302 49.5426 191.413C49.5601 191.511 49.6032 191.633 49.6719 191.777C49.6391 192.017 49.6517 192.29 49.7099 192.597C49.7737 192.885 49.8144 193.094 49.832 193.224C49.8902 193.531 49.8464 193.84 49.7005 194.15C49.4913 194.265 49.2304 194.256 48.918 194.124C48.8099 194.051 48.7244 193.948 48.6613 193.815C48.5983 193.683 48.5579 193.521 48.5399 193.329C48.511 193.206 48.4698 192.904 48.4165 192.422C48.3631 191.94 48.3187 191.553 48.2833 191.263C48.2653 191.071 48.2297 190.75 48.1765 190.299C48.1289 189.829 48.0935 189.554 48.0704 189.475C48.0299 189.297 48.0257 189.011 48.0578 188.616C48.0834 188.053 48.0586 187.615 47.9833 187.303C47.9658 187.204 47.9851 187.091 48.0412 186.962C48.1028 186.814 48.1845 186.708 48.2863 186.645C48.4106 186.567 48.5439 186.57 48.686 186.652ZM56.9029 190.137C56.7672 190.222 56.6484 190.265 56.5463 190.266C56.4443 190.268 56.2883 190.248 56.0783 190.207C55.5048 190.019 55.135 189.751 54.9689 189.402C54.9288 189.317 54.9058 189.254 54.8999 189.21C54.8937 189.105 54.8649 189.014 54.8135 188.936C54.7734 188.852 54.7477 188.798 54.7362 188.774C54.6681 188.754 54.6312 188.738 54.6254 188.726C54.614 188.702 54.6167 188.677 54.6336 188.651C54.6447 188.612 54.6502 188.578 54.6501 188.546C54.7179 188.504 54.709 188.424 54.6234 188.305C54.5549 188.223 54.4999 187.984 54.4583 187.588C54.411 187.181 54.4062 186.785 54.444 186.402C54.4653 186.108 54.5173 185.724 54.6 185.25C54.694 184.769 54.7971 184.385 54.909 184.096C55.06 183.673 55.2143 183.335 55.3718 183.08C55.5293 182.825 55.7237 182.587 55.9551 182.364C56.1526 182.162 56.2908 182.037 56.37 181.987C56.4491 181.938 56.5284 181.919 56.6078 181.932C56.6928 181.926 56.812 181.945 56.9653 181.99C57.3392 181.943 57.6371 181.999 57.859 182.157C58.0865 182.296 58.3119 182.6 58.5353 183.07C58.9076 183.853 59.0119 184.889 58.848 186.179C58.7771 186.739 58.6801 187.198 58.5571 187.556C58.4284 187.902 58.2348 188.312 57.9763 188.786C57.8248 189.115 57.6674 189.385 57.504 189.597C57.3462 189.789 57.1458 189.969 56.9029 190.137ZM57.62 187.204C57.7366 186.71 57.8053 186.268 57.8261 185.88C57.8582 185.485 57.8418 185.019 57.7768 184.482C57.7359 184.242 57.6468 183.977 57.5093 183.688C57.3375 183.327 57.1949 183.151 57.0815 183.159C56.9398 183.17 56.8125 183.21 56.6994 183.281C56.4507 183.436 56.248 183.719 56.0913 184.13C55.9066 184.636 55.7903 185.193 55.7422 185.801C55.6884 186.397 55.6805 187.105 55.7186 187.925C55.7258 188.249 55.7867 188.531 55.9013 188.772C55.9872 188.952 56.0955 189.072 56.2262 189.131C56.3681 189.183 56.5126 189.163 56.6596 189.071C57.0326 188.837 57.3527 188.215 57.62 187.204ZM66.5673 178.562C66.5952 178.466 66.6089 178.356 66.6083 178.232C66.6076 178.107 66.6101 178.02 66.6155 177.969C66.6256 177.713 66.6445 177.522 66.6722 177.395C66.7055 177.249 66.776 177.166 66.8836 177.145C67.297 177.059 67.6491 177.167 67.9397 177.469C67.9912 177.578 68.0493 177.869 68.114 178.344C68.143 178.467 68.1779 178.664 68.2189 178.935C68.2655 179.187 68.3147 179.398 68.3666 179.569C68.4589 179.886 68.5393 180.117 68.6081 180.262C68.6997 180.454 68.8254 180.641 68.985 180.823C69.0587 180.823 69.1351 180.799 69.2142 180.75C69.2708 180.714 69.3442 180.653 69.4345 180.565C69.536 180.47 69.6264 180.398 69.7055 180.349C69.8419 180.419 69.9531 180.545 70.039 180.726C70.0791 180.81 70.1252 180.953 70.1772 181.155C70.0085 181.448 69.8252 181.648 69.6273 181.757C69.4576 181.832 69.3274 181.866 69.2367 181.86C69.1459 181.855 69.0381 181.828 68.9131 181.782C68.7824 181.723 68.6689 181.684 68.5724 181.667C68.1638 181.578 67.7679 181.193 67.3847 180.511C67.2941 180.537 67.1908 180.859 67.0748 181.478C66.9141 182.251 66.7667 182.819 66.6324 183.185C66.5094 183.543 66.3179 183.803 66.0579 183.966C65.9675 184.022 65.8911 184.062 65.8289 184.086C65.7552 184.085 65.5735 184.042 65.284 183.958C65.1191 183.858 64.9544 183.804 64.79 183.798C64.4938 183.515 64.3057 183.32 64.2259 183.213C64.1289 183.102 64.0547 182.992 64.0031 182.884C63.9516 182.776 63.9284 182.665 63.9335 182.553C63.8826 182.569 63.8404 182.634 63.8069 182.749C63.7734 182.864 63.7486 182.996 63.7323 183.147C63.7269 183.197 63.7048 183.321 63.6661 183.517C63.6386 183.706 63.5884 183.878 63.5155 184.033C63.4258 184.245 63.3029 184.619 63.1468 185.154C63.0074 185.632 62.9041 185.954 62.8368 186.121L62.2942 186.46C62.1978 186.443 62.0389 186.417 61.8176 186.383C61.5906 186.338 61.4003 186.262 61.2467 186.155C61.0874 186.036 60.9334 185.851 60.7848 185.6C60.5733 185.248 60.4494 184.818 60.4129 184.309L60.3559 183.08L60.3353 182.343C60.2502 181.177 60.349 180.506 60.6316 180.329C60.773 180.257 60.9004 180.232 61.0139 180.254C61.1274 180.277 61.2524 180.324 61.3888 180.395C61.5252 180.466 61.6388 180.52 61.7297 180.556C61.7933 180.813 61.7919 181.103 61.7255 181.426C61.5859 181.873 61.56 182.373 61.6477 182.928L61.6672 183.431C61.669 183.805 61.6789 184.088 61.6968 184.28C61.6818 184.68 61.7057 184.946 61.7688 185.078C61.8089 185.163 61.8628 185.184 61.9306 185.141C62.1228 185.021 62.3275 184.557 62.5447 183.749C62.6339 183.444 62.6785 183.291 62.6785 183.291C62.7844 182.928 62.8594 182.607 62.9034 182.33C62.9369 182.215 62.9809 181.938 63.0354 181.497C63.1064 180.937 63.1669 180.556 63.217 180.353C63.2887 179.949 63.3041 179.611 63.263 179.34C63.2052 179.095 63.3035 178.916 63.5581 178.804C63.7622 178.801 63.9323 178.819 64.0686 178.859C64.1991 178.887 64.3469 178.966 64.512 179.097C64.6087 179.178 64.6691 179.351 64.6931 179.617C64.7284 179.876 64.7471 180.224 64.7492 180.66C64.7447 180.897 64.7657 181.142 64.8123 181.394C64.8702 181.639 64.9078 181.795 64.9251 181.862L65.0122 182.276L65.0554 182.413C65.1069 182.522 65.2181 182.647 65.3889 182.791C65.5185 182.631 65.6113 182.487 65.6674 182.359C65.729 182.211 65.7737 182.073 65.8014 181.947C65.8292 181.82 65.8486 181.738 65.8598 181.699C65.9205 181.365 66.0127 181.08 66.1363 180.847C66.1245 180.76 66.1326 180.669 66.1604 180.574C66.1826 180.466 66.1992 180.393 66.2104 180.355C66.2943 180.131 66.3246 179.948 66.3013 179.806L66.5673 178.562ZM78.8602 174.716C78.9226 174.724 78.971 174.764 79.0054 174.837C79.0455 174.921 79.0573 175.023 79.0409 175.142C79.0301 175.243 79.002 175.307 78.9568 175.336C78.742 175.47 78.5043 175.541 78.2435 175.547C77.9883 175.535 77.7948 175.391 77.6631 175.114L77.1304 173.994C76.8612 173.428 76.6698 173.134 76.5563 173.111C76.3409 173.121 76.1415 173.503 75.9581 174.258C75.786 175.007 75.6682 175.838 75.6046 176.753C75.5834 177.047 75.5618 177.279 75.54 177.449C75.5181 177.619 75.4846 177.718 75.4394 177.747C75.4054 177.768 75.3346 177.773 75.2268 177.762C74.8248 177.873 74.5494 177.772 74.4005 177.459C74.3833 177.423 74.3573 177.337 74.3227 177.203C74.2467 176.735 74.1507 176.225 74.0346 175.672C73.9128 175.108 73.8056 174.636 73.713 174.257C73.6448 174.206 73.5711 174.205 73.4919 174.254C73.3789 174.325 73.2775 174.466 73.1879 174.679C73.0026 175.06 72.8729 175.774 72.7986 176.82C72.6743 178.07 72.5505 178.858 72.4274 179.185C72.417 179.379 72.398 179.539 72.3702 179.666C72.3481 179.774 72.3087 179.845 72.2522 179.881C72.207 179.909 72.105 179.926 71.9463 179.931C71.5211 179.932 71.2197 179.745 71.0422 179.372C70.9562 179.191 70.8353 178.798 70.6793 178.193C70.5232 177.587 70.3957 177.011 70.2967 176.464C70.301 176.195 70.2912 175.928 70.2672 175.662C70.2488 175.377 70.2282 175.21 70.2053 175.162C70.1302 174.881 70.0578 174.574 69.9882 174.243C69.9186 173.911 69.8921 173.717 69.9088 173.66C69.9479 173.526 70.0182 173.427 70.12 173.364C70.2895 173.258 70.4597 173.276 70.6305 173.419C70.8179 173.474 70.9602 173.604 71.0576 173.808C71.1664 174.037 71.2446 174.371 71.2921 174.81C71.3118 175.376 71.412 176.157 71.5926 177.153C71.6983 176.727 71.7647 176.405 71.792 176.185C71.8686 175.605 72.0013 174.929 72.1903 174.154C72.346 173.526 72.6443 173.074 73.0851 172.798C73.651 172.569 74.1711 172.845 74.6454 173.627C74.7142 173.771 74.7888 173.959 74.8693 174.19C74.944 174.408 74.9901 174.551 75.0074 174.619C75.0183 174.518 75.0569 174.291 75.1232 173.937C75.2008 173.576 75.3151 173.184 75.4661 172.762C75.6174 172.401 75.8005 172.154 76.0153 172.02C76.1961 171.907 76.3916 171.886 76.6017 171.958C76.9079 171.954 77.1748 172.052 77.4026 172.254C77.6246 172.443 77.8301 172.736 78.0191 173.133C78.1165 173.338 78.1882 173.504 78.2342 173.632C78.3261 173.887 78.3864 174.044 78.4151 174.104C78.5239 174.333 78.6723 174.537 78.8602 174.716ZM81.8243 174.55C81.6886 174.635 81.5698 174.678 81.4678 174.679C81.3657 174.68 81.2097 174.661 80.9997 174.62C80.4262 174.432 80.0564 174.164 79.8903 173.814C79.8502 173.73 79.8272 173.666 79.8213 173.623C79.8151 173.518 79.7864 173.426 79.735 173.349C79.6949 173.265 79.6691 173.211 79.6576 173.187C79.5895 173.167 79.5526 173.151 79.5468 173.139C79.5354 173.115 79.5381 173.089 79.555 173.063C79.5661 173.025 79.5716 172.99 79.5715 172.959C79.6393 172.917 79.6304 172.836 79.5448 172.718C79.4764 172.636 79.4213 172.397 79.3797 172.001C79.3324 171.593 79.3276 171.198 79.3654 170.815C79.3867 170.52 79.4387 170.136 79.5214 169.663C79.6155 169.182 79.7185 168.798 79.8304 168.509C79.9815 168.086 80.1357 167.748 80.2932 167.493C80.4507 167.238 80.6452 166.999 80.8765 166.777C81.074 166.575 81.2123 166.449 81.2914 166.4C81.3705 166.35 81.4498 166.332 81.5292 166.345C81.6142 166.339 81.7334 166.358 81.8867 166.403C82.2606 166.356 82.5585 166.412 82.7804 166.57C83.0079 166.709 83.2333 167.013 83.4567 167.483C83.829 168.265 83.9333 169.302 83.7695 170.591C83.6985 171.151 83.6015 171.61 83.4785 171.968C83.3498 172.315 83.1562 172.725 82.8977 173.199C82.7463 173.528 82.5888 173.798 82.4255 174.01C82.2676 174.202 82.0673 174.382 81.8243 174.55ZM82.5414 171.617C82.658 171.122 82.7267 170.681 82.7475 170.293C82.7796 169.898 82.7632 169.432 82.6982 168.895C82.6573 168.655 82.5682 168.39 82.4307 168.101C82.2589 167.74 82.1163 167.563 82.0029 167.572C81.8612 167.582 81.7339 167.623 81.6208 167.694C81.3721 167.849 81.1694 168.132 81.0127 168.543C80.8281 169.049 80.7117 169.606 80.6636 170.214C80.6098 170.81 80.602 171.518 80.64 172.338C80.6472 172.661 80.7081 172.944 80.8227 173.184C80.9086 173.365 81.0169 173.485 81.1476 173.544C81.2896 173.595 81.434 173.575 81.581 173.483C81.954 173.25 82.2742 172.628 82.5414 171.617ZM88.2104 170.837C88.1765 170.858 88.0663 170.935 87.8799 171.067C87.699 171.18 87.5038 171.248 87.2941 171.269C87.0787 171.279 86.8687 171.223 86.664 171.101C86.5104 170.994 86.3566 170.856 86.2028 170.686C86.0489 170.517 85.9375 170.36 85.8688 170.216C85.8402 170.156 85.82 170.082 85.8082 169.996C85.3929 168.537 85.17 167.591 85.1396 167.157L85.0758 166.283C85.0407 166.055 84.9545 165.827 84.8173 165.601L84.783 165.528C84.7085 165.372 84.702 165.204 84.7635 165.025C84.8812 164.748 84.9365 164.448 84.9292 164.125C84.911 163.87 84.9036 163.516 84.907 163.06C84.9105 162.605 84.926 162.299 84.9536 162.141C84.992 161.883 85.022 161.637 85.0435 161.405C85.049 161.355 85.0679 161.179 85.1005 160.877C85.1386 160.557 85.2109 160.261 85.3173 159.992C85.3488 159.472 85.5522 158.743 85.9274 157.806C86.0842 157.395 86.1793 157.133 86.2127 157.018C86.2295 156.961 86.314 156.861 86.4664 156.719C86.6131 156.565 86.7061 156.467 86.7456 156.427C86.8246 156.346 86.9572 156.209 87.1433 156.014C87.1939 155.936 87.3326 155.888 87.5593 155.871C87.7916 155.835 87.9787 155.843 88.1207 155.895C88.4619 156.119 88.6784 156.327 88.77 156.52C88.8445 156.676 88.8937 156.872 88.9175 157.107C88.9413 157.342 88.9602 157.737 88.9743 158.29C88.9797 159.412 88.6317 160.7 87.9301 162.154C87.7064 162.794 87.409 163.417 87.0377 164.024C86.7621 164.462 86.5256 164.798 86.3283 165.031C86.1761 165.204 86.1119 165.424 86.1359 165.69C86.1422 165.827 86.1657 165.984 86.2062 166.161C86.2581 166.332 86.2729 166.456 86.2506 166.532C86.2171 166.647 86.2959 167.121 86.4871 167.954C86.6782 168.788 86.8368 169.337 86.9628 169.602C87.0087 169.698 87.0601 169.775 87.117 169.833C87.174 169.891 87.2507 169.914 87.347 169.9C87.4881 169.765 87.5866 169.633 87.6427 169.505C87.7043 169.357 87.7657 169.146 87.8267 168.874C87.9427 168.255 87.9769 167.71 87.9293 167.24C87.9117 167.11 87.8797 166.95 87.8334 166.761C87.7814 166.559 87.7551 166.396 87.7545 166.271C87.554 165.85 87.4195 165.582 87.3509 165.469C87.2766 165.344 87.1626 165.212 87.0088 165.074C87.0482 165.002 87.0762 164.938 87.0929 164.88C87.1152 164.804 87.1632 164.751 87.2367 164.72C87.5254 164.618 87.8712 164.62 88.2742 164.727C88.3935 164.762 88.4648 164.85 88.4881 164.992C88.6262 165.406 88.7353 165.697 88.8155 165.865C88.8217 165.971 88.854 166.193 88.9123 166.531C88.9755 166.695 89.0132 166.866 89.0254 167.046C89.0338 167.619 89.0301 168.012 89.0141 168.225C89.0003 168.874 88.8616 169.508 88.5982 170.126L88.2104 170.837ZM87.5718 156.684C87.3184 157.045 87.13 157.358 87.0066 157.623C86.8887 157.868 86.7601 158.23 86.6207 158.708C86.4868 159.167 86.3486 159.894 86.2061 160.889C86.0691 161.865 86.0217 162.613 86.0639 163.134C86.1262 163.11 86.1969 163.074 86.276 163.024C86.389 162.954 86.4565 162.833 86.4783 162.664C87.0003 161.572 87.3842 160.667 87.6302 159.951C87.8704 159.223 87.9667 158.624 87.9191 158.154C87.9185 158.029 87.9234 157.87 87.9338 157.676C87.9384 157.47 87.9206 157.293 87.8802 157.147L87.5718 156.684ZM93.9942 158.97C94.0841 158.82 94.1913 158.707 94.3157 158.629C94.4739 158.53 94.6353 158.499 94.7999 158.537C94.9701 158.555 95.0924 158.643 95.1669 158.799C95.1784 158.823 95.1957 158.891 95.2189 159.001C95.1784 158.823 95.1828 159.157 95.2323 160C95.2817 160.844 95.3066 161.298 95.3069 161.36L95.3327 161.414C95.491 161.315 95.6185 161.306 95.7152 161.386C95.8176 161.447 95.9032 161.565 95.9721 161.741C95.8818 161.828 95.8058 161.931 95.744 162.047C95.6822 162.164 95.623 162.24 95.5665 162.275C95.5326 162.297 95.5016 162.339 95.4736 162.404C95.4455 162.468 95.4373 162.528 95.4489 162.583C95.4492 162.646 95.4985 162.857 95.5966 163.217L95.91 164.709C95.9275 164.807 95.9223 164.904 95.8944 165C95.8665 165.095 95.8328 165.163 95.7934 165.203C95.7424 165.22 95.6377 165.246 95.4791 165.283C95.3261 165.3 95.2213 165.311 95.1646 165.316C95.1022 165.308 95.0398 165.3 94.9774 165.292L94.9258 165.184C94.8457 165.015 94.7909 164.823 94.7615 164.607C94.7144 164.261 94.613 163.801 94.4571 163.227C94.3495 163.248 94.132 163.407 93.8046 163.706C93.4715 163.992 93.288 164.146 93.2541 164.167C93.2035 164.246 93.0764 164.348 92.8729 164.476C92.5451 164.681 92.299 164.796 92.1347 164.82L92.0588 164.938C92.0877 165.061 92.1111 165.202 92.1289 165.363C92.1821 165.814 92.2517 166.13 92.3376 166.31C92.3952 166.493 92.4384 166.646 92.4674 166.768C92.5021 166.903 92.5654 167.097 92.6573 167.352C92.8064 167.697 92.7792 167.932 92.5757 168.06C92.4514 168.137 92.2928 168.174 92.1 168.17C91.998 168.171 91.8448 168.142 91.6404 168.082L91.2501 166.522C91.2325 166.392 91.1948 166.221 91.137 166.007C91.0906 165.786 91.0614 165.601 91.0493 165.452L90.9695 164.776C90.9046 164.27 90.8657 163.849 90.8528 163.513C90.8528 163.513 90.8025 163.084 90.7019 162.225C90.6957 162.119 90.6604 161.845 90.5959 161.401C90.5369 160.937 90.5044 160.669 90.4984 160.594C90.4806 160.434 90.5395 160.311 90.6752 160.226C90.8503 160.101 91.0259 160.054 91.2018 160.084C91.3832 160.096 91.514 160.17 91.594 160.308C91.6112 160.344 91.6342 160.407 91.663 160.499C91.6861 160.578 91.7005 160.639 91.7064 160.683L91.9159 163.528L91.9846 163.672C92.047 163.68 92.1347 163.649 92.2478 163.578C92.3382 163.521 92.4652 163.418 92.6289 163.269C92.8039 163.113 92.914 163.021 92.9592 162.992C93.0553 162.917 93.2021 162.809 93.3999 162.67C93.5976 162.53 93.7982 162.397 94.0017 162.27C94.16 162.171 94.2476 162.124 94.2647 162.129L94.1762 161.434C94.0764 160.731 94.0424 160.135 94.074 159.647C94.0681 159.604 94.0592 159.523 94.0473 159.406C94.0297 159.276 94.012 159.131 93.9942 158.97ZM99.6915 163.375C99.5559 163.459 99.437 163.503 99.335 163.504C99.233 163.505 99.077 163.486 98.867 163.445C98.2935 163.257 97.9236 162.988 97.7575 162.639C97.7174 162.555 97.6945 162.491 97.6886 162.448C97.6824 162.343 97.6536 162.251 97.6022 162.174C97.5621 162.09 97.5363 162.035 97.5249 162.011C97.4567 161.992 97.4198 161.976 97.4141 161.964C97.4026 161.939 97.4053 161.914 97.4222 161.888C97.4334 161.85 97.4389 161.815 97.4387 161.784C97.5065 161.742 97.4977 161.661 97.412 161.543C97.3436 161.461 97.2886 161.222 97.247 160.826C97.1996 160.418 97.1949 160.023 97.2327 159.64C97.2539 159.345 97.3059 158.961 97.3887 158.488C97.4827 158.007 97.5857 157.622 97.6977 157.334C97.8487 156.911 98.003 156.572 98.1605 156.318C98.318 156.063 98.5124 155.824 98.7438 155.601C98.9412 155.4 99.0795 155.274 99.1586 155.225C99.2378 155.175 99.317 155.157 99.3965 155.17C99.4815 155.163 99.6006 155.183 99.7539 155.227C100.128 155.181 100.426 155.237 100.648 155.395C100.875 155.534 101.101 155.838 101.324 156.308C101.696 157.09 101.801 158.126 101.637 159.416C101.566 159.976 101.469 160.435 101.346 160.793C101.217 161.139 101.023 161.55 100.765 162.024C100.614 162.353 100.456 162.623 100.293 162.835C100.135 163.027 99.9345 163.207 99.6915 163.375ZM100.409 160.442C100.525 159.947 100.594 159.506 100.615 159.118C100.647 158.723 100.63 158.257 100.565 157.719C100.525 157.479 100.435 157.215 100.298 156.926C100.126 156.565 99.9835 156.388 99.8702 156.397C99.7285 156.407 99.6011 156.448 99.4881 156.518C99.2394 156.674 99.0367 156.957 98.8799 157.368C98.6953 157.874 98.579 158.431 98.5309 159.039C98.4771 159.635 98.4692 160.343 98.5072 161.163C98.5145 161.486 98.5754 161.768 98.6899 162.009C98.7758 162.19 98.8841 162.31 99.0148 162.368C99.1568 162.42 99.3013 162.4 99.4482 162.308C99.8213 162.075 100.141 161.453 100.409 160.442Z" fill="#05394B"/>
<g clip-path="url(#clip0_22_8)">
<path d="M37.5976 133.366C37.9973 133.714 38.0453 133.947 38.2415 134.031C53.8449 135.447 70.4575 130.292 87.94 117.014C92.3578 113.67 96.3542 109.436 99.788 104.643C107.208 94.4039 109.191 83.2725 104.867 76.4575C102.641 72.8803 99.6796 70.2344 94.9611 69.9323C92.6482 71.8975 90.376 73.9156 88.13 75.625C84.4608 78.399 80.8557 79.8854 77.5559 79.3697C75.0746 79.06 73.8536 77.4744 74.3887 75.4278C75.0909 72.7417 77.1669 70.6401 79.4012 69.6009C82.5063 68.1504 85.6259 67.0615 88.6379 66.1755C90.5829 65.6173 92.509 65.5485 94.3537 65.374C102.04 55.9941 101.244 46.7359 92.5496 43.4983C91.2006 44.4878 89.7774 45.5524 88.3876 46.489C83.1994 49.8603 78.3572 51.2823 74.3583 49.6872C72.8291 49.0721 71.5892 47.9759 72.3321 45.3426C72.9079 43.3489 74.9839 41.2473 77.711 39.9913C82.0313 38.063 85.917 37.7975 89.6281 37.9909C90.9059 38.1082 92.1836 38.2255 93.3872 38.4178C105.548 24.2257 108.352 6.62052 96.8941 3.73501C97.8987 2.81212 98.6735 1.93363 99.2811 1.6947C100.004 1.43357 100.748 1.71474 101.262 2.04031C105.908 5.33199 108.382 10.258 106.431 18.3471C105.014 24.3896 102.206 30.337 98.356 36.3034C97.8108 37.1375 97.2656 37.9716 96.7611 38.8585C96.687 38.9336 96.6943 39.1143 96.6346 39.5509C97.0751 39.9515 97.5227 40.5329 98.1187 40.9642C105.129 46.4705 105.309 52.8723 98.5649 65.5314C99.3499 65.8654 100.216 66.3052 101.116 66.617C106.178 68.7352 109.46 72.6549 110.706 78.729C112.761 88.5939 108.017 101.109 98.1522 111.943C92.7951 117.836 86.9279 122.553 80.6391 126.38C65.4232 135.577 51.167 139.851 38.1235 137.819C37.4272 137.771 36.7644 137.596 36.0681 137.548C35.9532 137.57 35.7642 137.667 35.1973 137.959C35.9879 140.357 37.5127 141.823 38.9634 143.364C40.2992 144.928 41.824 146.394 43.356 148.041C41.3063 149.834 39.9951 149.844 38.8584 149.396C37.5995 148.789 36.1924 148.333 35.3043 147.351C32.9583 144.647 30.6457 141.815 28.6297 138.683C27.102 136.185 28.3189 133.824 31.6871 132.201C38.8422 128.814 46.038 125.48 53.2337 122.145C54.4083 121.615 55.516 121.34 57.0017 120.87C56.1439 123.526 54.632 124.304 53.235 125.06C48.0918 127.633 43.0707 130.365 37.5976 133.366ZM75.7773 44.6765C79.2528 47.6479 84.2651 46.6181 88.9839 42.1231C84.8875 41.9436 81.095 41.6445 75.7773 44.6765ZM78.0418 74.175C81.481 76.2426 85.5862 74.7203 89.8646 69.8246C85.9455 70.218 82.3782 70.7255 78.0418 74.175Z" fill="#073B4D"/>
</g>
<defs>
<clipPath id="clip0_22_8">
<rect width="77.7183" height="143.128" fill="white" transform="matrix(0.610107 0.792319 -0.70275 0.711437 100.584 0)"/>
</clipPath>
</defs>
</svg>
