<svg xmlns="http://www.w3.org/2000/svg" viewBox="0 0 30 48"><defs><radialGradient id="a" gradientUnits="userSpaceOnUse" cy="29.748" cx="9.779" gradientTransform="matrix(.52225 -.30947 .74888 1.2638 -14.89 -3.349)" r="13.996"><stop offset="0" stop-opacity=".157"/><stop offset="1" stop-opacity="0"/></radialGradient><radialGradient id="b" gradientUnits="userSpaceOnUse" cy="582.93" cx="800.29" gradientTransform="matrix(.57687 -.60441 1.0597 1.0114 -279.12 477.04)" r="189.79"><stop offset="0" stop-color="#fff" stop-opacity=".784"/><stop offset=".3" stop-color="#fff" stop-opacity=".549"/><stop offset=".6" stop-color="#fff" stop-opacity=".235"/><stop offset="1" stop-color="#fff" stop-opacity="0"/></radialGradient></defs><path stroke-miterlimit="10" d="M15.036 46.004c-1.007-4.945-2.784-9.061-4.935-12.875-1.596-2.829-3.444-5.441-5.155-8.184-.57-.916-1.064-1.884-1.612-2.834-1.097-1.901-1.987-4.105-1.93-6.963.055-2.793.863-5.033 2.028-6.865C5.347 5.27 8.556 2.8 12.862 2.15c3.52-.531 6.821.365 9.162 1.734 1.912 1.119 3.394 2.613 4.52 4.373 1.175 1.838 1.984 4.01 2.052 6.841a12.64 12.64 0 01-.538 3.909c-.339 1.128-.883 2.071-1.368 3.078-.946 1.966-2.132 3.768-3.323 5.57-3.545 5.37-6.873 10.845-8.33 18.348z" fill-rule="evenodd" stroke="#d35009" stroke-width=".75" fill="#f77935"/><g opacity=".7" fill-rule="evenodd"><path d="M15.036 46.004c-1.007-4.945-2.784-9.061-4.935-12.875-1.596-2.829-3.444-5.441-5.155-8.184-.57-.916-1.064-1.883-1.612-2.834-1.097-1.9-1.987-4.104-1.93-6.963.055-2.793.863-5.033 2.028-6.865C5.347 5.27 8.556 2.8 12.862 2.151c3.52-.53 6.821.366 9.162 1.735 1.912 1.118 3.393 2.612 4.52 4.373 1.174 1.838 1.984 4.009 2.051 6.84a12.64 12.64 0 01-.537 3.91c-.339 1.128-.883 2.07-1.368 3.078-.946 1.966-2.132 3.767-3.323 5.57-3.545 5.37-6.873 10.845-8.33 18.348z" fill="url(#a)"/><circle cx="729.55" cy="651.05" transform="translate(-37.083 -31.015) scale(.0714)" r="183.33" fill="url(#b)"/></g></svg>