<svg width="68" height="71" fill="none" xmlns="http://www.w3.org/2000/svg"><g filter="url(#filter0_d_17_337)"><mask id="a" maskUnits="userSpaceOnUse" x="11.211" y="49.278" width="43" height="9" fill="#000"><path fill="#fff" d="M11.211 49.278h43v9h-43z"/><path d="M15.399 49.785c.68 0 1.273.134 1.778.4.505.267.898.66 1.179 1.179.28.52.42 1.147.42 1.884v4.03h-1.704V55.51h-3.367v1.768H12.02v-4.03c0-.737.14-1.365.421-1.884.28-.52.674-.912 1.179-1.179.505-.266 1.098-.4 1.778-.4zm1.673 4.357V53.09c0-.61-.15-1.07-.452-1.379-.302-.316-.712-.473-1.232-.473-.526 0-.94.157-1.241.473-.295.309-.442.768-.442 1.379v1.052h3.367zm6.79-4.357c.652 0 1.224.13 1.715.39.498.26.884.642 1.157 1.147.274.498.41 1.101.41 1.81v4.146H25.43v-4.294c0-.575-.14-1.01-.42-1.304-.281-.295-.663-.442-1.148-.442-.49 0-.88.147-1.168.442-.28.294-.42.73-.42 1.304v4.294h-2.558l-.01-1.39h.852v-2.756c0-.709.137-1.312.41-1.81.274-.505.66-.888 1.158-1.147.498-.26 1.077-.39 1.736-.39zm8.436 2.347c.884 0 1.582.228 2.095.684.519.456.778 1.094.778 1.915 0 .856-.287 1.52-.863 1.99-.575.47-1.392.704-2.451.704-1.046 0-1.838-.235-2.379-.705-.54-.47-.81-1.16-.81-2.073v-4.735h1.684v2.652c.666-.288 1.315-.432 1.946-.432zM31.93 56.1c.484 0 .86-.115 1.126-.347.267-.232.4-.554.4-.968 0-.428-.144-.758-.431-.99-.281-.238-.656-.357-1.126-.357-.26 0-.527.042-.8.126-.274.077-.523.19-.747.337v.705c0 .477.137.845.41 1.105.274.26.663.39 1.168.39zm8.583-6.303c.933 0 1.75.165 2.452.495.701.322 1.238.771 1.61 1.347.379.575.568 1.227.568 1.957s-.19 1.382-.568 1.957c-.372.575-.909 1.028-1.61 1.358-.702.322-1.519.484-2.452.484-.94 0-1.76-.162-2.462-.484-.695-.33-1.232-.783-1.61-1.358a3.527 3.527 0 01-.558-1.957c0-.73.186-1.382.558-1.957.378-.576.915-1.025 1.61-1.347.701-.33 1.522-.495 2.462-.495zm-2.967 3.799c0 .617.185 1.133.557 1.547.38.414.92.677 1.62.789V51.27c-.7.113-1.24.376-1.62.79-.372.406-.557.919-.557 1.536zm3.756 2.336c.702-.112 1.238-.375 1.61-.79.38-.413.569-.929.569-1.546s-.19-1.13-.569-1.536c-.372-.414-.908-.677-1.61-.79v4.662zm8.42-6.145c.68 0 1.273.133 1.778.4a2.8 2.8 0 011.178 1.178c.281.52.422 1.147.422 1.884v4.03h-1.705V55.51h-3.368v1.768h-1.683v-4.03c0-.737.14-1.365.42-1.884.281-.52.674-.912 1.18-1.179.504-.266 1.097-.4 1.778-.4zm1.673 4.356V53.09c0-.61-.151-1.07-.453-1.379-.301-.316-.712-.473-1.23-.473-.527 0-.941.157-1.243.473-.294.309-.442.768-.442 1.379v1.052h3.368z"/></mask><path d="M15.399 49.785c.68 0 1.273.134 1.778.4.505.267.898.66 1.179 1.179.28.52.42 1.147.42 1.884v4.03h-1.704V55.51h-3.367v1.768H12.02v-4.03c0-.737.14-1.365.421-1.884.28-.52.674-.912 1.179-1.179.505-.266 1.098-.4 1.778-.4zm1.673 4.357V53.09c0-.61-.15-1.07-.452-1.379-.302-.316-.712-.473-1.232-.473-.526 0-.94.157-1.241.473-.295.309-.442.768-.442 1.379v1.052h3.367zm6.79-4.357c.652 0 1.224.13 1.715.39.498.26.884.642 1.157 1.147.274.498.41 1.101.41 1.81v4.146H25.43v-4.294c0-.575-.14-1.01-.42-1.304-.281-.295-.663-.442-1.148-.442-.49 0-.88.147-1.168.442-.28.294-.42.73-.42 1.304v4.294h-2.558l-.01-1.39h.852v-2.756c0-.709.137-1.312.41-1.81.274-.505.66-.888 1.158-1.147.498-.26 1.077-.39 1.736-.39zm8.436 2.347c.884 0 1.582.228 2.095.684.519.456.778 1.094.778 1.915 0 .856-.287 1.52-.863 1.99-.575.47-1.392.704-2.451.704-1.046 0-1.838-.235-2.379-.705-.54-.47-.81-1.16-.81-2.073v-4.735h1.684v2.652c.666-.288 1.315-.432 1.946-.432zM31.93 56.1c.484 0 .86-.115 1.126-.347.267-.232.4-.554.4-.968 0-.428-.144-.758-.431-.99-.281-.238-.656-.357-1.126-.357-.26 0-.527.042-.8.126-.274.077-.523.19-.747.337v.705c0 .477.137.845.41 1.105.274.26.663.39 1.168.39zm8.583-6.303c.933 0 1.75.165 2.452.495.701.322 1.238.771 1.61 1.347.379.575.568 1.227.568 1.957s-.19 1.382-.568 1.957c-.372.575-.909 1.028-1.61 1.358-.702.322-1.519.484-2.452.484-.94 0-1.76-.162-2.462-.484-.695-.33-1.232-.783-1.61-1.358a3.527 3.527 0 01-.558-1.957c0-.73.186-1.382.558-1.957.378-.576.915-1.025 1.61-1.347.701-.33 1.522-.495 2.462-.495zm-2.967 3.799c0 .617.185 1.133.557 1.547.38.414.92.677 1.62.789V51.27c-.7.113-1.24.376-1.62.79-.372.406-.557.919-.557 1.536zm3.756 2.336c.702-.112 1.238-.375 1.61-.79.38-.413.569-.929.569-1.546s-.19-1.13-.569-1.536c-.372-.414-.908-.677-1.61-.79v4.662zm8.42-6.145c.68 0 1.273.133 1.778.4a2.8 2.8 0 011.178 1.178c.281.52.422 1.147.422 1.884v4.03h-1.705V55.51h-3.368v1.768h-1.683v-4.03c0-.737.14-1.365.42-1.884.281-.52.674-.912 1.18-1.179.504-.266 1.097-.4 1.778-.4zm1.673 4.356V53.09c0-.61-.151-1.07-.453-1.379-.301-.316-.712-.473-1.23-.473-.527 0-.941.157-1.243.473-.294.309-.442.768-.442 1.379v1.052h3.368z" fill="#073B4D"/><path d="M17.177 50.185l-.07.133.07-.133zm1.179 1.179l-.132.072.132-.072zm.42 5.914v.15h.151v-.15h-.15zm-1.704 0h-.15v.15h.15v-.15zm0-1.768h.15v-.15h-.15v.15zm-3.367 0v-.15h-.15v.15h.15zm0 1.768v.15h.15v-.15h-.15zm-1.684 0h-.15v.15h.15v-.15zm5.051-3.136v.15h.15v-.15h-.15zm-.452-2.43l-.11.103.002.001.108-.105zm-2.473 0l-.109-.105.109.104zm-.442 2.43h-.15v.15h.15v-.15zm1.694-4.357v.15c.66 0 1.229.13 1.708.383l.07-.133.07-.133c-.53-.28-1.148-.417-1.848-.417v.15zm1.778.4l-.07.133c.478.253.85.624 1.117 1.117l.132-.071.132-.072a2.958 2.958 0 00-1.24-1.24l-.07.133zm1.179 1.179l-.132.072c.266.492.402 1.094.402 1.812h.301c0-.756-.144-1.41-.439-1.956l-.132.072zm.42 1.884h-.15v4.03h.301v-4.03h-.15zm0 4.03v-.15h-1.704v.3h1.705v-.15zm-1.704 0h.15V55.51h-.3v1.768h.15zm0-1.768v-.15h-3.367v.3h3.367v-.15zm-3.367 0h-.15v1.768h.3V55.51h-.15zm0 1.768v-.15H12.02v.3h1.684v-.15zm-1.684 0h.15v-4.03h-.3v4.03h.15zm0-4.03h.15c0-.718.137-1.32.403-1.813l-.132-.071-.132-.072c-.295.546-.44 1.2-.44 1.956h.151zm.421-1.884l.132.072a2.657 2.657 0 011.117-1.118l-.07-.133-.07-.133a2.956 2.956 0 00-1.241 1.24l.132.072zm1.179-1.179l.07.133c.48-.253 1.047-.382 1.708-.382v-.3c-.7 0-1.318.136-1.849.416l.07.133zm3.451 3.957h.15V53.09h-.3v1.052h.15zm0-1.052h.15c0-.634-.156-1.137-.495-1.484l-.107.105-.108.105c.265.271.41.686.41 1.274h.15zm-.452-1.379l.108-.104c-.335-.35-.788-.52-1.34-.52v.301c.487 0 .855.147 1.123.427l.109-.104zm-1.232-.473v-.15c-.558 0-1.014.168-1.35.52l.109.103.108.104c.268-.28.64-.427 1.133-.427v-.15zm-1.241.473l-.109-.104c-.331.347-.484.85-.484 1.483h.301c0-.589.142-1.004.4-1.275l-.108-.104zm-.442 1.379h-.15v1.052h.3V53.09h-.15zm0 1.052v.15h3.367v-.3h-3.367v.15zm11.872-3.967l-.07.133.07-.133zm1.157 1.147l-.132.072.132-.072zm.41 5.956v.15h.15v-.15h-.15zm-1.715 0h-.15v.15h.15v-.15zm-.42-5.598l-.11.103.11-.103zm-2.316 0l-.107-.105-.001.001.108.104zm-.42 5.598v.15h.15v-.15h-.15zm-2.558 0l-.15.001.001.15h.15v-.151zm-.01-1.39v-.15h-.151v.152l.15-.001zm.852 0v.151h.15v-.15h-.15zm.41-4.566l.132.072-.131-.072zm1.158-1.147l-.07-.133.07.133zm1.736-.39v.15c.633 0 1.18.127 1.645.373l.07-.133.071-.133c-.516-.273-1.113-.407-1.785-.407v.15zm1.716.39l-.07.133c.471.246.835.606 1.095 1.086l.132-.072.132-.072a2.875 2.875 0 00-1.22-1.208l-.07.133zm1.157 1.147l-.132.072c.26.471.392 1.048.392 1.738h.3c0-.728-.14-1.357-.428-1.883l-.132.073zm.41 1.81h-.15v4.146h.3v-4.146h-.15zm0 4.146v-.15H25.43v.3h1.716v-.15zm-1.715 0h.15v-4.294h-.3v4.294h.15zm0-4.294h.15c0-.597-.145-1.076-.462-1.408l-.108.104-.11.103c.245.257.38.649.38 1.201h.15zm-.42-1.304l.108-.104c-.314-.33-.739-.489-1.256-.489v.301c.452 0 .792.136 1.039.395l.109-.103zm-1.148-.442v-.15c-.523 0-.954.157-1.275.487l.107.105.108.105c.254-.26.602-.397 1.06-.397v-.15zm-1.168.442l-.108-.104c-.317.332-.463.81-.463 1.408h.3c0-.552.136-.944.38-1.2l-.109-.104zm-.42 1.304h-.15v4.294h.3v-4.294h-.15zm0 4.294v-.15h-2.558v.3h2.558v-.15zm-2.558 0l.15-.001-.01-1.39-.15.002-.15.001.01 1.389.15-.001zm-.01-1.39v.151h.852v-.3h-.852v.15zm.852 0h.15v-2.756h-.3v2.757h.15zm0-2.756h.15c0-.69.134-1.267.392-1.738l-.131-.072-.132-.073c-.288.526-.429 1.155-.429 1.883h.15zm.41-1.81l.133.072c.26-.48.624-.84 1.095-1.086l-.07-.133-.07-.133a2.875 2.875 0 00-1.22 1.208l.133.072zm1.158-1.147l.07.133c.473-.246 1.027-.372 1.666-.372v-.3c-.679 0-1.282.133-1.805.406l.07.133zm12.268 2.641l-.1.112v.001l.1-.113zm-.085 3.904l-.095-.116.095.116zm-4.83 0l.1-.113-.1.113zm-.81-6.808v-.15h-.15v.15h.15zm1.684 0h.15v-.15h-.15v.15zm0 2.652h-.15v.228l.21-.09-.06-.138zm2.704 3.188l-.098-.114.098.114zm-.031-1.957l-.098.114.003.003.095-.117zm-1.926-.232l.04.145.004-.001-.044-.144zm-.747.337l-.083-.126-.067.045v.081h.15zm.41 1.81l-.103.109.103-.11zm1.536-3.578v.15c.858 0 1.517.221 1.995.646l.1-.112.1-.112c-.547-.487-1.285-.722-2.195-.722v.15zm2.095.684l-.1.113c.48.422.728 1.016.728 1.802h.3c0-.855-.271-1.538-.83-2.028l-.098.113zm.778 1.915h-.15c0 .819-.273 1.436-.808 1.873l.095.116.096.117c.615-.504.918-1.212.918-2.106h-.15zm-.863 1.99l-.095-.117c-.539.44-1.317.67-2.356.67v.301c1.08 0 1.935-.239 2.547-.739l-.096-.116zm-2.451.704v-.15c-1.026 0-1.777-.231-2.28-.668l-.099.113-.098.114c.578.502 1.411.741 2.477.741v-.15zm-2.379-.705l.1-.113c-.5-.434-.76-1.079-.76-1.96h-.3c0 .943.28 1.68.862 2.187l.098-.114zm-.81-2.073h.15v-4.735h-.3v4.735h.15zm0-4.735v.15h1.684v-.3h-1.684v.15zm1.684 0h-.15v2.652h.3v-2.652h-.15zm0 2.652l.06.138c.65-.281 1.279-.42 1.886-.42v-.3c-.654 0-1.323.149-2.006.444l.06.138zm1.578 3.535v.15c.507 0 .922-.12 1.225-.384l-.099-.113-.098-.114c-.23.2-.566.31-1.028.31v.151zm1.126-.347l.099.113c.305-.265.451-.632.451-1.081h-.3c0 .379-.12.657-.348.855l.098.113zm.4-.968h.15c0-.465-.158-.842-.487-1.106l-.094.117-.095.117c.247.198.376.481.376.872h.15zm-.431-.99l.097-.114c-.315-.267-.728-.393-1.223-.393v.3c.444 0 .782.113 1.028.322l.098-.114zm-1.126-.357v-.15c-.276 0-.558.044-.844.133l.044.143.044.144c.26-.08.512-.12.756-.12v-.15zm-.8.126l-.04-.144c-.288.08-.552.2-.79.355l.083.126.082.126c.211-.139.446-.245.706-.318l-.041-.145zm-.747.337h-.15v.705h.3V53.9h-.15zm0 .705h-.15c0 .507.146.919.457 1.214l.103-.11.104-.108c-.236-.224-.364-.549-.364-.996h-.15zm.41 1.105l-.103.109c.31.294.741.43 1.271.43v-.3c-.48 0-.827-.123-1.064-.348l-.104.109zm12.203-5.42l-.064.137h.001l.063-.136zm1.61 1.348l-.126.081v.001l.126-.082zm0 3.914l-.126-.083v.002l.126.081zm-1.61 1.358l.063.136-.063-.136zm-4.914 0l-.065.135.002.001.063-.136zm-1.61-1.358l-.127.082h.001l.126-.082zm0-3.914l-.126-.083v.001l.126.082zm1.61-1.347l.063.136-.063-.136zm.052 4.85l-.111.101v.001l.111-.101zm1.62.79l-.023.148.174.028v-.176h-.15zm0-4.662h.151v-.176l-.174.028.024.148zm-1.62.79l-.11-.102.11.102zm3.2 3.872h-.151v.176l.174-.028-.024-.148zm1.61-.79l-.112-.1.111.1zm0-3.082l-.113.1.002.002.11-.102zm-1.61-.79l.023-.148-.174-.028v.176h.15zm-.79-1.473v.15c.915 0 1.71.162 2.388.48l.064-.135.064-.136c-.725-.341-1.565-.51-2.516-.51v.151zm2.452.495l-.063.136c.679.313 1.192.744 1.547 1.292l.126-.081.126-.082c-.39-.602-.95-1.069-1.673-1.402l-.063.137zm1.61 1.347l-.126.082a3.33 3.33 0 01.544 1.875h.3c0-.757-.197-1.439-.593-2.04l-.125.083zm.568 1.957h-.15c0 .702-.182 1.325-.544 1.874l.126.083.125.083a3.629 3.629 0 00.593-2.04h-.15zm-.568 1.957l-.126-.081c-.355.548-.869.983-1.548 1.303l.064.136.064.136c.723-.34 1.283-.81 1.672-1.412l-.126-.082zm-1.61 1.358l-.063-.137c-.678.312-1.473.47-2.389.47v.3c.95 0 1.79-.163 2.515-.497l-.063-.136zm-2.452.484v-.15c-.923 0-1.721-.16-2.4-.471l-.062.136-.063.137c.725.334 1.568.498 2.525.498v-.15zm-2.462-.484l.064-.136c-.672-.32-1.187-.755-1.549-1.305l-.125.083-.126.083c.396.6.955 1.07 1.671 1.41l.065-.136zm-1.61-1.358l.126-.081a3.377 3.377 0 01-.534-1.876h-.3c0 .756.193 1.438.581 2.039l.127-.082zm-.558-1.957h.15c0-.703.179-1.326.534-1.876l-.126-.081-.127-.082a3.677 3.677 0 00-.581 2.039h.15zm.558-1.957l.125.082c.362-.55.876-.98 1.548-1.293l-.063-.136-.064-.137c-.717.333-1.276.8-1.672 1.4l.126.084zm1.61-1.347l.064.136c.677-.319 1.475-.48 2.398-.48v-.301c-.957 0-1.8.168-2.526.509l.064.136zm-.505 3.304h-.15c0 .65.196 1.203.596 1.647l.111-.1.112-.1c-.344-.384-.52-.863-.52-1.447h-.15zm.557 1.547l-.11.101c.407.445.981.72 1.707.836l.024-.148.024-.148c-.677-.109-1.183-.36-1.534-.743l-.11.102zm1.62.789h.151v-4.662h-.3v4.662h.15zm0-4.662l-.023-.148c-.726.116-1.3.391-1.708.836l.111.102.111.101c.35-.383.857-.634 1.534-.742l-.024-.149zm-1.62.79l-.11-.102c-.4.438-.598.988-.598 1.638h.3c0-.585.176-1.06.52-1.435l-.112-.101zm3.2 3.872l.023.148c.726-.116 1.297-.391 1.698-.837l-.112-.1-.112-.1c-.343.381-.844.632-1.521.74l.023.149zm1.61-.79l.11.102c.407-.444.608-.997.608-1.648h-.3c0 .584-.179 1.062-.53 1.445l.111.102zm.568-1.546h.15c0-.651-.201-1.201-.609-1.639l-.11.102-.11.103c.35.376.528.85.528 1.434h.15zm-.569-1.536l.112-.101c-.4-.446-.972-.721-1.698-.837l-.024.148-.023.149c.677.108 1.178.359 1.521.74l.112-.1zm-1.61-.79h-.15v4.662h.3v-4.662h-.15zM51.5 50.185l-.07.133.07-.133zm1.178 1.179l-.132.072.133-.072zm.422 5.914v.15h.15v-.15h-.15zm-1.705 0h-.15v.15h.15v-.15zm0-1.768h.15v-.15h-.15v.15zm-3.368 0v-.15h-.15v.15h.15zm0 1.768v.15h.15v-.15h-.15zm-1.683 0h-.15v.15h.15v-.15zm5.05-3.136v.15h.151v-.15h-.15zm-.452-2.43l-.108.103v.001l.108-.105zm-2.473 0l-.108-.105.108.104zm-.442 2.43h-.15v.15h.15v-.15zm1.695-4.357v.15c.66 0 1.228.13 1.708.383l.07-.133.07-.133c-.53-.28-1.148-.417-1.848-.417v.15zm1.778.4l-.07.133c.478.253.85.624 1.116 1.117l.133-.071.132-.072a2.958 2.958 0 00-1.24-1.24l-.071.133zm1.178 1.179l-.132.072c.266.492.403 1.094.403 1.812h.3c0-.756-.143-1.41-.438-1.956l-.133.072zm.422 1.884h-.15v4.03h.3v-4.03h-.15zm0 4.03v-.15h-1.705v.3h1.704v-.15zm-1.705 0h.15V55.51h-.3v1.768h.15zm0-1.768v-.15h-3.368v.3h3.368v-.15zm-3.368 0h-.15v1.768h.3V55.51h-.15zm0 1.768v-.15h-1.683v.3h1.683v-.15zm-1.683 0h.15v-4.03h-.3v4.03h.15zm0-4.03h.15c0-.718.137-1.32.403-1.813l-.132-.071-.133-.072c-.295.546-.439 1.2-.439 1.956h.15zm.42-1.884l.133.072a2.658 2.658 0 011.116-1.118l-.07-.133-.07-.133a2.96 2.96 0 00-1.24 1.24l.132.072zm1.18-1.179l.07.133c.48-.253 1.047-.382 1.708-.382v-.3c-.7 0-1.318.136-1.849.416l.07.133zm3.45 3.957h.151V53.09h-.3v1.052h.15zm0-1.052h.151c0-.634-.157-1.137-.495-1.484l-.108.105-.107.105c.264.271.41.686.41 1.274h.15zm-.452-1.379l.109-.104c-.335-.35-.788-.52-1.34-.52v.301c.486 0 .855.147 1.123.427l.108-.104zm-1.23-.473v-.15c-.559 0-1.016.168-1.351.52l.108.103.11.104c.267-.28.638-.427 1.132-.427v-.15zm-1.243.473l-.108-.104c-.331.347-.484.85-.484 1.483h.3c0-.589.143-1.004.401-1.275l-.109-.104zm-.442 1.379h-.15v1.052h.3V53.09h-.15zm0 1.052v.15h3.368v-.3h-3.368v.15z" fill="#FFFBFB" mask="url(#a)"/><mask id="b" maskUnits="userSpaceOnUse" x="14.217" y="57.951" width="38" height="6" fill="#000"><path fill="#fff" d="M14.217 57.951h38v6h-38z"/><path d="M15.525 61.97c-.325 0-.583-.09-.776-.267-.189-.177-.284-.415-.284-.713 0-.267.058-.508.172-.721a1.28 1.28 0 01.482-.505c.208-.123.44-.185.7-.185.21 0 .39.038.54.113.15.072.268.181.352.329l-.185.113c-.14-.235-.381-.352-.721-.352a1.079 1.079 0 00-.97.582c-.096.18-.144.384-.144.613 0 .25.074.443.22.582.148.138.359.207.632.207.157 0 .302-.03.438-.09a.912.912 0 00.342-.253l.158.127a1.028 1.028 0 01-.41.31c-.169.073-.35.11-.546.11zm4.863-2.391c.265 0 .468.066.61.198.14.13.211.312.211.546 0 .081-.009.17-.027.266l-.275 1.362h-.226l.275-1.362a1.08 1.08 0 00.023-.23c0-.183-.054-.325-.162-.424-.108-.102-.266-.153-.474-.153a.985.985 0 00-.65.216c-.17.142-.283.348-.337.618l-.271 1.335h-.226l.276-1.362c.015-.07.022-.146.022-.23 0-.183-.054-.325-.162-.424-.108-.102-.266-.153-.474-.153a.955.955 0 00-.654.23c-.174.15-.29.37-.347.658l-.257 1.281h-.226l.47-2.354h.22l-.09.442c.112-.156.247-.272.406-.347.16-.075.338-.113.537-.113.216 0 .39.047.523.14.132.09.22.22.262.387.117-.174.263-.305.437-.392.174-.09.37-.135.586-.135zm3.936 2.196c.09 0 .168-.015.234-.045l-.018.19a.723.723 0 01-.275.05c-.162 0-.287-.044-.374-.132a.475.475 0 01-.122-.365 1.17 1.17 0 01-.428.37 1.292 1.292 0 01-.578.126c-.306 0-.553-.087-.74-.261-.183-.178-.274-.417-.274-.718 0-.267.057-.508.171-.721a1.25 1.25 0 01.474-.505c.204-.123.433-.185.685-.185.244 0 .445.053.604.158a.78.78 0 01.325.446l.117-.586h.226l-.343 1.705a.904.904 0 00-.013.148c0 .106.027.187.08.244.058.054.14.081.249.081zm-1.515-.009c.21 0 .398-.051.563-.153.169-.102.3-.244.397-.424.096-.184.145-.39.145-.618 0-.25-.074-.443-.222-.582-.144-.138-.348-.207-.613-.207-.21 0-.4.052-.568.158a1.082 1.082 0 00-.392.428c-.097.18-.145.383-.145.609 0 .25.072.443.217.582.147.138.353.207.618.207zm2.665-2.17h.225l-.216 1.074h1.6l.217-1.073h.225l-.473 2.354h-.226l.221-1.082h-1.6l-.217 1.082h-.226l.47-2.354zm3.458 2.4c-.258 0-.461-.059-.609-.176-.144-.12-.216-.288-.216-.505 0-.084.008-.158.023-.22l.297-1.498h.226l-.208 1.042c.223-.232.505-.348.848-.348.256 0 .453.06.59.18.14.121.208.291.208.51 0 .19-.05.363-.149.52a1.047 1.047 0 01-.415.364 1.299 1.299 0 01-.595.131zm.023-.18c.174 0 .33-.036.469-.108a.842.842 0 00.325-.29.743.743 0 00.117-.405c0-.177-.056-.313-.167-.406-.111-.093-.266-.14-.465-.14-.174 0-.333.036-.478.109a.969.969 0 00-.36.31l-.046.222a.825.825 0 00-.018.171c0 .171.055.304.163.397.108.093.261.14.46.14zm5.318-2.22l-.474 2.355h-.225l.428-2.151h-1.61l-.424 2.151h-.225l.469-2.354h2.06zm1.731-.017c.31 0 .553.089.73.266.181.174.271.42.271.735l-.004.095-2.057.388c.015.225.096.4.244.523.147.12.355.18.622.18.166 0 .317-.027.456-.081a.978.978 0 00.352-.235l.103.158a1.055 1.055 0 01-.401.266 1.444 1.444 0 01-.528.095c-.334 0-.597-.087-.789-.261-.19-.175-.284-.417-.284-.727 0-.264.056-.503.167-.717a1.255 1.255 0 011.118-.685zm-.004.194a1.022 1.022 0 00-.902.537c-.093.168-.146.36-.158.577l1.853-.352c.003-.237-.067-.424-.212-.56-.14-.135-.335-.202-.581-.202zm2.912-.194c.322 0 .573.09.753.27.18.178.27.426.27.745 0 .255-.058.488-.175.699a1.318 1.318 0 01-1.164.676 1.04 1.04 0 01-.586-.158.827.827 0 01-.334-.433l-.284 1.448h-.226l.406-2.097c.07-.355.223-.635.46-.839a1.29 1.29 0 01.88-.311zm-.32 2.187c.21 0 .4-.051.568-.153.171-.102.305-.242.401-.42.1-.177.15-.374.15-.59 0-.262-.073-.463-.217-.605-.142-.144-.34-.216-.596-.216a1.077 1.077 0 00-.987.595c-.09.177-.136.364-.136.56 0 .243.07.443.208.6.141.153.344.23.609.23zm5.462-2.17l-.474 2.355h-3.166l.47-2.354h.225l-.424 2.156h1.25l.423-2.156h.226l-.424 2.156h1.24l.428-2.156h.226zm2.976 0l-.469 2.355h-.22l.09-.446c-.22.31-.542.464-.966.464-.264 0-.469-.066-.613-.198-.141-.136-.212-.32-.212-.555 0-.081.01-.167.027-.257l.27-1.362h.226l-.27 1.362a1.024 1.024 0 00-.023.225c0 .187.054.331.162.433.112.1.276.15.492.15.27 0 .495-.076.672-.226.177-.154.295-.375.352-.663l.257-1.281h.225zm3.536 0l-.473 2.355h-.207l.4-1.993-1.357 1.69h-.108l-.68-1.695-.402 1.998h-.208l.47-2.354h.22l.704 1.781 1.43-1.781h.212zm1.084-.802h.261l-.496 2.25h-.171l.406-2.25zm-.474 3.175a.181.181 0 01-.126-.05.173.173 0 01-.054-.126c0-.054.018-.099.054-.135a.186.186 0 01.266-.005.159.159 0 01.054.122c0 .054-.02.1-.058.14a.184.184 0 01-.136.054z"/></mask><path d="M15.525 61.97c-.325 0-.583-.09-.776-.267-.189-.177-.284-.415-.284-.713 0-.267.058-.508.172-.721a1.28 1.28 0 01.482-.505c.208-.123.44-.185.7-.185.21 0 .39.038.54.113.15.072.268.181.352.329l-.185.113c-.14-.235-.381-.352-.721-.352a1.079 1.079 0 00-.97.582c-.096.18-.144.384-.144.613 0 .25.074.443.22.582.148.138.359.207.632.207.157 0 .302-.03.438-.09a.912.912 0 00.342-.253l.158.127a1.028 1.028 0 01-.41.31c-.169.073-.35.11-.546.11zm4.863-2.391c.265 0 .468.066.61.198.14.13.211.312.211.546 0 .081-.009.17-.027.266l-.275 1.362h-.226l.275-1.362a1.08 1.08 0 00.023-.23c0-.183-.054-.325-.162-.424-.108-.102-.266-.153-.474-.153a.985.985 0 00-.65.216c-.17.142-.283.348-.337.618l-.271 1.335h-.226l.276-1.362c.015-.07.022-.146.022-.23 0-.183-.054-.325-.162-.424-.108-.102-.266-.153-.474-.153a.955.955 0 00-.654.23c-.174.15-.29.37-.347.658l-.257 1.281h-.226l.47-2.354h.22l-.09.442c.112-.156.247-.272.406-.347.16-.075.338-.113.537-.113.216 0 .39.047.523.14.132.09.22.22.262.387.117-.174.263-.305.437-.392.174-.09.37-.135.586-.135zm3.936 2.196c.09 0 .168-.015.234-.045l-.018.19a.723.723 0 01-.275.05c-.162 0-.287-.044-.374-.132a.475.475 0 01-.122-.365 1.17 1.17 0 01-.428.37 1.292 1.292 0 01-.578.126c-.306 0-.553-.087-.74-.261-.183-.178-.274-.417-.274-.718 0-.267.057-.508.171-.721a1.25 1.25 0 01.474-.505c.204-.123.433-.185.685-.185.244 0 .445.053.604.158a.78.78 0 01.325.446l.117-.586h.226l-.343 1.705a.904.904 0 00-.013.148c0 .106.027.187.08.244.058.054.14.081.249.081zm-1.515-.009c.21 0 .398-.051.563-.153.169-.102.3-.244.397-.424.096-.184.145-.39.145-.618 0-.25-.074-.443-.222-.582-.144-.138-.348-.207-.613-.207-.21 0-.4.052-.568.158a1.082 1.082 0 00-.392.428c-.097.18-.145.383-.145.609 0 .25.072.443.217.582.147.138.353.207.618.207zm2.665-2.17h.225l-.216 1.074h1.6l.217-1.073h.225l-.473 2.354h-.226l.221-1.082h-1.6l-.217 1.082h-.226l.47-2.354zm3.458 2.4c-.258 0-.461-.059-.609-.176-.144-.12-.216-.288-.216-.505 0-.084.008-.158.023-.22l.297-1.498h.226l-.208 1.042c.223-.232.505-.348.848-.348.256 0 .453.06.59.18.14.121.208.291.208.51 0 .19-.05.363-.149.52a1.047 1.047 0 01-.415.364 1.299 1.299 0 01-.595.131zm.023-.18c.174 0 .33-.036.469-.108a.842.842 0 00.325-.29.743.743 0 00.117-.405c0-.177-.056-.313-.167-.406-.111-.093-.266-.14-.465-.14-.174 0-.333.036-.478.109a.969.969 0 00-.36.31l-.046.222a.825.825 0 00-.018.171c0 .171.055.304.163.397.108.093.261.14.46.14zm5.318-2.22l-.474 2.355h-.225l.428-2.151h-1.61l-.424 2.151h-.225l.469-2.354h2.06zm1.731-.017c.31 0 .553.089.73.266.181.174.271.42.271.735l-.004.095-2.057.388c.015.225.096.4.244.523.147.12.355.18.622.18.166 0 .317-.027.456-.081a.978.978 0 00.352-.235l.103.158a1.055 1.055 0 01-.401.266 1.444 1.444 0 01-.528.095c-.334 0-.597-.087-.789-.261-.19-.175-.284-.417-.284-.727 0-.264.056-.503.167-.717a1.255 1.255 0 011.118-.685zm-.004.194a1.022 1.022 0 00-.902.537c-.093.168-.146.36-.158.577l1.853-.352c.003-.237-.067-.424-.212-.56-.14-.135-.335-.202-.581-.202zm2.912-.194c.322 0 .573.09.753.27.18.178.27.426.27.745 0 .255-.058.488-.175.699a1.318 1.318 0 01-1.164.676 1.04 1.04 0 01-.586-.158.827.827 0 01-.334-.433l-.284 1.448h-.226l.406-2.097c.07-.355.223-.635.46-.839a1.29 1.29 0 01.88-.311zm-.32 2.187c.21 0 .4-.051.568-.153.171-.102.305-.242.401-.42.1-.177.15-.374.15-.59 0-.262-.073-.463-.217-.605-.142-.144-.34-.216-.596-.216a1.077 1.077 0 00-.987.595c-.09.177-.136.364-.136.56 0 .243.07.443.208.6.141.153.344.23.609.23zm5.462-2.17l-.474 2.355h-3.166l.47-2.354h.225l-.424 2.156h1.25l.423-2.156h.226l-.424 2.156h1.24l.428-2.156h.226zm2.976 0l-.469 2.355h-.22l.09-.446c-.22.31-.542.464-.966.464-.264 0-.469-.066-.613-.198-.141-.136-.212-.32-.212-.555 0-.081.01-.167.027-.257l.27-1.362h.226l-.27 1.362a1.024 1.024 0 00-.023.225c0 .187.054.331.162.433.112.1.276.15.492.15.27 0 .495-.076.672-.226.177-.154.295-.375.352-.663l.257-1.281h.225zm3.536 0l-.473 2.355h-.207l.4-1.993-1.357 1.69h-.108l-.68-1.695-.402 1.998h-.208l.47-2.354h.22l.704 1.781 1.43-1.781h.212zm1.084-.802h.261l-.496 2.25h-.171l.406-2.25zm-.474 3.175a.181.181 0 01-.126-.05.173.173 0 01-.054-.126c0-.054.018-.099.054-.135a.186.186 0 01.266-.005.159.159 0 01.054.122c0 .054-.02.1-.058.14a.184.184 0 01-.136.054z" fill="#FB722C"/><path d="M14.75 61.703l-.103.11.102-.11zm-.113-1.434l-.132-.072v.001l.132.07zm.482-.505l.077.13v-.001l-.077-.13zm1.24-.072l-.067.134.002.001.066-.135zm.352.329l.079.128.124-.076-.072-.127-.13.075zm-.185.113l-.128.077.078.13.129-.08-.079-.127zm-1.294-.194l.078.128h.002l-.08-.128zm-.32 1.619l.103-.11-.103.11zm1.069.117l-.06-.138h-.001l.06.138zm.342-.253l.094-.117-.115-.092-.094.113.116.096zm.158.127l.12.092.09-.117-.116-.093-.094.118zm-.41.31l.06.139-.06-.138zm-.546.11v-.151c-.296 0-.515-.08-.674-.227l-.102.111-.101.11c.226.21.524.306.877.306v-.15zm-.776-.267l.103-.11c-.154-.144-.236-.34-.236-.603h-.3c0 .333.106.613.33.823l.103-.11zm-.284-.713h.15c0-.245.053-.46.154-.65l-.132-.071-.133-.071a1.655 1.655 0 00-.189.792h.15zm.172-.721l.132.072c.105-.194.247-.342.427-.448l-.077-.13-.076-.129a1.431 1.431 0 00-.538.563l.132.072zm.482-.505l.077.129c.183-.108.389-.164.622-.164v-.3c-.283 0-.543.067-.775.206l.076.129zm.7-.185v.15c.192 0 .348.035.473.097l.067-.134.068-.135a1.348 1.348 0 00-.609-.128v.15zm.54.113l-.065.135a.642.642 0 01.287.268l.13-.074.13-.075a.942.942 0 00-.416-.39l-.066.136zm.352.329l-.078-.129-.185.113.078.129.079.128.185-.113-.079-.128zm-.185.113l.13-.078c-.176-.29-.473-.424-.851-.424v.3c.302 0 .485.101.593.28l.128-.078zm-.721-.352v-.15c-.24 0-.458.059-.653.18l.08.128.08.127a.907.907 0 01.493-.135v-.15zm-.573.158l-.078-.129a1.228 1.228 0 00-.451.482l.132.07.133.071a.928.928 0 01.342-.366l-.078-.128zm-.397.424l-.132-.071c-.11.205-.162.434-.162.684h.3c0-.207.044-.386.127-.543l-.133-.07zm-.144.613h-.15c0 .28.084.518.268.691l.103-.11.103-.109c-.11-.103-.174-.254-.174-.472h-.15zm.22.582l-.102.11c.184.172.436.248.734.248v-.301c-.249 0-.417-.063-.528-.167l-.103.11zm.632.207v.15c.176 0 .343-.033.499-.103l-.061-.137-.061-.137a.915.915 0 01-.377.077v.15zm.438-.09l.06.138a1.06 1.06 0 00.398-.294l-.116-.097-.115-.096a.762.762 0 01-.287.211l.06.138zm.342-.253l-.093.118.157.126.094-.117.094-.118-.158-.126-.094.117zm.158.127l-.119-.092a.873.873 0 01-.351.265l.06.138.06.138c.192-.085.35-.203.47-.357l-.12-.092zm-.41.31l-.06-.137a1.22 1.22 0 01-.486.096v.3c.215 0 .417-.04.605-.12l-.06-.138zm4.926-2.083l-.103.11.002.001.101-.11zm.185.812l.147.03v-.002l-.147-.028zm-.275 1.362v.15h.123l.024-.12-.147-.03zm-.226 0l-.147-.03-.036.18h.183v-.15zm.275-1.362l-.146-.032v.002l.146.03zm-.14-.654l-.102.11.001.001.102-.11zm-1.122.063l.095.116-.095-.116zm-.338.618l.147.03-.147-.03zm-.271 1.335v.15h.123l.024-.12-.147-.03zm-.226 0l-.147-.03-.036.18h.184v-.15zm.276-1.362l-.147-.032v.002l.147.03zm-.14-.654l-.104.11.002.001.102-.11zm-1.128.077l.098.114.002-.001-.1-.113zm-.347.658l.148.03-.148-.03zm-.257 1.281v.15h.123l.024-.12-.147-.03zm-.226 0l-.147-.03-.036.18h.184v-.15zm.47-2.354v-.15h-.124l-.024.12.147.03zm.22 0l.148.03.037-.18h-.184v.15zm-.09.442l-.147-.03.27.117-.123-.087zm.406-.347l-.064-.136.064.136zm1.06.027l-.087.123h.002l.085-.123zm.262.387l-.146.037.082.328.188-.28-.124-.085zm.437-.392l.067.135.002-.001-.069-.134zm.586-.135v.15c.24 0 .402.06.506.158l.103-.11.103-.11c-.178-.166-.423-.238-.712-.238v.15zm.61.198l-.102.111c.103.095.163.233.163.435h.3c0-.267-.081-.493-.26-.657l-.102.111zm.211.546h-.15c0 .07-.008.15-.025.238l.148.028.148.028c.02-.104.03-.202.03-.294h-.15zm-.027.266l-.147-.03-.275 1.362.147.03.147.03.275-1.362-.147-.03zm-.275 1.362v-.15h-.226v.3h.226v-.15zm-.226 0l.148.03.275-1.362-.148-.03-.147-.03-.275 1.362.147.03zm.275-1.362l.147.032c.018-.081.026-.169.026-.262h-.3a.934.934 0 01-.02.198l.147.032zm.023-.23h.15c0-.214-.064-.4-.21-.535l-.102.111-.102.111c.07.064.114.16.114.313h.15zm-.162-.424l.103-.11c-.146-.137-.346-.194-.577-.194v.301c.184 0 .3.045.37.112l.104-.109zm-.474-.153v-.15c-.288 0-.54.08-.745.25l.096.116.096.116a.836.836 0 01.553-.182v-.15zm-.65.216l-.095-.116c-.204.169-.33.409-.39.705l.148.03.147.029c.049-.245.148-.417.286-.532l-.095-.116zm-.337.618l-.148-.03-.27 1.335.147.03.147.03.27-1.335-.146-.03zm-.271 1.335v-.15h-.226v.3h.226v-.15zm-.226 0l.148.03.275-1.362-.147-.03-.148-.03-.275 1.362.148.03zm.276-1.362l.146.032c.018-.081.027-.169.027-.262h-.301a.935.935 0 01-.02.198l.148.032zm.022-.23h.15c0-.214-.064-.4-.21-.535l-.102.111-.102.111c.07.064.114.16.114.313h.15zm-.162-.424l.103-.11c-.145-.137-.346-.194-.577-.194v.301c.184 0 .3.045.37.112l.104-.109zm-.474-.153v-.15a1.1 1.1 0 00-.753.267l.1.113.099.113a.805.805 0 01.554-.193v-.15zm-.654.23l-.098-.114c-.206.178-.335.43-.396.743l.147.03.148.029c.052-.266.155-.451.297-.574l-.098-.114zm-.347.658l-.147-.03-.257 1.282.147.029.147.03.258-1.281-.148-.03zm-.257 1.281v-.15h-.226v.3h.226v-.15zm-.226 0l.148.03.469-2.355-.148-.03-.147-.028-.469 2.354.148.029zm.47-2.354v.15h.22v-.3h-.22v.15zm.22 0l-.147-.03-.09.442.147.03.148.03.09-.442-.148-.03zm-.09.442l.123.087a.89.89 0 01.347-.298l-.064-.136-.064-.136a1.19 1.19 0 00-.464.396l.122.087zm.406-.347l.064.136a1.09 1.09 0 01.473-.099v-.3c-.218 0-.42.04-.6.127l.063.136zm.537-.113v.15c.196 0 .337.042.436.113l.087-.123.087-.123c-.165-.116-.373-.167-.61-.167v.15zm.523.14l-.085.124c.1.067.167.164.2.3l.147-.037.145-.036a.788.788 0 00-.322-.476l-.085.125zm.262.387l.124.084a.987.987 0 01.38-.341l-.067-.135-.067-.134c-.2.1-.365.248-.495.443l.125.083zm.437-.392l.07.134a1.1 1.1 0 01.516-.119v-.3c-.238 0-.457.05-.655.152l.069.133zm4.756 2.016l.15.014.025-.258-.237.107.062.137zm-.018.19l.057.139.084-.035.009-.09-.15-.014zm-.65-.082l-.107.105.002.002.106-.107zm-.12-.365l.15.006.019-.5-.292.406.122.088zm-.43.37l.067.135.002-.001-.068-.134zm-1.316-.136l-.105.109.002.001.103-.11zm-.104-1.438l.133.07-.133-.07zm.474-.505l.077.129-.077-.13zm1.29-.027l.082-.126-.082.126zm.324.446l-.144.043.292-.013-.148-.03zm.117-.586v-.15h-.123l-.024.12.147.03zm.226 0l.147.03.037-.18h-.184v.15zm-.343 1.705l-.147-.03-.001.005.148.025zm.068.392l-.11.103.006.006.104-.109zm-.704-.081l-.078-.129.078.129zm.397-.424l.133.07-.133-.07zm-.076-1.2l-.105.109h.002l.102-.109zm-1.182-.05l.079.129-.08-.128zm-.392.43l.132.07v-.001l-.132-.07zm.072 1.19l-.104.108v.001l.104-.11zm2.133.216v.15a.712.712 0 00.297-.058l-.063-.137-.062-.137a.415.415 0 01-.172.032v.15zm.234-.045l-.15-.014-.017.19.15.014.149.014.018-.19-.15-.014zm-.018.19l-.056-.14a.574.574 0 01-.219.039v.3c.119 0 .23-.019.332-.06l-.057-.14zm-.275.05v-.151c-.135 0-.217-.036-.268-.087l-.106.106-.106.107c.123.123.291.174.48.174v-.15zm-.374-.132l.108-.104c-.052-.055-.084-.133-.08-.255l-.15-.006-.15-.006a.624.624 0 00.164.476l.108-.105zm-.122-.365l-.122-.088c-.1.14-.225.248-.374.324l.068.134.068.134a1.33 1.33 0 00.482-.416l-.122-.088zm-.428.37l-.067-.135c-.148.073-.317.11-.51.11v.301c.233 0 .449-.046.643-.141l-.066-.135zm-.578.126v-.15c-.276 0-.483-.078-.637-.221l-.102.11-.103.11c.22.205.506.301.843.301v-.15zm-.74-.261l.105-.108c-.149-.145-.229-.342-.229-.61h-.3c0 .334.102.615.32.826l.105-.108zm-.274-.718h.15c0-.245.052-.46.154-.65l-.133-.071-.132-.071c-.128.237-.19.503-.19.792h.15zm.171-.721l.133.07c.102-.193.241-.34.418-.446l-.077-.13-.077-.128a1.409 1.409 0 00-.53.564l.133.07zm.474-.505l.077.128c.18-.108.381-.163.608-.163v-.3c-.278 0-.534.068-.763.206l.078.129zm.685-.185v.15a.93.93 0 01.522.133l.082-.125.083-.126a1.224 1.224 0 00-.687-.182v.15zm.604.158l-.082.125a.633.633 0 01.263.364l.144-.043.144-.043a.934.934 0 00-.386-.529l-.082.126zm.325.446l.148.03.117-.587-.148-.03-.147-.028-.117.586.147.03zm.117-.586v.15h.226v-.3h-.226v.15zm.226 0l-.148-.03-.342 1.705.147.03.148.03.342-1.705-.147-.03zm-.343 1.705l-.148-.025a1.06 1.06 0 00-.016.173h.301c0-.035.003-.076.011-.124l-.148-.024zm-.013.148h-.15c0 .13.033.254.122.347l.109-.103.109-.103c-.02-.021-.04-.06-.04-.14h-.15zm.08.244l-.103.11c.095.088.22.121.352.121v-.3c-.085 0-.125-.021-.145-.04l-.103.109zm-1.266.072v.15a1.2 1.2 0 00.642-.175l-.079-.128-.079-.128c-.14.086-.3.13-.484.13v.151zm.563-.153l.078.128a1.23 1.23 0 00.452-.481l-.133-.071-.132-.07a.929.929 0 01-.343.365l.078.129zm.397-.424l.133.07a1.46 1.46 0 00.162-.688h-.3c0 .207-.044.388-.128.548l.133.07zm.145-.618h.15c0-.28-.084-.518-.269-.691l-.103.11-.102.109c.11.103.173.254.173.472h.15zm-.222-.582l.105-.108c-.18-.173-.427-.25-.718-.25v.301c.239 0 .401.062.51.166l.104-.109zm-.613-.207v-.15a1.2 1.2 0 00-.648.18l.08.128.08.127a.9.9 0 01.488-.135v-.15zm-.568.158l-.08-.128c-.189.117-.338.28-.446.486l.134.07.133.07a.933.933 0 01.338-.37l-.08-.128zm-.392.428l-.133-.07a1.423 1.423 0 00-.162.679h.3c0-.203.044-.382.127-.538l-.132-.07zm-.145.609h-.15c0 .28.082.517.263.69l.104-.108.104-.109c-.108-.103-.17-.254-.17-.473h-.15zm.217.582l-.103.11c.183.171.43.248.72.248v-.301c-.238 0-.403-.062-.514-.167l-.103.11zm3.283-1.962v-.15h-.124l-.024.12.148.03zm.225 0l.147.03.037-.18h-.184v.15zm-.216 1.073l-.148-.03-.036.18h.184v-.15zm1.6 0v.15h.123l.025-.12-.148-.03zm.217-1.073v-.15h-.123l-.024.12.147.03zm.225 0l.148.03.036-.18h-.184v.15zm-.473 2.354v.15h.123l.024-.12-.147-.03zm-.226 0l-.147-.03-.037.18h.184v-.15zm.221-1.082l.148.03.037-.18h-.185v.15zm-1.6 0v-.15h-.124l-.024.12.147.03zm-.217 1.082v.15h.123l.024-.12-.147-.03zm-.226 0l-.147-.03-.036.18h.183v-.15zm.47-2.354v.15h.225v-.3h-.226v.15zm.225 0l-.147-.03-.217 1.074.148.03.147.029.216-1.073-.147-.03zm-.216 1.073v.15h1.6v-.3h-1.6v.15zm1.6 0l.148.03.216-1.073-.147-.03-.147-.03-.217 1.074.148.03zm.217-1.073v.15h.225v-.3H27.3v.15zm.225 0l-.147-.03-.474 2.354.148.03.147.03.474-2.354-.148-.03zm-.473 2.354v-.15h-.226v.3h.226v-.15zm-.226 0l.148.03.22-1.082-.147-.03-.147-.03-.22 1.082.146.03zm.221-1.082v-.15h-1.6v.3h1.6v-.15zm-1.6 0l-.148-.03-.216 1.083.147.029.147.03.217-1.083-.148-.03zm-.217 1.082v-.15h-.226v.3h.226v-.15zm-.226 0l.148.03.469-2.355-.147-.03-.148-.028-.469 2.354.147.029zm3.32-.13l-.097.115.003.002.093-.118zm-.195-.727l.147.035v-.005l-.146-.03zm.298-1.497v-.15h-.123l-.024.12.147.03zm.226 0l.147.03.036-.18h-.183v.15zm-.208 1.042l-.147-.03-.1.505.356-.371-.109-.104zm1.439-.167l-.099.113.099-.113zm.058 1.028l.127.082v-.001l-.127-.08zm-.415.365l.068.135-.067-.135zm.221-.446l.127.082v-.002l-.127-.08zm-.05-.812l-.096.115.097-.115zm-.942-.031l.068.134-.068-.134zm-.36.31l-.123-.086-.018.026-.007.03.148.03zm-.046.222l.148.03-.148-.03zm.145.568l.098-.114-.098.114zm.437.32v-.15c-.237 0-.403-.054-.515-.143l-.094.117-.093.118c.182.145.422.209.702.209v-.15zm-.609-.176l.097-.115c-.105-.087-.163-.21-.163-.39h-.3c0 .254.086.467.27.62l.096-.115zm-.216-.505h.15c0-.076.007-.137.019-.186l-.146-.035-.147-.035a1.11 1.11 0 00-.026.256h.15zm.023-.22l.147.029.298-1.498-.148-.03-.147-.028-.298 1.497.148.03zm.297-1.498v.15h.226v-.3h-.226v.15zm.226 0l-.148-.03-.207 1.042.147.03.148.03.207-1.043-.147-.03zm-.208 1.042l.109.104a.975.975 0 01.739-.301v-.3c-.38 0-.703.13-.956.392l.108.105zm.848-.348v.15c.234 0 .39.056.492.144l.099-.113.098-.114c-.174-.152-.411-.217-.689-.217v.15zm.59.18l-.098.114c.1.086.156.211.156.396h.3c0-.253-.08-.468-.259-.623l-.098.114zm.208.51h-.15a.798.798 0 01-.125.438l.126.081.127.08c.115-.18.173-.381.173-.599h-.15zm-.149.52l-.126-.083a.897.897 0 01-.357.313l.069.134.068.134c.198-.1.358-.24.473-.417l-.127-.082zm-.415.364l-.067-.134c-.15.075-.325.115-.528.115v.3c.243 0 .465-.047.663-.146l-.067-.135zm-.572-.05v.151c.196 0 .376-.04.538-.125l-.07-.133-.069-.134a.849.849 0 01-.4.091v.15zm.469-.107l.07.133a.993.993 0 00.38-.34l-.125-.082-.127-.082a.692.692 0 01-.268.237l.07.134zm.325-.29l.127.081a.894.894 0 00.14-.486h-.3c0 .12-.032.226-.094.325l.127.08zm.117-.405h.15c0-.211-.068-.393-.22-.521l-.097.115-.097.115c.07.059.113.147.113.291h.15zm-.167-.406l.096-.115c-.146-.123-.34-.175-.56-.175v.3c.175 0 .292.042.367.105l.097-.115zm-.465-.14v-.15c-.195 0-.378.04-.545.124l.067.135.068.134a.903.903 0 01.41-.092v-.15zm-.478.109l-.067-.135a1.12 1.12 0 00-.416.359l.123.087.122.087a.818.818 0 01.306-.264l-.068-.134zm-.36.31l-.148-.03-.045.222.148.03.147.03.045-.221-.147-.03zm-.046.222l-.147-.031a.975.975 0 00-.02.202h.3c0-.046.005-.093.015-.14l-.148-.031zm-.018.171h-.15c0 .206.067.383.215.51l.098-.113.098-.114c-.069-.059-.11-.146-.11-.283h-.15zm.163.397l-.098.114c.144.124.337.176.558.176v-.3c-.177 0-.29-.042-.362-.104l-.098.114zm5.778-2.08l.147.03.036-.18h-.183v.15zm-.474 2.355v.15h.123l.025-.12-.148-.03zm-.225 0l-.148-.03-.035.18h.183v-.15zm.428-2.151l.148.03.035-.18h-.183v.15zm-1.61 0v-.15h-.123l-.024.12.147.03zm-.424 2.151v.15h.124l.024-.12-.148-.03zm-.225 0l-.148-.03-.035.18h.183v-.15zm.469-2.354v-.15h-.124l-.024.12.148.03zm2.06 0l-.147-.03-.473 2.354.147.03.148.03.473-2.354-.147-.03zM33.8 61.95v-.15h-.225v.3h.225v-.15zm-.225 0l.147.03.429-2.152-.148-.03-.147-.029-.429 2.152.148.029zm.428-2.151v-.15h-1.61v.3h1.61v-.15zm-1.61 0l-.147-.03-.424 2.152.147.029.148.03.424-2.152-.148-.03zm-.424 2.151v-.15h-.225v.3h.225v-.15zm-.225 0l.147.03.47-2.355-.148-.03-.148-.028-.469 2.354.148.029zm.469-2.354v.15h2.06v-.3h-2.06v.15zm4.523.248l-.107.106.002.002.105-.108zm.27.735l.15.007v-.007h-.15zm-.004.095l.028.148.116-.023.006-.118-.15-.007zm-2.057.388l-.028-.148-.13.025.008.133.15-.01zm.244.523l-.097.115.002.001.095-.116zm1.078.099l.055.14h.001l-.056-.14zm.352-.235l.125-.082-.105-.16-.13.14.11.102zm.103.158l.11.102.08-.086-.064-.098-.126.082zm-.401.266l-.055-.14.055.14zm-1.317-.166l-.102.11h.001l.101-.11zm.343-1.944l.079.128v-.001l-.08-.127zm.126.153l.077.13.002-.002-.079-.128zm-.532.97l-.15-.009-.01.192.188-.036-.028-.147zm1.853-.352l.028.148.121-.023.002-.123-.15-.002zm-.212-.56l-.104.11h.002l.102-.11zm-.577-.396v.15c.28 0 .482.08.624.222l.107-.106.106-.106c-.212-.212-.497-.31-.837-.31v.15zm.73.266l-.104.108c.144.14.225.341.225.627h.3c0-.345-.099-.633-.316-.843l-.104.108zm.271.735l-.15-.007-.004.095.15.007.15.007.005-.095-.15-.007zm-.004.095l-.028-.148-2.056.388.027.148.028.147 2.057-.388-.028-.147zm-2.057.388l-.15.01c.018.258.113.474.297.628l.097-.115.096-.115c-.11-.093-.177-.226-.19-.418l-.15.01zm.244.523l-.095.116c.183.15.429.215.717.215v-.301c-.247 0-.416-.056-.527-.147l-.095.117zm.622.18v.15a1.4 1.4 0 00.51-.091l-.054-.14-.055-.14c-.12.047-.252.07-.4.07v.151zm.456-.081l.056.14a1.13 1.13 0 00.405-.272l-.11-.102-.11-.104a.825.825 0 01-.298.199l.057.139zm.352-.235l-.126.083.104.158.125-.083.126-.082-.104-.158-.126.082zm.103.158l-.11-.101a.906.906 0 01-.346.227l.055.14.054.14c.181-.07.335-.17.458-.304l-.11-.102zm-.401.266l-.055-.14c-.143.056-.3.085-.473.085v.3c.207 0 .401-.034.582-.105l-.054-.14zm-.528.095v-.15c-.307 0-.53-.08-.688-.223l-.101.112-.101.11c.227.207.53.301.89.301v-.15zm-.789-.261l.102-.111c-.152-.14-.236-.339-.236-.616h-.3c0 .343.106.629.332.837l.102-.11zm-.284-.727h.15c0-.242.051-.457.15-.647l-.133-.07-.134-.07a1.69 1.69 0 00-.184.787h.15zm.167-.717l.133.07c.1-.19.234-.337.406-.442l-.08-.128-.078-.128c-.22.135-.392.323-.515.559l.134.07zm.46-.5l.08.127a1.06 1.06 0 01.578-.162v-.3c-.27 0-.518.068-.738.208l.08.127zm.654.009v-.15c-.222 0-.425.054-.607.166l.079.128.079.128a.836.836 0 01.449-.122v-.15zm-.528.144l-.077-.129c-.18.108-.324.258-.429.449l.132.072.131.073a.872.872 0 01.32-.336l-.077-.129zm-.374.392l-.132-.072c-.105.19-.163.405-.176.641l.15.009.15.008a1.15 1.15 0 01.14-.513l-.132-.072zm-.158.578l.028.147 1.853-.351-.028-.148-.028-.148-1.853.352.028.148zm1.853-.352l.15.002c.004-.27-.078-.501-.259-.67l-.103.109-.102.11c.107.1.167.243.164.447l.15.002zm-.212-.56l.104-.108c-.176-.168-.41-.244-.685-.244v.3c.218 0 .37.06.477.161l.104-.108zm3.084-.126l-.106.107.106-.107zm.095 1.444l-.132-.074.132.074zm-.483.496l-.076-.13.076.13zm-1.267.022l.083-.125-.083.125zm-.334-.433l.142-.049-.182-.528-.107.548.147.03zm-.284 1.448v.15h.124l.023-.121-.147-.029zm-.226 0l-.147-.029-.035.18h.182v-.151zm.406-2.097l-.147-.029.147.029zm.46-.839l.099.114-.099-.114zm1.128 1.723l-.077-.13-.001.001.078.129zm.401-.42l-.131-.073v.002l.131.071zm-.067-1.195l-.108.105.002.003.106-.108zm-1.196-.05l.082.127-.082-.126zm-.387.43l.134.067-.134-.068zm.072 1.158l-.113.1.002.002.11-.102zm.929-1.957v.15c.293 0 .501.081.647.227l.106-.107.106-.106c-.215-.215-.509-.314-.86-.314v.15zm.753.27l-.105.108c.144.142.225.347.225.637h.3c0-.348-.099-.64-.315-.852l-.105.108zm.27.745h-.15c0 .231-.053.439-.157.625l.132.074.131.073c.13-.234.195-.493.195-.772h-.15zm-.175.699l-.132-.074a1.147 1.147 0 01-.427.44l.076.13.076.13c.228-.135.408-.32.538-.553l-.131-.073zm-.483.496l-.076-.13c-.18.106-.38.16-.605.16v.3c.275 0 .529-.066.757-.2l-.076-.13zm-.68.18v-.15a.892.892 0 01-.504-.133l-.083.125-.083.126c.189.124.415.182.67.182v-.15zm-.587-.158l.083-.125a.676.676 0 01-.275-.357l-.142.05-.142.048a.977.977 0 00.393.51l.083-.126zm-.334-.433l-.147-.029-.285 1.448.148.029.147.029.285-1.448-.148-.029zm-.284 1.448v-.15h-.226v.3h.226v-.15zm-.226 0l.148.029.406-2.097-.148-.03-.147-.028-.406 2.097.148.029zm.406-2.097l.148.029c.064-.327.202-.575.41-.754l-.098-.114-.098-.114c-.267.23-.435.541-.51.924l.148.029zm.46-.839l.1.113a1.14 1.14 0 01.78-.274v-.3c-.381 0-.71.114-.978.348l.098.113zm.56 1.876v.15c.236 0 .452-.057.646-.175l-.078-.128-.078-.129a.923.923 0 01-.49.132v.15zm.568-.153l.077.129c.195-.116.347-.276.456-.477l-.132-.072-.132-.071a.927.927 0 01-.346.362l.077.129zm.401-.42l.131.074a1.34 1.34 0 00.168-.664h-.3c0 .192-.044.364-.13.517l.131.073zm.15-.59h.15c0-.29-.081-.535-.262-.712l-.105.107-.106.108c.108.105.172.263.172.497h.15zm-.217-.605l.107-.105c-.177-.18-.418-.261-.703-.261v.3c.227 0 .382.063.488.171l.108-.105zm-.596-.216v-.15a1.23 1.23 0 00-.681.19l.081.127.082.126a.927.927 0 01.518-.143v-.15zm-.6.167l-.08-.127a1.23 1.23 0 00-.441.487l.134.068.134.068a.936.936 0 01.335-.37l-.082-.126zm-.387.428l-.134-.068a1.365 1.365 0 00-.152.627h.3c0-.171.04-.334.12-.49l-.134-.069zm-.136.56h-.15c0 .273.079.51.245.699l.113-.1.112-.1a.722.722 0 01-.17-.5h-.15zm.208.6l-.11.101c.176.192.424.279.719.279v-.301c-.235 0-.393-.067-.499-.182l-.11.102zm6.07-1.94l.148.03.036-.18h-.183v.15zm-.473 2.354v.15h.123l.025-.12-.148-.03zm-3.166 0l-.147-.03-.036.18h.183v-.15zm.47-2.354v-.15h-.124l-.024.12.147.03zm.225 0l.147.029.036-.18h-.183v.15zm-.424 2.156l-.148-.03-.035.18h.183v-.15zm1.25 0v.15h.123l.024-.121-.148-.03zm.423-2.156v-.15h-.123l-.024.12.147.03zm.226 0l.147.029.035-.18h-.182v.15zm-.424 2.156l-.148-.03-.035.18h.183v-.15zm1.24 0v.15h.123l.024-.121-.147-.03zm.428-2.156v-.15h-.123l-.024.12.147.03zm.226 0l-.148-.03-.473 2.354.147.03.148.03.473-2.354-.147-.03zm-.474 2.354v-.15h-3.166v.3h3.166v-.15zm-3.166 0l.148.03.469-2.355-.148-.03-.147-.028-.469 2.354.147.029zm.47-2.354v.15h.225v-.3h-.226v.15zm.225 0l-.148-.03-.423 2.157.147.029.148.029.423-2.156-.147-.03zm-.424 2.156v.15h1.25v-.3h-1.25v.15zm1.25 0l.147.029.424-2.156-.148-.03-.147-.028-.424 2.156.147.029zm.423-2.156v.15h.226v-.3h-.226v.15zm.226 0l-.148-.03-.424 2.157.148.029.147.029.424-2.156-.147-.03zm-.424 2.156v.15h1.24v-.3h-1.24v.15zm1.24 0l.147.029.429-2.156-.148-.03-.147-.028-.428 2.155.147.03zm.428-2.156v.15h.226v-.3h-.226v.15zm3.202 0l.148.03.036-.18h-.184v.15zm-.469 2.354v.15h.124l.024-.12-.148-.03zm-.22 0l-.148-.03-.036.18h.183v-.15zm.09-.446l.147.03-.27-.117.122.087zm-1.579.266l-.104.108.002.003.102-.111zm-.185-.812l.148.03-.148-.03zm.27-1.362v-.15h-.123l-.024.12.148.03zm.226 0l.148.03.035-.18h-.183v.15zm-.27 1.362l.146.033.001-.004-.147-.03zm.14.658l-.104.11.003.003.1-.113zm1.163-.076l.097.114h.001l-.098-.114zm.352-.663l-.148-.03.148.03zm.257-1.281v-.15h-.123l-.025.12.148.03zm.225 0l-.147-.03-.47 2.355.148.029.148.03.469-2.355-.148-.03zm-.469 2.354v-.15h-.22v.3h.22v-.15zm-.22 0l.147.03.09-.447-.148-.03-.147-.03-.09.447.147.03zm.09-.446l-.123-.087c-.188.264-.46.4-.843.4v.301c.466 0 .837-.173 1.088-.527l-.123-.087zm-.966.464v-.15c-.24 0-.403-.06-.511-.16l-.102.112-.102.11c.181.166.427.238.715.238v-.15zm-.613-.198l.104-.109c-.106-.101-.166-.244-.166-.446h-.3c0 .267.081.494.258.663l.104-.108zm-.212-.555h.15c0-.07.008-.146.025-.228l-.148-.03-.147-.029c-.02.1-.03.195-.03.287h.15zm.027-.257l.148.03.27-1.363-.147-.03-.148-.028-.27 1.362.147.029zm.27-1.362v.15h.226v-.3h-.225v.15zm.226 0l-.147-.03-.27 1.363.147.029.147.03.27-1.363-.147-.03zm-.27 1.362l-.147-.033a1.169 1.169 0 00-.026.258h.3c0-.075.007-.139.02-.192l-.147-.033zm-.023.225h-.15c0 .217.064.405.21.543l.102-.11.104-.109c-.071-.067-.116-.168-.116-.324h-.15zm.162.433l-.1.113c.15.132.355.187.592.187v-.301c-.196 0-.318-.045-.392-.11l-.1.111zm.492.15v.15c.3 0 .56-.085.77-.262l-.098-.114-.097-.115a.854.854 0 01-.575.19v.15zm.672-.226l.098.113c.209-.18.34-.434.401-.747l-.147-.03-.148-.029c-.052.265-.156.453-.302.579l.098.114zm.352-.663l.147.03.257-1.282-.147-.03-.148-.029-.257 1.281.148.03zm.257-1.281v.15h.225v-.3h-.225v.15zm3.761 0l.148.03.036-.18h-.184v.15zm-.473 2.354v.15h.123l.024-.12-.147-.03zm-.207 0l-.148-.03-.036.18h.184v-.15zm.4-1.993l.148.03-.264-.124.117.094zm-1.357 1.69v.151h.073l.045-.056-.117-.094zm-.108 0l-.14.057.039.094h.101v-.15zm-.68-1.695l.139-.056-.188-.467-.1.494.148.03zm-.402 1.998v.15h.123l.024-.12-.147-.03zm-.208 0l-.147-.03-.036.18h.183v-.15zm.47-2.354v-.15h-.124l-.024.12.148.03zm.22 0l.14-.055-.037-.095h-.103v.15zm.704 1.781l-.14.056.095.24.162-.202-.117-.094zm1.43-1.781v-.15h-.072l-.046.056.118.094zm.212 0l-.148-.03-.473 2.354.147.03.147.03.474-2.354-.148-.03zm-.474 2.354v-.15h-.207v.3h.207v-.15zm-.207 0l.147.03.401-1.994-.147-.03-.147-.029-.402 1.993.148.03zm.4-1.993l-.116-.094-1.358 1.69.117.095.118.094 1.357-1.691-.117-.094zm-1.357 1.69v-.15h-.108v.301h.108v-.15zm-.108 0l.14-.055-.681-1.696-.14.056-.14.056.682 1.696.14-.056zm-.68-1.695l-.148-.03-.401 1.998.147.03.147.03.402-1.998-.148-.03zm-.402 1.998v-.15h-.208v.3h.208v-.15zm-.208 0l.148.03.469-2.355-.148-.03-.147-.028-.469 2.354.147.029zm.47-2.354v.15h.22v-.3h-.22v.15zm.22 0l-.14.055.704 1.782.14-.056.14-.055-.704-1.781-.14.055zm.704 1.781l.117.094 1.43-1.781-.117-.094-.118-.094-1.43 1.781.118.094zm1.43-1.781v.15h.212v-.3h-.212v.15zm1.295-.803v-.15h-.126l-.022.123.148.027zm.261 0l.147.033.04-.183h-.187v.15zm-.496 2.25v.15h.121l.026-.117-.147-.032zm-.171 0l-.148-.026-.032.177h.18v-.15zm-.194.876l-.106.106.004.004.102-.11zm0-.262l-.106-.106.106.106zm.266-.005l-.106.107.005.004.101-.11zm-.004.262l.106.106-.106-.106zm.338-3.12v.15h.261v-.301h-.261v.15zm.261 0l-.146-.033-.496 2.25.146.033.147.032.496-2.25-.147-.033zm-.496 2.25v-.15h-.171v.3h.171v-.15zm-.171 0l.148.026.406-2.25-.148-.027-.148-.026-.406 2.25.148.027zm-.068.924v-.15a.03.03 0 01-.024-.01l-.102.11-.102.111c.064.058.142.09.228.09v-.15zm-.126-.05l.106-.106c-.01-.01-.01-.014-.01-.02h-.3c0 .09.035.17.098.233l.106-.107zm-.054-.126h.15c0-.017.004-.023.01-.029l-.106-.106-.106-.106a.334.334 0 00-.098.241h.15zm.054-.135l.106.106c.014-.013.022-.014.03-.014v-.301a.336.336 0 00-.242.103l.106.106zm.135-.059v.15c.012 0 .017.003.025.01l.106-.106.106-.106a.328.328 0 00-.237-.098v.15zm.131.054l-.102.111a.031.031 0 01.005.005v.006h.301a.309.309 0 00-.102-.232l-.102.11zm.054.122h-.15c0 .014-.003.022-.015.034l.107.106.106.106a.341.341 0 00.102-.246h-.15zm-.058.14l-.107-.106c-.006.006-.012.01-.029.01v.3a.334.334 0 00.242-.098l-.106-.106z" fill="#FFFBFB" mask="url(#b)"/><path d="M49.62 12.93a407.887 407.887 0 00-1.805 4.057l2.706 9.02L63.074 1.354h-1.88c-.375 0-1.096.01-1.879.225-.782.216-1.514.388-2.405.827-.89.44-1.806 1.076-2.555 1.804-.75.729-1.087 1.227-1.654 2.105-.567.878-.935 1.869-1.503 3.081-.568 1.213-.945 2.144-1.579 3.533z" fill="url(#paint0_linear_17_337)" fill-opacity=".99" stroke="#FFFBFB" stroke-width=".15"/><path d="M23.237 27.436l-12.853-16.01 11.951 16.611.902-.601z" fill="#FAD3B1" stroke="#FFFBFB" stroke-width=".15"/><path d="M12.864 37.508c-.977-.451-2.104-1.428-2.104-1.428s1.073 2.041 1.503 2.63c.43.589.626.948 1.128 1.504.502.555 1.176 1.17 1.803 1.728.628.558 1.019.83 1.73 1.278.71.447 1.37.82 2.179 1.202.81.38 1.273.552 2.105.827.83.276 1.293.366 2.18.526.885.161 1.648.226 2.705.226 1.057 0 1.87.061 2.932 0 1.061-.06 1.655-.112 2.705-.3a20.743 20.743 0 002.706-.677c.86-.27 1.467-.567 2.18-.902.713-.335 1.21-.706 1.88-1.127.668-.421 1.353-1.02 1.878-1.429.525-.409.855-.694 1.278-1.127.423-.433.652-.688 1.052-1.203.4-.514.745-.975 1.203-1.578.458-.603.883-1.263 1.203-1.729.32-.465.826-1.128.826-1.128s-1.076-3.606-1.353-4.434a53.166 53.166 0 00-.751-2.105c-.306-.817-.827-2.18-.827-2.18s-.907 1.875-1.278 2.556c-.37.681-.593 1.055-.977 1.729-.384.674-.661 1.207-1.127 1.954l-.015.023c-.46.739-.876 1.406-1.413 2.082-.544.683-.959 1.083-1.504 1.654-.545.57-.824.92-1.428 1.428-.604.507-1.072.79-1.729 1.202-.657.412-1.013.647-1.728.977-.715.33-1.394.64-2.03.752-.636.112-1.503.15-1.503.15h-1.428c-.528 0-1.772-.092-2.856-.15a23.433 23.433 0 01-2.781-.3 22.386 22.386 0 01-2.48-.527c-.932-.245-1.665-.505-2.694-.87l-.088-.032c-1.076-.382-2.104-.752-3.082-1.202z" fill="url(#paint1_linear_17_337)" stroke="#FFFBFB" stroke-width=".15"/><path d="M17.525 26.683l-1.504-.375s.475 1.867.677 2.63c.202.765.294 1.2.526 1.955.232.756.488 1.507.676 1.954.189.448.303.697.527 1.128.223.431.69 1.187 1.052 1.729.362.541.58.925.977 1.353.396.427 1.127 1.05 1.127 1.05s.68.513 1.203.828c.523.315.15.227 1.578.752 1.428.526 2.631.901 2.631.901s-1.506-.638-1.954-.825a11.009 11.009 0 01-1.128-.527 9.303 9.303 0 01-.977-.601 7.995 7.995 0 01-.977-.752 7.044 7.044 0 01-.902-.977 15.4 15.4 0 01-.977-1.428c-.3-.495-.403-.767-.676-1.278-.274-.51-.51-.94-.752-1.578-.243-.638-.404-1.26-.526-1.729-.123-.468-.203-.879-.3-1.353a13.509 13.509 0 01-.226-1.428c-.055-.526-.075-1.429-.075-1.429z" fill="url(#paint2_linear_17_337)" stroke="#FFFBFB" stroke-width=".15"/><path d="M31.355 3.308c-.55.198-1.955.827-2.556 1.128-.601.3-2.255 1.352-3.608 2.48 0 0 1.839-.681 2.33-.827.492-.145.77-.236 1.278-.3.509-.065.964-.054 1.579 0a7.765 7.765 0 011.653.3c.607.176 1.503.602 1.503.602s.655.392 1.053.676c.397.284.717.515 1.127.902.41.387.814.888 1.278 1.503.464.615 1.594 2.448 2.18 3.834.585 1.385.687 2.244 1.127 3.683.44 1.438.86 2.847 1.353 4.434.492 1.587.784 2.472 1.278 4.06.493 1.586 1.1 2.867 1.653 4.66.554 1.791.883 3.146 1.428 4.584.546 1.438.81 2.606 1.353 3.608.544 1.002.823 1.797 1.504 2.556.68.758 1.04 1.21 1.879 1.803.838.594 1.6 1.101 2.48 1.429.881.327 1.832.417 2.33.45.498.034.779 0 1.278 0h2.556s-2.144-2.826-3.233-4.81c-1.088-1.984-1.499-3.376-2.405-5.562-.906-2.186-1.758-4.23-2.405-6.088-.647-1.86-.994-3.14-1.503-4.81-.51-1.67-.754-2.62-1.278-4.285-.523-1.666-1.233-3.809-1.654-4.96-.42-1.153-.615-1.837-1.127-2.932s-1.353-2.63-2.18-3.985c-.827-1.354-1.883-2.575-2.03-2.78-.145-.207-.2-.27-.375-.452s-1.037-.49-1.503-.675c-.466-.186-.74-.308-1.203-.451a9.173 9.173 0 00-1.203-.3 9.233 9.233 0 00-1.202-.151 9.693 9.693 0 00-1.654 0c-.624.06-1.062.095-1.653.225s-.878.254-1.428.451z" fill="url(#paint3_linear_17_337)"/><path d="M23.688 8.42c.401-.357.73-.73 1.127-1.053.305-.247-.977.676.376-.452m0 0c1.353-1.127 3.007-2.179 3.608-2.48.601-.3 2.005-.93 2.556-1.127.55-.197.837-.32 1.428-.45.59-.131 1.029-.166 1.653-.226a9.693 9.693 0 011.654 0 9.16 9.16 0 011.202.15c.466.087.74.157 1.203.3.463.144.737.266 1.203.452.466.185 1.328.493 1.503.675.175.182.23.245.376.451.146.206 1.203 1.427 2.03 2.781.826 1.354 1.667 2.89 2.179 3.985.512 1.095.707 1.78 1.127 2.931.421 1.152 1.13 3.295 1.654 4.961.524 1.666.769 2.614 1.278 4.284.51 1.67.856 2.952 1.503 4.81.647 1.86 1.5 3.903 2.405 6.089.906 2.186 1.317 3.578 2.405 5.562 1.09 1.984 3.233 4.81 3.233 4.81h-2.556c-.499 0-.78.034-1.278 0-.498-.033-1.449-.123-2.33-.45-.88-.328-1.642-.835-2.48-1.428-.839-.594-1.199-1.046-1.88-1.804-.68-.759-.959-1.554-1.503-2.556-.543-1.002-.807-2.17-1.352-3.608-.546-1.438-.875-2.793-1.429-4.585-.553-1.792-1.16-3.073-1.653-4.66-.494-1.587-.786-2.472-1.278-4.059-.492-1.587-.913-2.996-1.353-4.434-.44-1.439-.542-2.298-1.127-3.683-.586-1.386-1.716-3.219-2.18-3.834-.464-.615-.867-1.116-1.278-1.503a9.569 9.569 0 00-1.127-.902c-.398-.284-1.053-.676-1.053-.676s-.896-.426-1.503-.602a7.765 7.765 0 00-1.653-.3c-.615-.054-1.07-.065-1.579 0-.508.064-.786.155-1.278.3-.491.146-2.33.826-2.33.826z" stroke="#FFFBFB" stroke-width=".15"/><path d="M13.616 8.795c-1 1.383-2.405 3.682-2.405 3.682l6.54 8.193s.245-1.407.375-2.179c.13-.772.273-1.293.45-1.88.179-.586.511-1.353.752-1.879.242-.525.677-1.187.827-1.502.15-.315.593-1.071.977-1.729.384-.658 1.053-1.577 1.353-1.955.301-.378 1.73-1.805 2.03-2.03.977-.9.887-.693 1.353-1.051.465-.357.722-.49 1.202-.828.48-.337.896-.627 1.504-.976a14.171 14.171 0 011.653-.827c.632-.27.998-.394 1.654-.601.655-.207 1.22-.407 2.03-.526a8.782 8.782 0 012.179-.075c.803.062 2.03.376 2.03.376l1.578.525.751.3.827.451s-1.038-1.046-1.729-1.577c-.69-.532-1.509-.928-2.555-1.353-1.046-.425-2.806-.911-3.157-.977-.35-.066-.551-.107-.902-.15-.35-.044-.549-.056-.902-.076-.304-.017-.98-.067-1.64-.075h-.314c-.75.01-1.085.048-1.88.15-.793.103-1.466.207-2.254.376a22.04 22.04 0 00-3.383 1.053c-1.177.487-1.782.891-2.856 1.578-1.073.687-1.925 1.262-3.006 2.255-1.081.993-2.081 1.925-3.082 3.307z" fill="url(#paint4_linear_17_337)" stroke="#FFFBFB" stroke-width=".15"/><path d="M4.145 31.57L10.46 11.5l11.876 16.536-6.314-1.729s.273 1.055.451 1.729c.179.674.312 1.194.526 1.954.215.76.334 1.297.602 2.03.267.732.498 1.171.826 1.879.33.707.856 1.504 1.278 2.104.422.6.886 1.16 1.504 1.728.617.57 1.535 1.158 1.728 1.278.193.12 1.353.6 2.18.902.827.301 1.88.676 1.88.676s-1.957-.06-3.082-.15c-1.126-.09-1.973-.1-3.007-.3-1.035-.202-1.463-.329-2.48-.602a39.88 39.88 0 01-3.082-.977c-1.053-.376-1.704-.613-2.556-1.052-.851-.44-2.03-1.428-2.03-1.428s-.464-1.004-.75-1.653c-.287-.65-.392-1.184-.602-1.954-.21-.77-.383-1.492-.526-2.255-.144-.764-.3-2.18-.3-2.18L4.144 31.57z" fill="url(#paint5_linear_17_337)" stroke="#FFFBFB" stroke-width=".15"/></g><defs><linearGradient id="paint0_linear_17_337" x1="55.444" y1="1.324" x2="55.444" y2="25.932" gradientUnits="userSpaceOnUse"><stop stop-color="#2DB6A3"/><stop offset="1" stop-color="#073B4D"/></linearGradient><linearGradient id="paint1_linear_17_337" x1="28.311" y1="26.158" x2="28.311" y2="46.028" gradientUnits="userSpaceOnUse"><stop offset=".198" stop-color="#FF6516"/><stop offset="1" stop-color="#FFA975"/></linearGradient><linearGradient id="paint2_linear_17_337" x1="21.395" y1="26.308" x2="21.395" y2="40.364" gradientUnits="userSpaceOnUse"><stop stop-color="#FAD3B1"/><stop offset="1" stop-color="#722614"/></linearGradient><linearGradient id="paint3_linear_17_337" x1="41.539" y1="2.596" x2="41.539" y2="44.888" gradientUnits="userSpaceOnUse"><stop offset=".005" stop-color="#0E101E"/><stop offset=".422" stop-color="#2DB6A3"/></linearGradient><linearGradient id="paint4_linear_17_337" x1="26.244" y1=".075" x2="26.244" y2="20.37" gradientUnits="userSpaceOnUse"><stop offset=".324" stop-color="#2DB6A3"/><stop offset="1" stop-color="#073B4D"/></linearGradient><linearGradient id="paint5_linear_17_337" x1="15.533" y1="11.501" x2="15.533" y2="40.479" gradientUnits="userSpaceOnUse"><stop stop-color="#FFBB8D"/><stop offset="1" stop-color="#FF5B07"/></linearGradient><filter id="filter0_d_17_337" x="0" y="0" width="67.196" height="70.976" filterUnits="userSpaceOnUse" color-interpolation-filters="sRGB"><feFlood flood-opacity="0" result="BackgroundImageFix"/><feColorMatrix in="SourceAlpha" values="0 0 0 0 0 0 0 0 0 0 0 0 0 0 0 0 0 0 127 0" result="hardAlpha"/><feOffset dy="4"/><feGaussianBlur stdDeviation="2"/><feComposite in2="hardAlpha" operator="out"/><feColorMatrix values="0 0 0 0 0 0 0 0 0 0 0 0 0 0 0 0 0 0 0.25 0"/><feBlend in2="BackgroundImageFix" result="effect1_dropShadow_17_337"/><feBlend in="SourceGraphic" in2="effect1_dropShadow_17_337" result="shape"/></filter></defs></svg>