<svg width="68" height="61" fill="none" xmlns="http://www.w3.org/2000/svg"><g clip-path="url(#clip0_194_156)" fill-rule="evenodd" clip-rule="evenodd" fill="#0C0F1E"><path d="M26.67 32.241c-2.663-12.907-4.91-12.06-9.084-12.416-10.03-.79-14.569-1.235-16.025 2.318A27.259 27.259 0 004.52 32.429c2.913 4.45 9.155 2.68 30.507 1.962.29-.006.565-.115.765-.303.2-.188.31-.44.303-.7a.938.938 0 00-.339-.688c-.21-.18-.49-.277-.78-.27-2.769-.006-5.531-.097-8.305-.189zm-2.462-.079a31.892 31.892 0 00-3.638-8.88 76.346 76.346 0 00-14.68-.654c-.56 0-.728 0-.935.488 3.069 11.837 1.615 8.51 19.256 9.046h-.003zM36.012 3.187c1.215-2.353-11.54-6.725-14.266 2.077a7.121 7.121 0 00.144 5.066c.668 1.628 1.916 3.013 3.551 3.94 1.635.928 3.565 1.347 5.491 1.19 1.927-.156 3.742-.877 5.165-2.053 5.553-4.47 2.034-10.913-.085-10.22zm-.635.509a1.21 1.21 0 01-.978-.117c-4.26-2.346-8.463-.839-9.321 2.45a4.462 4.462 0 00.1 3.14c.413 1.01 1.183 1.87 2.19 2.452a6.007 6.007 0 003.396.771 5.848 5.848 0 003.227-1.221 4.903 4.903 0 001.453-1.255c.386-.5.657-1.065.797-1.66a4.11 4.11 0 00.017-1.81 4.328 4.328 0 00-.765-1.673.925.925 0 01-.116-1.078zm-8.931 16.52c10.475-2.724 19.67 9.422 14.57 11.763a1.09 1.09 0 00-.62.554.928.928 0 000 .785c.116.25.338.45.618.554.28.105.594.105.874 0a5.135 5.135 0 001.97-1.246 4.434 4.434 0 001.113-1.92c2.184-6.456-6.798-14.22-15.232-13.43-6.95.864-4.67 3.41-3.293 2.94zM16.989 51.53c.226-.615.43-1.258.643-1.917 1.153-3.586 2.44-7.589 7.307-10.026.263-.126.46-.34.551-.594a.931.931 0 00-.066-.77 1.114 1.114 0 00-.645-.511 1.266 1.266 0 00-.86.037c-2.758 1.288-5.131 3.151-6.92 5.434-1.787 2.282-2.938 4.916-3.354 7.68-.991 3.737-5.61 4.576-4.836-.162-.033-2.311.522-4.6 1.623-6.69 1.1-2.09 2.718-3.927 4.73-5.373a1 1 0 00.52-.583.888.888 0 00-.09-.743 1.075 1.075 0 00-.65-.468 1.201 1.201 0 00-.83.081C4.14 41.272 2.02 58.888 11.303 57.12c1.64-.325 2.794-1.007 3.655-1.927a5.04 5.04 0 001.417 1.898 5.8 5.8 0 002.206 1.142 6.237 6.237 0 002.54.15 5.984 5.984 0 002.354-.872c3.018-1.845 4.318-4.427 5.59-6.944.8-1.586 1.587-3.146 2.777-4.478.518-.595 1.493-.747 2.632-.93 2.7-.427 6.338-1.004 7.066-7.925a.96.96 0 00-.215-.76 1.186 1.186 0 00-.748-.41c-.3-.037-.605.032-.849.194a1.026 1.026 0 00-.454.67c-1.145 4.952-3.165 5.13-5.454 5.333-.709.061-1.445.127-2.188.338-2.663.763-4.094 3.53-5.567 6.372-.632 1.218-1.27 2.448-2.015 3.54-1.34 1.96-3.578 4.08-5.689 2.771-1.57-.973-1.448-2.028-1.354-2.86.04-.34.073-.647-.017-.891zm44.194-12.45c.29 1.971-.085 3.975-1.077 5.753 12.481 10.954 4.738 18.363-7.865 15.58a10.635 10.635 0 01-.286-.069c-7.885.567-16.068.793-17.145-3.736a3.73 3.73 0 010-1.694c.13-.56.388-1.088.757-1.553a4.47 4.47 0 011.385-1.152 4.983 4.983 0 011.782-.56c.294-.021.585.06.814.225.23.166.378.405.417.666a.95.95 0 01-.21.74 1.17 1.17 0 01-.72.408 1.87 1.87 0 00-.978.672 1.55 1.55 0 00-.303 1.071c.036.377.213.733.502 1.01.289.276.673.456 1.09.513 1.106.3 2.82.35 5.48.432 1.06.03 2.273.066 3.655.124-.314-.973-.357-2.147-.357-3.502.198-5.29.255-6.126-.15-6.392-.331-.224-.98-.064-2.125-1.678-1.451-2.658-1.71-5.715-.725-8.54 1.048-3.889 2.36-5.61 6.919-1.787a12.164 12.164 0 012.062 0l.763-.607c1.785-1.431 2.612-2.094 3.61-1.228 1.472 1.486 2.415 3.333 2.705 5.305zm-2.425 1.315a7.061 7.061 0 01-.879 3.883c-.819.727-.4 1.129.66 2.146.709.678 1.7 1.631 2.805 3.139 1.502 2.053 3.171 5.373 1.103 7.19-1.185 1.047-4.743.907-6.58.834l-.277-.01c-1.802-.12-2.833-.077-3.4-.517-.992-.777-.53-3.05-.24-10.331.064-1.185-.613-1.365-1.412-1.576-.708-.186-1.516-.397-1.977-1.36a9.53 9.53 0 01.249-6.692c.538.29.915.592 1.24.854.568.457.973.778 1.76.635 1.559-.292 2.202-.183 2.613-.114.66.112.705.12 2.952-1.846a7.197 7.197 0 011.383 3.765z"/></g><defs><clipPath id="clip0_194_156"><path fill="#fff" d="M0 0h68v61H0z"/></clipPath></defs></svg>