<svg width="39" height="33" fill="none" xmlns="http://www.w3.org/2000/svg"><g clip-path="url(#clip0_10_270)" fill-rule="evenodd" clip-rule="evenodd" fill="#0C0F1E"><path d="M15.284 17.442c-1.526-6.982-2.814-6.524-5.206-6.717-5.748-.428-8.349-.668-9.183 1.254a14.132 14.132 0 001.695 5.565c1.669 2.407 5.246 1.449 17.482 1.061a.684.684 0 00.44-.164.49.49 0 00.172-.379.498.498 0 00-.193-.372.694.694 0 00-.448-.146c-1.586-.003-3.17-.053-4.759-.102zm-1.411-.043a16.725 16.725 0 00-2.085-4.804 46.331 46.331 0 00-8.412-.353c-.322 0-.418 0-.536.264 1.758 6.403.925 4.603 11.035 4.893h-.002zm6.764-15.675c.697-1.273-6.613-3.638-8.175 1.124-.33.896-.3 1.86.083 2.74.383.881 1.098 1.63 2.035 2.132a5.77 5.77 0 003.146.644c1.104-.085 2.145-.475 2.96-1.11 3.183-2.42 1.166-5.905-.049-5.53zM20.274 2a.732.732 0 01-.56-.063c-2.443-1.27-4.85-.454-5.342 1.326-.2.556-.18 1.153.057 1.699s.678 1.011 1.255 1.326a3.608 3.608 0 001.946.417 3.47 3.47 0 001.85-.66 2.77 2.77 0 00.832-.68c.221-.27.377-.576.457-.898a2.1 2.1 0 00.01-.978 2.283 2.283 0 00-.439-.906.477.477 0 01-.066-.583zm-5.118 8.937c6.003-1.474 11.271 5.097 8.349 6.363a.614.614 0 00-.355.3.476.476 0 000 .424.613.613 0 00.354.3c.16.057.34.057.5 0a2.97 2.97 0 001.13-.674 2.37 2.37 0 00.637-1.039c1.252-3.492-3.895-7.693-8.729-7.265-3.983.467-2.675 1.845-1.886 1.59zm-5.42 16.94c.13-.333.247-.68.368-1.037.661-1.94 1.398-4.106 4.188-5.424a.589.589 0 00.316-.321.479.479 0 00-.038-.417.633.633 0 00-.37-.277.766.766 0 00-.493.02c-1.58.697-2.94 1.705-3.965 2.94-1.025 1.235-1.684 2.66-1.922 4.155-.569 2.022-3.215 2.476-2.772-.087a7.195 7.195 0 01.93-3.62c.63-1.13 1.558-2.124 2.71-2.906a.556.556 0 00.3-.316.457.457 0 00-.053-.402.615.615 0 00-.372-.253.725.725 0 00-.475.044C2.372 22.327 1.158 31.857 6.477 30.9c.94-.176 1.601-.544 2.095-1.042.174.39.452.742.812 1.027.36.285.792.496 1.264.617.471.122.97.15 1.456.082a3.557 3.557 0 001.348-.472c1.73-.998 2.475-2.395 3.204-3.756.458-.858.91-1.703 1.591-2.423.297-.322.856-.404 1.509-.503 1.547-.231 3.632-.543 4.05-4.288a.499.499 0 00-.125-.411.692.692 0 00-.428-.221.755.755 0 00-.486.104.555.555 0 00-.26.363c-.657 2.679-1.814 2.775-3.126 2.885-.406.033-.829.069-1.254.183-1.526.412-2.346 1.91-3.19 3.447-.363.659-.728 1.324-1.155 1.915-.768 1.06-2.05 2.207-3.26 1.5-.9-.527-.83-1.098-.776-1.548.022-.184.042-.35-.01-.482zm25.326-6.735a4.667 4.667 0 01-.617 3.112c7.153 5.926 2.715 9.934-4.507 8.428a5.99 5.99 0 01-.164-.037c-4.519.307-9.208.43-9.825-2.021a1.908 1.908 0 010-.917c.075-.302.222-.588.433-.84s.482-.464.794-.623c.312-.16.66-.262 1.022-.303a.742.742 0 01.466.122c.131.09.217.219.239.36a.494.494 0 01-.12.4.68.68 0 01-.413.221c-.23.064-.427.193-.56.364a.807.807 0 00-.174.58c.02.203.122.396.287.545.166.15.386.247.626.278.633.162 1.615.19 3.14.234.607.016 1.302.035 2.094.067-.18-.526-.204-1.162-.204-1.895.113-2.861.146-3.313-.086-3.458-.19-.12-.562-.034-1.218-.907-.832-1.439-.98-3.092-.416-4.62.601-2.104 1.353-3.035 3.965-.967a7.382 7.382 0 011.182 0l.437-.329c1.023-.774 1.497-1.133 2.069-.664.844.804 1.384 1.804 1.55 2.87zm-1.39.71a3.642 3.642 0 01-.503 2.102c-.47.393-.229.61.379 1.16.405.367.974.883 1.607 1.698.86 1.111 1.817 2.907.632 3.89-.68.567-2.718.491-3.77.451l-.16-.005c-1.032-.065-1.623-.041-1.948-.28-.569-.42-.304-1.65-.138-5.589.037-.64-.351-.738-.809-.852-.406-.1-.869-.215-1.133-.736a4.887 4.887 0 01.143-3.62 4.4 4.4 0 01.71.462c.326.247.558.42 1.01.344.892-.159 1.26-.1 1.496-.062.379.06.405.064 1.692-.998a3.75 3.75 0 01.792 2.036z"/></g><defs><clipPath id="clip0_10_270"><path fill="#fff" d="M0 0h38.969v33H0z"/></clipPath></defs></svg>