<svg width="104" height="78" fill="none" xmlns="http://www.w3.org/2000/svg"><g clip-path="url(#clip0_194_189)" fill-rule="evenodd" clip-rule="evenodd" fill="#0C0F1E"><path d="M40.79 41.226c-4.074-16.503-7.51-15.421-13.893-15.876-15.34-1.01-22.282-1.58-24.51 2.964.441 4.553 1.974 9.008 4.525 13.153 4.454 5.69 14 3.425 46.657 2.509.443-.008.865-.148 1.171-.388.306-.241.473-.563.462-.896-.01-.333-.196-.649-.517-.879-.321-.23-.75-.354-1.194-.346-4.234-.007-8.459-.124-12.701-.24zm-3.766-.1c-1.14-3.961-3.014-7.783-5.564-11.356a139.443 139.443 0 00-22.451-.835c-.858 0-1.114 0-1.43.624 4.693 15.135 2.47 10.88 29.45 11.567h-.005zm18.053-37.05c1.859-3.01-17.65-8.6-21.819 2.655-.878 2.119-.8 4.395.221 6.478 1.022 2.082 2.93 3.853 5.43 5.039 2.5 1.186 5.453 1.72 8.399 1.521 2.946-.2 5.722-1.122 7.899-2.625 8.493-5.717 3.11-13.956-.13-13.068zm-.971.65a2.196 2.196 0 01-.771.059 2.029 2.029 0 01-.724-.209c-6.517-3-12.944-1.072-14.257 3.133-.533 1.316-.479 2.726.154 4.016.632 1.29 1.808 2.391 3.35 3.135 1.542.744 3.365 1.09 5.193.986 1.828-.104 3.561-.653 4.936-1.562.875-.418 1.63-.964 2.222-1.604.59-.64 1.005-1.362 1.219-2.124a4.422 4.422 0 00.026-2.313c-.196-.764-.594-1.492-1.17-2.14a1.14 1.14 0 01-.355-.669c-.031-.244.03-.49.177-.708zM40.447 25.85c16.02-3.483 30.082 12.048 22.282 15.042-.428.132-.768.387-.946.708a1.011 1.011 0 000 1.003c.176.32.516.576.944.71a2.29 2.29 0 001.337 0c1.16-.343 2.194-.89 3.014-1.595.82-.704 1.404-1.546 1.7-2.455C72.12 31.008 58.383 21.08 45.482 22.09c-10.63 1.105-7.14 4.362-5.035 3.76zM25.983 65.89c.346-.786.658-1.608.983-2.45 1.764-4.585 3.731-9.704 11.176-12.821.402-.161.704-.433.843-.759a1.02 1.02 0 00-.1-.984c-.204-.306-.558-.54-.988-.654a2.294 2.294 0 00-1.315.047c-4.219 1.647-7.848 4.03-10.583 6.948-2.734 2.919-4.494 6.287-5.13 9.822-1.517 4.778-8.58 5.85-7.397-.208-.05-2.956.799-5.881 2.482-8.554 1.684-2.672 4.157-5.022 7.233-6.87.388-.16.675-.428.798-.746a.977.977 0 00-.139-.95c-.212-.291-.57-.506-.994-.6a2.167 2.167 0 00-1.268.105C6.331 52.774 3.09 75.3 17.285 73.037c2.51-.416 4.273-1.287 5.59-2.463.466.923 1.207 1.753 2.168 2.427.96.674 2.114 1.173 3.373 1.46 1.258.286 2.588.352 3.886.192 1.298-.16 2.53-.542 3.6-1.115 4.614-2.36 6.603-5.662 8.55-8.879 1.221-2.028 2.426-4.024 4.246-5.727.793-.76 2.283-.955 4.026-1.189 4.13-.546 9.693-1.284 10.807-10.134.063-.344-.055-.693-.33-.972-.276-.28-.686-.467-1.144-.523a2.23 2.23 0 00-1.298.247c-.372.207-.622.515-.695.858-1.75 6.331-4.84 6.559-8.342 6.819-1.083.078-2.21.163-3.345.432-4.073.975-6.262 4.514-8.515 8.148-.966 1.557-1.941 3.13-3.08 4.527-2.05 2.506-5.474 5.217-8.702 3.543-2.4-1.245-2.214-2.594-2.071-3.657.06-.435.112-.828-.026-1.14zm67.591-15.918c.443 2.52-.13 5.082-1.647 7.355 19.089 14.007 7.246 23.481-12.029 19.922a18.61 18.61 0 01-.438-.087c-12.06.724-24.574 1.014-26.22-4.778a4.011 4.011 0 010-2.167c.199-.714.593-1.39 1.156-1.985.563-.595 1.284-1.097 2.118-1.474a8.725 8.725 0 012.727-.715c.449-.027.894.076 1.245.288.35.212.578.517.637.852.059.334-.056.673-.32.946-.265.273-.66.46-1.103.52-.613.153-1.14.456-1.495.86-.355.405-.519.887-.464 1.37.055.483.326.937.768 1.29.441.354 1.03.585 1.668.657 1.69.384 4.312.449 8.38.553 1.621.039 3.476.084 5.59.159-.48-1.245-.545-2.746-.545-4.479.303-6.763.39-7.832-.23-8.173-.507-.286-1.5-.082-3.25-2.145-2.22-3.4-2.617-7.308-1.11-10.92 1.604-4.973 3.61-7.173 10.583-2.285a22.233 22.233 0 013.154 0l1.166-.777c2.73-1.83 3.995-2.678 5.52-1.57 2.254 1.9 3.695 4.263 4.139 6.783zm-3.71 1.68c.136 1.715-.327 3.427-1.343 4.966-1.252.93-.61 1.443 1.01 2.743 1.083.868 2.6 2.087 4.29 4.014 2.297 2.626 4.849 6.87 1.686 9.194-1.812 1.34-7.254 1.16-10.062 1.066l-.425-.013c-2.756-.152-4.333-.097-5.2-.66-1.517-.994-.81-3.9-.368-13.21.1-1.515-.936-1.746-2.158-2.016-1.084-.237-2.319-.507-3.025-1.738-1.115-2.808-.981-5.812.381-8.558.824.37 1.4.758 1.898 1.092.867.585 1.487.995 2.691.813 2.384-.374 3.367-.234 3.996-.146 1.01.143 1.079.152 4.515-2.36 1.252 1.44 1.98 3.1 2.115 4.813z"/></g><defs><clipPath id="clip0_194_189"><path fill="#fff" d="M0 0h104v78H0z"/></clipPath></defs></svg>