<svg width="102" height="64" fill="none" xmlns="http://www.w3.org/2000/svg"><path fill-rule="evenodd" clip-rule="evenodd" d="M82.724 50.293c0-.239-.257-2.525-1.325-2.658-1.068-.132-1.367 0-2.007.718-.39.713-.704 1.44-.94 2.18-6.237.292-8.543 1.328-13.413 1.408-1.709.24-1.495 1.568.769 1.675 4.062.252 8.154.252 12.217 0 0 1.78 0 2.073.726 2.843.213.168.517.281.854.32.641.159 1.154 0 1.666-.373.251-.337.424-.695.513-1.063a10.2 10.2 0 00.897-1.94l11.832-.611c2.008 0 2.35-1.595.214-1.781a121.415 121.415 0 00-12.003-.718z" fill="#0C0F1E"/><path fill-rule="evenodd" clip-rule="evenodd" d="M101.818 47.955c0-.771.214-1.914 0-2.87-.641-3.11-4.613-3.164-8.885-3.19a8.71 8.71 0 00.214-1.462c-.38-1.15-1.317-2.198-2.684-3.006-1.367-.808-3.099-1.336-4.963-1.513-9.099-1.355-17.087 3.27-15.463 6.752-7.305 1.249-7.818 1.169-8.544 1.993-2.007 2.817-2.007 6.591-2.007 14.75.683 4.094 2.733 1.941 2.776 1.675v-5.05c0-.85.598-4.438.556-4.438.11-1.817.688-3.612 1.708-5.316 8.71-1.557 17.845-1.974 26.827-1.223h3.374c.726 0 2.221 0 1.922.213-.299.213 0 10.818 0 12.36v2.311c0 .93 3.29.904-28.62.665-3.674 0-3.76-.16-4.272 0-.173.053-.326.13-.445.224a.728.728 0 00-.244.323.506.506 0 00.007.357.75.75 0 00.255.319c.726.664.726.425 11.62.69 28.107.745 25.245 1.781 26.185-4.783a40.99 40.99 0 00.683-9.781zM72.984 42.32c-.555-3.057 13.2-5.13 16.574-1.967.371.45.491.965.342 1.462a107.778 107.778 0 00-16.916.505zM44.79 20.897c-2.048-.823-4.299-1.433-6.663-1.807C55.214 14.864 50.173-.365 32.446.007 9.549 1.043 10.019 14.73 20.058 18.612c3.417 1.302 2.392-.293-3.888 2.472-7.779 3.254-13.205 8.27-15.121 13.98-1.176 2.477-1.366 5.095-.556 7.628.36.743 1.025 1.416 1.93 1.95.905.535 2.019.914 3.23 1.099a11.42 11.42 0 003.681-.043c1.2-.213 2.29-.617 3.163-1.172-.043 3.892.66 7.773 2.093 11.561 1.324 3.562 4.784 6.964 10.722 6.937 10.081 0 11.96.452 14.652-1.541 3.405-3.723 5.678-7.805 6.706-12.04.3-1.409.513-2.977.727-5.024.834.56 1.883.978 3.05 1.215 1.165.237 2.409.286 3.613.14 4.87-.53 5.895-2.896 5.938-5.82-.231-3.664-1.706-7.256-4.326-10.54-2.621-3.285-6.33-6.187-10.881-8.517zM32.746 3.09a17.076 17.076 0 014.458.35c1.43.31 2.742.802 3.848 1.445 1.107.644 1.984 1.424 2.577 2.291s.887 1.802.864 2.744c-2.469-.578-4.66-1.538-6.365-2.79-1.154-.744-1.922-2.153-4.272-2.658-3.204-.638-3.93 2.844-11.362 4.837a22.586 22.586 0 01-4.7.771c.812-4.731 7.519-6.778 14.952-6.99zM21.852 16.858c-1.297-.582-2.358-1.344-3.1-2.225-.74-.881-1.142-1.858-1.172-2.852 4.534.168 9.033-.587 12.815-2.153A14.387 14.387 0 0033.3 8.007c1.874 1.35 4.209 2.42 6.835 3.136 1.29.369 2.656.628 4.058.77-2.435 6.832-17.343 7.097-22.341 4.945zm34.173 25.25c-.191.3-.497.57-.89.782a4.213 4.213 0 01-1.372.439 5.17 5.17 0 01-1.542-.005 4.18 4.18 0 01-1.364-.446 64.174 64.174 0 01-4.272-8.213c0-.212-4.272-1.488-4.272 1.435 0 1.515.598 5.077.47 6.273-.04 4.404-1.283 8.772-3.674 12.917-.683 1.223-2.434 4.678-4.271 4.678h-4.272a54.775 54.775 0 00.342-15.947c0-.24-.153-.47-.426-.64-.272-.169-.642-.264-1.027-.264-.385 0-.754.095-1.027.265-.272.17-.425.4-.425.639-1.752 8.983-2.05 8.664-.683 15.947h-2.008c-3.204 0-4.998-2.525-5.682-4.492-5.553-16.399 1.666-22.113-4.271-21.582-2.392.186-1.752 1.569-4.272 6.751-.36.757-.817 1.495-1.367 2.206-.354.242-.81.418-1.315.507a4.48 4.48 0 01-1.547-.002c-2.905-.266-2.905-2.18-2.905-3.854.24-3.99 2.14-7.872 5.51-11.269 3.493-3.276 8.475-5.83 14.311-7.336a34.721 34.721 0 0113.157 0c2.151.343 4.2.9 6.066 1.648 2.849 1.43 5.277 3.157 7.176 5.103 2.775 2.742 4.715 5.778 5.724 8.957a9.391 9.391 0 01-.085 5.555l.213-.053z" fill="#0C0F1E"/><path fill-rule="evenodd" clip-rule="evenodd" d="M29.583 31.529c.06.216.24.413.51.554.27.142.611.22.964.22s.695-.078.964-.22c.27-.141.45-.338.51-.554a22.188 22.188 0 00-.256-10.1c-.385-1.063-2.264-.744-2.606 0-1.271 3.318-1.3 6.774-.086 10.1z" fill="#0C0F1E"/></svg>