<svg width="37" height="30" fill="none" xmlns="http://www.w3.org/2000/svg"><path fill-rule="evenodd" clip-rule="evenodd" d="M29.328 23.923c0-.114-.09-1.201-.47-1.265-.378-.063-.484 0-.711.342-.138.339-.25.685-.333 1.036-2.212.14-3.03.633-4.756.67-.605.114-.53.746.273.797 1.44.12 2.891.12 4.331 0 0 .847 0 .986.258 1.353a.52.52 0 00.303.151c.227.076.409 0 .59-.177.09-.16.15-.33.182-.505.133-.301.24-.61.318-.923l4.195-.291c.712 0 .833-.759.076-.847a32.245 32.245 0 00-4.256-.341z" fill="#0C0F1E"/><path fill-rule="evenodd" clip-rule="evenodd" d="M36.098 22.81c0-.366.075-.91 0-1.365-.227-1.48-1.636-1.505-3.15-1.517.04-.23.065-.463.075-.696-.134-.546-.466-1.045-.951-1.43a3.56 3.56 0 00-1.76-.719c-3.225-.645-6.057 1.555-5.482 3.211-2.59.595-2.771.556-3.029.948-.711 1.34-.711 3.136-.711 7.017.242 1.947.969.923.984.796v-2.402c0-.404.212-2.11.197-2.11.04-.865.244-1.719.605-2.53a27.676 27.676 0 019.511-.58h1.197c.257 0 .787 0 .681.1-.106.101 0 5.146 0 5.879v1.1c0 .442 1.166.43-10.147.316-1.302 0-1.332-.076-1.514 0a.448.448 0 00-.158.107.356.356 0 00-.087.153.32.32 0 00.003.17.36.36 0 00.09.152c.258.316.258.202 4.12.328 9.965.354 8.95.847 9.283-2.276.22-1.543.301-3.098.243-4.652zm-10.223-2.68c-.197-1.454 4.68-2.44 5.876-.936a.93.93 0 01.121.696 28.552 28.552 0 00-5.997.24zM15.88 9.94a8.844 8.844 0 00-2.363-.86c6.058-2.01 4.271-9.254-2.014-9.077-8.117.493-7.95 7.004-4.392 8.85 1.212.62.848-.14-1.378 1.176-2.758 1.547-4.682 3.934-5.361 6.65a6.38 6.38 0 00-.197 3.628 2.1 2.1 0 00.684.928c.32.254.716.434 1.145.522.43.088.88.081 1.305-.02a2.683 2.683 0 001.121-.558 19.639 19.639 0 00.743 5.5c.469 1.694 1.696 3.312 3.8 3.3 3.575 0 4.241.214 5.195-.734 1.208-1.77 2.014-3.712 2.378-5.727.106-.67.182-1.416.258-2.39.295.267.667.466 1.08.578.414.113.855.136 1.282.067 1.727-.252 2.09-1.378 2.105-2.768-.082-1.743-.604-3.452-1.534-5.014-.929-1.562-2.243-2.943-3.857-4.05zm-4.271-8.47a4.56 4.56 0 011.58.167c.508.147.973.38 1.365.687.392.306.704.677.913 1.09.21.412.315.857.307 1.305a5.603 5.603 0 01-2.257-1.328c-.409-.354-.681-1.024-1.514-1.264-1.136-.303-1.393 1.353-4.029 2.301-.527.197-1.09.32-1.666.367.288-2.25 2.666-3.224 5.301-3.325zM7.747 8.018A3.287 3.287 0 016.648 6.96a2.658 2.658 0 01-.415-1.356c1.607.08 3.202-.28 4.543-1.024.383-.217.73-.477 1.03-.771A6.878 6.878 0 0014.229 5.3a6.4 6.4 0 001.439.367c-.863 3.25-6.149 3.376-7.92 2.351zm12.116 12.01a.984.984 0 01-.316.373 1.25 1.25 0 01-.486.209 1.38 1.38 0 01-.547-.002 1.24 1.24 0 01-.484-.213 35.268 35.268 0 01-1.514-3.906c0-.101-1.515-.708-1.515.683 0 .72.212 2.414.167 2.983a15.802 15.802 0 01-1.302 6.144c-.243.582-.864 2.226-1.515 2.226h-1.514c.316-2.52.356-5.06.12-7.586a.397.397 0 00-.15-.304.571.571 0 00-.364-.126.57.57 0 00-.364.126.397.397 0 00-.151.304c-.621 4.273-.727 4.121-.242 7.585h-.712c-1.136 0-1.772-1.2-2.014-2.136-1.97-7.8.59-10.519-1.515-10.266-.848.089-.62.746-1.514 3.211a6.36 6.36 0 01-.485 1.05 1.047 1.047 0 01-.466.24c-.18.043-.37.043-.549 0-1.03-.127-1.03-1.037-1.03-1.833.086-1.898.759-3.745 1.954-5.36 1.238-1.56 3.005-2.775 5.075-3.49a9.242 9.242 0 014.664 0 8.104 8.104 0 012.15.784 10.12 10.12 0 012.545 2.427 11.463 11.463 0 012.03 4.26 5.94 5.94 0 01-.031 2.643l.076-.025z" fill="#0C0F1E"/><path fill-rule="evenodd" clip-rule="evenodd" d="M10.488 14.997a.433.433 0 00.181.264.597.597 0 00.342.104.597.597 0 00.342-.104.433.433 0 00.18-.264 14.072 14.072 0 00-.09-4.804c-.137-.506-.803-.354-.924 0a8.894 8.894 0 00-.03 4.804z" fill="#0C0F1E"/></svg>