<svg width="72" height="48" fill="none" xmlns="http://www.w3.org/2000/svg"><path fill-rule="evenodd" clip-rule="evenodd" d="M57.906 37.72c0-.18-.179-1.894-.927-1.993-.747-.1-.956 0-1.405.538a9.638 9.638 0 00-.658 1.634c-4.365.22-5.98.997-9.389 1.057-1.196.18-1.047 1.176.538 1.256 2.844.189 5.709.189 8.552 0 0 1.335 0 1.554.509 2.133.149.125.361.21.598.239.448.12.807 0 1.166-.28.176-.252.296-.52.358-.797a7.88 7.88 0 00.629-1.455l8.282-.458c1.406 0 1.645-1.196.15-1.336a79.4 79.4 0 00-8.403-.538z" fill="#0C0F1E"/><path fill-rule="evenodd" clip-rule="evenodd" d="M71.273 35.966c0-.578.15-1.435 0-2.153-.449-2.332-3.23-2.372-6.22-2.392.08-.363.13-.73.15-1.096-.266-.862-.922-1.649-1.879-2.255-.957-.605-2.17-1.001-3.474-1.134-6.369-1.017-11.96 2.452-10.824 5.063-5.114.937-5.472.877-5.98 1.495-1.406 2.113-1.406 4.944-1.406 11.063.478 3.07 1.914 1.456 1.944 1.256v-3.787c0-.638.418-3.33.388-3.33.078-1.362.482-2.708 1.196-3.986 6.097-1.168 12.492-1.48 18.779-.917h2.362c.508 0 1.555 0 1.346.16-.21.16 0 8.113 0 9.269v1.734c0 .698 2.302.678-20.035.498-2.571 0-2.631-.12-2.99 0a.924.924 0 00-.312.169.544.544 0 00-.17.242.405.405 0 00.004.267c.032.088.093.17.18.24.507.498.507.318 8.132.518 19.676.558 17.672 1.335 18.33-3.588.434-2.434.594-4.886.479-7.336zM51.089 31.74c-.389-2.292 9.24-3.847 11.602-1.475.26.338.343.723.239 1.096a70.447 70.447 0 00-11.841.379zM31.354 15.673a20.448 20.448 0 00-4.665-1.355C38.649 11.148 35.12-.274 22.712.005 6.684.782 7.013 11.048 14.04 13.959c2.393.976 1.675-.22-2.72 1.854-5.446 2.44-9.245 6.203-10.586 10.485-.823 1.858-.956 3.821-.389 5.72.252.559.718 1.063 1.351 1.464.634.4 1.413.685 2.261.824a7.463 7.463 0 002.577-.032c.84-.16 1.603-.463 2.214-.88-.03 2.92.461 5.83 1.465 8.672.927 2.67 3.349 5.222 7.505 5.202 7.057 0 8.373.34 10.257-1.156 2.383-2.792 3.975-5.853 4.694-9.03.21-1.056.359-2.233.509-3.767.583.42 1.318.733 2.134.91a7.488 7.488 0 002.53.106c3.409-.399 4.127-2.173 4.157-4.365-.162-2.748-1.194-5.443-3.029-7.906s-4.43-4.64-7.616-6.387zM22.92 2.317c1.057-.058 2.12.031 3.121.263 1.002.232 1.92.601 2.694 1.084.774.482 1.389 1.068 1.804 1.718.414.65.62 1.352.604 2.058-1.728-.433-3.261-1.154-4.455-2.093-.808-.558-1.346-1.614-2.99-1.993-2.243-.478-2.751 2.133-7.954 3.628-1.042.31-2.153.506-3.29.578.569-3.548 5.263-5.083 10.466-5.243zm-7.625 10.326c-.907-.436-1.65-1.007-2.17-1.668-.518-.661-.8-1.393-.82-2.14 3.174.127 6.323-.44 8.97-1.614a9.908 9.908 0 002.034-1.216c1.312 1.012 2.946 1.816 4.784 2.352.904.277 1.86.471 2.84.578-1.704 5.123-12.14 5.323-15.638 3.708zM39.218 31.58a1.703 1.703 0 01-.624.587 2.81 2.81 0 01-.96.33 3.383 3.383 0 01-1.08-.004 2.794 2.794 0 01-.954-.335 49.441 49.441 0 01-2.99-6.16c0-.159-2.99-1.116-2.99 1.077 0 1.137.418 3.808.328 4.705-.029 3.303-.898 6.578-2.572 9.688-.478.916-1.704 3.508-2.99 3.508h-2.99a43.98 43.98 0 00.24-11.96c0-.18-.108-.353-.298-.48a1.316 1.316 0 00-.72-.198c-.269 0-.527.071-.718.198-.19.127-.298.3-.298.48-1.226 6.737-1.435 6.498-.478 11.96h-1.406c-2.242 0-3.498-1.894-3.977-3.369-3.887-12.3 1.167-16.585-2.99-16.186-1.674.14-1.226 1.176-2.99 5.063a9.248 9.248 0 01-.957 1.654 2.284 2.284 0 01-.92.38 2.926 2.926 0 01-1.083 0c-2.034-.2-2.034-1.635-2.034-2.891.169-2.992 1.498-5.904 3.858-8.452 2.444-2.457 5.932-4.373 10.017-5.502a22.714 22.714 0 019.21 0c1.506.257 2.94.674 4.246 1.236 1.994 1.072 3.694 2.367 5.023 3.827 1.942 2.057 3.3 4.334 4.007 6.718a7.526 7.526 0 01-.06 4.166l.15-.04z" fill="#0C0F1E"/><path fill-rule="evenodd" clip-rule="evenodd" d="M20.708 23.647c.042.162.168.31.357.415.189.107.428.165.675.165.247 0 .486-.058.675-.165.189-.106.315-.253.357-.415a17.795 17.795 0 00-.18-7.575c-.27-.798-1.585-.558-1.824 0a11.32 11.32 0 00-.06 7.575z" fill="#0C0F1E"/></svg>