<svg width="22" height="18" fill="none" xmlns="http://www.w3.org/2000/svg"><g clip-path="url(#clip0_13_54)" fill-rule="evenodd" clip-rule="evenodd" fill="#fff"><path d="M21.177 1.935a.653.653 0 00-.258-.305.84.84 0 00-.415-.13c-.303.018-.587.13-.798.315a26.362 26.362 0 00-2.984 3c-2.215 2.49-4.89 5.805-6.085 7.335l-.434.563a19.21 19.21 0 00-3.738-.75 5.211 5.211 0 00-1.77.052.638.638 0 00-.21.116.528.528 0 00-.136.176.84.84 0 00.03.444.973.973 0 00.253.389c.607.63 1.3 1.196 2.064 1.688 1.683 1.147 3.808 2.25 4.57 2.332a.353.353 0 00.224-.053.272.272 0 00.076-.076.229.229 0 00.036-.096.236.236 0 00-.068-.19.329.329 0 00-.206-.095c-1.3-.426-2.5-1.046-3.543-1.83a14.081 14.081 0 01-2.471-1.965 2.193 2.193 0 01-.186-.24.954.954 0 01.213-.037c.898.028 1.79.144 2.657.345a12.93 12.93 0 012.143.607.487.487 0 00.487-.03.36.36 0 00.168-.165v-.038c.098-.127.293-.382.585-.75 1.213-1.5 3.915-4.77 6.129-7.237.992-1.11 1.878-2.062 2.498-2.61a1.5 1.5 0 01.265-.188c-.044.21-.15.488-.23.75a34.908 34.908 0 01-2.852 5.858 53.688 53.688 0 01-4.632 6.938.212.212 0 00-.045.079.191.191 0 00.029.17.242.242 0 00.07.066c.057.036.13.051.2.043a.288.288 0 00.18-.088A62.025 62.025 0 0020.37 5.04c.385-.722.682-1.476.885-2.25a1.42 1.42 0 00-.08-.855z"/><path d="M8.069 10.553c1.115-1.298 2.657-3 4.1-4.576l1.772-1.95c.885-.922 1.558-1.702 2.054-2.152.089-.075.169-.165.24-.233a.254.254 0 010 .113 3.741 3.741 0 01-.195.96c-.098.465-.32 1.035-.585 1.635a.193.193 0 00-.028.194.224.224 0 00.062.085.275.275 0 00.099.054.31.31 0 00.23-.02.252.252 0 00.084-.07.205.205 0 00.04-.093 10.08 10.08 0 001.09-2.7c.07-.615-.24-.908-.647-.945-.25.004-.49.087-.673.232a18.552 18.552 0 00-2.586 2.4 79.91 79.91 0 00-1.772 1.988C9.964 7.11 8.582 8.91 7.546 10.26a.226.226 0 00-.018.18.27.27 0 00.124.148.354.354 0 00.399-.035h.018zM5.899 16.5c-.496-.082-1.417-.975-2.356-1.995-.381-.405-.753-.848-1.107-1.26a18.572 18.572 0 01-1.019-1.297 4.562 4.562 0 01-.487-.75v-.038a9.321 9.321 0 012.374.27.314.314 0 00.205-.007.272.272 0 00.085-.052.226.226 0 00.055-.076.197.197 0 00-.008-.174.234.234 0 00-.062-.072.28.28 0 00-.09-.046 10.083 10.083 0 00-2.453-.503 1.642 1.642 0 00-.761.082.448.448 0 00-.213.195 1.34 1.34 0 00-.027.62c.04.206.127.403.257.58.38.661.84 1.287 1.373 1.868 1.4 1.567 3.348 3.112 4.127 3.21a.357.357 0 00.227-.039.283.283 0 00.083-.07.235.235 0 00.045-.094.22.22 0 00-.02-.229.28.28 0 00-.097-.085.338.338 0 00-.131-.038z"/></g><defs><clipPath id="clip0_13_54"><path fill="#fff" d="M0 0h21.256v18H0z"/></clipPath></defs></svg>