<svg width="37" height="40" fill="none" xmlns="http://www.w3.org/2000/svg"><path fill-rule="evenodd" clip-rule="evenodd" d="M36.766 2.623a1.567 1.567 0 00-.447-.741 1.192 1.192 0 00-.722-.315c-.525.044-1.018.317-1.385.765a58.946 58.946 0 00-5.184 7.286c-3.846 6.048-8.493 14.1-10.57 17.815l-.754 1.367a25.254 25.254 0 00-6.492-1.822 6.527 6.527 0 00-3.077.127c-.135.065-.258.16-.362.283a1.315 1.315 0 00-.238.428c-.05.36-.032.727.053 1.077a2.6 2.6 0 00.44.945 23.224 23.224 0 003.584 4.099c2.923 2.787 6.615 5.464 7.939 5.665.068.01.138.004.205-.018a.498.498 0 00.183-.11.62.62 0 00.134-.187.702.702 0 00-.057-.693.522.522 0 00-.358-.231c-2.259-1.035-4.343-2.54-6.154-4.445a28.057 28.057 0 01-4.292-4.772 5.511 5.511 0 01-.323-.583c.12-.05.243-.08.37-.091 1.56.07 3.108.35 4.615.838a17.83 17.83 0 013.723 1.475.649.649 0 00.846-.073.796.796 0 00.292-.4v-.092c.17-.31.508-.929 1.016-1.821 2.107-3.643 6.8-11.586 10.646-17.579 1.723-2.696 3.261-5.009 4.338-6.339.14-.172.294-.324.462-.455-.077.51-.262 1.184-.4 1.821a102.212 102.212 0 01-4.954 14.227 142.657 142.657 0 01-8.046 16.85.594.594 0 00-.078.192.647.647 0 00.05.414c.03.062.072.116.12.159a.42.42 0 00.35.105.469.469 0 00.312-.214c5.04-8.605 9.333-17.79 12.815-27.415A31.791 31.791 0 0036.905 4.7c.108-.695.06-1.41-.139-2.077z" fill="#fff"/><path fill-rule="evenodd" clip-rule="evenodd" d="M13.997 23.553c1.938-3.151 4.615-7.286 7.123-11.112l3.077-4.736c1.538-2.24 2.708-4.135 3.57-5.228.153-.182.291-.4.415-.564a.864.864 0 010 .273c-.039.79-.153 1.572-.339 2.332-.17 1.129-.554 2.513-1.015 3.97a.643.643 0 00-.049.47.57.57 0 00.107.208.461.461 0 00.172.132.395.395 0 00.398-.047.51.51 0 00.147-.17.615.615 0 00.07-.228 30.717 30.717 0 001.893-6.558C29.69.802 29.151.091 28.443 0c-.435.01-.852.211-1.17.565a39.895 39.895 0 00-4.491 5.829 184.092 184.092 0 00-3.078 4.827c-2.415 3.971-4.815 8.343-6.615 11.622a.746.746 0 00-.031.438c.033.145.11.272.215.358a.476.476 0 00.693-.086h.03zm-3.77 14.445c-.861-.2-2.461-2.367-4.092-4.845-.661-.984-1.308-2.058-1.923-3.06a46.306 46.306 0 01-1.77-3.152 12.23 12.23 0 01-.845-1.821v-.091a11.845 11.845 0 014.123.655.402.402 0 00.357-.016.48.48 0 00.148-.127.578.578 0 00.095-.184.646.646 0 00-.014-.424.56.56 0 00-.108-.174.461.461 0 00-.155-.113 13.305 13.305 0 00-4.262-1.22 2.101 2.101 0 00-1.323.2.957.957 0 00-.37.474 4.514 4.514 0 00-.046 1.505c.069.5.22.98.447 1.41a27.128 27.128 0 002.385 4.535c2.43 3.807 5.815 7.56 7.169 7.796a.442.442 0 00.205 0 .482.482 0 00.19-.094.582.582 0 00.143-.172.687.687 0 00.077-.225.722.722 0 00-.033-.557.584.584 0 00-.168-.206.472.472 0 00-.23-.093z" fill="#fff"/></svg>