<svg width="148" height="211" fill="none" xmlns="http://www.w3.org/2000/svg"><path d="M25.398 180.643a3.33 3.33 0 01-.338.258c-.419.262-.83.339-1.232.232-.404-.107-.723-.408-.957-.901-.298-.502-.502-1.225-.615-2.17-.1-.953-.074-1.821.081-2.605.117-.526.225-.961.326-1.305.1-.344.218-.605.353-.784a2.53 2.53 0 01.72-.661c.226-.079.467-.112.722-.1.266.005.431.074.494.206l.128.038c.068-.043.173.009.315.154.137.133.254.302.351.507.08.168.121.331.122.486.063.257.079.505.046.745-.022.232-.083.38-.185.443-.124.078-.17.153-.135.226.023.048.012.086-.033.114-.057.036-.142.042-.255.019a.583.583 0 01-.29-.147 2.111 2.111 0 01-.078-.349 14.996 14.996 0 00-.131-.645 1.847 1.847 0 00-.13-.411c-.114-.241-.256-.308-.426-.202a.763.763 0 00-.237.242c-.326.548-.527 1.22-.602 2.017-.076.797.008 1.776.252 2.936.07.3.141.528.216.685.057.12.109.213.154.278.057.058.1.086.128.084.068-.011.193-.073.374-.187.418-.261.686-.499.804-.714.264-.431.534-.958.809-1.583.028-.065.067-.167.117-.308.045-.153.098-.272.16-.358.016-.182.053-.306.109-.373a.964.964 0 01.296-.255.98.98 0 01.45-.024c.126.015.154.075.087.18-.034.021-.051.048-.05.079 0 .031.002.053.008.065.051.046.032.253-.057.621a8.56 8.56 0 01-.351 1.11c-.152.36-.273.569-.363.625a.47.47 0 00-.11.093c-.028.033-.03.074-.008.122.023.048-.098.272-.362.672-.26.38-.485.662-.677.845zm4.697-11.562a1.84 1.84 0 01.5-.243c.227-.079.391-.15.493-.214.476-.079.853-.088 1.131-.028.272.049.472.237.598.564.035.134.095.323.181.566.098.236.139.46.123.673.029.092.055.27.079.537.024.266.042.442.053.529.055.762.117 1.278.187 1.547.011.055.015.155.01.298a.851.851 0 00.06.314c.07.113.118.278.148.494.04.209.047.376.019.503a.558.558 0 01-.236.335.646.646 0 01-.51.085.563.563 0 01-.36-.338 7.834 7.834 0 01-.413-1.147.59.59 0 00.007-.356 1.527 1.527 0 01-.07-.238 15.447 15.447 0 00-.212-1.742c-.1-.641-.218-1.105-.355-1.394a.665.665 0 00-.103-.17 19.72 19.72 0 00-1.094.754c-.457.333-.714.517-.77.552a.299.299 0 00-.076.165c-.017.057-.017.104 0 .14.052.171.087.368.105.591l.036.446c.02.41.064.765.133 1.065.046.127.079.458.098.993.067.942.15 1.531.247 1.767-.027.22.028.49.166.811a.304.304 0 01-.024.273 2.108 2.108 0 01-.322.341.457.457 0 01-.272.03 1.448 1.448 0 01-.281-.082 2.782 2.782 0 00-.29-.1c-.091-.193-.187-.594-.286-1.204-.1-.609-.144-1.058-.134-1.345a6.472 6.472 0 01-.194-1.286 44.793 44.793 0 00-.097-.806 34.598 34.598 0 01-.254-1.551 1.332 1.332 0 00-.061-.36.875.875 0 01-.027-.242c.017-.057.07-.161.16-.311.175-.031.314-.079.416-.143a.656.656 0 00.228-.26.322.322 0 01.136-.084l.22-.138.39-.244c.272-.17.444-.285.517-.347zm7.089 9.721c-.09.056-.19.048-.298-.025a.52.52 0 01-.231-.254c-.04-.084-.11-.306-.207-.667-.117-.583-.22-.971-.312-1.164a1.775 1.775 0 01-.095-.292 3.824 3.824 0 00-.095-.339 1.719 1.719 0 00-.07-.472 1.952 1.952 0 00-.148-.493.694.694 0 01-.052-.249c.011-.101.033-.193.067-.276a1.728 1.728 0 01-.104-.357c-.04-.178-.07-.3-.087-.367-.098-.361-.244-1.269-.438-2.726a90.239 90.239 0 01-.417-3.559 6.057 6.057 0 00-.124-1 3.207 3.207 0 00-.199-.649.271.271 0 01-.026-.148c.01-.069.033-.161.066-.276.04-.134.093-.222.16-.264a.367.367 0 01.222-.045c.09.006.184.018.28.036.12.066.22.136.3.211a.696.696 0 01.213.265c.017.036.06.157.13.364.12.253.17.495.148.728-.028.22-.033.317-.016.291.388-.571.78-.981 1.176-1.228.475-.297.92-.364 1.334-.202.426.156.762.492 1.009 1.01.103.217.166.52.191.911.03.372.015.647-.047.826-.068.043-.098.226-.09.549-.056.285-.202.642-.438 1.07-.241.417-.442.644-.6.681a.16.16 0 00-.043.05c-.016.026-.013.063.01.111.022.048-.127.259-.448.632-.322.372-.607.637-.855.792-.136.085-.24.143-.314.173a.648.648 0 01-.264.001c-.039.134-.041.237-.007.309.063.132.121.408.174.828.054.42.046.651-.022.694a.698.698 0 00-.016.104c.006.043.043.075.11.094a3.5 3.5 0 01.104.264.806.806 0 01.062.36c.051.108.103.263.155.465.058.214.087.383.087.508.07.144.112.297.13.458.035.165.03.262-.015.291-.057.066-.008.262.147.587.132.308.187.578.166.81-.022.233-.1.391-.236.476l-.127.103zm-.691-7.418c.17-.107.465-.409.888-.908.429-.518.702-.93.82-1.238.133-.366.217-.714.25-1.047.026-.345-.021-.644-.141-.897a.912.912 0 00-.402-.428c-.142-.083-.31-.064-.502.056-.226.141-.457.395-.693.762a4.756 4.756 0 00-.53 1.198c-.1.344-.132.771-.096 1.279.03.496.1.859.21 1.088.063.132.128.177.196.135zm7.004-2.155a.712.712 0 01-.357.129 2.468 2.468 0 01-.468-.059c-.573-.188-.943-.456-1.11-.805a.735.735 0 01-.068-.192.546.546 0 00-.087-.274l-.077-.162c-.068-.02-.105-.036-.11-.048-.012-.024-.01-.049.008-.075a.378.378 0 00.016-.105c.068-.042.059-.122-.027-.241-.068-.082-.123-.321-.165-.717a5.544 5.544 0 01-.014-1.186c.021-.294.073-.678.156-1.152.094-.481.197-.865.309-1.154.151-.423.305-.761.463-1.016.157-.255.352-.493.583-.716.198-.202.336-.327.415-.377a.34.34 0 01.238-.055 1.09 1.09 0 01.357.058c.374-.047.672.009.894.167.227.139.453.443.676.913.373.783.477 1.819.313 3.109-.07.56-.168 1.019-.29 1.377a9.758 9.758 0 01-.582 1.23 4.228 4.228 0 01-.472.811 2.918 2.918 0 01-.601.54zm.717-2.933c.117-.494.185-.936.206-1.324a7.062 7.062 0 00-.05-1.398c-.04-.24-.13-.505-.267-.794-.172-.361-.314-.537-.428-.529a.826.826 0 00-.382.122c-.248.155-.451.438-.608.849a6.307 6.307 0 00-.349 1.671 15.87 15.87 0 00-.023 2.124c.007.324.068.606.182.847.086.18.195.3.325.359a.475.475 0 00.434-.06c.373-.234.693-.856.96-1.867zm3.86-7.125a.41.41 0 01.197.182c.017.036.038.11.06.22.036.259.046.449.03.568-.073.217-.12.442-.142.674a12.27 12.27 0 00-.03.676l.002.514c.034.072.032.191-.007.356-.028.157-.024.272.01.345.052.108.1.304.148.587.006.199.067.419.181.66l.266.513a.903.903 0 00.255-.066c.09-.056.161-.171.211-.343.135-.334.21-.607.226-.82a3.29 3.29 0 00-.004-.748 1.268 1.268 0 00-.01-.252 3.145 3.145 0 01-.001-.327 5.31 5.31 0 00-.15-1.195c-.1-.485-.212-.86-.338-1.124a.89.89 0 00-.12-.207l-.017-.036-.086-.227a.268.268 0 00-.205-.153c.022-.077-.004-.193-.078-.35a1.534 1.534 0 00-.232-.347.957.957 0 00-.23-.254c-.32-.581-.57-1.058-.747-1.431a8.053 8.053 0 01-.526-1.382c-.011-.055.002-.228.04-.517.033-.302.074-.539.124-.711.112-.288.307-.589.583-.903.276-.313.544-.536.804-.667-.005.019.054-.01.179-.088.282-.177.602-.4.957-.669.113-.102.203-.19.271-.264a4.1 4.1 0 00.312-.5c.028-.064.054-.103.076-.117a.252.252 0 01.12-.075l.654.129c.155.357.19.663.107.918-.072.249-.3.524-.685.827l-.263.141a1.174 1.174 0 00-.186.163.239.239 0 01-.076.071.897.897 0 01-.161.078.46.46 0 00-.17.059c-.09.057-.181.129-.271.216a3.157 3.157 0 01-.297.209 1.136 1.136 0 01-.229.12c-.383.427-.628.807-.734 1.139-.106.332-.053.721.158 1.166.138.227.338.524.6.891.36.478.628.904.806 1.277.045.065.097.127.154.185a.429.429 0 01.102.123c.029.06.035.119.018.176.2.266.351.507.455.724.125.265.189.491.19.678.023.079.08.246.172.501.104.248.156.512.157.792.01.853-.023 1.569-.1 2.149a5.131 5.131 0 01-.485 1.615c-.045.091-.132.2-.262.328s-.234.233-.313.313l-.425.032a2.799 2.799 0 01-.46-.041c-.528-.123-.926-.467-1.195-1.033a3.887 3.887 0 01-.268-.794 5.58 5.58 0 00-.139-.522.6.6 0 01-.078-.35l-.001-.327c.002-.642.02-1.16.052-1.555s.117-.879.256-1.45a2.86 2.86 0 00.101-.25.949.949 0 01.152-.283l.536.063zm7.357-5.702c.272.08.457.222.554.427.104.216.148.68.135 1.392.041.333.063.656.064.967.013.305.008.511-.014.618l.065 1.202c.02.503.031 1.097.035 1.783a37.2 37.2 0 00.068 1.902l-.04.517c-.107 1.317-.221 2.263-.343 2.839-.341.979-.658 1.623-.952 1.931-.124.14-.287.274-.49.401a2.483 2.483 0 01-1.181.387c-.42.043-.706-.035-.86-.236-.052-.077-.066-.185-.044-.324.022-.138.072-.232.152-.282a.17.17 0 01.17-.013c.124.016.286.001.484-.045.215-.041.425-.125.628-.252.08-.05.18-.129.305-.238.203-.189.372-.482.506-.879a7.41 7.41 0 00.3-1.218c.098-.843.153-1.853.164-3.032-.181.051-.388.032-.621-.057a2.772 2.772 0 01-.64-.373c-.176-.155-.276-.288-.3-.399l-.094-.198c-.101.063-.284-.088-.546-.455a10.807 10.807 0 01-.764-1.374 12.053 12.053 0 01-.335-.798 3.405 3.405 0 00-.268-.747 19.672 19.672 0 00-.249-.57l-.034-.072a1.064 1.064 0 01-.112-.329.684.684 0 01.075-.258.784.784 0 01.237-.242c.316-.198.687.149 1.11 1.04.063.132.175.398.336.798.069.175.183.432.344.769.298.626.612 1.148.943 1.566.33.418.64.654.93.707l-.018-.316c-.042-.427-.052-.71-.03-.849-.008-.448-.023-.727-.047-.838a2.911 2.911 0 01-.01-.532l-.012-.625-.106-.825a7.405 7.405 0 01-.083-1.19c0-.125.002-.306.006-.543a4.33 4.33 0 01.023-.553.534.534 0 01.11-.279c.05-.141.103-.229.16-.265.045-.028.141-.041.289-.04zm7.965 3.618c-.056.098-.172.147-.348.148a1.542 1.542 0 01-.553-.146 1.254 1.254 0 01-.402-.382 20.387 20.387 0 01-.515-1.037c-.057-.12-.108-.166-.154-.138-.033.021-.084.131-.151.329a9.05 9.05 0 00-.243.738c-.15.485-.31.889-.479 1.213-.168.325-.335.53-.499.617-.124.078-.303.072-.535-.016a2.05 2.05 0 01-.623-.431 2.239 2.239 0 01-.292-.474c-.24-.505-.436-1.18-.588-2.022-.14-.85-.203-1.615-.19-2.295.02-.7.13-1.113.334-1.24.17-.106.423-.007.759.299.068.051.114.1.136.148.04.085.036.197-.015.338-.06.335-.064.868-.01 1.599.056.732.135 1.393.24 1.983.116.584.214.851.293.801.158-.099.313-.282.465-.548a4.85 4.85 0 00.395-.927c.106-.363.184-.724.233-1.083.044-.371.084-.857.12-1.458.092-1.104.128-1.736.11-1.897.01-.443.025-.734.047-.873a.786.786 0 01.186-.397l.237-.148c.074-.03.178-.026.315.014.096-.013.161 0 .195.042.04.022.077.069.112.141l.046.838.028.475c.012.055.015.232.011.532.032.776.07 1.394.111 1.852.042.458.124.907.245 1.347.017.067.06.173.129.317.172.361.326.593.463.695.205.153.38.246.528.279.08.013.13.043.154.091.04.084.012.211-.083.38-.085.162-.155.261-.212.296zm-3.993-7.93c-.621.388-1.294.161-2.018-.683a1.048 1.048 0 01-.129-.177.74.74 0 01-.06-.314c-.001-.062.027-.126.083-.193a.38.38 0 01.161-.124c.181-.051.329-.049.443.005a.59.59 0 01.315.247.664.664 0 01.172.221c.233.245.43.318.587.219.034-.022.108-.099.22-.232.378-.501.625-.953.742-1.354l.377-1.15.008-.029a.353.353 0 01.102-.11c.08-.049.144-.067.195-.052a.456.456 0 01.197.135c.04.053.074.11.102.17l.07.145v.046c.056.058.069.238.036.54-.038.289-.11.553-.217.792-.129.315-.38.76-.75 1.336-.057.098-.13.191-.22.278a5.02 5.02 0 01-.416.284zm14.231-.465c.063.008.111.048.146.12a.53.53 0 01.035.306c-.01.101-.039.165-.084.193a1.385 1.385 0 01-.713.212c-.255-.012-.449-.157-.58-.434l-.533-1.119c-.27-.566-.461-.861-.575-.883-.215.009-.414.392-.598 1.147-.172.748-.29 1.58-.353 2.494-.022.295-.043.527-.065.697-.022.17-.055.269-.1.297-.034.021-.105.027-.213.016-.402.111-.677.01-.826-.303a1.933 1.933 0 01-.078-.256 33.827 33.827 0 00-.288-1.531 56.721 56.721 0 00-.322-1.416c-.068-.051-.142-.052-.22-.002-.114.071-.215.212-.305.424-.185.382-.315 1.096-.39 2.142-.124 1.25-.247 2.038-.37 2.365a3.09 3.09 0 01-.058.481c-.022.107-.061.179-.118.214-.045.028-.147.045-.305.051-.426 0-.727-.186-.905-.559-.086-.181-.207-.574-.363-1.18a24.161 24.161 0 01-.382-1.729 7.532 7.532 0 00-.03-.801c-.018-.286-.039-.453-.061-.501a17.572 17.572 0 01-.218-.918c-.07-.332-.096-.526-.079-.584a.5.5 0 01.211-.296c.17-.106.34-.087.51.056.188.055.33.184.428.389.109.229.187.563.234 1.002.02.565.12 1.346.3 2.343.106-.426.173-.749.2-.969.077-.579.21-1.256.398-2.03.156-.628.454-1.081.895-1.356.566-.229 1.086.047 1.56.828a7.787 7.787 0 01.362.992c.011-.1.05-.327.116-.681.078-.361.192-.753.343-1.176.152-.36.335-.607.55-.741a.655.655 0 01.586-.063c.306-.004.573.095.8.296.223.189.428.483.617.88.098.205.17.371.215.498.092.255.153.413.181.473.11.229.258.433.445.612zm4.276-1.455a1.956 1.956 0 01-.829 1.033 1.908 1.908 0 01-.917.293 1.843 1.843 0 01-.91-.204 1.8 1.8 0 01-.632-.449 3.328 3.328 0 01-.523-.821 14.94 14.94 0 01-.31-.744c-.177-.466-.262-1.015-.254-1.645a7.01 7.01 0 01.306-1.855c.178-.611.408-1.099.69-1.463.123-.233.259-.396.405-.488a2.07 2.07 0 01.246-.13l.272-.123c.266-.12.478-.182.637-.188a.792.792 0 01.477.077c.425.125.733.385.922.783.092.317.074.758-.053 1.322a4.92 4.92 0 01-.673 1.592c-.169.2-.383.381-.643.543-.351.219-.67.318-.96.296a.897.897 0 00-.263.094c-.102.064-.147.185-.135.365.024.173.105.466.243.88.029.091.08.215.155.372.292.614.644.831 1.057.65.29-.102.49-.189.603-.259.136-.085.265-.229.389-.431l.228-.4a.995.995 0 00.117-.261l.076-.258c.01-.039.028-.096.05-.172a.41.41 0 01.067-.183.353.353 0 01.102-.11c.045-.029.11-.03.195-.006.08.013.142.021.187.024.102-.064.162 0 .18.192.012.18-.03.433-.124.757-.09.306-.215.612-.378.917zm-1.839-3.819c.152-.204.273-.475.362-.812.1-.344.116-.588.047-.732a.455.455 0 00-.324-.266c-.148-.033-.312.007-.493.12a1.29 1.29 0 00-.288.227c-.135.148-.258.397-.37.748a6.339 6.339 0 00-.259.982c-.055.316-.057.481-.006.496.108.073.354-.011.739-.251a2.18 2.18 0 00.592-.512zm-42.045 53.833c.096.049.162.11.196.182.017.036.038.109.06.22.036.259.046.448.03.568-.073.217-.12.442-.142.674a12.13 12.13 0 00-.03.676l.002.514c.034.072.032.19-.007.355-.028.158-.024.273.01.346.052.108.1.304.147.587.007.199.068.419.182.66l.266.513a.903.903 0 00.255-.066c.09-.056.161-.171.211-.343.135-.334.21-.607.226-.82a3.29 3.29 0 00-.004-.748 1.268 1.268 0 00-.01-.252 3.145 3.145 0 01-.001-.327 5.305 5.305 0 00-.15-1.195c-.1-.485-.212-.86-.338-1.125a.9.9 0 00-.12-.206l-.017-.036-.086-.227a.268.268 0 00-.205-.153c.022-.077-.004-.193-.078-.35a1.527 1.527 0 00-.232-.347.957.957 0 00-.23-.254 28.22 28.22 0 01-.747-1.431 8.077 8.077 0 01-.526-1.382c-.011-.055.002-.228.04-.517.033-.302.074-.539.124-.711.113-.288.307-.59.583-.903.276-.313.544-.536.804-.667-.005.019.054-.011.179-.088.282-.177.602-.4.957-.67.113-.101.204-.189.271-.263a4.1 4.1 0 00.312-.5c.029-.064.054-.103.076-.117a.252.252 0 01.12-.075l.654.129c.155.357.19.662.107.918-.072.248-.3.524-.685.827l-.263.141a1.123 1.123 0 00-.186.163.239.239 0 01-.076.071.966.966 0 01-.161.078.461.461 0 00-.17.059c-.09.056-.181.129-.271.216a3.146 3.146 0 01-.297.209 1.133 1.133 0 01-.229.12c-.383.427-.628.807-.734 1.139-.106.332-.053.721.159 1.166.137.227.337.524.6.891.359.478.627.903.805 1.277.045.065.097.126.154.185a.429.429 0 01.102.123c.029.06.035.119.018.176.2.266.351.507.455.724.125.265.189.49.19.677.023.08.08.247.172.502.104.248.156.512.157.792.01.853-.023 1.569-.1 2.148a5.126 5.126 0 01-.485 1.616c-.045.091-.132.2-.262.328s-.234.233-.313.313l-.425.032a2.799 2.799 0 01-.46-.041c-.528-.123-.926-.467-1.195-1.033a3.88 3.88 0 01-.268-.794 5.653 5.653 0 00-.138-.522.601.601 0 01-.079-.35l-.001-.327c.002-.642.02-1.161.052-1.556s.117-.878.256-1.449a2.86 2.86 0 00.101-.25.944.944 0 01.152-.283l.536.063zm8.258 1.561a1.956 1.956 0 01-.828 1.033 1.908 1.908 0 01-.917.293 1.843 1.843 0 01-.91-.204 1.8 1.8 0 01-.632-.449c-.183-.198-.357-.472-.523-.821-.057-.12-.16-.368-.31-.744-.178-.466-.263-1.015-.255-1.645.02-.637.122-1.255.306-1.855.178-.611.409-1.099.69-1.463.124-.233.26-.396.406-.488a1.94 1.94 0 01.246-.13l.272-.123c.265-.12.478-.182.636-.188a.792.792 0 01.477.077c.426.125.733.385.922.783.093.317.075.758-.053 1.322a4.922 4.922 0 01-.672 1.592c-.17.2-.384.381-.644.543-.35.219-.67.318-.96.296a.899.899 0 00-.263.094c-.101.064-.146.185-.134.365.024.173.104.466.242.88.03.091.08.215.155.372.292.614.645.831 1.058.65.289-.102.49-.189.602-.259.136-.085.266-.229.39-.431l.227-.4c.05-.079.09-.166.118-.261a75.854 75.854 0 01.126-.43.411.411 0 01.067-.183.352.352 0 01.101-.11c.045-.029.11-.03.196-.006.08.013.142.021.187.024.102-.064.162 0 .18.192.012.18-.03.433-.124.757-.09.306-.216.612-.379.917zm-1.838-3.819c.152-.204.273-.475.362-.812.1-.344.116-.588.047-.732a.453.453 0 00-.324-.266c-.148-.033-.312.007-.493.12a1.286 1.286 0 00-.288.227c-.135.148-.259.397-.37.748a6.327 6.327 0 00-.26.982c-.055.316-.057.481-.005.496.108.073.354-.011.738-.251.26-.163.458-.333.593-.512zm3.753-5.347c.543-.308 1.064-.353 1.564-.134.449.203.76.486.931.847.195.409.266 1.083.214 2.022-.054.534-.418 1.48-1.092 2.839l-.227.493c.222.096.515.327.88.693.375.358.635.688.778.989.035.072.063.163.087.274.101-.033.243-.137.423-.312a5 5 0 01.381-.309l.281.082c.131.028.233.058.307.09a.36.36 0 01.162.156l.026.054a.28.28 0 01.01.205.293.293 0 01-.093.175 1.98 1.98 0 01-.28.199 8.684 8.684 0 00-.466.315c-.164.118-.3.249-.406.394-.022.17-.032.364-.031.582.006.23.013.398.02.504.03.496.03.957-.003 1.383-.032.427-.146.896-.341 1.409a4.977 4.977 0 01-.278.619c-.101.188-.191.307-.27.357-.31.366-.613.64-.906.824-.532.333-1.087.414-1.666.245a4.924 4.924 0 00-.435-.36 5.033 5.033 0 00-.494-.16 1.325 1.325 0 01-.088-.414 1.565 1.565 0 01-.002-.514c.194-.918.654-1.815 1.381-2.692l.102-.157a.705.705 0 01.194-.192c.034-.021.051-.063.05-.125a.762.762 0 01.026-.133c.017-.026.056-.036.119-.028a.459.459 0 00.075-.164.26.26 0 01.178-.135c.017.005.172-.162.466-.502.31-.334.521-.568.634-.701-.126-.327-.23-.575-.31-.744-.252-.53-.517-.825-.795-.885a1.586 1.586 0 01-.546-.315 5.323 5.323 0 00-.418-.371.849.849 0 01.141-.674c.27-.419.553-1.01.85-1.774a9.793 9.793 0 00.619-2.261c.038-.29.02-.513-.055-.67-.149-.313-.444-.362-.885-.149-.418.262-.823.906-1.215 1.932a1.33 1.33 0 01-.152.142c-.181.113-.394.035-.64-.233a.984.984 0 01-.027-.381 3.32 3.32 0 01.091-.503l.075-.445a4.83 4.83 0 00.202-.36c.079-.175.146-.31.202-.408a.856.856 0 01.271-.263 1.15 1.15 0 00.186-.164.873.873 0 01.195-.192zm2.287 10.404c-.05-.015-.105-.005-.161.031a.872.872 0 00-.245.27 3.12 3.12 0 01-.17.247 1.838 1.838 0 01-.135.178 1.798 1.798 0 01-.169.246 9.41 9.41 0 00-.776 1.095c-.254.424-.413.798-.48 1.12-.033.24-.1.469-.2.688.221.096.405.098.552.006.012.024.074.001.187-.07a3.69 3.69 0 00.601-.493 3.16 3.16 0 00.524-.656c.236-.429.398-1.03.485-1.803a3.289 3.289 0 00-.013-.859zm2.2-13.398l.127-.009a.167.167 0 01.137.009.56.56 0 01.367.309.87.87 0 01.061.36c-.005.206-.018.41-.04.611-.02.356-.03.675-.029.955.013.274.052.648.116 1.123.26-.256.423-.437.49-.541.063-.117.14-.369.235-.756.1-.344.201-.657.302-.939.351-1.141.535-1.756.552-1.845.022-.201.05-.359.083-.473a.769.769 0 01.185-.351c.17-.075.292-.112.365-.111.085-.006.278.014.579.06.068.02.13.09.188.21.109.229.124.431.045.605-.022.045-.154.369-.395.973-.475 1.251-.901 2.267-1.277 3.049.449.266.915.583 1.4.953.16.275.35.413.57.415.222.003.485-.092.79-.282.114-.009.199.016.256.074a.537.537 0 01.162.203c.052.077.095.136.129.178a2.782 2.782 0 00-.177.461c-.055.16-.117.261-.185.304-.08.049-.22.091-.425.125a1.709 1.709 0 01-.56.023 3.72 3.72 0 01-.64-.187c-.215-.083-.684-.345-1.407-.783a87.079 87.079 0 01-1.21-.743c.011.118.018.254.018.41.007.137.021.26.045.371.017.098.06.22.129.364-.033.24-.02.513.038.82.064.288.104.497.122.627.058.307.014.616-.132.926-.209.115-.47.106-.782-.026a.75.75 0 01-.257-.309 1.441 1.441 0 01-.121-.486 10.54 10.54 0 01-.123-.907 110.59 110.59 0 00-.134-1.159 46.514 46.514 0 00-.107-.964c-.047-.47-.083-.745-.106-.824-.04-.178-.044-.464-.012-.859.025-.563 0-1.001-.075-1.313a.598.598 0 01.058-.341.65.65 0 01.245-.317c.125-.078.258-.075.4.007zm8.217 3.485a.712.712 0 01-.357.129 2.468 2.468 0 01-.468-.059c-.573-.188-.943-.456-1.11-.805a.735.735 0 01-.068-.192.546.546 0 00-.087-.274l-.077-.162c-.068-.02-.105-.036-.11-.048-.012-.024-.01-.049.008-.075a.378.378 0 00.016-.105c.068-.042.059-.122-.027-.241-.068-.082-.123-.321-.165-.717a5.544 5.544 0 01-.014-1.186c.021-.294.073-.678.156-1.152.094-.481.197-.865.309-1.154.151-.423.305-.761.463-1.016.157-.255.352-.493.583-.716.198-.202.336-.327.415-.377a.34.34 0 01.238-.055 1.09 1.09 0 01.357.058c.374-.047.672.009.894.167.227.139.453.443.676.913.373.783.477 1.819.313 3.109-.07.56-.168 1.019-.29 1.377a9.758 9.758 0 01-.582 1.23 4.234 4.234 0 01-.472.811 2.921 2.921 0 01-.601.54zm.717-2.933c.117-.494.185-.936.206-1.324a7.062 7.062 0 00-.05-1.398c-.04-.24-.13-.505-.267-.794-.172-.361-.314-.537-.428-.529a.826.826 0 00-.382.122c-.248.155-.451.438-.608.849a6.307 6.307 0 00-.349 1.671 15.854 15.854 0 00-.023 2.124c.007.324.068.606.182.847.086.18.194.3.325.359a.475.475 0 00.434-.06c.373-.234.693-.856.96-1.867zm8.947-8.642c.028-.096.042-.206.041-.33 0-.125.002-.212.007-.263.01-.256.03-.447.057-.574.034-.146.104-.229.212-.25.413-.086.765.022 1.056.324.051.109.11.4.174.875.029.123.064.32.105.591.047.252.096.463.148.634.092.317.172.548.241.693.092.192.217.379.377.561a.44.44 0 00.23-.073c.056-.036.13-.097.22-.185.101-.095.191-.167.27-.216.137.07.248.196.334.377.04.084.086.227.138.429-.169.293-.352.493-.55.602-.17.075-.3.109-.39.103a1.155 1.155 0 01-.324-.078 1.485 1.485 0 00-.34-.115c-.41-.089-.805-.474-1.188-1.156-.09.026-.194.348-.31.967-.16.773-.308 1.341-.443 1.707-.123.358-.314.618-.574.781-.09.056-.167.096-.23.12-.073-.001-.255-.044-.544-.128-.165-.1-.33-.154-.494-.16-.296-.283-.484-.478-.564-.585a1.468 1.468 0 01-.223-.329.689.689 0 01-.07-.331c-.05.016-.093.081-.126.196a2.318 2.318 0 00-.075.398c-.005.05-.027.174-.066.37a1.822 1.822 0 01-.15.516c-.09.212-.213.586-.37 1.121-.139.478-.242.8-.31.967l-.542.339a23.808 23.808 0 00-.476-.077 1.497 1.497 0 01-.571-.228c-.16-.119-.314-.304-.462-.555-.212-.352-.336-.782-.372-1.291l-.057-1.229-.02-.737c-.086-1.166.013-1.837.296-2.014a.594.594 0 01.382-.075c.113.023.238.07.375.141.136.071.25.125.34.161.064.257.063.547-.004.87-.14.447-.165.947-.077 1.502l.02.503c.001.374.01.657.029.849-.015.4.009.666.072.798.04.085.094.106.162.063.192-.12.397-.584.614-1.392l.133-.458a7.93 7.93 0 00.225-.961c.034-.115.078-.392.132-.833.071-.56.132-.941.182-1.144.072-.404.087-.742.046-1.013-.058-.245.04-.424.295-.536.204-.003.374.015.51.055.131.028.279.107.444.238.097.081.157.254.181.52.035.259.054.607.056 1.043-.004.237.017.482.063.734.058.245.096.401.113.468l.087.414.043.137c.052.109.163.234.334.378.13-.16.222-.304.278-.432a2.36 2.36 0 00.134-.412 5.02 5.02 0 01.059-.248c.06-.334.153-.619.276-.852a.653.653 0 01.024-.273 5.46 5.46 0 01.05-.219c.084-.224.115-.407.091-.549l.266-1.244zm12.293-3.846c.063.008.111.048.145.121.04.084.052.186.036.305-.01.101-.039.165-.084.194a1.384 1.384 0 01-.713.211c-.256-.012-.45-.156-.58-.433l-.534-1.12c-.269-.566-.46-.86-.574-.883-.215.01-.415.392-.598 1.147-.172.749-.29 1.58-.353 2.495a13.88 13.88 0 01-.065.696c-.022.17-.055.269-.1.298-.035.021-.105.026-.213.015-.402.111-.678.01-.827-.303a1.862 1.862 0 01-.077-.256 34.09 34.09 0 00-.288-1.531 55.509 55.509 0 00-.322-1.415c-.068-.051-.142-.052-.221-.003-.113.071-.215.212-.304.425-.185.381-.315 1.095-.39 2.141-.124 1.25-.248 2.038-.37 2.365-.011.194-.03.354-.058.481-.022.108-.061.179-.118.215-.045.028-.147.045-.306.05-.425.001-.726-.186-.904-.559-.086-.181-.207-.574-.363-1.179a24.293 24.293 0 01-.382-1.729 7.567 7.567 0 00-.03-.802c-.018-.285-.039-.452-.062-.5a17.62 17.62 0 01-.217-.919c-.07-.332-.096-.526-.08-.583a.494.494 0 01.212-.296c.17-.106.34-.088.51.055.188.055.33.185.428.389.108.229.187.563.234 1.002.02.566.12 1.347.3 2.343.106-.426.173-.748.2-.968.077-.58.21-1.256.398-2.031.156-.628.454-1.08.895-1.356.566-.229 1.086.047 1.56.829.07.144.144.332.224.563.075.218.121.361.138.429.011-.101.05-.328.116-.682.078-.361.192-.753.343-1.175.151-.361.335-.608.55-.742a.655.655 0 01.586-.062 1.14 1.14 0 01.8.296c.223.189.428.482.617.879.097.205.17.371.215.499.092.255.152.412.181.472.109.229.257.433.445.612zm2.964-.166a.713.713 0 01-.356.129 2.555 2.555 0 01-.468-.059c-.574-.188-.944-.456-1.11-.806a.732.732 0 01-.069-.191.543.543 0 00-.086-.274l-.077-.162c-.069-.02-.105-.036-.111-.048-.012-.024-.009-.05.008-.076a.371.371 0 00.016-.104c.068-.042.06-.123-.026-.241-.069-.082-.124-.321-.165-.717a5.545 5.545 0 01-.015-1.186c.022-.295.074-.679.156-1.152.094-.481.198-.865.31-1.154.15-.423.305-.761.462-1.016.158-.255.352-.494.583-.716.198-.202.336-.328.415-.377a.334.334 0 01.238-.055 1.09 1.09 0 01.358.058c.374-.047.671.009.893.167.228.139.453.443.677.913.372.782.476 1.819.313 3.108-.072.56-.168 1.019-.291 1.377a9.698 9.698 0 01-.581 1.231 4.234 4.234 0 01-.472.811 2.922 2.922 0 01-.602.54zm.717-2.933c.117-.495.186-.936.207-1.324a7.062 7.062 0 00-.05-1.398c-.04-.24-.13-.505-.267-.794-.172-.361-.315-.538-.428-.529a.815.815 0 00-.382.122c-.249.155-.452.438-.608.849a6.311 6.311 0 00-.35 1.671 15.87 15.87 0 00-.023 2.124c.007.323.068.606.183.846.086.181.194.301.325.36a.479.479 0 00.433-.061c.373-.233.693-.855.96-1.866zm5.67-.78c-.034.021-.145.098-.331.23a1.346 1.346 0 01-.586.202 1.112 1.112 0 01-.63-.168 2.75 2.75 0 01-.461-.415 2.01 2.01 0 01-.334-.47.752.752 0 01-.06-.22c-.416-1.459-.639-2.405-.67-2.839l-.063-.874a1.86 1.86 0 00-.259-.682l-.034-.073a.643.643 0 01-.02-.503 2.15 2.15 0 00.166-.9 14.382 14.382 0 01-.022-1.065c.004-.455.019-.761.047-.919.038-.258.068-.504.09-.736l.056-.528c.039-.32.11-.616.217-.885.032-.52.235-1.249.61-2.186.157-.411.252-.673.286-.788.017-.057.101-.157.253-.299.147-.154.24-.252.28-.292.079-.081.211-.218.397-.413.05-.078.19-.126.416-.143.233-.036.42-.028.562.024.34.224.557.432.649.625.075.156.124.352.148.587.023.235.042.63.056 1.183.006 1.122-.342 2.41-1.044 3.864a9.734 9.734 0 01-.892 1.87 9.21 9.21 0 01-.71 1.007c-.152.173-.216.393-.192.659a2.7 2.7 0 00.07.471c.052.171.067.295.045.371-.034.115.045.589.236 1.422.191.834.35 1.383.476 1.648a.852.852 0 00.154.231c.057.058.134.081.23.067.141-.135.24-.267.296-.395.061-.148.123-.359.184-.631.116-.619.15-1.164.102-1.634-.017-.13-.05-.29-.096-.479a2.105 2.105 0 01-.079-.49 12.01 12.01 0 00-.403-.802 1.76 1.76 0 00-.342-.395.974.974 0 00.084-.194.24.24 0 01.144-.16c.288-.102.634-.1 1.037.007.12.035.19.123.214.265.138.414.247.705.328.873.006.106.038.328.096.666.063.164.101.335.113.515.009.573.005.966-.01 1.179a5.086 5.086 0 01-.417 1.901l-.388.711zm-.64-14.153a6.416 6.416 0 00-.564.939c-.118.245-.247.607-.386 1.085-.134.459-.272 1.186-.415 2.181-.137.976-.184 1.724-.142 2.245a1.24 1.24 0 00.212-.11c.113-.07.18-.191.202-.36.522-1.092.906-1.997 1.152-2.713.24-.728.337-1.327.29-1.797a6.866 6.866 0 01.014-.478 1.853 1.853 0 00-.054-.529l-.308-.463zm6.423 2.286a.995.995 0 01.322-.341.621.621 0 01.484-.092c.17.018.292.106.367.262a1.3 1.3 0 01.052.202c-.04-.178-.036.156.013.999.05.844.075 1.298.075 1.36l.026.054c.158-.099.285-.108.382-.028.103.061.188.179.257.355-.09.087-.166.19-.228.306a.593.593 0 01-.177.228.281.281 0 00-.093.129.292.292 0 00-.025.179c0 .063.05.274.148.634l.313 1.492a.631.631 0 01-.016.291.489.489 0 01-.1.203 4.586 4.586 0 01-.315.08l-.314.033-.188-.024-.051-.108a1.955 1.955 0 01-.165-.577 11.464 11.464 0 00-.304-1.38c-.107.021-.325.18-.652.479-.334.286-.517.44-.55.461-.051.079-.179.181-.382.309-.328.205-.574.32-.738.344l-.076.118c.029.123.052.264.07.425.053.451.123.767.209.947.057.183.1.336.13.458.034.135.097.329.19.584.148.345.121.58-.082.708a.855.855 0 01-.476.11 1.746 1.746 0 01-.46-.088l-.39-1.56a4.293 4.293 0 00-.113-.515 4.604 4.604 0 01-.088-.555l-.08-.676a14.689 14.689 0 01-.116-1.263l-.151-1.288c-.006-.106-.042-.38-.106-.824a32.117 32.117 0 01-.098-.807.357.357 0 01.177-.368c.175-.125.35-.172.527-.142.181.012.312.086.392.224a1.621 1.621 0 01.112.375l.21 2.845.069.144c.062.008.15-.023.263-.094.09-.057.217-.16.38-.309.176-.156.286-.248.331-.277a13.382 13.382 0 011.043-.722c.158-.099.246-.146.263-.141l-.089-.695c-.1-.703-.134-1.299-.102-1.787a8.497 8.497 0 01-.027-.241c-.017-.13-.035-.275-.053-.436zm5.698 4.405a.722.722 0 01-.357.129 2.555 2.555 0 01-.468-.059c-.574-.188-.943-.457-1.11-.806a.73.73 0 01-.068-.191.543.543 0 00-.087-.274l-.077-.163c-.068-.019-.105-.035-.11-.047-.012-.025-.01-.05.007-.076a.364.364 0 00.017-.104c.068-.042.059-.123-.027-.241-.068-.082-.123-.321-.165-.717a5.538 5.538 0 01-.014-1.186c.02-.295.073-.679.156-1.152.094-.481.197-.866.309-1.154.15-.423.305-.762.463-1.016.157-.255.351-.494.583-.717.197-.201.335-.327.415-.376a.334.334 0 01.237-.055c.085-.007.205.013.358.057.374-.046.672.01.894.168.227.139.453.443.676.913.372.782.477 1.818.313 3.108-.071.56-.168 1.019-.291 1.377a9.881 9.881 0 01-.581 1.231 4.229 4.229 0 01-.472.811 2.926 2.926 0 01-.602.54zm.717-2.933a7.71 7.71 0 00.206-1.324 7.087 7.087 0 00-.05-1.399c-.04-.24-.13-.504-.267-.793-.172-.361-.314-.538-.428-.529a.825.825 0 00-.382.121c-.249.156-.451.439-.608.85a6.311 6.311 0 00-.35 1.671 15.869 15.869 0 00-.023 2.124c.007.323.068.605.183.846.086.181.194.301.325.359a.475.475 0 00.433-.06c.373-.233.693-.855.961-1.866z" fill="#05394B"/><g clip-path="url(#clip0_22_8)"><path d="M37.598 133.366c.4.348.447.581.644.665 15.603 1.416 32.215-3.739 49.698-17.017 4.418-3.344 8.414-7.578 11.848-12.371 7.42-10.24 9.403-21.37 5.079-28.186-2.226-3.577-5.187-6.223-9.906-6.525-2.313 1.965-4.585 3.984-6.831 5.693-3.67 2.774-7.274 4.26-10.574 3.745-2.481-.31-3.702-1.896-3.167-3.942.702-2.686 2.778-4.788 5.012-5.827 3.105-1.45 6.225-2.54 9.237-3.425 1.945-.559 3.871-.627 5.716-.802 7.686-9.38 6.89-18.638-1.804-21.876-1.35.99-2.773 2.054-4.162 2.991-5.189 3.371-10.03 4.793-14.03 3.198-1.529-.615-2.769-1.711-2.026-4.344.576-1.994 2.652-4.096 5.379-5.352 4.32-1.928 8.206-2.194 11.917-2 1.278.117 2.556.234 3.76.427 12.16-14.192 14.964-31.797 3.506-34.683 1.005-.923 1.78-1.801 2.387-2.04.723-.261 1.467.02 1.981.345 4.646 3.292 7.12 8.218 5.169 16.307-1.417 6.043-4.225 11.99-8.075 17.956-.545.835-1.09 1.669-1.595 2.556-.074.075-.067.255-.126.692.44.4.888.982 1.484 1.413 7.01 5.507 7.19 11.908.446 24.567.785.334 1.651.774 2.551 1.086 5.062 2.118 8.344 6.038 9.59 12.112 2.055 9.865-2.689 22.38-12.554 33.214A78.902 78.902 0 0180.64 126.38c-15.216 9.197-29.472 13.471-42.515 11.439-.697-.048-1.36-.223-2.056-.271-.115.022-.304.119-.87.411.79 2.398 2.315 3.864 3.765 5.405 1.336 1.564 2.861 3.03 4.393 4.677-2.05 1.793-3.36 1.803-4.498 1.355-1.258-.607-2.666-1.063-3.554-2.045-2.346-2.704-4.658-5.536-6.674-8.668-1.528-2.498-.311-4.859 3.057-6.482 7.155-3.387 14.351-6.721 21.547-10.056 1.174-.53 2.282-.805 3.768-1.275-.858 2.656-2.37 3.434-3.767 4.19-5.143 2.573-10.164 5.305-15.637 8.306zm38.18-88.69c3.475 2.972 8.487 1.942 13.206-2.553-4.096-.18-7.889-.478-13.207 2.553zm2.264 29.499c3.439 2.068 7.544.545 11.823-4.35-3.92.393-7.487.9-11.823 4.35z" fill="#073B4D"/></g><defs><clipPath id="clip0_22_8"><path fill="#fff" transform="matrix(.6101 .79232 -.70275 .71144 100.584 0)" d="M0 0h77.718v143.128H0z"/></clipPath></defs></svg>